<svg width="12" height="14" viewBox="0 0 12 14" fill="none" xmlns="http://www.w3.org/2000/svg">
<path d="M11.9334 2.78227C11.8448 2.62898 11.6809 2.53404 11.5037 2.53404L9.02295 2.53457V2.03865C9.02295 1.64403 8.86596 1.26532 8.58697 0.986322C8.30797 0.706798 7.9298 0.549805 7.53464 0.549805H4.55799C4.16338 0.549805 3.78466 0.706798 3.50567 0.985793C3.22667 1.26479 3.06968 1.6435 3.06968 2.03812V2.53404L0.820285 2.53457C0.643128 2.53457 0.479237 2.62898 0.390652 2.7828C0.302074 2.93608 0.302074 3.12543 0.390652 3.27872C0.479229 3.43201 0.643128 3.52695 0.820285 3.52695H1.08495V10.9691C1.08549 11.6268 1.34751 12.2575 1.81267 12.7221C2.27784 13.1873 2.90796 13.4487 3.56564 13.4498H8.52705C9.18476 13.4493 9.8154 13.1873 10.28 12.7221C10.7452 12.2569 11.0067 11.6268 11.0077 10.9691V3.52695H11.5037C11.6808 3.52695 11.8447 3.43253 11.9333 3.27872C12.0219 3.1249 12.0219 2.93608 11.9334 2.78227ZM4.06211 2.0381C4.06211 1.90656 4.11462 1.78033 4.20744 1.68751C4.30026 1.59469 4.4265 1.54218 4.55803 1.54218H7.53468C7.66622 1.54218 7.79246 1.59469 7.88528 1.68751C7.9781 1.78033 8.03061 1.90657 8.03061 2.0381V2.53403L4.06205 2.53456L4.06211 2.0381ZM10.0154 10.9686C10.0154 11.3632 9.85842 11.7419 9.57942 12.0209C9.30043 12.2999 8.92171 12.4569 8.5271 12.4569H3.5657C3.17108 12.4569 2.79237 12.2999 2.51337 12.0209C2.23438 11.7419 2.07738 11.3632 2.07738 10.9686V3.52643H10.0154L10.0154 10.9686Z" fill="#9FA9B3"/>
<path d="M4.30978 10.4058C4.46306 10.4944 4.65241 10.4944 4.8057 10.4058C4.95899 10.3173 5.05393 10.1534 5.05393 9.97621V6.00725C5.05393 5.87571 5.00142 5.74948 4.9086 5.65666C4.81578 5.56384 4.68954 5.51133 4.558 5.51133C4.42647 5.51133 4.30023 5.56384 4.20741 5.65666C4.11459 5.74948 4.06208 5.87572 4.06208 6.00725V9.97621C4.06208 10.1539 4.15649 10.3173 4.30978 10.4058Z" fill="#9FA9B3"/>
<path d="M7.28697 10.4058C7.44026 10.4944 7.62961 10.4944 7.7829 10.4058C7.93618 10.3173 8.03112 10.1534 8.03112 9.97621V6.00725C8.03112 5.87571 7.97861 5.74948 7.88579 5.65666C7.79297 5.56384 7.66673 5.51133 7.5352 5.51133C7.40367 5.51133 7.27743 5.56384 7.18461 5.65666C7.09178 5.74948 7.03928 5.87572 7.03928 6.00725V9.97621C7.03875 10.1539 7.13316 10.3173 7.28697 10.4058Z" fill="#9FA9B3"/>
</svg>
