<svg width="49" height="49" viewBox="0 0 49 49" fill="none" xmlns="http://www.w3.org/2000/svg">
<g clip-path="url(#clip0_678_1006)">
<path d="M24.3869 36.2184L12.3869 40.8121C11.8338 41.0184 11.2526 40.5965 11.2807 40.0059L11.9369 27.1715C11.9463 26.9746 11.8807 26.7777 11.7588 26.6184L3.67755 16.6246C3.30255 16.1652 3.52755 15.4809 4.09943 15.3215L16.5119 11.984C16.7088 11.9277 16.8776 11.8059 16.9807 11.6371L23.9932 0.874609C24.3119 0.377734 25.0432 0.377734 25.3619 0.874609L32.3744 11.6465C32.4869 11.8152 32.6557 11.9371 32.8432 11.9934L45.2557 15.3309C45.8275 15.4809 46.0526 16.1746 45.6776 16.634L37.6057 26.6277C37.4838 26.7871 37.4182 26.984 37.4276 27.1809L38.0838 40.0152C38.1119 40.6059 37.5307 41.0277 36.9776 40.8215L24.9776 36.2277C24.7807 36.1527 24.5744 36.1527 24.3869 36.2184Z" fill="#FFB636"/>
<path d="M43.4743 5.34777L39.6306 1.50402C39.5181 1.39152 39.3681 1.34464 39.2181 1.36339C39.0681 1.38214 38.9275 1.47589 38.8525 1.60714L34.8868 9.41652C34.7743 9.61339 34.8118 9.84777 34.9712 10.0071C35.065 10.1009 35.1962 10.1478 35.3181 10.1478C35.4025 10.1478 35.4868 10.129 35.5618 10.0821L43.3618 6.12589C43.4931 6.05089 43.5868 5.91964 43.6056 5.76027C43.6337 5.61027 43.5775 5.46027 43.4743 5.34777ZM14.6931 9.42589L10.7275 1.61652C10.6525 1.48527 10.5212 1.39152 10.3618 1.37277C10.2118 1.35402 10.0525 1.40089 9.94933 1.51339L6.10558 5.35714C5.99308 5.46964 5.94621 5.61964 5.96496 5.76964C5.98371 5.91964 6.07746 6.06027 6.20871 6.13527L14.0181 10.1009C14.0931 10.1478 14.1775 10.1665 14.2618 10.1665C14.3931 10.1665 14.515 10.1196 14.6087 10.0259C14.7681 9.85714 14.7962 9.61339 14.6931 9.42589ZM27.8837 47.8634L25.165 39.5384C25.1462 39.454 25.0993 39.379 25.0431 39.3228C24.9493 39.229 24.8275 39.1821 24.6962 39.1821C24.4712 39.1821 24.2837 39.3321 24.2181 39.5478L21.4993 47.8728C21.4618 48.0228 21.49 48.1821 21.5837 48.304C21.6775 48.4259 21.8181 48.5009 21.9775 48.5009H27.4056C27.5556 48.5009 27.7056 48.4259 27.7993 48.304C27.9025 48.1728 27.9306 48.0134 27.8837 47.8634Z" fill="#FFD469"/>
</g>
<defs>
<clipPath id="clip0_678_1006">
<rect width="48" height="48" fill="white" transform="translate(0.714844 0.5)"/>
</clipPath>
</defs>
</svg>
