<svg width="370" height="167" viewBox="0 0 370 167" fill="none" xmlns="http://www.w3.org/2000/svg">
<rect y="0.517578" width="370" height="166" rx="10" fill="#F1EEE4"/>
<path d="M49.2386 81.4153C47.8466 81.4058 46.4877 81.1644 45.1619 80.6909C43.8362 80.2079 42.643 79.4267 41.5824 78.3471C40.5218 77.2581 39.679 75.814 39.054 74.0147C38.429 72.206 38.1212 69.9664 38.1307 67.296C38.1307 64.8055 38.3958 62.5848 38.9261 60.6341C39.4564 58.6833 40.2188 57.0356 41.2131 55.6909C42.2074 54.3367 43.4053 53.3045 44.8068 52.5943C46.2178 51.8841 47.7945 51.5289 49.5369 51.5289C51.3646 51.5289 52.9839 51.8888 54.3949 52.6085C55.8153 53.3282 56.9612 54.313 57.8324 55.563C58.7036 56.8036 59.2434 58.2051 59.4517 59.7676H54.267C54.0019 58.6502 53.4574 57.76 52.6335 57.0971C51.8191 56.4248 50.7869 56.0886 49.5369 56.0886C47.5199 56.0886 45.9669 56.9645 44.8778 58.7164C43.7983 60.4683 43.2538 62.8736 43.2443 65.9324H43.4432C43.9072 65.099 44.5085 64.3841 45.2472 63.7875C45.9858 63.1909 46.8191 62.7316 47.7472 62.4096C48.6847 62.0782 49.6742 61.9125 50.7159 61.9125C52.4205 61.9125 53.9498 62.3197 55.304 63.1341C56.6676 63.9484 57.7472 65.0706 58.5426 66.5005C59.3381 67.921 59.7311 69.5498 59.7216 71.3869C59.7311 73.2998 59.2955 75.0185 58.4148 76.5431C57.5341 78.0583 56.3078 79.2515 54.7358 80.1227C53.1638 80.9939 51.3314 81.4248 49.2386 81.4153ZM49.2102 77.1539C50.2424 77.1539 51.1657 76.903 51.9801 76.4011C52.7945 75.8992 53.4384 75.2221 53.9119 74.3699C54.3854 73.5176 54.6174 72.5611 54.608 71.5005C54.6174 70.4589 54.3902 69.5166 53.9261 68.6738C53.4716 67.831 52.8419 67.1634 52.0369 66.671C51.232 66.1786 50.3134 65.9324 49.2812 65.9324C48.5142 65.9324 47.7992 66.0791 47.1364 66.3727C46.4735 66.6663 45.8958 67.0734 45.4034 67.5943C44.911 68.1056 44.5227 68.7022 44.2386 69.3841C43.964 70.0564 43.822 70.7761 43.8125 71.5431C43.822 72.5564 44.0587 73.4892 44.5227 74.3414C44.9867 75.1937 45.6259 75.8755 46.4403 76.3869C47.2547 76.8983 48.178 77.1539 49.2102 77.1539ZM75.0364 81.4153C73.1424 81.4153 71.4473 81.0602 69.9511 80.35C68.4549 79.6303 67.2665 78.6454 66.3858 77.3954C65.5146 76.1454 65.0506 74.7155 64.9937 73.1056H70.1074C70.2021 74.2988 70.7182 75.2742 71.6557 76.0318C72.5932 76.7799 73.7201 77.1539 75.0364 77.1539C76.0686 77.1539 76.9871 76.9172 77.792 76.4437C78.597 75.9702 79.2314 75.3121 79.6955 74.4693C80.1595 73.6265 80.3867 72.6653 80.3773 71.5858C80.3867 70.4873 80.1547 69.5119 79.6812 68.6596C79.2078 67.8074 78.5591 67.1397 77.7352 66.6568C76.9114 66.1644 75.9644 65.9181 74.8943 65.9181C74.0231 65.9087 73.1661 66.0697 72.3233 66.4011C71.4805 66.7325 70.8129 67.1681 70.3205 67.7079L65.5619 66.9267L67.0818 51.9267H83.9568V56.3301H71.4426L70.6045 64.0431H70.775C71.3148 63.4087 72.0771 62.8831 73.0619 62.4664C74.0468 62.0403 75.1263 61.8272 76.3006 61.8272C78.0619 61.8272 79.6339 62.2439 81.0165 63.0772C82.3991 63.9011 83.4881 65.0375 84.2835 66.4863C85.079 67.9352 85.4767 69.5924 85.4767 71.4579C85.4767 73.3803 85.0316 75.0943 84.1415 76.6C83.2608 78.0962 82.0345 79.2752 80.4625 80.1369C78.9 80.9892 77.0913 81.4153 75.0364 81.4153ZM102.561 76.6539V75.4267C102.561 74.5252 102.751 73.6956 103.13 72.938C103.516 72.1805 104.077 71.5706 104.811 71.1085C105.546 70.6464 106.436 70.4153 107.482 70.4153C108.558 70.4153 109.459 70.6464 110.186 71.1085C110.914 71.563 111.463 72.1691 111.834 72.9267C112.213 73.6842 112.402 74.5176 112.402 75.4267V76.6539C112.402 77.5555 112.213 78.385 111.834 79.1426C111.455 79.9002 110.898 80.51 110.164 80.9721C109.436 81.4342 108.542 81.6653 107.482 81.6653C106.421 81.6653 105.523 81.4342 104.789 80.9721C104.054 80.51 103.497 79.9002 103.118 79.1426C102.747 78.385 102.561 77.5555 102.561 76.6539ZM105.527 75.4267V76.6539C105.527 77.2524 105.671 77.8017 105.959 78.3017C106.247 78.8017 106.755 79.0517 107.482 79.0517C108.217 79.0517 108.72 78.8055 108.993 78.313C109.273 77.813 109.414 77.26 109.414 76.6539V75.4267C109.414 74.8206 109.281 74.2676 109.016 73.7676C108.751 73.26 108.239 73.0062 107.482 73.0062C106.77 73.0062 106.266 73.26 105.97 73.7676C105.675 74.2676 105.527 74.8206 105.527 75.4267ZM90.7318 63.3358V62.1085C90.7318 61.1994 90.925 60.3661 91.3114 59.6085C91.6977 58.8509 92.2583 58.2448 92.9932 57.7903C93.728 57.3282 94.6182 57.0971 95.6636 57.0971C96.7318 57.0971 97.6295 57.3282 98.3568 57.7903C99.0917 58.2448 99.6447 58.8509 100.016 59.6085C100.387 60.3661 100.573 61.1994 100.573 62.1085V63.3358C100.573 64.2449 100.383 65.0782 100.005 65.8358C99.6333 66.5858 99.0803 67.188 98.3455 67.6426C97.6106 68.0971 96.7167 68.3244 95.6636 68.3244C94.5955 68.3244 93.6939 68.0971 92.9591 67.6426C92.2318 67.188 91.6788 66.582 91.3 65.8244C90.9212 65.0668 90.7318 64.2373 90.7318 63.3358ZM93.7205 62.1085V63.3358C93.7205 63.9418 93.8606 64.4949 94.1409 64.9949C94.4288 65.4873 94.9364 65.7335 95.6636 65.7335C96.3909 65.7335 96.8909 65.4873 97.1636 64.9949C97.4439 64.4949 97.5841 63.9418 97.5841 63.3358V62.1085C97.5841 61.5024 97.4515 60.9494 97.1864 60.4494C96.9212 59.9418 96.4136 59.688 95.6636 59.688C94.9439 59.688 94.4402 59.9418 94.1523 60.4494C93.8644 60.957 93.7205 61.51 93.7205 62.1085ZM92.0273 81.0176L108.027 57.7449H110.868L94.8682 81.0176H92.0273Z" fill="#143761"/>
<path d="M38.2614 128.018H36.3977L40.5852 116.381H42.6136L46.8011 128.018H44.9375L41.6477 118.495H41.5568L38.2614 128.018ZM38.5739 123.461H44.6193V124.938H38.5739V123.461ZM52.6117 119.29V120.654H47.6799V119.29H52.6117ZM49.0322 128.018V118.279C49.0322 117.733 49.1515 117.281 49.3901 116.921C49.6287 116.557 49.945 116.287 50.339 116.108C50.7329 115.927 51.1609 115.836 51.6231 115.836C51.964 115.836 52.2556 115.864 52.4981 115.921C52.7405 115.974 52.9204 116.023 53.0378 116.069L52.6401 117.444C52.5606 117.421 52.4583 117.394 52.3333 117.364C52.2083 117.33 52.0568 117.313 51.8787 117.313C51.4659 117.313 51.1704 117.415 50.9924 117.62C50.8181 117.824 50.731 118.12 50.731 118.506V128.018H49.0322ZM58.678 119.29V120.654H53.7461V119.29H58.678ZM55.0984 128.018V118.279C55.0984 117.733 55.2177 117.281 55.4564 116.921C55.695 116.557 56.0113 116.287 56.4052 116.108C56.7992 115.927 57.2272 115.836 57.6893 115.836C58.0302 115.836 58.3219 115.864 58.5643 115.921C58.8067 115.974 58.9867 116.023 59.1041 116.069L58.7064 117.444C58.6268 117.421 58.5245 117.394 58.3995 117.364C58.2745 117.33 58.123 117.313 57.945 117.313C57.5321 117.313 57.2367 117.415 57.0586 117.62C56.8844 117.824 56.7973 118.12 56.7973 118.506V128.018H55.0984ZM63.9232 128.194C63.105 128.194 62.391 128.006 61.7811 127.631C61.1713 127.256 60.6978 126.732 60.3607 126.057C60.0236 125.383 59.855 124.595 59.855 123.694C59.855 122.788 60.0236 121.997 60.3607 121.319C60.6978 120.641 61.1713 120.114 61.7811 119.739C62.391 119.364 63.105 119.177 63.9232 119.177C64.7414 119.177 65.4554 119.364 66.0652 119.739C66.6751 120.114 67.1486 120.641 67.4857 121.319C67.8228 121.997 67.9914 122.788 67.9914 123.694C67.9914 124.595 67.8228 125.383 67.4857 126.057C67.1486 126.732 66.6751 127.256 66.0652 127.631C65.4554 128.006 64.7414 128.194 63.9232 128.194ZM63.9289 126.768C64.4592 126.768 64.8986 126.627 65.247 126.347C65.5955 126.067 65.8531 125.694 66.0198 125.228C66.1902 124.762 66.2755 124.249 66.2755 123.688C66.2755 123.131 66.1902 122.62 66.0198 122.154C65.8531 121.684 65.5955 121.307 65.247 121.023C64.8986 120.739 64.4592 120.597 63.9289 120.597C63.3948 120.597 62.9516 120.739 62.5993 121.023C62.2508 121.307 61.9914 121.684 61.8209 122.154C61.6542 122.62 61.5709 123.131 61.5709 123.688C61.5709 124.249 61.6542 124.762 61.8209 125.228C61.9914 125.694 62.2508 126.067 62.5993 126.347C62.9516 126.627 63.3948 126.768 63.9289 126.768ZM70.0477 128.018V119.29H71.6897V120.677H71.7806C71.9397 120.207 72.22 119.838 72.6215 119.569C73.0268 119.296 73.4852 119.16 73.9965 119.16C74.1026 119.16 74.2276 119.163 74.3715 119.171C74.5193 119.179 74.6348 119.188 74.7181 119.199V120.824C74.6499 120.805 74.5287 120.785 74.3545 120.762C74.1802 120.735 74.006 120.722 73.8318 120.722C73.4302 120.722 73.0723 120.807 72.7579 120.978C72.4473 121.144 72.2011 121.377 72.0193 121.677C71.8374 121.972 71.7465 122.309 71.7465 122.688V128.018H70.0477ZM79.3028 128.188C78.5983 128.188 77.9695 128.008 77.4165 127.648C76.8672 127.285 76.4354 126.768 76.121 126.097C75.8104 125.423 75.6551 124.614 75.6551 123.671C75.6551 122.728 75.8123 121.921 76.1267 121.251C76.4449 120.58 76.8805 120.067 77.4335 119.711C77.9866 119.355 78.6134 119.177 79.3142 119.177C79.8559 119.177 80.2915 119.268 80.621 119.449C80.9544 119.627 81.2119 119.836 81.3937 120.074C81.5794 120.313 81.7233 120.523 81.8256 120.705H81.9278V116.381H83.6267V128.018H81.9676V126.66H81.8256C81.7233 126.845 81.5756 127.057 81.3824 127.296C81.193 127.535 80.9316 127.743 80.5983 127.921C80.265 128.099 79.8331 128.188 79.3028 128.188ZM79.6778 126.739C80.1665 126.739 80.5794 126.61 80.9165 126.353C81.2574 126.091 81.515 125.73 81.6892 125.268C81.8672 124.805 81.9562 124.268 81.9562 123.654C81.9562 123.048 81.8691 122.518 81.6949 122.063C81.5206 121.608 81.265 121.254 80.9278 121.001C80.5907 120.747 80.1741 120.62 79.6778 120.62C79.1665 120.62 78.7403 120.752 78.3994 121.018C78.0585 121.283 77.8009 121.644 77.6267 122.103C77.4562 122.561 77.371 123.078 77.371 123.654C77.371 124.237 77.4581 124.762 77.6324 125.228C77.8066 125.694 78.0642 126.063 78.4051 126.336C78.7498 126.605 79.1741 126.739 79.6778 126.739ZM88.7512 128.211C88.1982 128.211 87.6982 128.108 87.2512 127.904C86.8042 127.696 86.4501 127.394 86.1887 127.001C85.9311 126.607 85.8023 126.124 85.8023 125.552C85.8023 125.059 85.897 124.654 86.0864 124.336C86.2758 124.018 86.5315 123.766 86.8535 123.58C87.1754 123.394 87.5353 123.254 87.933 123.16C88.3307 123.065 88.736 122.993 89.1489 122.944C89.6716 122.883 90.0959 122.834 90.4216 122.796C90.7474 122.754 90.9841 122.688 91.1319 122.597C91.2796 122.506 91.3535 122.358 91.3535 122.154V122.114C91.3535 121.618 91.2133 121.233 90.933 120.961C90.6565 120.688 90.2436 120.552 89.6944 120.552C89.1224 120.552 88.6716 120.679 88.3421 120.932C88.0163 121.182 87.791 121.461 87.666 121.768L86.0694 121.404C86.2588 120.874 86.5353 120.446 86.8989 120.12C87.2663 119.79 87.6887 119.552 88.166 119.404C88.6432 119.252 89.1451 119.177 89.6716 119.177C90.0201 119.177 90.3894 119.218 90.7796 119.302C91.1735 119.381 91.541 119.529 91.8819 119.745C92.2266 119.961 92.5088 120.269 92.7285 120.671C92.9482 121.069 93.058 121.586 93.058 122.222V128.018H91.3989V126.824H91.3307C91.2209 127.044 91.0561 127.26 90.8364 127.472C90.6167 127.684 90.3345 127.86 89.9898 128.001C89.6451 128.141 89.2323 128.211 88.7512 128.211ZM89.1205 126.847C89.5902 126.847 89.9917 126.754 90.3251 126.569C90.6622 126.383 90.9179 126.141 91.0921 125.841C91.2701 125.538 91.3591 125.215 91.3591 124.87V123.745C91.2985 123.805 91.1811 123.862 91.0069 123.915C90.8364 123.965 90.6413 124.008 90.4216 124.046C90.202 124.08 89.9879 124.112 89.7796 124.143C89.5713 124.169 89.397 124.192 89.2569 124.211C88.9273 124.252 88.6262 124.323 88.3535 124.421C88.0845 124.519 87.8686 124.662 87.7057 124.847C87.5466 125.029 87.4671 125.271 87.4671 125.574C87.4671 125.995 87.6224 126.313 87.933 126.529C88.2436 126.741 88.6394 126.847 89.1205 126.847ZM95.6172 128.018V116.381H97.316V120.705H97.4183C97.5168 120.523 97.6588 120.313 97.8444 120.074C98.03 119.836 98.2876 119.627 98.6172 119.449C98.9467 119.268 99.3823 119.177 99.924 119.177C100.629 119.177 101.257 119.355 101.81 119.711C102.363 120.067 102.797 120.58 103.111 121.251C103.43 121.921 103.589 122.728 103.589 123.671C103.589 124.614 103.432 125.423 103.117 126.097C102.803 126.768 102.371 127.285 101.822 127.648C101.272 128.008 100.646 128.188 99.941 128.188C99.4107 128.188 98.977 128.099 98.6399 127.921C98.3066 127.743 98.0452 127.535 97.8558 127.296C97.6664 127.057 97.5206 126.845 97.4183 126.66H97.2762V128.018H95.6172ZM97.2819 123.654C97.2819 124.268 97.3709 124.805 97.549 125.268C97.727 125.73 97.9846 126.091 98.3217 126.353C98.6588 126.61 99.0717 126.739 99.5603 126.739C100.068 126.739 100.492 126.605 100.833 126.336C101.174 126.063 101.432 125.694 101.606 125.228C101.784 124.762 101.873 124.237 101.873 123.654C101.873 123.078 101.786 122.561 101.611 122.103C101.441 121.644 101.183 121.283 100.839 121.018C100.498 120.752 100.072 120.62 99.5603 120.62C99.0679 120.62 98.6512 120.747 98.3103 121.001C97.9732 121.254 97.7175 121.608 97.5433 122.063C97.3691 122.518 97.2819 123.048 97.2819 123.654ZM107.355 116.381V128.018H105.656V116.381H107.355ZM113.562 128.194C112.702 128.194 111.962 128.01 111.341 127.643C110.723 127.271 110.246 126.751 109.909 126.08C109.575 125.406 109.409 124.616 109.409 123.711C109.409 122.817 109.575 122.029 109.909 121.347C110.246 120.665 110.716 120.133 111.318 119.751C111.924 119.368 112.632 119.177 113.443 119.177C113.935 119.177 114.413 119.258 114.875 119.421C115.337 119.584 115.752 119.84 116.119 120.188C116.486 120.537 116.776 120.989 116.988 121.546C117.2 122.099 117.306 122.771 117.306 123.563V124.165H110.369V122.893H115.642C115.642 122.446 115.551 122.05 115.369 121.705C115.187 121.357 114.931 121.082 114.602 120.881C114.276 120.68 113.894 120.58 113.454 120.58C112.977 120.58 112.56 120.698 112.204 120.932C111.852 121.163 111.579 121.466 111.386 121.841C111.197 122.213 111.102 122.616 111.102 123.052V124.046C111.102 124.629 111.204 125.126 111.409 125.535C111.617 125.944 111.907 126.256 112.278 126.472C112.649 126.684 113.083 126.79 113.579 126.79C113.901 126.79 114.195 126.745 114.46 126.654C114.725 126.559 114.954 126.419 115.147 126.233C115.341 126.048 115.488 125.819 115.591 125.546L117.199 125.836C117.07 126.309 116.839 126.724 116.505 127.08C116.176 127.432 115.761 127.707 115.261 127.904C114.765 128.097 114.199 128.194 113.562 128.194ZM121.562 126.427L121.476 127.046C121.42 127.501 121.323 127.974 121.187 128.466C121.054 128.963 120.916 129.423 120.772 129.847C120.632 130.271 120.516 130.608 120.425 130.858H119.221C119.27 130.624 119.338 130.305 119.425 129.904C119.512 129.506 119.598 129.061 119.681 128.569C119.764 128.076 119.827 127.574 119.868 127.063L119.925 126.427H121.562ZM128.464 128.018V116.381H130.163V120.705H130.265C130.364 120.523 130.506 120.313 130.691 120.074C130.877 119.836 131.134 119.627 131.464 119.449C131.794 119.268 132.229 119.177 132.771 119.177C133.475 119.177 134.104 119.355 134.657 119.711C135.21 120.067 135.644 120.58 135.958 121.251C136.277 121.921 136.436 122.728 136.436 123.671C136.436 124.614 136.278 125.423 135.964 126.097C135.65 126.768 135.218 127.285 134.669 127.648C134.119 128.008 133.492 128.188 132.788 128.188C132.258 128.188 131.824 128.099 131.487 127.921C131.153 127.743 130.892 127.535 130.703 127.296C130.513 127.057 130.367 126.845 130.265 126.66H130.123V128.018H128.464ZM130.129 123.654C130.129 124.268 130.218 124.805 130.396 125.268C130.574 125.73 130.831 126.091 131.169 126.353C131.506 126.61 131.919 126.739 132.407 126.739C132.915 126.739 133.339 126.605 133.68 126.336C134.021 126.063 134.278 125.694 134.453 125.228C134.631 124.762 134.72 124.237 134.72 123.654C134.72 123.078 134.633 122.561 134.458 122.103C134.288 121.644 134.03 121.283 133.686 121.018C133.345 120.752 132.919 120.62 132.407 120.62C131.915 120.62 131.498 120.747 131.157 121.001C130.82 121.254 130.564 121.608 130.39 122.063C130.216 122.518 130.129 123.048 130.129 123.654ZM144.032 124.398V119.29H145.736V128.018H144.066V126.506H143.975C143.774 126.972 143.452 127.36 143.009 127.671C142.57 127.978 142.022 128.131 141.367 128.131C140.806 128.131 140.31 128.008 139.878 127.762C139.45 127.512 139.113 127.143 138.867 126.654C138.625 126.165 138.503 125.561 138.503 124.841V119.29H140.202V124.637C140.202 125.232 140.367 125.705 140.696 126.057C141.026 126.41 141.454 126.586 141.981 126.586C142.299 126.586 142.615 126.506 142.929 126.347C143.248 126.188 143.511 125.948 143.719 125.626C143.931 125.304 144.035 124.894 144.032 124.398ZM151.446 128.188C150.741 128.188 150.113 128.008 149.56 127.648C149.01 127.285 148.579 126.768 148.264 126.097C147.954 125.423 147.798 124.614 147.798 123.671C147.798 122.728 147.955 121.921 148.27 121.251C148.588 120.58 149.024 120.067 149.577 119.711C150.13 119.355 150.757 119.177 151.457 119.177C151.999 119.177 152.435 119.268 152.764 119.449C153.097 119.627 153.355 119.836 153.537 120.074C153.722 120.313 153.866 120.523 153.969 120.705H154.071V116.381H155.77V128.018H154.111V126.66H153.969C153.866 126.845 153.719 127.057 153.526 127.296C153.336 127.535 153.075 127.743 152.741 127.921C152.408 128.099 151.976 128.188 151.446 128.188ZM151.821 126.739C152.31 126.739 152.722 126.61 153.06 126.353C153.401 126.091 153.658 125.73 153.832 125.268C154.01 124.805 154.099 124.268 154.099 123.654C154.099 123.048 154.012 122.518 153.838 122.063C153.664 121.608 153.408 121.254 153.071 121.001C152.734 120.747 152.317 120.62 151.821 120.62C151.31 120.62 150.883 120.752 150.543 121.018C150.202 121.283 149.944 121.644 149.77 122.103C149.599 122.561 149.514 123.078 149.514 123.654C149.514 124.237 149.601 124.762 149.776 125.228C149.95 125.694 150.207 126.063 150.548 126.336C150.893 126.605 151.317 126.739 151.821 126.739ZM162.014 131.472C161.32 131.472 160.724 131.381 160.224 131.199C159.728 131.018 159.322 130.777 159.008 130.478C158.694 130.179 158.459 129.851 158.303 129.495L159.764 128.893C159.866 129.059 160.002 129.235 160.173 129.421C160.347 129.61 160.582 129.771 160.877 129.904C161.177 130.037 161.561 130.103 162.031 130.103C162.675 130.103 163.207 129.946 163.627 129.631C164.048 129.321 164.258 128.824 164.258 128.143V126.427H164.15C164.048 126.612 163.9 126.819 163.707 127.046C163.517 127.273 163.256 127.47 162.923 127.637C162.589 127.804 162.156 127.887 161.622 127.887C160.932 127.887 160.311 127.726 159.758 127.404C159.209 127.078 158.773 126.599 158.451 125.966C158.133 125.33 157.974 124.548 157.974 123.62C157.974 122.692 158.131 121.896 158.445 121.233C158.764 120.571 159.199 120.063 159.752 119.711C160.305 119.355 160.932 119.177 161.633 119.177C162.175 119.177 162.612 119.268 162.945 119.449C163.279 119.627 163.538 119.836 163.724 120.074C163.913 120.313 164.059 120.523 164.161 120.705H164.286V119.29H165.951V128.211C165.951 128.961 165.777 129.576 165.428 130.057C165.08 130.538 164.608 130.894 164.014 131.126C163.423 131.357 162.756 131.472 162.014 131.472ZM161.997 126.478C162.485 126.478 162.898 126.364 163.235 126.137C163.576 125.906 163.834 125.576 164.008 125.148C164.186 124.716 164.275 124.199 164.275 123.597C164.275 123.01 164.188 122.493 164.014 122.046C163.839 121.599 163.584 121.251 163.247 121.001C162.909 120.747 162.493 120.62 161.997 120.62C161.485 120.62 161.059 120.752 160.718 121.018C160.377 121.279 160.12 121.635 159.945 122.086C159.775 122.537 159.69 123.04 159.69 123.597C159.69 124.169 159.777 124.671 159.951 125.103C160.125 125.535 160.383 125.872 160.724 126.114C161.069 126.357 161.493 126.478 161.997 126.478ZM172.151 128.194C171.291 128.194 170.551 128.01 169.929 127.643C169.312 127.271 168.835 126.751 168.497 126.08C168.164 125.406 167.997 124.616 167.997 123.711C167.997 122.817 168.164 122.029 168.497 121.347C168.835 120.665 169.304 120.133 169.907 119.751C170.513 119.368 171.221 119.177 172.032 119.177C172.524 119.177 173.001 119.258 173.463 119.421C173.926 119.584 174.34 119.84 174.708 120.188C175.075 120.537 175.365 120.989 175.577 121.546C175.789 122.099 175.895 122.771 175.895 123.563V124.165H168.958V122.893H174.23C174.23 122.446 174.14 122.05 173.958 121.705C173.776 121.357 173.52 121.082 173.191 120.881C172.865 120.68 172.482 120.58 172.043 120.58C171.566 120.58 171.149 120.698 170.793 120.932C170.441 121.163 170.168 121.466 169.975 121.841C169.785 122.213 169.691 122.616 169.691 123.052V124.046C169.691 124.629 169.793 125.126 169.997 125.535C170.206 125.944 170.496 126.256 170.867 126.472C171.238 126.684 171.672 126.79 172.168 126.79C172.49 126.79 172.783 126.745 173.049 126.654C173.314 126.559 173.543 126.419 173.736 126.233C173.929 126.048 174.077 125.819 174.179 125.546L175.787 125.836C175.658 126.309 175.427 126.724 175.094 127.08C174.765 127.432 174.35 127.707 173.85 127.904C173.354 128.097 172.787 128.194 172.151 128.194ZM182.014 119.29V120.654H177.247V119.29H182.014ZM178.525 117.199H180.224V125.455C180.224 125.785 180.274 126.033 180.372 126.199C180.47 126.362 180.597 126.474 180.753 126.535C180.912 126.591 181.084 126.62 181.27 126.62C181.406 126.62 181.525 126.61 181.628 126.591C181.73 126.573 181.809 126.557 181.866 126.546L182.173 127.949C182.075 127.987 181.934 128.025 181.753 128.063C181.571 128.105 181.344 128.127 181.071 128.131C180.624 128.139 180.207 128.059 179.821 127.893C179.434 127.726 179.122 127.468 178.883 127.12C178.645 126.771 178.525 126.334 178.525 125.807V117.199ZM188.898 122.364V123.836H183.739V122.364H188.898ZM195.476 119.29V120.654H190.544V119.29H195.476ZM191.897 128.018V118.279C191.897 117.733 192.016 117.281 192.254 116.921C192.493 116.557 192.809 116.287 193.203 116.108C193.597 115.927 194.025 115.836 194.487 115.836C194.828 115.836 195.12 115.864 195.362 115.921C195.605 115.974 195.785 116.023 195.902 116.069L195.504 117.444C195.425 117.421 195.323 117.394 195.198 117.364C195.073 117.33 194.921 117.313 194.743 117.313C194.33 117.313 194.035 117.415 193.857 117.62C193.683 117.824 193.595 118.12 193.595 118.506V128.018H191.897ZM197.389 128.018V119.29H199.031V120.677H199.122C199.281 120.207 199.561 119.838 199.963 119.569C200.368 119.296 200.826 119.16 201.338 119.16C201.444 119.16 201.569 119.163 201.713 119.171C201.861 119.179 201.976 119.188 202.059 119.199V120.824C201.991 120.805 201.87 120.785 201.696 120.762C201.521 120.735 201.347 120.722 201.173 120.722C200.771 120.722 200.414 120.807 200.099 120.978C199.789 121.144 199.542 121.377 199.361 121.677C199.179 121.972 199.088 122.309 199.088 122.688V128.018H197.389ZM203.69 128.018V119.29H205.388V128.018H203.69ZM204.548 117.944C204.252 117.944 203.998 117.845 203.786 117.648C203.578 117.448 203.474 117.209 203.474 116.932C203.474 116.652 203.578 116.413 203.786 116.216C203.998 116.016 204.252 115.915 204.548 115.915C204.843 115.915 205.095 116.016 205.303 116.216C205.515 116.413 205.621 116.652 205.621 116.932C205.621 117.209 205.515 117.448 205.303 117.648C205.095 117.845 204.843 117.944 204.548 117.944ZM211.595 128.194C210.735 128.194 209.995 128.01 209.374 127.643C208.756 127.271 208.279 126.751 207.942 126.08C207.609 125.406 207.442 124.616 207.442 123.711C207.442 122.817 207.609 122.029 207.942 121.347C208.279 120.665 208.749 120.133 209.351 119.751C209.957 119.368 210.665 119.177 211.476 119.177C211.968 119.177 212.446 119.258 212.908 119.421C213.37 119.584 213.785 119.84 214.152 120.188C214.52 120.537 214.809 120.989 215.021 121.546C215.234 122.099 215.34 122.771 215.34 123.563V124.165H208.402V122.893H213.675C213.675 122.446 213.584 122.05 213.402 121.705C213.22 121.357 212.965 121.082 212.635 120.881C212.309 120.68 211.927 120.58 211.487 120.58C211.01 120.58 210.593 120.698 210.237 120.932C209.885 121.163 209.612 121.466 209.419 121.841C209.23 122.213 209.135 122.616 209.135 123.052V124.046C209.135 124.629 209.237 125.126 209.442 125.535C209.65 125.944 209.94 126.256 210.311 126.472C210.682 126.684 211.116 126.79 211.612 126.79C211.934 126.79 212.228 126.745 212.493 126.654C212.758 126.559 212.987 126.419 213.181 126.233C213.374 126.048 213.521 125.819 213.624 125.546L215.232 125.836C215.103 126.309 214.872 126.724 214.538 127.08C214.209 127.432 213.794 127.707 213.294 127.904C212.798 128.097 212.232 128.194 211.595 128.194ZM219.083 122.836V128.018H217.385V119.29H219.015V120.711H219.123C219.324 120.249 219.638 119.877 220.066 119.597C220.498 119.317 221.042 119.177 221.697 119.177C222.292 119.177 222.813 119.302 223.26 119.552C223.707 119.798 224.053 120.165 224.299 120.654C224.546 121.143 224.669 121.747 224.669 122.466V128.018H222.97V122.671C222.97 122.038 222.805 121.544 222.475 121.188C222.146 120.828 221.693 120.648 221.117 120.648C220.724 120.648 220.373 120.733 220.066 120.904C219.763 121.074 219.523 121.324 219.345 121.654C219.171 121.98 219.083 122.374 219.083 122.836ZM230.374 128.188C229.67 128.188 229.041 128.008 228.488 127.648C227.938 127.285 227.507 126.768 227.192 126.097C226.882 125.423 226.726 124.614 226.726 123.671C226.726 122.728 226.884 121.921 227.198 121.251C227.516 120.58 227.952 120.067 228.505 119.711C229.058 119.355 229.685 119.177 230.385 119.177C230.927 119.177 231.363 119.268 231.692 119.449C232.026 119.627 232.283 119.836 232.465 120.074C232.651 120.313 232.795 120.523 232.897 120.705H232.999V116.381H234.698V128.018H233.039V126.66H232.897C232.795 126.845 232.647 127.057 232.454 127.296C232.264 127.535 232.003 127.743 231.67 127.921C231.336 128.099 230.904 128.188 230.374 128.188ZM230.749 126.739C231.238 126.739 231.651 126.61 231.988 126.353C232.329 126.091 232.586 125.73 232.76 125.268C232.938 124.805 233.027 124.268 233.027 123.654C233.027 123.048 232.94 122.518 232.766 122.063C232.592 121.608 232.336 121.254 231.999 121.001C231.662 120.747 231.245 120.62 230.749 120.62C230.238 120.62 229.812 120.752 229.471 121.018C229.13 121.283 228.872 121.644 228.698 122.103C228.527 122.561 228.442 123.078 228.442 123.654C228.442 124.237 228.529 124.762 228.704 125.228C228.878 125.694 229.135 126.063 229.476 126.336C229.821 126.605 230.245 126.739 230.749 126.739ZM238.982 116.381V128.018H237.283V116.381H238.982ZM242.501 131.29C242.247 131.29 242.016 131.269 241.808 131.228C241.599 131.19 241.444 131.148 241.342 131.103L241.751 129.711C242.062 129.794 242.338 129.83 242.58 129.819C242.823 129.807 243.037 129.716 243.223 129.546C243.412 129.376 243.579 129.097 243.723 128.711L243.933 128.131L240.74 119.29H242.558L244.768 126.063H244.859L247.069 119.29H248.893L245.296 129.182C245.13 129.637 244.918 130.021 244.66 130.336C244.402 130.654 244.096 130.893 243.74 131.052C243.383 131.211 242.971 131.29 242.501 131.29Z" fill="#143761"/>
</svg>
