<svg width="415" height="323" viewBox="0 0 415 323" fill="none" xmlns="http://www.w3.org/2000/svg">
<rect y="0.212891" width="415" height="322" rx="10" fill="#F1EEE4"/>
<path d="M71.1818 158.849C68.9545 158.834 66.7803 158.448 64.6591 157.69C62.5379 156.917 60.6288 155.667 58.9318 153.94C57.2348 152.198 55.8864 149.887 54.8864 147.008C53.8864 144.114 53.3939 140.531 53.4091 136.258C53.4091 132.273 53.8333 128.72 54.6818 125.599C55.5303 122.478 56.75 119.842 58.3409 117.69C59.9318 115.523 61.8485 113.872 64.0909 112.736C66.3485 111.599 68.8712 111.031 71.6591 111.031C74.5833 111.031 77.1742 111.607 79.4318 112.758C81.7045 113.91 83.5379 115.486 84.9318 117.486C86.3258 119.47 87.1894 121.713 87.5227 124.213H79.2273C78.803 122.425 77.9318 121.001 76.6136 119.94C75.3106 118.864 73.6591 118.327 71.6591 118.327C68.4318 118.327 65.947 119.728 64.2045 122.531C62.4773 125.334 61.6061 129.183 61.5909 134.077H61.9091C62.6515 132.743 63.6136 131.599 64.7955 130.645C65.9773 129.69 67.3106 128.955 68.7955 128.44C70.2955 127.91 71.8788 127.645 73.5455 127.645C76.2727 127.645 78.7197 128.296 80.8864 129.599C83.0682 130.902 84.7955 132.698 86.0682 134.986C87.3409 137.258 87.9697 139.864 87.9545 142.804C87.9697 145.864 87.2727 148.614 85.8636 151.054C84.4545 153.478 82.4924 155.387 79.9773 156.781C77.4621 158.175 74.5303 158.864 71.1818 158.849ZM71.1364 152.031C72.7879 152.031 74.2652 151.63 75.5682 150.827C76.8712 150.023 77.9015 148.94 78.6591 147.577C79.4167 146.213 79.7879 144.683 79.7727 142.986C79.7879 141.319 79.4242 139.811 78.6818 138.463C77.9545 137.114 76.947 136.046 75.6591 135.258C74.3712 134.47 72.9015 134.077 71.25 134.077C70.0227 134.077 68.8788 134.311 67.8182 134.781C66.7576 135.251 65.8333 135.902 65.0455 136.736C64.2576 137.554 63.6364 138.508 63.1818 139.599C62.7424 140.675 62.5152 141.827 62.5 143.054C62.5152 144.675 62.8939 146.167 63.6364 147.531C64.3788 148.895 65.4015 149.986 66.7045 150.804C68.0076 151.622 69.4848 152.031 71.1364 152.031ZM112.458 158.849C109.428 158.849 106.716 158.281 104.322 157.145C101.928 155.993 100.026 154.417 98.6173 152.417C97.2233 150.417 96.4809 148.13 96.39 145.554H104.572C104.723 147.463 105.549 149.023 107.049 150.236C108.549 151.433 110.352 152.031 112.458 152.031C114.11 152.031 115.579 151.652 116.867 150.895C118.155 150.137 119.17 149.084 119.913 147.736C120.655 146.387 121.019 144.849 121.004 143.122C121.019 141.364 120.648 139.804 119.89 138.44C119.132 137.077 118.095 136.008 116.776 135.236C115.458 134.448 113.943 134.054 112.231 134.054C110.837 134.039 109.466 134.296 108.117 134.827C106.769 135.357 105.701 136.054 104.913 136.917L97.2991 135.667L99.7309 111.667H126.731V118.713H106.708L105.367 131.054H105.64C106.504 130.039 107.723 129.198 109.299 128.531C110.875 127.849 112.602 127.508 114.481 127.508C117.299 127.508 119.814 128.175 122.026 129.508C124.238 130.827 125.981 132.645 127.254 134.963C128.526 137.281 129.163 139.933 129.163 142.917C129.163 145.993 128.451 148.736 127.026 151.145C125.617 153.539 123.655 155.425 121.14 156.804C118.64 158.167 115.746 158.849 112.458 158.849ZM151.419 152.758V151.224C151.419 150.097 151.656 149.06 152.129 148.113C152.612 147.166 153.313 146.404 154.232 145.827C155.15 145.249 156.263 144.96 157.57 144.96C158.914 144.96 160.041 145.249 160.95 145.827C161.86 146.395 162.546 147.152 163.01 148.099C163.484 149.046 163.72 150.088 163.72 151.224V152.758C163.72 153.885 163.484 154.922 163.01 155.869C162.537 156.816 161.841 157.578 160.922 158.156C160.013 158.734 158.896 159.023 157.57 159.023C156.244 159.023 155.122 158.734 154.203 158.156C153.285 157.578 152.589 156.816 152.115 155.869C151.651 154.922 151.419 153.885 151.419 152.758ZM155.127 151.224V152.758C155.127 153.506 155.307 154.193 155.666 154.818C156.026 155.443 156.661 155.756 157.57 155.756C158.488 155.756 159.118 155.448 159.459 154.832C159.809 154.207 159.985 153.516 159.985 152.758V151.224C159.985 150.467 159.819 149.775 159.487 149.15C159.156 148.516 158.517 148.199 157.57 148.199C156.68 148.199 156.05 148.516 155.681 149.15C155.311 149.775 155.127 150.467 155.127 151.224ZM136.632 136.111V134.577C136.632 133.44 136.874 132.398 137.357 131.452C137.84 130.505 138.54 129.747 139.459 129.179C140.378 128.601 141.49 128.312 142.797 128.312C144.132 128.312 145.254 128.601 146.164 129.179C147.082 129.747 147.773 130.505 148.237 131.452C148.701 132.398 148.933 133.44 148.933 134.577V136.111C148.933 137.247 148.697 138.289 148.223 139.236C147.759 140.173 147.068 140.926 146.149 141.494C145.231 142.062 144.113 142.346 142.797 142.346C141.462 142.346 140.335 142.062 139.416 141.494C138.507 140.926 137.816 140.168 137.342 139.221C136.869 138.274 136.632 137.238 136.632 136.111ZM140.368 134.577V136.111C140.368 136.868 140.543 137.559 140.894 138.184C141.253 138.8 141.888 139.108 142.797 139.108C143.706 139.108 144.331 138.8 144.672 138.184C145.022 137.559 145.198 136.868 145.198 136.111V134.577C145.198 133.819 145.032 133.128 144.7 132.503C144.369 131.868 143.735 131.551 142.797 131.551C141.897 131.551 141.268 131.868 140.908 132.503C140.548 133.137 140.368 133.828 140.368 134.577ZM138.252 158.213L158.252 129.122H161.803L141.803 158.213H138.252Z" fill="#143761"/>
<path d="M52.8267 213.213H50.4972L55.7315 198.667H58.267L63.5014 213.213H61.1719L57.0597 201.309H56.946L52.8267 213.213ZM53.2173 207.517H60.7741V209.363H53.2173V207.517ZM70.7646 202.304V204.008H64.5999V202.304H70.7646ZM66.2902 213.213V201.04C66.2902 200.358 66.4393 199.792 66.7376 199.342C67.0359 198.888 67.4313 198.549 67.9237 198.327C68.4161 198.099 68.9512 197.986 69.5288 197.986C69.955 197.986 70.3196 198.021 70.6226 198.092C70.9256 198.158 71.1505 198.22 71.2973 198.277L70.8001 199.996C70.7007 199.967 70.5729 199.934 70.4166 199.896C70.2604 199.854 70.071 199.832 69.8484 199.832C69.3323 199.832 68.963 199.96 68.7405 200.216C68.5227 200.471 68.4138 200.841 68.4138 201.324V213.213H66.2902ZM78.3474 202.304V204.008H72.1827V202.304H78.3474ZM73.873 213.213V201.04C73.873 200.358 74.0222 199.792 74.3205 199.342C74.6187 198.888 75.0141 198.549 75.5065 198.327C75.999 198.099 76.534 197.986 77.1116 197.986C77.5378 197.986 77.9024 198.021 78.2054 198.092C78.5084 198.158 78.7333 198.22 78.8801 198.277L78.383 199.996C78.2835 199.967 78.1557 199.934 77.9994 199.896C77.8432 199.854 77.6538 199.832 77.4312 199.832C76.9152 199.832 76.5458 199.96 76.3233 200.216C76.1055 200.471 75.9966 200.841 75.9966 201.324V213.213H73.873ZM84.904 213.433C83.8813 213.433 82.9887 213.199 82.2264 212.73C81.4641 212.261 80.8723 211.605 80.4509 210.763C80.0295 209.92 79.8188 208.935 79.8188 207.808C79.8188 206.676 80.0295 205.687 80.4509 204.839C80.8723 203.992 81.4641 203.334 82.2264 202.865C82.9887 202.396 83.8813 202.162 84.904 202.162C85.9267 202.162 86.8192 202.396 87.5815 202.865C88.3438 203.334 88.9357 203.992 89.3571 204.839C89.7785 205.687 89.9892 206.676 89.9892 207.808C89.9892 208.935 89.7785 209.92 89.3571 210.763C88.9357 211.605 88.3438 212.261 87.5815 212.73C86.8192 213.199 85.9267 213.433 84.904 213.433ZM84.9111 211.65C85.574 211.65 86.1232 211.475 86.5588 211.125C86.9944 210.774 87.3164 210.308 87.5247 209.726C87.7378 209.143 87.8443 208.502 87.8443 207.801C87.8443 207.105 87.7378 206.466 87.5247 205.883C87.3164 205.296 86.9944 204.825 86.5588 204.47C86.1232 204.115 85.574 203.937 84.9111 203.937C84.2435 203.937 83.6895 204.115 83.2491 204.47C82.8135 204.825 82.4892 205.296 82.2761 205.883C82.0678 206.466 81.9636 207.105 81.9636 207.801C81.9636 208.502 82.0678 209.143 82.2761 209.726C82.4892 210.308 82.8135 210.774 83.2491 211.125C83.6895 211.475 84.2435 211.65 84.9111 211.65ZM92.5596 213.213V202.304H94.6121V204.037H94.7258C94.9246 203.45 95.275 202.988 95.7769 202.652C96.2835 202.311 96.8565 202.14 97.4957 202.14C97.6282 202.14 97.7845 202.145 97.9644 202.155C98.1491 202.164 98.2935 202.176 98.3977 202.19V204.221C98.3124 204.198 98.1609 204.172 97.9431 204.143C97.7253 204.11 97.5075 204.094 97.2897 204.094C96.7878 204.094 96.3404 204.2 95.9474 204.413C95.5591 204.622 95.2513 204.913 95.0241 205.287C94.7968 205.656 94.6832 206.077 94.6832 206.551V213.213H92.5596ZM104.129 213.426C103.248 213.426 102.462 213.201 101.771 212.751C101.084 212.297 100.544 211.65 100.151 210.812C99.763 209.97 99.5689 208.959 99.5689 207.78C99.5689 206.601 99.7654 205.592 100.158 204.754C100.556 203.916 101.101 203.274 101.792 202.829C102.483 202.384 103.267 202.162 104.143 202.162C104.82 202.162 105.364 202.275 105.776 202.503C106.193 202.725 106.515 202.986 106.742 203.284C106.974 203.582 107.154 203.845 107.282 204.072H107.41V198.667H109.533V213.213H107.46V211.515H107.282C107.154 211.747 106.969 212.013 106.728 212.311C106.491 212.609 106.165 212.87 105.748 213.092C105.331 213.315 104.791 213.426 104.129 213.426ZM104.597 211.615C105.208 211.615 105.724 211.454 106.146 211.132C106.572 210.805 106.894 210.353 107.112 209.775C107.334 209.198 107.445 208.525 107.445 207.758C107.445 207.001 107.336 206.338 107.119 205.77C106.901 205.202 106.581 204.759 106.16 204.442C105.738 204.124 105.218 203.966 104.597 203.966C103.958 203.966 103.425 204.131 102.999 204.463C102.573 204.794 102.251 205.247 102.033 205.819C101.82 206.392 101.714 207.039 101.714 207.758C101.714 208.488 101.823 209.143 102.04 209.726C102.258 210.308 102.58 210.77 103.006 211.111C103.437 211.447 103.968 211.615 104.597 211.615ZM115.939 213.454C115.248 213.454 114.623 213.327 114.064 213.071C113.505 212.81 113.063 212.434 112.736 211.942C112.414 211.449 112.253 210.845 112.253 210.131C112.253 209.515 112.371 209.008 112.608 208.611C112.845 208.213 113.164 207.898 113.567 207.666C113.969 207.434 114.419 207.259 114.916 207.14C115.413 207.022 115.92 206.932 116.436 206.871C117.09 206.795 117.62 206.733 118.027 206.686C118.434 206.634 118.73 206.551 118.915 206.437C119.1 206.324 119.192 206.139 119.192 205.883V205.834C119.192 205.213 119.017 204.733 118.666 204.392C118.321 204.051 117.805 203.881 117.118 203.881C116.403 203.881 115.84 204.039 115.428 204.356C115.02 204.669 114.739 205.017 114.582 205.4L112.587 204.946C112.823 204.283 113.169 203.748 113.624 203.341C114.083 202.929 114.611 202.631 115.207 202.446C115.804 202.256 116.431 202.162 117.09 202.162C117.525 202.162 117.987 202.214 118.475 202.318C118.967 202.417 119.426 202.602 119.852 202.872C120.283 203.142 120.636 203.528 120.911 204.03C121.185 204.527 121.323 205.173 121.323 205.969V213.213H119.249V211.721H119.163C119.026 211.996 118.82 212.266 118.546 212.531C118.271 212.796 117.918 213.016 117.487 213.192C117.056 213.367 116.54 213.454 115.939 213.454ZM116.401 211.75C116.988 211.75 117.49 211.634 117.906 211.402C118.328 211.17 118.647 210.867 118.865 210.493C119.088 210.114 119.199 209.709 119.199 209.278V207.872C119.123 207.948 118.976 208.019 118.759 208.085C118.546 208.147 118.302 208.201 118.027 208.248C117.752 208.291 117.485 208.331 117.225 208.369C116.964 208.402 116.746 208.431 116.571 208.454C116.159 208.506 115.783 208.594 115.442 208.717C115.106 208.84 114.836 209.018 114.632 209.25C114.433 209.477 114.334 209.78 114.334 210.159C114.334 210.684 114.528 211.082 114.916 211.352C115.305 211.617 115.799 211.75 116.401 211.75ZM124.521 213.213V198.667H126.645V204.072H126.773C126.896 203.845 127.074 203.582 127.306 203.284C127.538 202.986 127.86 202.725 128.271 202.503C128.683 202.275 129.228 202.162 129.905 202.162C130.786 202.162 131.572 202.384 132.263 202.829C132.954 203.274 133.496 203.916 133.889 204.754C134.287 205.592 134.486 206.601 134.486 207.78C134.486 208.959 134.289 209.97 133.896 210.812C133.503 211.65 132.964 212.297 132.277 212.751C131.591 213.201 130.807 213.426 129.926 213.426C129.263 213.426 128.721 213.315 128.3 213.092C127.883 212.87 127.556 212.609 127.32 212.311C127.083 212.013 126.901 211.747 126.773 211.515H126.595V213.213H124.521ZM126.602 207.758C126.602 208.525 126.714 209.198 126.936 209.775C127.159 210.353 127.481 210.805 127.902 211.132C128.324 211.454 128.84 211.615 129.45 211.615C130.085 211.615 130.615 211.447 131.041 211.111C131.467 210.77 131.789 210.308 132.007 209.726C132.23 209.143 132.341 208.488 132.341 207.758C132.341 207.039 132.232 206.392 132.014 205.819C131.801 205.247 131.479 204.794 131.048 204.463C130.622 204.131 130.09 203.966 129.45 203.966C128.835 203.966 128.314 204.124 127.888 204.442C127.467 204.759 127.147 205.202 126.929 205.77C126.711 206.338 126.602 207.001 126.602 207.758ZM139.194 198.667V213.213H137.071V198.667H139.194ZM146.953 213.433C145.878 213.433 144.952 213.203 144.176 212.744C143.404 212.28 142.807 211.629 142.386 210.791C141.969 209.948 141.761 208.961 141.761 207.829C141.761 206.712 141.969 205.727 142.386 204.875C142.807 204.023 143.394 203.357 144.147 202.879C144.905 202.401 145.79 202.162 146.804 202.162C147.419 202.162 148.016 202.264 148.593 202.467C149.171 202.671 149.689 202.99 150.149 203.426C150.608 203.862 150.97 204.427 151.235 205.123C151.501 205.815 151.633 206.655 151.633 207.645V208.398H142.961V206.807H149.552C149.552 206.248 149.438 205.753 149.211 205.322C148.984 204.887 148.664 204.543 148.252 204.292C147.845 204.041 147.367 203.916 146.818 203.916C146.221 203.916 145.7 204.063 145.255 204.356C144.815 204.645 144.474 205.024 144.233 205.493C143.996 205.957 143.877 206.461 143.877 207.006V208.248C143.877 208.978 144.005 209.598 144.261 210.109C144.521 210.621 144.884 211.011 145.348 211.281C145.812 211.546 146.354 211.679 146.974 211.679C147.376 211.679 147.743 211.622 148.075 211.508C148.406 211.39 148.693 211.215 148.934 210.983C149.176 210.751 149.36 210.464 149.488 210.123L151.498 210.486C151.337 211.077 151.048 211.596 150.632 212.041C150.22 212.481 149.701 212.825 149.076 213.071C148.456 213.312 147.748 213.433 146.953 213.433ZM156.952 211.224L156.846 211.998C156.775 212.567 156.654 213.158 156.483 213.774C156.318 214.394 156.145 214.97 155.965 215.5C155.79 216.03 155.645 216.452 155.532 216.764H154.026C154.087 216.47 154.173 216.073 154.282 215.571C154.391 215.074 154.497 214.517 154.601 213.902C154.705 213.286 154.783 212.659 154.836 212.02L154.907 211.224H156.952ZM165.58 213.213V198.667H167.704V204.072H167.831C167.955 203.845 168.132 203.582 168.364 203.284C168.596 202.986 168.918 202.725 169.33 202.503C169.742 202.275 170.286 202.162 170.964 202.162C171.844 202.162 172.63 202.384 173.322 202.829C174.013 203.274 174.555 203.916 174.948 204.754C175.346 205.592 175.545 206.601 175.545 207.78C175.545 208.959 175.348 209.97 174.955 210.812C174.562 211.65 174.022 212.297 173.336 212.751C172.649 213.201 171.866 213.426 170.985 213.426C170.322 213.426 169.78 213.315 169.358 213.092C168.942 212.87 168.615 212.609 168.378 212.311C168.142 212.013 167.959 211.747 167.831 211.515H167.654V213.213H165.58ZM167.661 207.758C167.661 208.525 167.772 209.198 167.995 209.775C168.217 210.353 168.539 210.805 168.961 211.132C169.382 211.454 169.898 211.615 170.509 211.615C171.143 211.615 171.674 211.447 172.1 211.111C172.526 210.77 172.848 210.308 173.066 209.726C173.288 209.143 173.4 208.488 173.4 207.758C173.4 207.039 173.291 206.392 173.073 205.819C172.86 205.247 172.538 204.794 172.107 204.463C171.681 204.131 171.148 203.966 170.509 203.966C169.893 203.966 169.373 204.124 168.947 204.442C168.525 204.759 168.206 205.202 167.988 205.77C167.77 206.338 167.661 207.001 167.661 207.758ZM185.04 208.689V202.304H187.17V213.213H185.082V211.324H184.969C184.718 211.906 184.315 212.391 183.761 212.78C183.212 213.163 182.528 213.355 181.709 213.355C181.008 213.355 180.388 213.201 179.848 212.893C179.313 212.581 178.891 212.119 178.584 211.508C178.281 210.898 178.129 210.142 178.129 209.243V202.304H180.253V208.987C180.253 209.73 180.459 210.322 180.871 210.763C181.283 211.203 181.818 211.423 182.476 211.423C182.873 211.423 183.269 211.324 183.662 211.125C184.06 210.926 184.389 210.625 184.649 210.223C184.914 209.82 185.044 209.309 185.04 208.689ZM194.307 213.426C193.427 213.426 192.641 213.201 191.95 212.751C191.263 212.297 190.723 211.65 190.33 210.812C189.942 209.97 189.748 208.959 189.748 207.78C189.748 206.601 189.944 205.592 190.337 204.754C190.735 203.916 191.28 203.274 191.971 202.829C192.662 202.384 193.446 202.162 194.322 202.162C194.999 202.162 195.543 202.275 195.955 202.503C196.372 202.725 196.694 202.986 196.921 203.284C197.153 203.582 197.333 203.845 197.461 204.072H197.589V198.667H199.712V213.213H197.638V211.515H197.461C197.333 211.747 197.148 212.013 196.907 212.311C196.67 212.609 196.343 212.87 195.927 213.092C195.51 213.315 194.97 213.426 194.307 213.426ZM194.776 211.615C195.387 211.615 195.903 211.454 196.325 211.132C196.751 210.805 197.073 210.353 197.29 209.775C197.513 209.198 197.624 208.525 197.624 207.758C197.624 207.001 197.515 206.338 197.298 205.77C197.08 205.202 196.76 204.759 196.339 204.442C195.917 204.124 195.396 203.966 194.776 203.966C194.137 203.966 193.604 204.131 193.178 204.463C192.752 204.794 192.43 205.247 192.212 205.819C191.999 206.392 191.893 207.039 191.893 207.758C191.893 208.488 192.002 209.143 192.219 209.726C192.437 210.308 192.759 210.77 193.185 211.111C193.616 211.447 194.146 211.615 194.776 211.615ZM207.517 217.531C206.651 217.531 205.905 217.417 205.28 217.19C204.66 216.963 204.153 216.662 203.76 216.288C203.367 215.914 203.073 215.505 202.879 215.059L204.705 214.307C204.832 214.515 205.003 214.735 205.216 214.967C205.434 215.204 205.727 215.405 206.097 215.571C206.471 215.737 206.951 215.819 207.538 215.819C208.343 215.819 209.009 215.623 209.534 215.23C210.06 214.842 210.322 214.221 210.322 213.369V211.224H210.188C210.06 211.456 209.875 211.714 209.634 211.998C209.397 212.282 209.07 212.529 208.653 212.737C208.237 212.945 207.695 213.05 207.027 213.05C206.165 213.05 205.389 212.848 204.697 212.446C204.011 212.039 203.466 211.44 203.064 210.649C202.666 209.854 202.467 208.876 202.467 207.716C202.467 206.556 202.664 205.561 203.057 204.733C203.455 203.904 203.999 203.27 204.69 202.829C205.382 202.384 206.165 202.162 207.041 202.162C207.718 202.162 208.265 202.275 208.682 202.503C209.098 202.725 209.423 202.986 209.655 203.284C209.892 203.582 210.074 203.845 210.202 204.072H210.358V202.304H212.439V213.454C212.439 214.392 212.221 215.161 211.786 215.763C211.35 216.364 210.76 216.809 210.017 217.098C209.278 217.387 208.445 217.531 207.517 217.531ZM207.496 211.288C208.107 211.288 208.623 211.146 209.044 210.862C209.47 210.573 209.792 210.161 210.01 209.626C210.232 209.086 210.344 208.44 210.344 207.687C210.344 206.953 210.235 206.307 210.017 205.748C209.799 205.19 209.48 204.754 209.058 204.442C208.637 204.124 208.116 203.966 207.496 203.966C206.857 203.966 206.324 204.131 205.898 204.463C205.472 204.79 205.15 205.235 204.932 205.798C204.719 206.362 204.612 206.991 204.612 207.687C204.612 208.402 204.721 209.03 204.939 209.569C205.157 210.109 205.479 210.531 205.905 210.834C206.336 211.137 206.866 211.288 207.496 211.288ZM220.189 213.433C219.114 213.433 218.188 213.203 217.412 212.744C216.64 212.28 216.043 211.629 215.622 210.791C215.205 209.948 214.997 208.961 214.997 207.829C214.997 206.712 215.205 205.727 215.622 204.875C216.043 204.023 216.63 203.357 217.383 202.879C218.141 202.401 219.026 202.162 220.039 202.162C220.655 202.162 221.252 202.264 221.829 202.467C222.407 202.671 222.925 202.99 223.385 203.426C223.844 203.862 224.206 204.427 224.471 205.123C224.736 205.815 224.869 206.655 224.869 207.645V208.398H216.197V206.807H222.788C222.788 206.248 222.674 205.753 222.447 205.322C222.22 204.887 221.9 204.543 221.488 204.292C221.081 204.041 220.603 203.916 220.054 203.916C219.457 203.916 218.936 204.063 218.491 204.356C218.051 204.645 217.71 205.024 217.468 205.493C217.232 205.957 217.113 206.461 217.113 207.006V208.248C217.113 208.978 217.241 209.598 217.497 210.109C217.757 210.621 218.12 211.011 218.584 211.281C219.048 211.546 219.59 211.679 220.21 211.679C220.612 211.679 220.979 211.622 221.311 211.508C221.642 211.39 221.929 211.215 222.17 210.983C222.412 210.751 222.596 210.464 222.724 210.123L224.734 210.486C224.573 211.077 224.284 211.596 223.868 212.041C223.456 212.481 222.937 212.825 222.312 213.071C221.692 213.312 220.984 213.433 220.189 213.433ZM232.518 202.304V204.008H226.559V202.304H232.518ZM228.157 199.69H230.28V210.01C230.28 210.422 230.342 210.732 230.465 210.94C230.588 211.144 230.747 211.283 230.941 211.359C231.14 211.43 231.355 211.466 231.587 211.466C231.758 211.466 231.907 211.454 232.035 211.43C232.162 211.407 232.262 211.388 232.333 211.373L232.716 213.128C232.593 213.175 232.418 213.222 232.191 213.27C231.964 213.322 231.679 213.35 231.339 213.355C230.78 213.364 230.259 213.265 229.776 213.057C229.293 212.848 228.902 212.526 228.604 212.091C228.306 211.655 228.157 211.108 228.157 210.45V199.69ZM241.123 206.146V207.986H234.674V206.146H241.123ZM249.345 202.304V204.008H243.18V202.304H249.345ZM244.871 213.213V201.04C244.871 200.358 245.02 199.792 245.318 199.342C245.616 198.888 246.012 198.549 246.504 198.327C246.997 198.099 247.532 197.986 248.109 197.986C248.535 197.986 248.9 198.021 249.203 198.092C249.506 198.158 249.731 198.22 249.878 198.277L249.381 199.996C249.281 199.967 249.153 199.934 248.997 199.896C248.841 199.854 248.651 199.832 248.429 199.832C247.913 199.832 247.543 199.96 247.321 200.216C247.103 200.471 246.994 200.841 246.994 201.324V213.213H244.871ZM251.736 213.213V202.304H253.789V204.037H253.902C254.101 203.45 254.452 202.988 254.953 202.652C255.46 202.311 256.033 202.14 256.672 202.14C256.805 202.14 256.961 202.145 257.141 202.155C257.326 202.164 257.47 202.176 257.574 202.19V204.221C257.489 204.198 257.337 204.172 257.12 204.143C256.902 204.11 256.684 204.094 256.466 204.094C255.964 204.094 255.517 204.2 255.124 204.413C254.736 204.622 254.428 204.913 254.201 205.287C253.973 205.656 253.86 206.077 253.86 206.551V213.213H251.736ZM259.612 213.213V202.304H261.736V213.213H259.612ZM260.684 200.621C260.315 200.621 259.998 200.497 259.733 200.251C259.472 200 259.342 199.702 259.342 199.356C259.342 199.006 259.472 198.708 259.733 198.461C259.998 198.211 260.315 198.085 260.684 198.085C261.054 198.085 261.369 198.211 261.629 198.461C261.894 198.708 262.027 199.006 262.027 199.356C262.027 199.702 261.894 200 261.629 200.251C261.369 200.497 261.054 200.621 260.684 200.621ZM269.494 213.433C268.419 213.433 267.494 213.203 266.717 212.744C265.945 212.28 265.349 211.629 264.927 210.791C264.511 209.948 264.302 208.961 264.302 207.829C264.302 206.712 264.511 205.727 264.927 204.875C265.349 204.023 265.936 203.357 266.689 202.879C267.446 202.401 268.332 202.162 269.345 202.162C269.96 202.162 270.557 202.264 271.135 202.467C271.712 202.671 272.231 202.99 272.69 203.426C273.149 203.862 273.512 204.427 273.777 205.123C274.042 205.815 274.174 206.655 274.174 207.645V208.398H265.503V206.807H272.094C272.094 206.248 271.98 205.753 271.753 205.322C271.525 204.887 271.206 204.543 270.794 204.292C270.387 204.041 269.908 203.916 269.359 203.916C268.763 203.916 268.242 204.063 267.797 204.356C267.356 204.645 267.015 205.024 266.774 205.493C266.537 205.957 266.419 206.461 266.419 207.006V208.248C266.419 208.978 266.547 209.598 266.802 210.109C267.063 210.621 267.425 211.011 267.889 211.281C268.353 211.546 268.895 211.679 269.515 211.679C269.918 211.679 270.285 211.622 270.616 211.508C270.948 211.39 271.234 211.215 271.476 210.983C271.717 210.751 271.902 210.464 272.03 210.123L274.04 210.486C273.879 211.077 273.59 211.596 273.173 212.041C272.761 212.481 272.243 212.825 271.618 213.071C270.997 213.312 270.29 213.433 269.494 213.433ZM278.854 206.736V213.213H276.731V202.304H278.769V204.079H278.904C279.155 203.502 279.548 203.038 280.083 202.687C280.623 202.337 281.302 202.162 282.121 202.162C282.865 202.162 283.516 202.318 284.074 202.631C284.633 202.938 285.066 203.398 285.374 204.008C285.682 204.619 285.836 205.374 285.836 206.274V213.213H283.712V206.53C283.712 205.739 283.506 205.121 283.094 204.676C282.682 204.226 282.117 204.001 281.397 204.001C280.904 204.001 280.466 204.108 280.083 204.321C279.704 204.534 279.404 204.846 279.181 205.258C278.963 205.666 278.854 206.158 278.854 206.736ZM292.968 213.426C292.087 213.426 291.301 213.201 290.61 212.751C289.923 212.297 289.383 211.65 288.99 210.812C288.602 209.97 288.408 208.959 288.408 207.78C288.408 206.601 288.604 205.592 288.997 204.754C289.395 203.916 289.94 203.274 290.631 202.829C291.322 202.384 292.106 202.162 292.982 202.162C293.659 202.162 294.203 202.275 294.615 202.503C295.032 202.725 295.354 202.986 295.581 203.284C295.813 203.582 295.993 203.845 296.121 204.072H296.249V198.667H298.372V213.213H296.299V211.515H296.121C295.993 211.747 295.809 212.013 295.567 212.311C295.33 212.609 295.004 212.87 294.587 213.092C294.17 213.315 293.63 213.426 292.968 213.426ZM293.436 211.615C294.047 211.615 294.563 211.454 294.985 211.132C295.411 210.805 295.733 210.353 295.951 209.775C296.173 209.198 296.284 208.525 296.284 207.758C296.284 207.001 296.175 206.338 295.958 205.77C295.74 205.202 295.42 204.759 294.999 204.442C294.577 204.124 294.057 203.966 293.436 203.966C292.797 203.966 292.264 204.131 291.838 204.463C291.412 204.794 291.09 205.247 290.872 205.819C290.659 206.392 290.553 207.039 290.553 207.758C290.553 208.488 290.662 209.143 290.88 209.726C291.097 210.308 291.419 210.77 291.845 211.111C292.276 211.447 292.807 211.615 293.436 211.615ZM303.727 198.667V213.213H301.603V198.667H303.727ZM308.126 217.304C307.809 217.304 307.52 217.278 307.26 217.226C306.999 217.178 306.805 217.126 306.677 217.069L307.189 215.329C307.577 215.434 307.923 215.479 308.226 215.464C308.529 215.45 308.796 215.336 309.028 215.123C309.265 214.91 309.473 214.562 309.653 214.079L309.916 213.355L305.924 202.304H308.197L310.96 210.77H311.074L313.836 202.304H316.116L311.62 214.669C311.412 215.237 311.147 215.718 310.825 216.111C310.503 216.508 310.12 216.807 309.674 217.006C309.229 217.204 308.713 217.304 308.126 217.304Z" fill="#143761"/>
</svg>
