<svg width="56" height="55" viewBox="0 0 56 55" fill="none" xmlns="http://www.w3.org/2000/svg">
<path d="M55.8167 12.9901C55.8118 12.8219 55.7777 12.6559 55.7156 12.4995C55.7234 12.4614 55.7234 12.4222 55.7156 12.3841C55.7237 12.3363 55.7237 12.2876 55.7156 12.2398L48.5011 0.696568C48.3633 0.468441 48.1649 0.282964 47.928 0.16071C47.6912 0.0384567 47.4251 -0.0157944 47.1592 0.00397417H9.64375C9.39853 0.00348347 9.15724 0.065494 8.94265 0.184151C8.72806 0.302809 8.54724 0.474198 8.41728 0.682138L1.20276 12.2254C1.19469 12.2731 1.19469 12.3219 1.20276 12.3697C1.19499 12.4077 1.19499 12.447 1.20276 12.4851C1.09894 12.638 1.02546 12.8095 0.986328 12.9901V53.3914C0.986328 53.7741 1.13835 54.1411 1.40894 54.4117C1.67954 54.6823 2.04655 54.8343 2.42923 54.8343H54.3737C54.7564 54.8343 55.1234 54.6823 55.394 54.4117C55.6646 54.1411 55.8167 53.7741 55.8167 53.3914V12.9901ZM51.7765 11.5472H35.4429L34.3607 2.88978H46.3656L51.7765 11.5472ZM24.0728 14.433H32.7302V25.9762H24.0728V14.433ZM31.4604 2.88978L32.5426 11.5472H24.2604L25.3425 2.88978H31.4604ZM10.4373 2.88978H22.4423L21.3601 11.5472H5.02646L10.4373 2.88978ZM52.9308 51.9485H3.87213V14.433H21.187V27.4191C21.187 27.8018 21.339 28.1688 21.6096 28.4394C21.8802 28.71 22.2472 28.862 22.6299 28.862H34.1731C34.5558 28.862 34.9228 28.71 35.1934 28.4394C35.464 28.1688 35.616 27.8018 35.616 27.4191V14.433H52.9308V51.9485Z" fill="#F47A1F" fill-opacity="0.75"/>
<path d="M26.9585 46.1769H8.20072C7.81803 46.1769 7.45103 46.3289 7.18043 46.5995C6.90983 46.8701 6.75781 47.2371 6.75781 47.6198C6.75781 48.0025 6.90983 48.3695 7.18043 48.6401C7.45103 48.9107 7.81803 49.0627 8.20072 49.0627H26.9585C27.3411 49.0627 27.7082 48.9107 27.9787 48.6401C28.2493 48.3695 28.4014 48.0025 28.4014 47.6198C28.4014 47.2371 28.2493 46.8701 27.9787 46.5995C27.7082 46.3289 27.3411 46.1769 26.9585 46.1769ZM8.20072 43.2911H18.301C18.6837 43.2911 19.0507 43.1391 19.3213 42.8685C19.5919 42.5979 19.7439 42.2309 19.7439 41.8482C19.7439 41.4655 19.5919 41.0985 19.3213 40.8279C19.0507 40.5573 18.6837 40.4053 18.301 40.4053H8.20072C7.81803 40.4053 7.45103 40.5573 7.18043 40.8279C6.90983 41.0985 6.75781 41.4655 6.75781 41.8482C6.75781 42.2309 6.90983 42.5979 7.18043 42.8685C7.45103 43.1391 7.81803 43.2911 8.20072 43.2911Z" fill="#F47A1F" fill-opacity="0.75"/>
</svg>
