<svg width="370" height="205" viewBox="0 0 370 205" fill="none" xmlns="http://www.w3.org/2000/svg">
<rect y="0.212891" width="370" height="204" rx="10" fill="#F1EEE4"/>
<path d="M71.6818 99.8493C68.303 99.8493 65.303 99.2811 62.6818 98.1447C60.0758 97.0083 58.0303 95.4553 56.5455 93.4856C55.0758 91.5008 54.3485 89.2508 54.3636 86.7356C54.3485 84.7811 54.7727 82.9856 55.6364 81.3493C56.5 79.7129 57.6667 78.3493 59.1364 77.2583C60.6212 76.1523 62.2727 75.4477 64.0909 75.1447V74.8265C61.697 74.2962 59.7576 73.0765 58.2727 71.1674C56.803 69.2432 56.0758 67.0235 56.0909 64.5083C56.0758 62.1144 56.7424 59.978 58.0909 58.0993C59.4394 56.2205 61.2879 54.7432 63.6364 53.6674C65.9848 52.5765 68.6667 52.0311 71.6818 52.0311C74.6667 52.0311 77.3258 52.5765 79.6591 53.6674C82.0076 54.7432 83.8561 56.2205 85.2045 58.0993C86.5682 59.978 87.25 62.1144 87.25 64.5083C87.25 67.0235 86.5 69.2432 85 71.1674C83.5152 73.0765 81.5985 74.2962 79.25 74.8265V75.1447C81.0682 75.4477 82.7045 76.1523 84.1591 77.2583C85.6288 78.3493 86.7955 79.7129 87.6591 81.3493C88.5379 82.9856 88.9773 84.7811 88.9773 86.7356C88.9773 89.2508 88.2348 91.5008 86.75 93.4856C85.2652 95.4553 83.2197 97.0083 80.6136 98.1447C78.0227 99.2811 75.0455 99.8493 71.6818 99.8493ZM71.6818 93.3493C73.4242 93.3493 74.9394 93.0538 76.2273 92.4629C77.5152 91.8568 78.5152 91.0083 79.2273 89.9174C79.9394 88.8265 80.303 87.569 80.3182 86.1447C80.303 84.6599 79.9167 83.3493 79.1591 82.2129C78.4167 81.0614 77.3939 80.1599 76.0909 79.5083C74.803 78.8568 73.3333 78.5311 71.6818 78.5311C70.0152 78.5311 68.5303 78.8568 67.2273 79.5083C65.9242 80.1599 64.8939 81.0614 64.1364 82.2129C63.3939 83.3493 63.0303 84.6599 63.0455 86.1447C63.0303 87.569 63.3788 88.8265 64.0909 89.9174C64.803 90.9932 65.803 91.8341 67.0909 92.4402C68.3939 93.0462 69.9242 93.3493 71.6818 93.3493ZM71.6818 72.1447C73.1061 72.1447 74.3636 71.8568 75.4545 71.2811C76.5606 70.7053 77.4318 69.9023 78.0682 68.872C78.7045 67.8417 79.0303 66.6523 79.0455 65.3038C79.0303 63.9705 78.7121 62.8038 78.0909 61.8038C77.4697 60.7886 76.6061 60.0083 75.5 59.4629C74.3939 58.9023 73.1212 58.622 71.6818 58.622C70.2121 58.622 68.9167 58.9023 67.7955 59.4629C66.6894 60.0083 65.8258 60.7886 65.2045 61.8038C64.5985 62.8038 64.303 63.9705 64.3182 65.3038C64.303 66.6523 64.6061 67.8417 65.2273 68.872C65.8636 69.8871 66.7348 70.6902 67.8409 71.2811C68.9621 71.8568 70.2424 72.1447 71.6818 72.1447ZM113.634 99.8493C110.256 99.8493 107.256 99.2811 104.634 98.1447C102.028 97.0083 99.9828 95.4553 98.498 93.4856C97.0283 91.5008 96.301 89.2508 96.3161 86.7356C96.301 84.7811 96.7252 82.9856 97.5889 81.3493C98.4525 79.7129 99.6192 78.3493 101.089 77.2583C102.574 76.1523 104.225 75.4477 106.043 75.1447V74.8265C103.649 74.2962 101.71 73.0765 100.225 71.1674C98.7555 69.2432 98.0283 67.0235 98.0434 64.5083C98.0283 62.1144 98.6949 59.978 100.043 58.0993C101.392 56.2205 103.24 54.7432 105.589 53.6674C107.937 52.5765 110.619 52.0311 113.634 52.0311C116.619 52.0311 119.278 52.5765 121.612 53.6674C123.96 54.7432 125.809 56.2205 127.157 58.0993C128.521 59.978 129.202 62.1144 129.202 64.5083C129.202 67.0235 128.452 69.2432 126.952 71.1674C125.468 73.0765 123.551 74.2962 121.202 74.8265V75.1447C123.021 75.4477 124.657 76.1523 126.112 77.2583C127.581 78.3493 128.748 79.7129 129.612 81.3493C130.49 82.9856 130.93 84.7811 130.93 86.7356C130.93 89.2508 130.187 91.5008 128.702 93.4856C127.218 95.4553 125.172 97.0083 122.566 98.1447C119.975 99.2811 116.998 99.8493 113.634 99.8493ZM113.634 93.3493C115.377 93.3493 116.892 93.0538 118.18 92.4629C119.468 91.8568 120.468 91.0083 121.18 89.9174C121.892 88.8265 122.256 87.569 122.271 86.1447C122.256 84.6599 121.869 83.3493 121.112 82.2129C120.369 81.0614 119.346 80.1599 118.043 79.5083C116.756 78.8568 115.286 78.5311 113.634 78.5311C111.968 78.5311 110.483 78.8568 109.18 79.5083C107.877 80.1599 106.846 81.0614 106.089 82.2129C105.346 83.3493 104.983 84.6599 104.998 86.1447C104.983 87.569 105.331 88.8265 106.043 89.9174C106.756 90.9932 107.756 91.8341 109.043 92.4402C110.346 93.0462 111.877 93.3493 113.634 93.3493ZM113.634 72.1447C115.059 72.1447 116.316 71.8568 117.407 71.2811C118.513 70.7053 119.384 69.9023 120.021 68.872C120.657 67.8417 120.983 66.6523 120.998 65.3038C120.983 63.9705 120.665 62.8038 120.043 61.8038C119.422 60.7886 118.559 60.0083 117.452 59.4629C116.346 58.9023 115.074 58.622 113.634 58.622C112.165 58.622 110.869 58.9023 109.748 59.4629C108.642 60.0083 107.778 60.7886 107.157 61.8038C106.551 62.8038 106.256 63.9705 106.271 65.3038C106.256 66.6523 106.559 67.8417 107.18 68.872C107.816 69.8871 108.687 70.6902 109.793 71.2811C110.915 71.8568 112.195 72.1447 113.634 72.1447ZM153.044 93.7583V92.2243C153.044 91.0974 153.281 90.0604 153.754 89.1135C154.237 88.1665 154.938 87.4042 155.857 86.8265C156.775 86.2489 157.888 85.96 159.195 85.96C160.539 85.96 161.666 86.2489 162.575 86.8265C163.485 87.3947 164.171 88.1523 164.635 89.0993C165.109 90.0462 165.345 91.0879 165.345 92.2243V93.7583C165.345 94.8852 165.109 95.9222 164.635 96.8691C164.162 97.8161 163.466 98.5784 162.547 99.1561C161.638 99.7337 160.521 100.023 159.195 100.023C157.869 100.023 156.747 99.7337 155.828 99.1561C154.91 98.5784 154.214 97.8161 153.74 96.8691C153.276 95.9222 153.044 94.8852 153.044 93.7583ZM156.752 92.2243V93.7583C156.752 94.5065 156.932 95.193 157.291 95.818C157.651 96.443 158.286 96.7555 159.195 96.7555C160.113 96.7555 160.743 96.4477 161.084 95.8322C161.434 95.2072 161.61 94.5159 161.61 93.7583V92.2243C161.61 91.4667 161.444 90.7754 161.112 90.1504C160.781 89.5159 160.142 89.1987 159.195 89.1987C158.305 89.1987 157.675 89.5159 157.306 90.1504C156.936 90.7754 156.752 91.4667 156.752 92.2243ZM138.257 77.1106V75.5765C138.257 74.4402 138.499 73.3985 138.982 72.4515C139.465 71.5046 140.165 70.747 141.084 70.1788C142.003 69.6011 143.115 69.3123 144.422 69.3123C145.757 69.3123 146.879 69.6011 147.789 70.1788C148.707 70.747 149.398 71.5046 149.862 72.4515C150.326 73.3985 150.558 74.4402 150.558 75.5765V77.1106C150.558 78.247 150.322 79.2886 149.848 80.2356C149.384 81.1731 148.693 81.926 147.774 82.4941C146.856 83.0623 145.738 83.3464 144.422 83.3464C143.087 83.3464 141.96 83.0623 141.041 82.4941C140.132 81.926 139.441 81.1684 138.967 80.2214C138.494 79.2744 138.257 78.2375 138.257 77.1106ZM141.993 75.5765V77.1106C141.993 77.8682 142.168 78.5595 142.519 79.1845C142.878 79.8 143.513 80.1078 144.422 80.1078C145.331 80.1078 145.956 79.8 146.297 79.1845C146.647 78.5595 146.823 77.8682 146.823 77.1106V75.5765C146.823 74.819 146.657 74.1277 146.325 73.5027C145.994 72.8682 145.36 72.551 144.422 72.551C143.522 72.551 142.893 72.8682 142.533 73.5027C142.173 74.1371 141.993 74.8284 141.993 75.5765ZM139.877 99.2129L159.877 70.122H163.428L143.428 99.2129H139.877Z" fill="#143761"/>
<path d="M52.598 154.213V139.667H61.7173V141.557H54.7926V145.988H61.2415V147.871H54.7926V152.324H61.8026V154.213H52.598ZM69.8701 143.304V145.008H63.7053V143.304H69.8701ZM65.3957 154.213V142.04C65.3957 141.358 65.5448 140.792 65.8431 140.342C66.1414 139.888 66.5368 139.549 67.0292 139.327C67.5216 139.099 68.0567 138.986 68.6343 138.986C69.0604 138.986 69.425 139.021 69.7281 139.092C70.0311 139.158 70.256 139.22 70.4028 139.277L69.9056 140.996C69.8062 140.967 69.6783 140.934 69.5221 140.896C69.3658 140.854 69.1764 140.832 68.9539 140.832C68.4378 140.832 68.0685 140.96 67.846 141.216C67.6281 141.471 67.5192 141.841 67.5192 142.324V154.213H65.3957ZM77.4529 143.304V145.008H71.2881V143.304H77.4529ZM72.9785 154.213V142.04C72.9785 141.358 73.1276 140.792 73.4259 140.342C73.7242 139.888 74.1196 139.549 74.612 139.327C75.1044 139.099 75.6395 138.986 76.2171 138.986C76.6433 138.986 77.0078 139.021 77.3109 139.092C77.6139 139.158 77.8388 139.22 77.9856 139.277L77.4884 140.996C77.389 140.967 77.2612 140.934 77.1049 140.896C76.9487 140.854 76.7593 140.832 76.5367 140.832C76.0206 140.832 75.6513 140.96 75.4288 141.216C75.211 141.471 75.1021 141.841 75.1021 142.324V154.213H72.9785ZM79.844 154.213V143.304H81.9675V154.213H79.844ZM80.9164 141.621C80.5471 141.621 80.2299 141.497 79.9647 141.251C79.7043 141 79.5741 140.702 79.5741 140.356C79.5741 140.006 79.7043 139.708 79.9647 139.461C80.2299 139.211 80.5471 139.085 80.9164 139.085C81.2857 139.085 81.6006 139.211 81.861 139.461C82.1262 139.708 82.2587 140.006 82.2587 140.356C82.2587 140.702 82.1262 141 81.861 141.251C81.6006 141.497 81.2857 141.621 80.9164 141.621ZM89.6196 154.433C88.5637 154.433 87.6546 154.194 86.8923 153.716C86.1348 153.233 85.5524 152.568 85.1452 151.72C84.738 150.872 84.5344 149.902 84.5344 148.808C84.5344 147.7 84.7427 146.722 85.1594 145.875C85.576 145.023 86.1632 144.357 86.9207 143.879C87.6783 143.401 88.5708 143.162 89.5983 143.162C90.4269 143.162 91.1655 143.316 91.8142 143.623C92.4629 143.926 92.9861 144.353 93.3838 144.902C93.7863 145.451 94.0254 146.093 94.1011 146.827H92.0344C91.9207 146.315 91.6603 145.875 91.2531 145.506C90.8507 145.136 90.3109 144.952 89.6338 144.952C89.042 144.952 88.5235 145.108 88.0784 145.42C87.6381 145.728 87.2948 146.168 87.0486 146.741C86.8024 147.309 86.6793 147.982 86.6793 148.758C86.6793 149.554 86.8 150.24 87.0415 150.818C87.283 151.396 87.6239 151.843 88.0642 152.16C88.5093 152.478 89.0325 152.636 89.6338 152.636C90.0363 152.636 90.4009 152.563 90.7276 152.416C91.059 152.265 91.336 152.049 91.5585 151.77C91.7858 151.49 91.9444 151.154 92.0344 150.761H94.1011C94.0254 151.467 93.7957 152.096 93.4122 152.65C93.0287 153.204 92.515 153.64 91.871 153.957C91.2318 154.274 90.4813 154.433 89.6196 154.433ZM96.5721 154.213V143.304H98.6957V154.213H96.5721ZM97.6445 141.621C97.2752 141.621 96.958 141.497 96.6928 141.251C96.4324 141 96.3022 140.702 96.3022 140.356C96.3022 140.006 96.4324 139.708 96.6928 139.461C96.958 139.211 97.2752 139.085 97.6445 139.085C98.0138 139.085 98.3287 139.211 98.5891 139.461C98.8543 139.708 98.9869 140.006 98.9869 140.356C98.9869 140.702 98.8543 141 98.5891 141.251C98.3287 141.497 98.0138 141.621 97.6445 141.621ZM106.454 154.433C105.379 154.433 104.454 154.203 103.677 153.744C102.905 153.28 102.309 152.629 101.888 151.791C101.471 150.948 101.263 149.961 101.263 148.829C101.263 147.712 101.471 146.727 101.888 145.875C102.309 145.023 102.896 144.357 103.649 143.879C104.406 143.401 105.292 143.162 106.305 143.162C106.921 143.162 107.517 143.264 108.095 143.467C108.673 143.671 109.191 143.99 109.65 144.426C110.11 144.862 110.472 145.427 110.737 146.123C111.002 146.815 111.135 147.655 111.135 148.645V149.398H102.463V147.807H109.054C109.054 147.248 108.94 146.753 108.713 146.322C108.486 145.887 108.166 145.543 107.754 145.292C107.347 145.041 106.869 144.916 106.319 144.916C105.723 144.916 105.202 145.063 104.757 145.356C104.316 145.645 103.976 146.024 103.734 146.493C103.497 146.957 103.379 147.461 103.379 148.006V149.248C103.379 149.978 103.507 150.598 103.763 151.109C104.023 151.621 104.385 152.011 104.849 152.281C105.313 152.546 105.855 152.679 106.476 152.679C106.878 152.679 107.245 152.622 107.576 152.508C107.908 152.39 108.194 152.215 108.436 151.983C108.677 151.751 108.862 151.464 108.99 151.123L111 151.486C110.839 152.077 110.55 152.596 110.133 153.041C109.721 153.481 109.203 153.825 108.578 154.071C107.958 154.312 107.25 154.433 106.454 154.433ZM115.814 147.736V154.213H113.691V143.304H115.729V145.079H115.864C116.115 144.502 116.508 144.038 117.043 143.687C117.583 143.337 118.262 143.162 119.081 143.162C119.825 143.162 120.476 143.318 121.035 143.631C121.593 143.938 122.027 144.398 122.334 145.008C122.642 145.619 122.796 146.374 122.796 147.274V154.213H120.672V147.53C120.672 146.739 120.466 146.121 120.054 145.676C119.643 145.226 119.077 145.001 118.357 145.001C117.865 145.001 117.427 145.108 117.043 145.321C116.664 145.534 116.364 145.846 116.141 146.258C115.923 146.666 115.814 147.158 115.814 147.736ZM130.936 143.304V145.008H124.977V143.304H130.936ZM126.575 140.69H128.699V151.01C128.699 151.422 128.761 151.732 128.884 151.94C129.007 152.144 129.165 152.283 129.36 152.359C129.558 152.43 129.774 152.466 130.006 152.466C130.176 152.466 130.325 152.454 130.453 152.43C130.581 152.407 130.681 152.388 130.752 152.373L131.135 154.128C131.012 154.175 130.837 154.222 130.61 154.27C130.382 154.322 130.098 154.35 129.757 154.355C129.199 154.364 128.678 154.265 128.195 154.057C127.712 153.848 127.321 153.526 127.023 153.091C126.725 152.655 126.575 152.108 126.575 151.45V140.69ZM136.248 152.224L136.142 152.998C136.071 153.567 135.95 154.158 135.779 154.774C135.614 155.394 135.441 155.97 135.261 156.5C135.086 157.03 134.941 157.452 134.828 157.764H133.322C133.384 157.47 133.469 157.073 133.578 156.571C133.687 156.074 133.793 155.517 133.897 154.902C134.001 154.286 134.08 153.659 134.132 153.02L134.203 152.224H136.248ZM152.071 158.304V152.515H151.943C151.815 152.747 151.63 153.013 151.389 153.311C151.152 153.609 150.825 153.87 150.409 154.092C149.992 154.315 149.452 154.426 148.789 154.426C147.909 154.426 147.123 154.201 146.432 153.751C145.745 153.297 145.205 152.65 144.812 151.812C144.424 150.97 144.23 149.959 144.23 148.78C144.23 147.601 144.426 146.592 144.819 145.754C145.217 144.916 145.762 144.274 146.453 143.829C147.144 143.384 147.928 143.162 148.804 143.162C149.481 143.162 150.025 143.275 150.437 143.503C150.854 143.725 151.176 143.986 151.403 144.284C151.635 144.582 151.815 144.845 151.943 145.072H152.12V143.304H154.194V158.304H152.071ZM149.258 152.615C149.869 152.615 150.385 152.454 150.807 152.132C151.233 151.805 151.555 151.353 151.772 150.775C151.995 150.198 152.106 149.525 152.106 148.758C152.106 148.001 151.997 147.338 151.78 146.77C151.562 146.202 151.242 145.759 150.821 145.442C150.399 145.124 149.879 144.966 149.258 144.966C148.619 144.966 148.086 145.131 147.66 145.463C147.234 145.794 146.912 146.247 146.694 146.819C146.481 147.392 146.375 148.039 146.375 148.758C146.375 149.488 146.484 150.143 146.701 150.726C146.919 151.308 147.241 151.77 147.667 152.111C148.098 152.447 148.629 152.615 149.258 152.615ZM164.16 149.689V143.304H166.291V154.213H164.203V152.324H164.089C163.838 152.906 163.436 153.391 162.882 153.78C162.332 154.163 161.648 154.355 160.829 154.355C160.128 154.355 159.508 154.201 158.968 153.893C158.433 153.581 158.012 153.119 157.704 152.508C157.401 151.898 157.249 151.142 157.249 150.243V143.304H159.373V149.987C159.373 150.73 159.579 151.322 159.991 151.763C160.403 152.203 160.938 152.423 161.596 152.423C161.994 152.423 162.389 152.324 162.782 152.125C163.18 151.926 163.509 151.625 163.769 151.223C164.034 150.82 164.165 150.309 164.16 149.689ZM169.344 154.213V143.304H171.468V154.213H169.344ZM170.416 141.621C170.047 141.621 169.73 141.497 169.465 141.251C169.204 141 169.074 140.702 169.074 140.356C169.074 140.006 169.204 139.708 169.465 139.461C169.73 139.211 170.047 139.085 170.416 139.085C170.786 139.085 171.101 139.211 171.361 139.461C171.626 139.708 171.759 140.006 171.759 140.356C171.759 140.702 171.626 141 171.361 141.251C171.101 141.497 170.786 141.621 170.416 141.621ZM179.12 154.433C178.064 154.433 177.155 154.194 176.392 153.716C175.635 153.233 175.052 152.568 174.645 151.72C174.238 150.872 174.034 149.902 174.034 148.808C174.034 147.7 174.243 146.722 174.659 145.875C175.076 145.023 175.663 144.357 176.421 143.879C177.178 143.401 178.071 143.162 179.098 143.162C179.927 143.162 180.666 143.316 181.314 143.623C181.963 143.926 182.486 144.353 182.884 144.902C183.286 145.451 183.525 146.093 183.601 146.827H181.534C181.421 146.315 181.16 145.875 180.753 145.506C180.351 145.136 179.811 144.952 179.134 144.952C178.542 144.952 178.023 145.108 177.578 145.42C177.138 145.728 176.795 146.168 176.549 146.741C176.302 147.309 176.179 147.982 176.179 148.758C176.179 149.554 176.3 150.24 176.541 150.818C176.783 151.396 177.124 151.843 177.564 152.16C178.009 152.478 178.532 152.636 179.134 152.636C179.536 152.636 179.901 152.563 180.228 152.416C180.559 152.265 180.836 152.049 181.059 151.77C181.286 151.49 181.444 151.154 181.534 150.761H183.601C183.525 151.467 183.296 152.096 182.912 152.65C182.529 153.204 182.015 153.64 181.371 153.957C180.732 154.274 179.981 154.433 179.12 154.433ZM188.025 150.513L188.011 147.92H188.38L192.727 143.304H195.27L190.312 148.559H189.978L188.025 150.513ZM186.072 154.213V139.667H188.196V154.213H186.072ZM192.961 154.213L189.055 149.028L190.518 147.544L195.568 154.213H192.961ZM200.168 152.224L200.061 152.998C199.99 153.567 199.869 154.158 199.699 154.774C199.533 155.394 199.36 155.97 199.18 156.5C199.005 157.03 198.861 157.452 198.747 157.764H197.242C197.303 157.47 197.388 157.073 197.497 156.571C197.606 156.074 197.713 155.517 197.817 154.902C197.921 154.286 197.999 153.659 198.051 153.02L198.122 152.224H200.168ZM210.749 147.736V154.213H208.625V139.667H210.72V145.079H210.855C211.111 144.492 211.502 144.026 212.027 143.68C212.553 143.335 213.239 143.162 214.087 143.162C214.835 143.162 215.488 143.316 216.047 143.623C216.611 143.931 217.046 144.39 217.354 145.001C217.666 145.607 217.823 146.365 217.823 147.274V154.213H215.699V147.53C215.699 146.729 215.493 146.109 215.081 145.669C214.669 145.224 214.096 145.001 213.362 145.001C212.861 145.001 212.411 145.108 212.013 145.321C211.62 145.534 211.31 145.846 211.083 146.258C210.86 146.666 210.749 147.158 210.749 147.736ZM224.031 154.454C223.34 154.454 222.715 154.327 222.156 154.071C221.597 153.81 221.155 153.434 220.828 152.942C220.506 152.449 220.345 151.845 220.345 151.131C220.345 150.515 220.463 150.008 220.7 149.611C220.937 149.213 221.257 148.898 221.659 148.666C222.061 148.434 222.511 148.259 223.008 148.14C223.506 148.022 224.012 147.932 224.528 147.871C225.182 147.795 225.712 147.733 226.119 147.686C226.526 147.634 226.822 147.551 227.007 147.437C227.192 147.324 227.284 147.139 227.284 146.883V146.834C227.284 146.213 227.109 145.733 226.758 145.392C226.413 145.051 225.897 144.881 225.21 144.881C224.495 144.881 223.932 145.039 223.52 145.356C223.113 145.669 222.831 146.017 222.675 146.4L220.679 145.946C220.916 145.283 221.261 144.748 221.716 144.341C222.175 143.929 222.703 143.631 223.3 143.446C223.896 143.256 224.524 143.162 225.182 143.162C225.617 143.162 226.079 143.214 226.567 143.318C227.059 143.417 227.518 143.602 227.945 143.872C228.375 144.142 228.728 144.528 229.003 145.03C229.277 145.527 229.415 146.173 229.415 146.969V154.213H227.341V152.721H227.256C227.118 152.996 226.912 153.266 226.638 153.531C226.363 153.796 226.01 154.016 225.579 154.192C225.149 154.367 224.633 154.454 224.031 154.454ZM224.493 152.75C225.08 152.75 225.582 152.634 225.999 152.402C226.42 152.17 226.74 151.867 226.957 151.493C227.18 151.114 227.291 150.709 227.291 150.278V148.872C227.215 148.948 227.069 149.019 226.851 149.085C226.638 149.147 226.394 149.201 226.119 149.248C225.845 149.291 225.577 149.331 225.317 149.369C225.056 149.402 224.838 149.431 224.663 149.454C224.251 149.506 223.875 149.594 223.534 149.717C223.198 149.84 222.928 150.018 222.724 150.25C222.526 150.477 222.426 150.78 222.426 151.159C222.426 151.684 222.62 152.082 223.008 152.352C223.397 152.617 223.892 152.75 224.493 152.75ZM240.618 145.967L238.693 146.308C238.613 146.062 238.485 145.827 238.31 145.605C238.139 145.382 237.907 145.2 237.614 145.058C237.32 144.916 236.953 144.845 236.513 144.845C235.911 144.845 235.41 144.98 235.007 145.25C234.605 145.515 234.403 145.858 234.403 146.28C234.403 146.644 234.538 146.938 234.808 147.16C235.078 147.383 235.514 147.565 236.115 147.707L237.848 148.105C238.852 148.337 239.6 148.694 240.092 149.177C240.585 149.66 240.831 150.288 240.831 151.059C240.831 151.713 240.642 152.295 240.263 152.807C239.889 153.313 239.366 153.711 238.693 154C238.026 154.289 237.251 154.433 236.371 154.433C235.149 154.433 234.152 154.173 233.381 153.652C232.609 153.126 232.135 152.381 231.96 151.415L234.013 151.102C234.141 151.637 234.403 152.042 234.801 152.317C235.199 152.586 235.717 152.721 236.357 152.721C237.053 152.721 237.609 152.577 238.026 152.288C238.442 151.995 238.651 151.637 238.651 151.216C238.651 150.875 238.523 150.588 238.267 150.356C238.016 150.124 237.63 149.949 237.109 149.831L235.263 149.426C234.245 149.194 233.492 148.825 233.004 148.318C232.521 147.811 232.28 147.17 232.28 146.393C232.28 145.749 232.46 145.186 232.82 144.703C233.179 144.22 233.677 143.844 234.311 143.574C234.946 143.299 235.672 143.162 236.491 143.162C237.67 143.162 238.598 143.417 239.276 143.929C239.953 144.435 240.4 145.115 240.618 145.967ZM251.541 145.967L249.616 146.308C249.535 146.062 249.408 145.827 249.232 145.605C249.062 145.382 248.83 145.2 248.536 145.058C248.243 144.916 247.876 144.845 247.435 144.845C246.834 144.845 246.332 144.98 245.93 145.25C245.527 145.515 245.326 145.858 245.326 146.28C245.326 146.644 245.461 146.938 245.731 147.16C246.001 147.383 246.436 147.565 247.038 147.707L248.771 148.105C249.774 148.337 250.523 148.694 251.015 149.177C251.507 149.66 251.754 150.288 251.754 151.059C251.754 151.713 251.564 152.295 251.185 152.807C250.811 153.313 250.288 153.711 249.616 154C248.948 154.289 248.174 154.433 247.293 154.433C246.072 154.433 245.075 154.173 244.303 153.652C243.532 153.126 243.058 152.381 242.883 151.415L244.935 151.102C245.063 151.637 245.326 152.042 245.724 152.317C246.122 152.586 246.64 152.721 247.279 152.721C247.975 152.721 248.532 152.577 248.948 152.288C249.365 151.995 249.573 151.637 249.573 151.216C249.573 150.875 249.445 150.588 249.19 150.356C248.939 150.124 248.553 149.949 248.032 149.831L246.185 149.426C245.167 149.194 244.415 148.825 243.927 148.318C243.444 147.811 243.202 147.17 243.202 146.393C243.202 145.749 243.382 145.186 243.742 144.703C244.102 144.22 244.599 143.844 245.234 143.574C245.868 143.299 246.595 143.162 247.414 143.162C248.593 143.162 249.521 143.417 250.198 143.929C250.875 144.435 251.323 145.115 251.541 145.967ZM256.412 139.667V154.213H254.288V139.667H256.412ZM264.171 154.433C263.096 154.433 262.17 154.203 261.394 153.744C260.622 153.28 260.025 152.629 259.604 151.791C259.187 150.948 258.979 149.961 258.979 148.829C258.979 147.712 259.187 146.727 259.604 145.875C260.025 145.023 260.612 144.357 261.365 143.879C262.123 143.401 263.008 143.162 264.022 143.162C264.637 143.162 265.234 143.264 265.811 143.467C266.389 143.671 266.907 143.99 267.367 144.426C267.826 144.862 268.188 145.427 268.453 146.123C268.718 146.815 268.851 147.655 268.851 148.645V149.398H260.179V147.807H266.77C266.77 147.248 266.656 146.753 266.429 146.322C266.202 145.887 265.882 145.543 265.47 145.292C265.063 145.041 264.585 144.916 264.036 144.916C263.439 144.916 262.918 145.063 262.473 145.356C262.033 145.645 261.692 146.024 261.451 146.493C261.214 146.957 261.095 147.461 261.095 148.006V149.248C261.095 149.978 261.223 150.598 261.479 151.109C261.739 151.621 262.102 152.011 262.566 152.281C263.03 152.546 263.572 152.679 264.192 152.679C264.594 152.679 264.961 152.622 265.293 152.508C265.624 152.39 265.911 152.215 266.152 151.983C266.394 151.751 266.578 151.464 266.706 151.123L268.716 151.486C268.555 152.077 268.266 152.596 267.85 153.041C267.438 153.481 266.919 153.825 266.294 154.071C265.674 154.312 264.966 154.433 264.171 154.433ZM277.835 147.146V148.986H271.386V147.146H277.835ZM286.057 143.304V145.008H279.892V143.304H286.057ZM281.582 154.213V142.04C281.582 141.358 281.732 140.792 282.03 140.342C282.328 139.888 282.723 139.549 283.216 139.327C283.708 139.099 284.243 138.986 284.821 138.986C285.247 138.986 285.612 139.021 285.915 139.092C286.218 139.158 286.443 139.22 286.589 139.277L286.092 140.996C285.993 140.967 285.865 140.934 285.709 140.896C285.553 140.854 285.363 140.832 285.141 140.832C284.625 140.832 284.255 140.96 284.033 141.216C283.815 141.471 283.706 141.841 283.706 142.324V154.213H281.582ZM288.448 154.213V143.304H290.5V145.037H290.614C290.813 144.45 291.163 143.988 291.665 143.652C292.172 143.311 292.745 143.14 293.384 143.14C293.517 143.14 293.673 143.145 293.853 143.155C294.037 143.164 294.182 143.176 294.286 143.19V145.221C294.201 145.198 294.049 145.172 293.831 145.143C293.614 145.11 293.396 145.094 293.178 145.094C292.676 145.094 292.229 145.2 291.836 145.413C291.447 145.622 291.14 145.913 290.912 146.287C290.685 146.656 290.571 147.077 290.571 147.551V154.213H288.448ZM300.635 154.433C299.56 154.433 298.634 154.203 297.858 153.744C297.086 153.28 296.489 152.629 296.068 151.791C295.651 150.948 295.443 149.961 295.443 148.829C295.443 147.712 295.651 146.727 296.068 145.875C296.489 145.023 297.076 144.357 297.829 143.879C298.587 143.401 299.472 143.162 300.486 143.162C301.101 143.162 301.698 143.264 302.275 143.467C302.853 143.671 303.371 143.99 303.831 144.426C304.29 144.862 304.652 145.427 304.917 146.123C305.183 146.815 305.315 147.655 305.315 148.645V149.398H296.643V147.807H303.234C303.234 147.248 303.121 146.753 302.893 146.322C302.666 145.887 302.346 145.543 301.934 145.292C301.527 145.041 301.049 144.916 300.5 144.916C299.903 144.916 299.382 145.063 298.937 145.356C298.497 145.645 298.156 146.024 297.915 146.493C297.678 146.957 297.559 147.461 297.559 148.006V149.248C297.559 149.978 297.687 150.598 297.943 151.109C298.203 151.621 298.566 152.011 299.03 152.281C299.494 152.546 300.036 152.679 300.656 152.679C301.058 152.679 301.425 152.622 301.757 152.508C302.088 152.39 302.375 152.215 302.616 151.983C302.858 151.751 303.042 151.464 303.17 151.123L305.18 151.486C305.019 152.077 304.73 152.596 304.314 153.041C303.902 153.481 303.383 153.825 302.758 154.071C302.138 154.312 301.43 154.433 300.635 154.433ZM312.573 154.433C311.498 154.433 310.573 154.203 309.796 153.744C309.024 153.28 308.428 152.629 308.006 151.791C307.59 150.948 307.381 149.961 307.381 148.829C307.381 147.712 307.59 146.727 308.006 145.875C308.428 145.023 309.015 144.357 309.768 143.879C310.525 143.401 311.411 143.162 312.424 143.162C313.039 143.162 313.636 143.264 314.214 143.467C314.791 143.671 315.31 143.99 315.769 144.426C316.228 144.862 316.591 145.427 316.856 146.123C317.121 146.815 317.253 147.655 317.253 148.645V149.398H308.582V147.807H315.172C315.172 147.248 315.059 146.753 314.832 146.322C314.604 145.887 314.285 145.543 313.873 145.292C313.466 145.041 312.987 144.916 312.438 144.916C311.841 144.916 311.321 145.063 310.876 145.356C310.435 145.645 310.094 146.024 309.853 146.493C309.616 146.957 309.498 147.461 309.498 148.006V149.248C309.498 149.978 309.626 150.598 309.881 151.109C310.142 151.621 310.504 152.011 310.968 152.281C311.432 152.546 311.974 152.679 312.594 152.679C312.997 152.679 313.364 152.622 313.695 152.508C314.027 152.39 314.313 152.215 314.555 151.983C314.796 151.751 314.981 151.464 315.109 151.123L317.118 151.486C316.957 152.077 316.669 152.596 316.252 153.041C315.84 153.481 315.322 153.825 314.697 154.071C314.076 154.312 313.368 154.433 312.573 154.433Z" fill="#143761"/>
</svg>
