<svg width="708" height="346" viewBox="0 0 708 346" fill="none" xmlns="http://www.w3.org/2000/svg">
<g clip-path="url(#clip0_681_4982)">
<rect width="708" height="346" transform="translate(0 -0.179688)" fill="#143761"/>
<mask id="mask0_681_4982" style="mask-type:luminance" maskUnits="userSpaceOnUse" x="0" y="-1" width="708" height="347">
<path d="M708 -0.179688H0V345.82H708V-0.179688Z" fill="white"/>
</mask>
<g mask="url(#mask0_681_4982)">
<path d="M108 -2.17969V455.82" stroke="#4B8BFF" stroke-opacity="0.53" stroke-miterlimit="10"/>
<path d="M348 231.82H708" stroke="#4B8BFF" stroke-opacity="0.53" stroke-miterlimit="10"/>
<path d="M348 311.82H708" stroke="#4B8BFF" stroke-opacity="0.53" stroke-miterlimit="10"/>
<path d="M348 271.82H708" stroke="#4B8BFF" stroke-opacity="0.53" stroke-miterlimit="10"/>
<path d="M348 191.82H708" stroke="#4B8BFF" stroke-opacity="0.53" stroke-miterlimit="10"/>
<path d="M348 191.879V397.819" stroke="#4B8BFF" stroke-opacity="0.53" stroke-miterlimit="10"/>
<path d="M468 191.879V397.819" stroke="#4B8BFF" stroke-opacity="0.53" stroke-miterlimit="10"/>
<path d="M588 191.879V397.819" stroke="#4B8BFF" stroke-opacity="0.53" stroke-miterlimit="10"/>
<path d="M588 -2.17969V191.82" stroke="#4B8BFF" stroke-opacity="0.53" stroke-miterlimit="10"/>
<path d="M293 243.32C293 186.711 246.885 140.82 190 140.82C133.115 140.82 87 186.711 87 243.32C87 299.929 133.115 345.82 190 345.82C246.885 345.82 293 299.929 293 243.32Z" fill="#143761" stroke="#6B9FFF" stroke-opacity="0.56" stroke-width="0.8" stroke-miterlimit="10"/>
<path d="M415 323.736H262C248.745 323.736 238 334.481 238 347.736V387.736C238 400.991 248.745 411.736 262 411.736H415C428.255 411.736 439 400.991 439 387.736V347.736C439 334.481 428.255 323.736 415 323.736Z" fill="#143761" stroke="#6B9FFF" stroke-opacity="0.56" stroke-width="0.8" stroke-miterlimit="10"/>
<path d="M273.975 28.9364L204.267 55.3687C197.752 57.8393 194.473 65.1239 196.943 71.6393L223.375 141.347C225.846 147.863 233.131 151.142 239.646 148.671L309.354 122.239C315.869 119.768 319.148 112.484 316.677 105.968L290.245 36.2603C287.775 29.7448 280.49 26.4658 273.975 28.9364Z" fill="#143761" stroke="#6B9FFF" stroke-opacity="0.56" stroke-width="0.8" stroke-miterlimit="10"/>
<path d="M674.823 50.2135C679.626 50.2135 683.52 46.3199 683.52 41.5169C683.52 36.7139 679.626 32.8203 674.823 32.8203C670.02 32.8203 666.127 36.7139 666.127 41.5169C666.127 46.3199 670.02 50.2135 674.823 50.2135Z" fill="#143761" stroke="#6B9FFF" stroke-opacity="0.56" stroke-width="0.8" stroke-miterlimit="10"/>
<path d="M646.259 50.2135C651.062 50.2135 654.956 46.3199 654.956 41.5169C654.956 36.7139 651.062 32.8203 646.259 32.8203C641.456 32.8203 637.562 36.7139 637.562 41.5169C637.562 46.3199 641.456 50.2135 646.259 50.2135Z" fill="#143761" stroke="#6B9FFF" stroke-opacity="0.56" stroke-width="0.8" stroke-miterlimit="10"/>
<path d="M617.697 50.2135C622.5 50.2135 626.393 46.3199 626.393 41.5169C626.393 36.7139 622.5 32.8203 617.697 32.8203C612.894 32.8203 609 36.7139 609 41.5169C609 46.3199 612.894 50.2135 617.697 50.2135Z" fill="#143761" stroke="#6B9FFF" stroke-opacity="0.56" stroke-width="0.8" stroke-miterlimit="10"/>
<path d="M556.639 224.149C556.658 220.793 559.959 217.942 563.622 219.079L642.426 243.832C645.205 244.698 646.287 247.476 645.62 249.804L642.715 268.783C642.318 271.255 640.64 273.329 638.313 274.231L626.225 278.922L611.197 284.75C610.186 285.147 609.393 285.905 608.942 286.879L598.73 309.322C596.15 314.013 589.403 313.977 586.859 309.268L557.253 246.069C556.351 244.157 555.936 242.046 556.008 239.935L556.639 224.149Z" fill="#143761" stroke="#8FB7FF" stroke-opacity="0.6" stroke-width="1.8" stroke-miterlimit="10" stroke-linejoin="round"/>
<path d="M609.718 265.481L599.759 283.523C597.179 288.214 590.431 288.178 587.888 283.469L557.289 226.747C554.998 222.507 559.021 217.636 563.622 219.079L642.427 243.832C646.865 245.221 646.955 251.481 642.553 253.015L611.973 263.587C611.017 263.912 610.205 264.597 609.7 265.5L609.718 265.481Z" fill="#143761" stroke="#8FB7FF" stroke-opacity="0.6" stroke-width="1.8" stroke-miterlimit="10" stroke-linejoin="round"/>
<path d="M609.5 285.994L611.088 264.002" stroke="#8FB7FF" stroke-opacity="0.6" stroke-miterlimit="10" stroke-linejoin="round"/>
<path d="M598.748 309.304L601.869 279.572" stroke="#8FB7FF" stroke-opacity="0.6" stroke-miterlimit="10" stroke-linejoin="round"/>
<path d="M586.877 309.25L586.173 280.51" stroke="#8FB7FF" stroke-opacity="0.6" stroke-miterlimit="10" stroke-linejoin="round"/>
<path d="M601.098 142.957L574.703 184.755C571.919 189.209 567.037 191.921 561.77 191.921H507.382C502.114 191.935 497.232 189.209 494.448 184.755L468.325 142.957C465.227 138.004 465.227 131.737 468.311 126.798L494.705 85.0007C497.503 80.5326 502.371 77.8203 507.624 77.8203H562.027C567.294 77.8203 572.176 80.5326 574.96 84.9721L601.083 126.798C604.181 131.737 604.181 138.018 601.098 142.957Z" fill="#143761" stroke="#8FB7FF" stroke-opacity="0.6" stroke-width="1.8" stroke-miterlimit="10"/>
<path d="M564.838 93.3369C565.766 91.8666 567.308 91.6953 567.922 91.6953C568.55 91.6953 570.077 91.8523 571.005 93.3369L572.761 96.1634V96.1063L593.517 129.324C595.63 132.707 595.63 137.076 593.517 140.444L583.767 155.961L570.734 176.603C569.806 178.074 568.379 178.245 567.808 178.231C567.222 178.231 565.781 178.074 564.853 176.589L542.341 140.544C540.228 137.175 540.214 132.822 542.284 129.424L564.838 93.3369Z" fill="#143761" stroke="#8FB7FF" stroke-opacity="0.6" stroke-miterlimit="10"/>
<path d="M237.014 250.377C236.868 246.561 237.887 242.716 239.985 239.352L366.18 37.3826C369.791 31.6008 376.112 28.1055 382.928 28.1055H453.387C460.203 28.1055 466.538 31.6153 470.15 37.3826L472.801 41.6352L473.747 43.1498L487.117 64.5294L503.996 91.5306C505.991 94.7346 506.996 98.3609 506.996 102.002C506.996 105.628 505.991 109.269 503.996 112.473L397.914 282.228L380.496 310.103L380.437 310.205L377.816 314.428C374.204 320.196 367.869 323.705 361.053 323.705H290.579C283.763 323.705 277.428 320.181 273.816 314.428L255.626 285.315L239.985 260.266C238.091 257.237 237.086 253.829 237.014 250.377Z" fill="#143761" stroke="#8FB7FF" stroke-opacity="0.6" stroke-width="1.8" stroke-linejoin="round"/>
<path d="M370.927 303.607C370.155 303.607 368.218 303.388 366.98 301.422L351.776 277.086L340.183 258.954L338.028 255.517C336.688 253.376 335.945 250.915 335.887 248.439C335.799 245.599 336.542 242.861 338.028 240.473L394.724 149.741L457.858 48.625C459.096 46.6443 461.048 46.4258 461.819 46.4258C462.591 46.4258 464.543 46.6443 465.781 48.625L466.698 50.0959L494.777 94.5008C497.632 99.0738 497.632 104.986 494.777 109.559L374.918 301.32L374.859 301.422C373.621 303.388 371.699 303.607 370.913 303.607H370.927Z" fill="#143761" stroke="#8FB7FF" stroke-opacity="0.6" stroke-miterlimit="10" stroke-linejoin="round"/>
</g>
</g>
<defs>
<clipPath id="clip0_681_4982">
<rect width="708" height="346" fill="white" transform="translate(0 -0.179688)"/>
</clipPath>
</defs>
</svg>
