<?xml version="1.0" encoding="UTF-8"?>
<svg id="Layer_1" data-name="Layer 1" xmlns="http://www.w3.org/2000/svg" viewBox="0 0 141.73 141.73">
  <defs>
    <style>
      .cls-1, .cls-2 {
        fill: #231f20;
      }

      .cls-2 {
        font-family: MyriadPro-Regular, 'Myriad Pro';
        font-size: 11.57px;
      }
    </style>
  </defs>
  <g>
    <text class="cls-2" transform="translate(44.52 87.6)"><tspan x="0" y="0">magic of the place</tspan></text>
    <g>
      <path class="cls-1" d="M17.13,66.12v6.5c0,.4.08.67.24.82.16.15.45.22.88.22,0,1.18-.55,1.76-1.65,1.76-.71,0-1.21-.22-1.48-.66-.27-.44-.41-1.11-.41-2-.01.12-.07.28-.17.5-.11.22-.28.47-.54.76-.25.29-.56.56-.91.81-.36.25-.83.46-1.41.64s-1.22.27-1.9.27c-1.67,0-3.01-.44-4.02-1.32-1.01-.88-1.51-2.16-1.51-3.84,0-.78.13-1.47.38-2.09.25-.61.59-1.12,1.01-1.51.42-.39.92-.73,1.51-1.01s1.19-.48,1.8-.61c.61-.13,1.28-.22,1.98-.27.71-.05,1.36-.06,1.96-.04s1.2.07,1.81.14c-.01-.42-.02-.74-.04-.96-.02-.22-.05-.49-.09-.81-.05-.32-.12-.56-.2-.73-.09-.17-.22-.35-.38-.55-.16-.2-.36-.35-.6-.44-.24-.09-.53-.18-.87-.24-.35-.07-.75-.1-1.21-.1-.85,0-1.7.1-2.56.31s-1.5.41-1.94.61l-.65.32c-.21-.42-.32-.79-.33-1.1-.01-.31.08-.58.27-.79.19-.21.4-.38.65-.51.24-.13.55-.25.91-.37,1.12-.36,2.34-.54,3.65-.54.91,0,1.71.07,2.38.21.67.14,1.22.38,1.64.7.42.33.76.66,1.01,1,.25.34.43.81.54,1.42.11.6.18,1.14.21,1.61.03.47.05,1.11.05,1.91ZM6.74,70.58c0,.93.28,1.68.83,2.24.56.56,1.45.84,2.68.84.96,0,1.78-.24,2.46-.72.69-.48,1.19-1.1,1.51-1.84.32-.75.48-1.56.48-2.46v-1.56c-5.31-.37-7.97.8-7.97,3.5Z"/>
      <path class="cls-1" d="M21.38,72.97v-13.38h.54c.11,0,.26,0,.45.02.19.02.33.04.41.06.08.03.19.07.31.12.13.05.21.12.27.2.05.08.12.18.19.3.07.12.12.25.15.42.03.16.05.35.07.56s.03.45.03.71c.03-.12.07-.24.13-.39.05-.14.18-.36.39-.66.2-.3.44-.56.71-.79.27-.23.65-.43,1.13-.61.49-.18,1.03-.27,1.63-.27,2.48,0,4.17,1.07,5.07,3.21.02-.08.06-.2.12-.35.06-.15.21-.4.45-.77.24-.37.52-.69.83-.98.31-.28.77-.54,1.35-.77.59-.23,1.23-.35,1.94-.35,3.85,0,5.78,2.56,5.78,7.68v8.47c-.33,0-.56,0-.7,0s-.32-.02-.54-.05c-.22-.03-.38-.07-.46-.13-.09-.06-.19-.15-.31-.27-.12-.12-.2-.26-.24-.44-.04-.18-.08-.39-.11-.65-.03-.25-.05-.56-.05-.91v-6.02c0-3.74-1.22-5.61-3.67-5.61s-3.67,1.87-3.67,5.61v8.47c-.33,0-.56,0-.7,0s-.32-.02-.54-.05c-.22-.03-.38-.07-.46-.13-.09-.06-.19-.15-.32-.27-.12-.12-.2-.26-.24-.44-.04-.18-.08-.39-.11-.65-.03-.25-.05-.56-.05-.91v-6.02c0-3.74-1.22-5.61-3.67-5.61s-3.67,1.87-3.67,5.61v8.47c-.33,0-.56,0-.7,0s-.32-.02-.54-.05c-.22-.03-.38-.07-.46-.13-.09-.06-.19-.15-.32-.27-.12-.12-.2-.26-.24-.44-.04-.18-.08-.39-.11-.65-.03-.25-.05-.56-.05-.91Z"/>
      <path class="cls-1" d="M59.18,66.12v6.5c0,.4.08.67.24.82.16.15.45.22.88.22,0,1.18-.55,1.76-1.65,1.76-.71,0-1.21-.22-1.48-.66-.27-.44-.41-1.11-.41-2-.01.12-.07.28-.17.5-.11.22-.28.47-.54.76-.25.29-.56.56-.91.81-.36.25-.83.46-1.41.64s-1.22.27-1.9.27c-1.67,0-3.01-.44-4.02-1.32-1.01-.88-1.51-2.16-1.51-3.84,0-.78.13-1.47.38-2.09.25-.61.59-1.12,1.01-1.51.42-.39.92-.73,1.51-1.01s1.19-.48,1.8-.61c.61-.13,1.28-.22,1.98-.27.71-.05,1.36-.06,1.96-.04s1.2.07,1.81.14c-.01-.42-.02-.74-.04-.96-.02-.22-.05-.49-.09-.81-.05-.32-.12-.56-.2-.73-.09-.17-.22-.35-.38-.55-.16-.2-.36-.35-.6-.44-.24-.09-.53-.18-.87-.24-.35-.07-.75-.1-1.21-.1-.85,0-1.7.1-2.56.31s-1.5.41-1.94.61l-.65.32c-.21-.42-.32-.79-.33-1.1-.01-.31.08-.58.27-.79.19-.21.4-.38.65-.51.24-.13.55-.25.91-.37,1.12-.36,2.34-.54,3.65-.54.91,0,1.71.07,2.38.21.67.14,1.22.38,1.64.7.42.33.76.66,1.01,1,.25.34.43.81.54,1.42.11.6.18,1.14.21,1.61.03.47.05,1.11.05,1.91ZM48.79,70.58c0,.93.28,1.68.83,2.24.56.56,1.45.84,2.68.84.96,0,1.78-.24,2.46-.72.69-.48,1.19-1.1,1.51-1.84.32-.75.48-1.56.48-2.46v-1.56c-5.31-.37-7.97.8-7.97,3.5Z"/>
      <path class="cls-1" d="M63.75,72.76v-21.21c.33,0,.56,0,.7,0,.14,0,.32.02.54.05.22.03.38.07.46.13.09.06.19.15.31.27.12.12.2.26.24.44.04.18.08.39.11.65.03.25.05.56.05.91v18.61c0,.4.08.67.24.82.16.15.45.22.88.22,0,1.18-.55,1.76-1.65,1.76-.71,0-1.21-.22-1.48-.66s-.41-1.11-.41-2Z"/>
      <path class="cls-1" d="M72.47,61.66h-3.86c0-.24,0-.43.02-.57.01-.14.04-.31.1-.53.06-.22.14-.39.26-.51.12-.12.29-.23.53-.32.24-.09.53-.14.87-.14h2.08v-.99c0-2.54.36-4.4,1.09-5.58.72-1.18,2.02-1.77,3.89-1.77.56,0,1.1.05,1.64.16.54.11.93.21,1.18.32l.39.16c-.12.4-.26.72-.42.95-.17.24-.37.39-.61.46-.24.07-.44.11-.62.12-.18,0-.42,0-.73-.04-.31-.03-.53-.05-.67-.05-1.08,0-1.8.37-2.16,1.12-.36.75-.54,2.13-.54,4.16v.99h5.34c0,.24,0,.43-.02.57s-.04.31-.1.54c-.06.22-.14.39-.26.51-.12.12-.29.23-.54.32-.24.09-.53.14-.87.14h-3.56v13.76c-.33,0-.56,0-.7,0s-.32-.02-.54-.05c-.22-.03-.38-.07-.46-.13-.09-.06-.19-.15-.32-.27-.12-.12-.2-.26-.24-.44-.04-.18-.08-.39-.11-.65-.03-.25-.05-.56-.05-.91v-11.31Z"/>
      <path class="cls-1" d="M94.05,66.12v6.5c0,.4.08.67.24.82.16.15.45.22.88.22,0,1.18-.55,1.76-1.65,1.76-.71,0-1.21-.22-1.48-.66-.27-.44-.41-1.11-.41-2-.01.12-.07.28-.17.5-.11.22-.28.47-.54.76-.25.29-.56.56-.91.81-.36.25-.83.46-1.41.64s-1.22.27-1.9.27c-1.67,0-3.01-.44-4.02-1.32-1.01-.88-1.51-2.16-1.51-3.84,0-.78.13-1.47.38-2.09.25-.61.59-1.12,1.01-1.51.42-.39.92-.73,1.51-1.01s1.19-.48,1.8-.61c.61-.13,1.28-.22,1.98-.27.71-.05,1.36-.06,1.96-.04s1.2.07,1.81.14c-.01-.42-.02-.74-.04-.96-.02-.22-.05-.49-.09-.81-.05-.32-.12-.56-.2-.73-.09-.17-.22-.35-.38-.55-.16-.2-.36-.35-.6-.44-.24-.09-.53-.18-.87-.24-.35-.07-.75-.1-1.21-.1-.85,0-1.7.1-2.56.31s-1.5.41-1.94.61l-.65.32c-.21-.42-.32-.79-.33-1.1-.01-.31.08-.58.27-.79.19-.21.4-.38.65-.51.24-.13.55-.25.91-.37,1.12-.36,2.34-.54,3.65-.54.91,0,1.71.07,2.38.21.67.14,1.22.38,1.64.7.42.33.76.66,1.01,1,.25.34.43.81.54,1.42.11.6.18,1.14.21,1.61.03.47.05,1.11.05,1.91ZM83.66,70.58c0,.93.28,1.68.83,2.24.56.56,1.45.84,2.68.84.96,0,1.78-.24,2.46-.72.69-.48,1.19-1.1,1.51-1.84.32-.75.48-1.56.48-2.46v-1.56c-5.31-.37-7.97.8-7.97,3.5Z"/>
      <path class="cls-1" d="M98.3,59.59c.33,0,.56,0,.7,0s.32.02.54.05c.22.03.38.07.46.13.09.06.19.15.32.27.12.12.2.26.24.44s.08.39.11.65c.03.25.05.55.05.9.02-.09.07-.22.13-.39.07-.16.2-.39.41-.68.2-.29.45-.56.72-.8.28-.24.66-.44,1.14-.62.48-.18,1.02-.27,1.61-.27s1.11.05,1.63.14c.52.09.89.19,1.13.28l.36.14c-.09.37-.2.67-.33.9s-.25.4-.39.5c-.13.11-.3.17-.51.2-.21.03-.4.04-.57.02-.17-.02-.41-.04-.72-.07-.31-.03-.58-.05-.81-.05-2.54,0-3.81,1.76-3.81,5.27v8.8c-.33,0-.56,0-.7,0s-.32-.02-.54-.05c-.22-.03-.38-.07-.46-.13-.09-.06-.19-.15-.32-.27-.12-.12-.2-.26-.24-.44-.04-.18-.08-.39-.11-.65-.03-.25-.05-.56-.05-.91v-13.38Z"/>
      <path class="cls-1" d="M110.36,72.97v-13.38h.54c.11,0,.26,0,.45.02.19.02.33.04.41.06.08.03.19.07.31.12.13.05.21.12.27.2.05.08.12.18.19.3.07.12.12.25.15.42.03.16.05.35.07.56s.03.45.03.71c.03-.12.07-.24.13-.39.05-.14.18-.36.39-.66.2-.3.44-.56.71-.79.27-.23.65-.43,1.13-.61.49-.18,1.03-.27,1.63-.27,2.48,0,4.17,1.07,5.07,3.21.02-.08.06-.2.12-.35.06-.15.21-.4.45-.77.24-.37.52-.69.83-.98.31-.28.77-.54,1.35-.77.59-.23,1.23-.35,1.94-.35,3.85,0,5.78,2.56,5.78,7.68v8.47c-.33,0-.56,0-.7,0s-.32-.02-.54-.05c-.22-.03-.38-.07-.46-.13-.09-.06-.19-.15-.31-.27-.12-.12-.2-.26-.24-.44-.04-.18-.08-.39-.11-.65-.03-.25-.05-.56-.05-.91v-6.02c0-3.74-1.22-5.61-3.67-5.61s-3.67,1.87-3.67,5.61v8.47c-.33,0-.56,0-.7,0s-.32-.02-.54-.05c-.22-.03-.38-.07-.46-.13-.09-.06-.19-.15-.32-.27-.12-.12-.2-.26-.24-.44-.04-.18-.08-.39-.11-.65-.03-.25-.05-.56-.05-.91v-6.02c0-3.74-1.22-5.61-3.67-5.61s-3.67,1.87-3.67,5.61v8.47c-.33,0-.56,0-.7,0s-.32-.02-.54-.05c-.22-.03-.38-.07-.46-.13-.09-.06-.19-.15-.32-.27-.12-.12-.2-.26-.24-.44-.04-.18-.08-.39-.11-.65-.03-.25-.05-.56-.05-.91Z"/>
    </g>
  </g>
  <g>
    <path class="cls-1" d="M134.42,60.48c-1.69,0-3.06-1.37-3.06-3.06s1.37-3.06,3.06-3.06,3.06,1.37,3.06,3.06-1.37,3.06-3.06,3.06ZM134.42,54.64c-1.53,0-2.78,1.25-2.78,2.78s1.25,2.78,2.78,2.78,2.78-1.25,2.78-2.78-1.25-2.78-2.78-2.78Z"/>
    <path class="cls-1" d="M133.44,55.68c.24-.05.59-.08.92-.08.51,0,.84.09,1.08.3.19.17.29.42.29.71,0,.49-.31.82-.7.95v.02c.29.1.46.36.55.75.12.52.21.88.29,1.02h-.5c-.06-.1-.14-.42-.25-.89-.11-.51-.31-.71-.74-.72h-.45v1.61h-.48v-3.67ZM133.92,57.38h.49c.51,0,.84-.28.84-.71,0-.48-.35-.69-.86-.7-.23,0-.4.02-.47.04v1.36Z"/>
  </g>
</svg>