<?xml version="1.0" encoding="UTF-8"?>
<svg id="Layer_1" data-name="Layer 1" xmlns="http://www.w3.org/2000/svg" viewBox="0 0 141.73 141.73">
  <defs>
    <style>
      .cls-1 {
        fill: #231f20;
      }

      .cls-2 {
        fill: #91381e;
      }

      .cls-3 {
        fill: #fff;
      }

      .cls-4 {
        fill: #f3bb19;
      }

      .cls-5 {
        fill: #9b9b9b;
      }

      .cls-6 {
        fill: #525252;
      }

      .cls-7 {
        fill: #fffefe;
      }

      .cls-8 {
        fill: #8a3a1d;
      }

      .cls-9 {
        fill: #010101;
      }
    </style>
  </defs>
  <g>
    <g>
      <path class="cls-9" d="M21.76,81.37l-7.43-18.17h-.92l-7.07,17.29h0c-1.01,2.44-2.09,2.65-2.09,2.65v.21h2.75v-.21s-.45-.5.12-2.32l1.97-4.8.37-.92,3.02-7.39,3.04,7.39.38.92,1.9,4.63c.66,1.79.21,2.5.21,2.5v.21h5.48v-.21s-.89-.11-1.73-1.78Z"/>
      <path class="cls-9" d="M59.2,81.37l-7.43-18.17h-.92l-7.07,17.29h0c-1.01,2.44-2.09,2.65-2.09,2.65v.21h2.75v-.21s-.45-.5.12-2.32l1.97-4.8.37-.92,3.02-7.39,3.04,7.39.38.92,1.9,4.63c.66,1.79.21,2.5.21,2.5v.21h5.48v-.21s-.89-.11-1.73-1.78Z"/>
      <path class="cls-9" d="M39.86,63.21v.21s-.92.19-.92,2.54v17.41h-.92l-11.91-17.47s0,.04,0,.06v14.66c0,2.35.92,2.54.92,2.54v.21h-2.75v-.21s.92-.19.92-2.54v-14.66c0-2.35-.92-2.54-.92-2.54v-.21h3.66l10.08,14.78v-12.03c0-2.35-.92-2.54-.92-2.54v-.21h2.75Z"/>
      <path class="cls-9" d="M59.4,63.21v.21s-.45.54.09,2.26l5.39,13.17,5.32-12.94c.66-1.79.19-2.5.19-2.5v-.21h5.5v.21s-.98.14-1.84,2.05l-7.32,17.9h-.92s-7.07-17.29-7.07-17.29h0s0-.02-.01-.03l-.11-.27c-.89-2.09-1.96-2.36-1.96-2.36v-.21h2.75Z"/>
      <path class="cls-9" d="M79.26,80.89l4.21-6.01c-3.64-.62-5.94-2.45-5.94-5.71,0-4.12,3.89-5.95,9.05-5.95h2.86v.92s-2.86,0-2.86,0c-2.98,0-5.38,2.17-5.38,5.04,0,2.87,2.52,5.04,5.38,5.04h1.03s1.83,0,1.83,0v.92h-2.47s-4.27,6.1-4.27,6.1c-1.02,1.66-.59,1.94-.59,1.94v.21h-5.5v-.21s.75.08,2.65-2.27Z"/>
      <path class="cls-9" d="M95.27,65.95v14.66c0,2.35.92,2.54.92,2.54v.21h-5.5v-.21s.92-.19.92-2.54v-14.66c0-2.35-.92-2.54-.92-2.54v-.21h5.5v.21s-.92.19-.92,2.54Z"/>
      <path class="cls-9" d="M103.33,63.21v.21s-.92.19-.92,2.54v12.03s10.08-14.78,10.08-14.78h3.66v.21s-.92.19-.92,2.54v14.66c0,2.35.92,2.54.92,2.54v.21h-2.75v-.21s.92-.19.92-2.54v-14.66s0-.04,0-.06l-11.91,17.47h-.92v-17.41c0-2.35-.92-2.54-.92-2.54v-.21h2.75Z"/>
      <circle class="cls-9" cx="93.21" cy="59.73" r="2.44"/>
    </g>
    <g>
      <path class="cls-9" d="M42.74,85.42v1.19h-.09s-.08-.89-1.1-.89h-.89v5.35c0,.76.3.82.3.82v.07h-1.78v-.07s.3-.06.3-.82v-5.35h-.89c-1.02,0-1.1.89-1.1.89h-.09v-1.19h5.35Z"/>
      <path class="cls-9" d="M47.78,91.89v.07h-1.78v-.07s.3-.06.3-.82v-2.64c0-.59-.37-.82-.89-.82-.48,0-.89.33-.89.82v2.64c0,.76.3.82.3.82v.07h-1.78v-.07s.3-.06.3-.82v-4.46c0-.76-.3-.82-.3-.82v-.07l1.42-.3h.07v2.31c.28-.37.8-.6,1.41-.6.97,0,1.56.57,1.56,1.26,0,.01,0,.02,0,.04v2.64c0,.76.3.82.3.82Z"/>
      <path class="cls-9" d="M52.73,89.58h-3.12c0,.07,0,.2,0,.26.02.3.06.59.13.84.18.64.53,1.06,1.03,1.06.32,0,.93-.11,1.38-.72l.29.17c-.44.52-1.08.85-1.8.85-1.26,0-2.3-1-2.37-2.27,0-.05,0-.1,0-.15,0,0-.04-.77.39-1.39.44-.65,1.16-1.1,1.99-1.1.7,0,1.1.29,1.18.34.9.6.9,1.88.9,2.11ZM51.54,89.28c0-1.04-.26-1.88-.89-1.88-.53,0-.97.82-1.03,1.88h1.92Z"/>
      <path class="cls-9" d="M60.83,91.63c-.85.6-2.19.48-2.3.46-.65-.08-1.23-.37-1.7-.8-.09.12-.12.38-.12.38h-.07v-1.78h.07c.15.89.45,1.3.97,1.6.22.13.56.25.86.3.71.12,1.78-.26,1.78-1.04,0-.86-2.56-1.82-3.26-2.45-.3-.27-.6-.66-.6-1.15,0,0-.07-.82.71-1.37.85-.6,2.19-.48,2.3-.46.65.08,1.23.37,1.7.8.09-.12.12-.38.12-.38h.07v1.78h-.07c-.16-.84-.48-1.3-.97-1.6-.23-.14-.56-.27-.86-.3-.67-.07-1.75.19-1.78,1.04-.03.87,1.74,1.3,2.86,2.11.17.12,1,.64,1,1.5,0,0,.07.82-.71,1.37Z"/>
      <path class="cls-9" d="M66.85,89.58c0,1.35-1.07,2.45-2.38,2.45s-2.38-1.1-2.38-2.45,1.07-2.45,2.38-2.45,2.38,1.1,2.38,2.45ZM65.51,89.58c0-1.2-.47-2.17-1.04-2.17s-1.04.97-1.04,2.17.47,2.17,1.04,2.17,1.04-.97,1.04-2.17Z"/>
      <path class="cls-9" d="M72.09,91.89v.07h-1.04c-.41,0-.45-.59-.45-.59h0c-.28.37-.8.59-1.41.59-.97,0-1.56-.57-1.56-1.26v-2.3c0-.76-.3-.82-.3-.82v-.07l1.42-.3h.07v3.46c0,.59.37.82.89.82.48,0,.89-.33.89-.82v-2.27c0-.76-.3-.82-.3-.82v-.07l1.42-.3h.07v3.86c0,.76.3.82.3.82Z"/>
      <path class="cls-9" d="M74.4,91.89v.07h-1.78v-.07s.3-.06.3-.83v-4.46c0-.76-.3-.82-.3-.82v-.07l1.42-.3h.07v5.65c0,.76.3.83.3.83Z"/>
      <path class="cls-9" d="M79.06,86.57c-.37.19-.65.07-.77-.22-.16-.37-.42-.67-.83-.67-.63,0-.89.56-.89,1.04v.48h.59v.3h-.59v3.57c0,.76.3.82.3.82v.07h-1.78v-.07s.3-.06.3-.82v-3.57h-.59v-.3h.57c0-1.34.59-1.86,2.15-1.86.32,0,1.12.07,1.52.41.26.22.41.63.04.82Z"/>
      <path class="cls-9" d="M82.3,91.89v.07h-1.04c-.41,0-.45-.59-.45-.59h0c-.28.37-.8.59-1.41.59-.97,0-1.56-.57-1.56-1.26v-2.3c0-.76-.3-.82-.3-.82v-.07l1.42-.3h.07v3.46c0,.59.37.82.89.82.48,0,.89-.33.89-.82v-2.27c0-.76-.3-.82-.3-.82v-.07l1.42-.3h.07v3.86c0,.76.3.82.3.82Z"/>
      <path class="cls-9" d="M84.6,91.89v.07h-1.78v-.07s.3-.06.3-.83v-4.46c0-.76-.3-.82-.3-.82v-.07l1.42-.3h.07v5.65c0,.76.3.83.3.83Z"/>
      <path class="cls-9" d="M93.69,88.69c0,2.26-1.19,3.27-2.94,3.27h-2.42v-.07s.3-.06.3-.82v-4.76c0-.76-.3-.83-.3-.83v-.07h2.42c1.67,0,2.94,1.01,2.94,3.27ZM92.5,88.69c0-1.57-.59-2.97-1.75-2.97h-.93v5.95h.93c1.15,0,1.75-1.4,1.75-2.97Z"/>
      <path class="cls-9" d="M98.67,89.58h-3.12c0,.07,0,.2,0,.26.02.3.06.59.13.84.18.64.53,1.06,1.03,1.06.32,0,.93-.11,1.38-.72l.29.17c-.44.52-1.08.85-1.8.85-1.26,0-2.3-1-2.37-2.27,0-.05,0-.1,0-.15,0,0-.04-.77.39-1.39.44-.65,1.16-1.1,1.99-1.1.7,0,1.1.29,1.18.34.9.6.9,1.88.9,2.11ZM97.48,89.28c0-1.04-.26-1.88-.89-1.88-.53,0-.97.82-1.03,1.88h1.92Z"/>
      <path class="cls-9" d="M100.95,91.89v.07h-1.78v-.07s.3-.06.3-.83v-4.46c0-.76-.3-.82-.3-.82v-.07l1.42-.3h.07v5.65c0,.76.3.83.3.83Z"/>
      <path class="cls-9" d="M103.26,91.89v.07h-1.78v-.07s.3-.06.3-.82v-2.68c0-.76-.3-.83-.3-.83v-.07l1.42-.3h.07v3.86c0,.76.3.82.3.82ZM101.66,86.22c0-.38.32-.69.71-.69s.71.31.71.69-.32.69-.71.69-.71-.31-.71-.69Z"/>
      <path class="cls-9" d="M107.86,93.22c-.52.44-1.43.59-2.01.59-.74,0-1.47-.11-1.87-.44-.84-.71-.09-1.57.05-1.67-.27-.24-.41-.93.5-1.61-.4-.3-.65-.73-.65-1.21,0-.92.93-1.67,2.08-1.67.51,0,.98.15,1.34.39.33-.2.66-.2.72-.19.07,0,.24.05.2.28-.04.19-.17.14-.2.12-.16-.11-.34-.07-.48,0,.31.29.5.67.5,1.09,0,.92-.93,1.67-2.08,1.67-.44,0-.85-.11-1.18-.3-.11.12-.4.49-.19.67.08.06.22.1.52.1.3,0,1.36-.11,2.13.03.35.06.92.31,1.06.9.16.66-.22,1.08-.44,1.26ZM107.87,92.24c-.07-.32-.66-.31-.79-.31-.85-.01-2.33.17-2.78-.05-.39.4-.01.75-.01.75h0c.46.46,2.48.41,3.29,0,.2-.11.33-.24.3-.38ZM105.05,88.88c0,.78.41,1.41.91,1.41s.91-.63.91-1.41-.41-1.41-.91-1.41-.91.63-.91,1.41Z"/>
      <path class="cls-9" d="M113.53,91.89v.07h-1.78v-.07s.3-.06.3-.82v-2.64c0-.59-.37-.82-.89-.82-.48,0-.89.33-.89.82v2.64c0,.76.3.82.3.82v.07h-1.78v-.07s.3-.06.3-.82v-4.46c0-.76-.3-.82-.3-.82v-.07l1.42-.3h.07v2.31c.28-.37.8-.6,1.41-.6.97,0,1.56.57,1.56,1.26,0,.01,0,.02,0,.04v2.64c0,.76.3.82.3.82Z"/>
      <path class="cls-9" d="M115.35,87.5v3.57c0,.76.3.82.3.82v.07h-1.04c-.48,0-.45-.78-.45-.78v-3.68h-.3v-.3c1-.26,1.42-1.19,1.42-1.19h.07v1.19h.59v.3h-.59Z"/>
    </g>
    <rect class="cls-9" x="4.25" y="85.85" width="31.91" height="5.67"/>
    <g>
      <path class="cls-5" d="M121.8,88.37s.29.49,1.23.19,1.26-.89,1.69-1.05,1.02-.79,1.06-1.09-.16-.33-.16-.33l-.46.14-.64.6-.72.54-.98.49s-.32.2-.43.29-.26.17-.26.17l-.33.06Z"/>
      <rect class="cls-8" x="118.05" y="57.11" width="11.54" height="20.79" rx="5.77" ry="5.77" transform="translate(-7 14.84) rotate(-6.67)"/>
      <polygon class="cls-8" points="117.63 65.88 114.54 61.03 119.16 62.84 119.05 63.12 115.3 61.65 117.89 65.72 117.63 65.88"/>
      <polygon class="cls-8" points="125.07 86.08 120.71 81.26 120.71 75.66 121.02 75.66 121.02 81.14 125.3 85.88 125.07 86.08"/>
      <rect class="cls-8" x="126.8" y="76.16" width=".31" height="11.57"/>
      <path class="cls-4" d="M124.91,77.42h-.07c-3.02.33-5.62-1.89-5.95-4.91l-.94-8.88c-.32-3.02,1.75-5.72,4.77-6.04h.07c3.02-.33,5.67,1.9,5.99,4.92l1.01,8.86c.32,3.02-1.87,5.73-4.89,6.05Z"/>
      <circle class="cls-8" cx="122.37" cy="57.94" r="1.79"/>
      <circle class="cls-3" cx="122.37" cy="57.87" r="1.5"/>
      <circle class="cls-2" cx="122.7" cy="58.05" r=".63"/>
      <circle class="cls-7" cx="123.04" cy="58.03" r=".22"/>
      <circle class="cls-7" cx="122.88" cy="57.73" r=".13"/>
      <circle class="cls-8" cx="125.76" cy="58.14" r="1.89"/>
      <circle class="cls-3" cx="125.76" cy="57.98" r="1.5"/>
      <circle class="cls-2" cx="126.1" cy="58.16" r=".63"/>
      <circle class="cls-7" cx="126.44" cy="58.14" r=".22"/>
      <circle class="cls-7" cx="126.28" cy="57.85" r=".13"/>
      <path class="cls-8" d="M120.69,55.59s.64-1.39.88-1.64.54-.29.68-.11.23-.04.18-.27c-.06-.23-.26-.54-.6-.49s-.94.76-1.11,1.41c-.18.65-.27,1.36-.03,1.09Z"/>
      <path class="cls-8" d="M123.78,54.85s.8-.05,1.48.11,1.64.5,1.96.77.44.43.19.37-1.63-.43-2.18-.57-1.2-.18-1.36-.26-.57-.3-.09-.42Z"/>
      <path class="cls-8" d="M116.86,66.41s-.05-.92,1.55-1.39c1.59-.48,2.56,2.86,2.34,4.03-.23,1.17-2.46,1.44-3.34,1.21s-.71-2.64-.54-3.85Z"/>
      <path class="cls-4" d="M117.01,66.51s-.04-.84,1.42-1.28c1.47-.44,2.36,2.63,2.15,3.71-.21,1.08-2.27,1.32-3.07,1.12s-.65-2.43-.49-3.54Z"/>
      <path class="cls-8" d="M119.24,69.98s-.42-.8-.5-1.46c0,0,.53,1.34.93,1.46h-.43Z"/>
      <path class="cls-3" d="M120.87,62.23h6.08s-.3,2.8-2.8,2.8-3.33-2-3.28-2.8Z"/>
      <path class="cls-8" d="M119.74,65.55s1.72.48,2.13,1.32c.42.84-1.8.42-1.8.42l-.33-1.74Z"/>
      <path class="cls-4" d="M119.85,65.73s1.4.37,1.75,1.08c.35.71-1.61.37-1.61.37l-.14-1.45Z"/>
      <path class="cls-4" d="M120.11,75.26v2.08c0,.47.38.84.84.84h0c.47,0,.84-.38.84-.84v-1.57l-1.69-.51Z"/>
      <path class="cls-4" d="M125.96,75.55v1.79c0,.47.38.84.84.84h0c.47,0,.84-.38.84-.84v-1.57l-1.69-.21Z"/>
      <path class="cls-4" d="M124.28,84.98s-.89,1.63-1.78,2.14c-.89.51-1.12,1.36-.25,1.43s1.58-.89,2.29-1.25c.71-.36,1.04-.73,1.12-1.04s-1.29-1.88-1.37-1.28Z"/>
      <path class="cls-6" d="M122.8,87.65c-.17-.09-.17-.33-.17-.49,0-.04,0-.1,0-.11l.06-.04s.02.07.02.15c0,.14,0,.35.13.42l-.04.07Z"/>
      <path class="cls-6" d="M122.57,87.79c-.17-.09-.17-.33-.17-.49,0-.04,0-.1,0-.11l.06-.04s.02.07.02.15c0,.14,0,.35.13.42l-.04.07Z"/>
      <path class="cls-6" d="M122.37,87.92c-.17-.09-.17-.33-.17-.49,0-.04,0-.1,0-.11l.06-.04s.02.07.02.15c0,.14,0,.35.13.42l-.04.07Z"/>
      <path class="cls-6" d="M122.96,87.52c-.17-.09-.17-.33-.17-.49,0-.04,0-.1,0-.11l.06-.04s.02.07.02.15c0,.14,0,.35.13.42l-.04.07Z"/>
      <path class="cls-5" d="M130.97,87.54s.01.57-.94.82c-.95.25-1.54-.08-1.99.01s-1.28-.12-1.48-.36-.04-.36-.04-.36l.46-.13.87.17.9.07,1.09-.11s.38,0,.51.01.31,0,.31,0l.31-.13Z"/>
      <path class="cls-4" d="M127.06,86.01s1.63.9,2.65.86,1.67.55.98,1.07c-.69.52-1.81.1-2.6.17s-1.27-.06-1.5-.28.09-2.28.47-1.82Z"/>
      <path class="cls-6" d="M129.74,87.46l-.07-.04c.08-.13-.04-.31-.11-.42-.04-.07-.07-.11-.07-.14h.08s.03.06.06.1c.09.13.21.33.12.5Z"/>
      <path class="cls-6" d="M130.01,87.47l-.07-.04c.08-.13-.04-.31-.11-.42-.04-.07-.07-.11-.07-.14h.08s.03.06.06.1c.09.13.21.33.12.5Z"/>
      <path class="cls-6" d="M130.24,87.47l-.07-.04c.08-.13-.04-.31-.11-.42-.04-.07-.07-.11-.07-.14h.08s.03.06.06.1c.09.13.21.33.12.5Z"/>
      <path class="cls-6" d="M129.54,87.45l-.07-.04c.08-.13-.04-.31-.11-.42-.04-.07-.07-.11-.07-.14h.08-.04.04s.03.06.06.1c.08.13.21.33.12.5Z"/>
      <path class="cls-8" d="M117.74,67.8s-.33,1.55.14,2.31l.39.11s-.63-.89-.54-2.42Z"/>
      <g>
        <path class="cls-8" d="M129.91,64.58s.31-2.9.99-3.72c.68-.82,1.02-1.06,1.84-.89s1.3.44,1.43.89-.31,1.43-.51,2.15c-.2.72-.84,2.36-.84,2.36,0,0-2.44-.41-2.92-.79Z"/>
        <path class="cls-4" d="M130.21,64.31s.27-2.5.86-3.21.88-.91,1.59-.77,1.12.38,1.24.77-.26,1.24-.44,1.85-.72,2.03-.72,2.03c0,0-2.11-.35-2.52-.68Z"/>
        <path class="cls-8" d="M127.64,67.16s-.7-1.74,0-2.53c.7-.79,2.57-.32,2.57-.32,0,0,2.44.34,3.25,1.15.81.81.83,1.68.62,3.14-.21,1.46-.36,2.8-.76,3.71-.4.91-1.02,1.42-2.1,1.38s-3.18-.53-3.99-.91-1.38-1.59,0-2.61c0,0-1.21-1.78.42-3.01Z"/>
        <path class="cls-4" d="M127.84,67.29s-.65-1.61,0-2.34c.65-.73,2.37-.29,2.37-.29,0,0,2.26.31,3,1.06s.77,1.55.57,2.9c-.2,1.35-.33,2.59-.71,3.43s-.94,1.31-1.94,1.28-2.94-.49-3.69-.84-1.28-1.47,0-2.41c0,0-1.12-1.65.39-2.79Z"/>
        <path class="cls-8" d="M127.71,66.9l2.57,1.33-2.75-.66s.23-.5.18-.66Z"/>
        <polygon class="cls-8" points="127.3 69.8 129.35 70.7 127.24 70.25 127.3 69.8"/>
      </g>
    </g>
  </g>
  <g>
    <path class="cls-9" d="M133.49,55.9c-2.2,0-3.99-1.79-3.99-3.99s1.79-3.99,3.99-3.99,3.99,1.79,3.99,3.99-1.79,3.99-3.99,3.99ZM133.49,48.43c-1.92,0-3.48,1.56-3.48,3.48s1.56,3.48,3.48,3.48,3.48-1.56,3.48-3.48-1.56-3.48-3.48-3.48Z"/>
    <g>
      <path class="cls-1" d="M132.04,53.11h-.47v-2.29h-.86v-.41h2.19v.41h-.86v2.29Z"/>
      <path class="cls-1" d="M135.36,50.42h.65v2.7s-.44,0-.44,0v-2.1s-.76,2.1-.76,2.1h-.39s-.76-2.1-.76-2.1v2.1h-.45v-2.7s.66,0,.66,0l.75,2.12.73-2.12Z"/>
    </g>
  </g>
</svg>