<?xml version="1.0" encoding="UTF-8"?>
<svg id="Layer_1" data-name="Layer 1" xmlns="http://www.w3.org/2000/svg" viewBox="0 0 141.73 141.73">
  <defs>
    <style>
      .cls-1 {
        fill: #231f20;
      }
    </style>
  </defs>
  <path class="cls-1" d="M130.77,42.85h-15.08v1.31h15.08c1.38,0,2.5,1.02,2.5,2.28v63.68c0,1.26-1.12,2.28-2.5,2.28H10.96c-1.38,0-2.5-1.02-2.5-2.28v-63.68c0-1.26,1.12-2.28,2.5-2.28h48.77v-1.31H10.96c-2.16,0-3.92,1.61-3.92,3.59v63.68c0,1.98,1.76,3.59,3.92,3.59h119.81c2.16,0,3.92-1.61,3.92-3.59v-63.68c0-1.98-1.76-3.59-3.92-3.59Z"/>
  <path class="cls-1" d="M27.52,62.58l-.12-.16-.48-.75-.5-.83s.36-.04.67-.26c.32-.22.26-.4.44-.57.18-.18.1-.5.14-.75s-.02-.71,0-.99c.02-.28-.02-.28-.02-.56s.02-.28,0-.56c-.02-.28-.04-.28-.04-.46s-.14-.08-.2.02q-.06.1-.2.28c-.14.18,0,0-.22.02-.22.02-.2,0-.3-.1-.1-.1-.1-.04-.54-.06-.44-.02-.14.02-.28-.1-.14-.12-.16-.3-.26-.44-.1-.14-.14-.24-.36-.36-.22-.12-.22-.06-.38-.04-.16.02-.08.06-.26.14-.18.08-.12.3-.28.46-.16.16-.04.26-.08.48-.04.22.08.2.1.44.02.24.08.16.14.38.06.22,0,.14-.1.4-.1.26,0,0-.24,0s-.3-.02-.59-.22c-.3-.2-.3-.08-.71-.32-.42-.24-.65-.22-.99-.48-.34-.26-.18-.26-.44-.4-.26-.14-.22-.32-.42-.71-.2-.4-.08-.32-.06-.61.02-.3,0-.1-.3-.34-.3-.24-.12-.14-.14-.46-.02-.32-.02-.18-.16-.3-.14-.12-.2-.26-.44-.42-.24-.16-.3-.3-.5-.59-.2-.3-.12-.28-.36-.36-.24-.08-.22.1-.36.26-.14.16-.1.18-.14.32-.04.14-.02.4-.08.5-.06.1-.44.57-.57.69-.14.12-.69.75-.69.75l-.83.73-.95.46-.14,1.09s.24.04.4-.04c.16-.08.3-.18.44-.38.14-.2.63-.57.71-.65.08-.08,1.17-.93,1.31-1.13.14-.2.54-.46.65-.57.12-.12.12-.2.38-.18.26.02.2.22.22.38.02.16.1,1.01.12,1.29.02.28.14,1.27.2,1.55.06.28.42.24.57.38.16.14.06.08,0,.5-.06.42,0,.12.16.42.16.3.22.08.26.26.04.18.52.93.52,1.09s.48.56.59.75c.12.2.54.65.56.83.02.18.12.63.12.63,0,0,.28-.02.44-.04.16-.02.52.14.61.28.1.14.79.57.79.63s.5.71.5.71l.38.34s.57-.52.48-.59c-.1-.08-.12-.12-.24-.2-.12-.08-.18-.14-.34-.32-.16-.18-.16-.14-.24-.32-.08-.18-.04-.26-.06-.59-.02-.34.1-.46.14-.69.04-.24.1-.42.26-.73.16-.32.32-.36.32-.36l.22-.22s.22.63.22.71,1.19,1.7,1.19,1.7l.65-.26-.32-.4ZM24.73,59.5c-.12.12-.04-.02-.2.24-.16.26-.52.57-.56.69-.04.12-.08.61-.12.77-.04.16-.1.63-.08.73.02.1.02.2.02.2l-.14-.1c-.14-.12-.18-.24-.24-.38-.06-.14-.28-.14-.28-.32s-.16-.63-.16-.81-.1-.48-.14-.67c-.04-.2-.06-.34-.1-.52-.04-.18-.16-.3-.2-.38-.04-.08-.08-.12.08-.12s.14,0,.54.12c.4.12.22.26.59.3.38.04,1.09.12.97.24Z"/>
  <path class="cls-1" d="M22.25,68.28c-2.62,0-5.08-1.02-6.94-2.87-1.85-1.85-2.87-4.32-2.87-6.94s1.02-5.08,2.87-6.94c1.85-1.85,4.32-2.87,6.94-2.87s5.08,1.02,6.94,2.87c1.85,1.85,2.87,4.32,2.87,6.94s-1.02,5.08-2.87,6.94c-1.85,1.85-4.32,2.87-6.94,2.87ZM22.25,48.87c-2.56,0-4.97,1-6.79,2.81-1.81,1.81-2.81,4.22-2.81,6.79s1,4.97,2.81,6.79c1.81,1.81,4.22,2.81,6.79,2.81s4.97-1,6.79-2.81c1.81-1.81,2.81-4.22,2.81-6.79s-1-4.97-2.81-6.79c-1.81-1.81-4.22-2.81-6.79-2.81Z"/>
  <path class="cls-1" d="M22.25,65.61c-1.91,0-3.7-.74-5.05-2.09-1.35-1.35-2.09-3.14-2.09-5.05s.74-3.7,2.09-5.05c1.35-1.35,3.14-2.09,5.05-2.09s3.7.74,5.05,2.09c1.35,1.35,2.09,3.14,2.09,5.05s-.74,3.7-2.09,5.05c-1.35,1.35-3.14,2.09-5.05,2.09ZM22.25,51.54c-1.85,0-3.59.72-4.9,2.03-1.31,1.31-2.03,3.05-2.03,4.9s.72,3.59,2.03,4.9c1.31,1.31,3.05,2.03,4.9,2.03s3.59-.72,4.9-2.03c1.31-1.31,2.03-3.05,2.03-4.9s-.72-3.59-2.03-4.9c-1.31-1.31-3.05-2.03-4.9-2.03Z"/>
  <g>
    <path class="cls-1" d="M14.6,59.4l-1.23-.42v-.3s1.19-.51,1.19-.51v.3s-.24.11-.24.11l.02.47.26.08v.28ZM14.1,58.65l-.39.15s-.03.01-.06.02c-.03,0-.06.01-.1.02.04,0,.08.01.11.02.03,0,.05,0,.06.01l.39.12v-.34Z"/>
    <path class="cls-1" d="M14.65,57.27l-1.18-.29.06-.26.81-.36s.05-.02.09-.03c.04,0,.09-.02.14-.03-.04,0-.07,0-.11-.01-.04,0-.08-.01-.13-.03l-.66-.16.06-.24,1.18.29-.06.25-.83.37s-.05.02-.09.03c-.04,0-.09.02-.14.03.04,0,.07,0,.11.01.04,0,.08.01.13.03l.67.16-.06.24Z"/>
    <path class="cls-1" d="M14.66,54.32l.88.47-.12.23-.88-.47-.14.26-.19-.1.4-.75.19.1-.14.26Z"/>
    <path class="cls-1" d="M16.03,52.15l.56.51c.12.11.18.23.19.35,0,.12-.06.24-.17.37-.12.13-.24.2-.36.21-.12,0-.24-.04-.36-.15l-.56-.51.17-.19.53.48c.07.07.14.1.21.1.07,0,.13-.03.19-.1.06-.07.09-.13.08-.2,0-.07-.05-.14-.12-.2l-.53-.48.17-.19Z"/>
    <path class="cls-1" d="M19.15,51.5l-.89-.94.26-.11.51.61s.03.04.05.07.05.08.08.12c-.01-.05-.02-.1-.03-.14,0-.04-.01-.07-.02-.1l-.07-.78.26-.11.06,1.3-.23.1Z"/>
    <path class="cls-1" d="M20.5,51.02l.28-1.27.29-.04.64,1.13-.29.04-.14-.24-.47.07-.05.27-.28.04ZM21.2,50.44l-.19-.37s-.01-.03-.02-.06-.02-.06-.03-.1c0,.04,0,.08,0,.11s0,.05,0,.06l-.07.4.33-.05Z"/>
    <path class="cls-1" d="M22.63,50.84l.1-1.21.26.02-.08.99.41.03-.02.22-.67-.06Z"/>
    <path class="cls-1" d="M24.24,51.09l.35-1.16.25.08-.29.95.4.12-.06.21-.65-.2Z"/>
    <path class="cls-1" d="M25.76,51.67l.6-1.06.62.35-.11.19-.4-.23-.12.22.4.23-.11.19-.4-.23-.15.27.4.23-.11.19-.62-.35Z"/>
    <path class="cls-1" d="M27.4,52.81l.38-.41.15-.76.22.21-.09.37s-.01.04-.02.06c-.01.03-.02.05-.04.08.02-.02.05-.03.07-.04.02-.01.05-.02.07-.03l.36-.12.22.21-.75.2-.38.41-.19-.18Z"/>
    <path class="cls-1" d="M30.25,55.09l-.91.41-.11-.24.91-.41-.12-.27.2-.09.35.78-.2.09-.12-.27Z"/>
    <path class="cls-1" d="M29.74,56.68l1.19-.24.14.7-.22.04-.09-.45-.25.05.09.45-.22.04-.09-.45-.3.06.09.45-.22.04-.14-.7Z"/>
    <path class="cls-1" d="M29.98,58.28l1.19.52v.3s-1.25.41-1.25.41v-.3s.28-.09.28-.09l.02-.47-.25-.1v-.28ZM30.41,59.07l.4-.12s.03,0,.06-.01.06,0,.1-.01c-.04,0-.07-.02-.1-.03-.03,0-.05-.01-.06-.02l-.38-.15-.02.34Z"/>
  </g>
  <polygon class="cls-1" points="29.24 62.72 29.58 62.54 29.52 62.92 29.8 63.19 29.41 63.25 29.24 63.6 29.06 63.25 28.68 63.19 28.96 62.92 28.89 62.54 29.24 62.72"/>
  <polygon class="cls-1" points="15.3 62.92 15.64 62.74 15.58 63.12 15.85 63.39 15.47 63.45 15.3 63.8 15.12 63.45 14.74 63.39 15.02 63.12 14.95 62.74 15.3 62.92"/>
  <path class="cls-1" d="M44.44,58.14l-10.15,21.78h3.58l1.94-4.31,1.75-3.92h0l.36-.8,1.79-3.98c.13-.33.26-.7.39-1.09.13-.4.25-.82.36-1.28.13.49.27.93.4,1.32.13.4.26.75.39,1.05l1.8,4,.35.78h-.01l1.93,4.46.07.17,1.59,3.6h3.59l-10.13-21.78Z"/>
  <path class="cls-1" d="M56.55,79.92v-21.78l13.31,12.81c.36.36.73.75,1.1,1.16.37.41.76.87,1.17,1.39v-14.53h3.15v21.77l-13.58-13.04c-.36-.35-.71-.72-1.05-1.12-.34-.39-.66-.8-.97-1.23v14.57h-3.13Z"/>
  <path class="cls-1" d="M86.86,61.86v18.06h-3.41v-18.06h-5.57v-2.89h14.51v2.89h-5.54Z"/>
  <path class="cls-1" d="M94.92,58.97h3.36v12.72c0,1.89.44,3.31,1.31,4.26.87.95,2.18,1.42,3.91,1.42s3.03-.47,3.9-1.42c.87-.95,1.31-2.37,1.31-4.26v-12.72h3.41v13.04c0,2.83-.72,4.95-2.15,6.36-1.43,1.41-3.59,2.11-6.47,2.11s-5.03-.7-6.45-2.1-2.13-3.53-2.13-6.37v-13.04Z"/>
  <path class="cls-1" d="M33.57,105.48l-9.35-21.77h3.53l4.69,11.16c.28.65.51,1.25.69,1.8.18.55.32,1.07.43,1.57.12-.52.28-1.07.47-1.63.19-.56.41-1.14.67-1.73l4.68-11.16h3.52l-9.35,21.77Z"/>
  <path class="cls-1" d="M51.82,82.88l-10.15,21.78h3.58l2.03-4.5.11-.24,1.55-3.48.17-.37.1-.23,1.88-4.18c.13-.33.26-.7.39-1.09.13-.4.25-.82.36-1.28.13.49.27.93.4,1.33.13.4.26.75.39,1.05l1.82,4.05.33.73h-.01l1.53,3.56,2.06,4.67h3.59l-10.13-21.78Z"/>
  <path class="cls-1" d="M63.93,104.66v-20.95h3.41v17.9h7.61v3.05h-11.02Z"/>
  <path class="cls-1" d="M77.71,104.66v-20.95h3.41v17.9h7.61v3.05h-11.02Z"/>
  <path class="cls-1" d="M91.49,104.66v-20.95h11.69v2.89h-8.29v3.3h8.29v2.99h-8.29v8.72h8.29v3.05h-11.69Z"/>
  <path class="cls-1" d="M111.6,104.66v-9.59l-7.06-11.36h3.58l4.39,7.11c.11.18.24.42.39.72.16.3.32.62.48.96.13-.33.27-.65.42-.94.15-.3.3-.57.47-.82l4.51-7.03h3.41l-7.21,11.36v9.59h-3.38Z"/>
  <path class="cls-1" d="M95.44,49.69c.06-.27.12-.57.18-.9.06-.33.13-.68.19-1.06.05-.38.1-.79.15-1.2.01-.1.03-.21.04-.32v-.08s.01-.04.01-.04v-.02s0-.04,0-.04v-.16c0-.11.01-.21.01-.32v-.16s0-.17,0-.17c-.02-.23-.02-.47-.06-.69-.04-.23-.07-.45-.12-.68-.06-.22-.12-.44-.18-.66-.06-.21-.13-.42-.19-.63-.05-.21-.11-.41-.16-.61-.05-.21-.09-.41-.14-.61-.04-.2-.07-.4-.11-.59-.02-.1-.03-.19-.05-.29-.01-.1-.02-.19-.03-.28-.02-.19-.04-.37-.07-.54,0-.18-.02-.35-.03-.51,0-.16-.02-.32-.02-.47,0-.15,0-.29.01-.43,0-.13,0-.26.01-.38,0-.12.03-.22.04-.32.05-.38.08-.6.08-.6,0,0-.05.22-.13.59-.02.09-.04.2-.06.31-.01.12-.03.24-.04.38-.01.13-.03.28-.05.43-.02.15-.01.31-.02.48,0,.17,0,.34-.01.52,0,.18.02.37.02.56,0,.1,0,.19.01.29,0,.1.02.2.03.3.02.2.04.4.07.61.03.21.06.42.09.63.03.21.08.43.12.64.04.22.09.43.14.64.04.21.08.42.12.63.03.21.04.42.06.63.02.21,0,.41,0,.62v.15s-.02.16-.02.16c-.01.11-.02.21-.03.32l-.02.16v.04s0,.02,0,.02c0,0,0-.03,0-.01h0s0,.01,0,.01l-.02.08c-.02.1-.04.2-.06.3-.08.4-.16.78-.23,1.15-.09.36-.18.7-.27,1.02-.06.23-.12.45-.18.65-2.07-3.14-6.03-5.06-6.03-5.06,0,0,0,0,0,0-1.84-.98-3.8-1.59-5.87-1.87-3.85-.52-7.33-1.9-10.36-4.37-.2-.16-.38-.34-.57-.52.07-.02.1-.01.13,0,2.11,1.52,4.48,2.45,6.99,3.04,1.82.43,3.67.57,5.53.73,2.13.18,4.09.86,5.85,2.08,1.34.93,2.46,2.1,3.4,3.44.26.37.52.75.79,1.12.03-.02.06-.03.09-.05-.47-1.07-.89-2.16-1.41-3.2-1.45-2.88-3.45-5.29-6.25-6.98-2.51-1.51-5.25-2.25-8.15-2.46-1.29-.09-2.59-.09-3.87-.26-2.44-.33-4.57-1.34-6.19-3.25-.88-1.03-1.49-2.21-1.83-3.62-.03.17-.06.25-.05.33.07.88.09,1.76.23,2.63.32,2.1.68,4.2,1.33,6.24.54,1.69,1.2,3.32,2.04,4.88,1.17,2.16,2.65,4.08,4.57,5.62,1.87,1.5,3.98,2.53,6.32,3.1,1.82.44,3.67.63,5.54.51.73-.04,1.46-.09,2.19-.2.85-.13,1.7-.34,2.55-.51,0,0,.01,0,.02,0,.63.66,3.34,3.81,3.34,8.78l3.36-.38s-.24-4.7-2.99-8.66c.04-.18.09-.4.15-.66Z"/>
  <path class="cls-1" d="M104.53,38.45c-.35-.88-.81-1.72-1.31-2.52-.13-.21-.29-.42-.42-.6.08.36.2.74.24,1.12.14,1.38-.42,2.49-1.39,3.43-.54.52-1.14.99-1.66,1.53-1.1,1.16-1.75,2.54-1.9,4.14-.08.85,0,1.68.19,2.51.08.38.21.76.32,1.13.03-.18.02-.35.01-.53-.07-1.59.36-3,1.48-4.16.44-.45.93-.86,1.36-1.32.94-1,1.68-2.12,2.05-3.46.02,0,.05.01.07.02-.15.49-.27.99-.45,1.47-.44,1.17-1.14,2.18-2.01,3.07-.99,1.01-1.67,2.2-1.91,3.6-.14.8-.3,1.6-.27,2.41.54,15.44-.05,2.97,1.12-.61.02-.08.1-.15.17-.19.32-.17.66-.3.97-.48.75-.44,1.46-.96,2.06-1.59,1.16-1.21,1.88-2.62,2.04-4.3.16-1.63-.21-3.17-.8-4.67Z"/>
</svg>