<?xml version="1.0" encoding="UTF-8"?>
<svg id="Layer_1" data-name="Layer 1" xmlns="http://www.w3.org/2000/svg" viewBox="0 0 141.73 141.73">
  <path d="M16.51,99.35c3.2,1.43,3.91,4.19,3.91,7.31,0,1.38.07,2.77-.06,4.14-.38,3.9-2.5,6.23-6.44,6.56-3.31.28-6.66.06-10.04.06v-34.07c.74,0,1.43,0,2.13,0,2.44.01,4.89-.05,7.32.07,3.68.19,5.86,2.06,6.36,5.63.25,1.79.2,3.66,0,5.47-.24,2.27-.86,3-3.2,4.83M9.25,112.59c.26.03.48.07.7.07.96,0,1.93.02,2.88-.07,1.22-.11,1.99-.69,2.05-1.91.12-2.13.06-4.28-.07-6.41-.06-.99-.75-1.76-1.76-1.92-1.25-.19-2.52-.18-3.8-.26v10.5ZM9.27,88.26v9.01c.7,0,1.34,0,1.97,0,.29,0,.58-.02.86-.07,1.35-.23,2.19-.97,2.29-2.33.11-1.49.1-3.01-.01-4.5-.1-1.23-.88-1.99-2.03-2.08-1.01-.08-2.03-.02-3.08-.02Z"/>
  <path d="M50.88,83.39h5.07c0,.37,0,.71,0,1.05,0,8.2.02,16.39-.02,24.59,0,1.21-.12,2.45-.41,3.62-.71,2.91-2.62,4.66-5.58,5.13-1.1.17-2.25.22-3.36.11-3.68-.39-5.97-2.69-6.48-6.41-.1-.7-.16-1.41-.16-2.11,0-8.35,0-16.71,0-25.07,0-.28.03-.56.04-.89h5.33s0,1.17,0,1.17c0,8.23,0,16.45,0,24.68,0,.42-.01.84.05,1.25.25,1.78,1.21,2.61,2.91,2.53,1.61-.08,2.49-.99,2.59-2.75.04-.74.02-1.48.02-2.22,0-7.84,0-15.68,0-23.52v-1.15"/>
  <path d="M137.86,117.49h-5.4c-.31-2.03-.62-4.05-.94-6.1h-6.58c-.31,2.04-.63,4.07-.94,6.11h-4.9c.23-1.5.45-2.94.68-4.38,1.54-9.63,3.08-19.26,4.64-28.89.05-.31.34-.82.53-.83,2.46-.06,4.93-.04,7.46-.04,1.82,11.42,3.64,22.75,5.45,34.13M130.77,106.64c-.84-5.7-1.66-11.32-2.48-16.95-.06,0-.12,0-.18,0-.82,5.62-1.65,11.24-2.48,16.94h5.15Z"/>
  <polygon points="59.65 117.47 59.65 83.44 74.2 83.44 74.2 88.2 65.06 88.2 65.06 97.69 72.27 97.69 72.27 102.63 65.05 102.63 65.05 112.62 74.19 112.62 74.19 117.47 59.65 117.47"/>
  <polygon points="102.61 83.4 117.13 83.4 117.13 88.2 107.99 88.2 107.99 97.69 115.2 97.69 115.2 102.65 107.96 102.65 107.96 112.64 117.12 112.64 117.12 117.47 102.62 117.47 102.61 83.4"/>
  <polygon points="89.22 88.21 83.65 88.21 83.65 83.42 100.15 83.42 100.15 88.19 94.59 88.19 94.59 117.48 89.22 117.48 89.22 88.21"/>
  <polygon points="23.74 83.4 29.02 83.4 29.02 112.64 37.79 112.64 37.79 117.48 23.74 117.48 23.74 83.4"/>
  <path d="M71.19,71.09c-.32.31-.6.62-.91.89-1.45,1.24-3.11,1.32-4.89.91-5.22-1.21-9.62-3.81-13.16-7.81-3.08-3.48-5.04-7.54-5.83-12.13-1-5.86-.1-11.41,2.86-16.55,3.58-6.23,8.89-10.27,15.9-11.91,7.2-1.68,13.92-.37,19.98,3.86,5.09,3.56,8.36,8.44,9.84,14.49.54,2.18.84,4.41.71,6.66-.28,5.27-1.92,10.05-5.15,14.27-3.06,3.99-7.02,6.74-11.68,8.5-1.08.41-2.25.67-3.4.76-1.44.11-2.79-.31-3.81-1.45-.15-.16-.3-.32-.46-.49M78.99,44.23c1.48-.39,2.9-.78,4.35-1.14.63-.16.73-.08.89.58.82,3.35.8,6.7-.19,10.01-.91,3.01-2.61,5.5-5.06,7.48-1.92,1.55-4.1,2.61-6.43,3.35-.32.1-.43.24-.42.57.03,1.17.03,2.34.05,3.51,0,.16,0,.33.07.47.79,1.54,1.71,2.3,3.8,1.91,2.2-.42,4.25-1.31,6.18-2.43,4.55-2.63,7.84-6.38,9.83-11.24,1.85-4.51,2.21-9.16,1.08-13.89-1.31-5.47-4.24-9.93-8.8-13.22-5.68-4.11-12.01-5.37-18.83-3.77-5.46,1.28-9.87,4.26-13.16,8.81-3.76,5.2-5.09,11.02-4.06,17.34.69,4.2,2.47,7.93,5.29,11.13,3.39,3.84,7.52,6.4,12.62,7.31,1.07.19,2.13.35,2.94-.59.39-.45.91-.95.97-1.47.15-1.28.06-2.58.09-3.88,0-.3-.11-.37-.39-.41-.57-.09-1.15-.17-1.69-.34-4.67-1.56-7.7-4.78-9.38-9.34-1.37-3.72-1.48-7.57-1.15-11.47.04-.47.19-.58.68-.46.79.19,1.59.39,2.37.62.86.26,1.72.56,2.58.85.48-5.02,4.47-7.63,7.96-7.56,1.84.04,3.49.59,4.89,1.77,1.74,1.45,2.72,3.34,2.92,5.54ZM72.08,62.69c1.01-.44,1.9-.78,2.76-1.21,3.48-1.72,6.02-4.3,7.24-8.05.77-2.35.93-4.76.66-7.21-.14-1.28-.05-1.11-1.16-.76-2.95.95-5.53,2.57-7.93,4.5-.97.79-.96.77-1.8-.19-.31-.36-.27-.62.08-.87,1.55-1.1,3.09-2.22,4.66-3.29.32-.22.49-.42.49-.83-.02-3.3-2.67-5.96-5.96-5.96s-5.94,2.69-5.95,5.97c0,.4.11.63.49.82,2.1,1.04,3.98,2.36,5.52,4.16.57.67.93,1.35.88,2.29-.07,1.24,0,2.5.01,3.74,0,.13.03.26.05.45.41-.21.75-.37,1.08-.56,2.16-1.23,4.06-2.73,5.27-4.96q.55-1.01,1.62-.59c.54.21.6.33.38.86-.77,1.79-2.01,3.22-3.49,4.46-1.38,1.16-2.92,2.07-4.57,2.8-.14.06-.32.23-.32.35-.02,1.31-.01,2.62-.01,4.09ZM70.08,62.78c.06-.14.09-.19.09-.23,0-1.35,0-2.69-.03-4.03,0-.13-.19-.31-.33-.39-.63-.35-1.29-.64-1.91-1.01-2.36-1.41-4.37-3.17-5.64-5.67-.56-1.11-.44-1.12.51-1.44.13-.05.28-.16.4-.14.2.04.46.11.58.25.19.23.26.54.41.81,1.24,2.2,3.16,3.66,5.3,4.87.2.11.41.2.64.31,0-1.37-.02-2.66.01-3.95,0-.45-.09-.82-.41-1.13-.57-.56-1.11-1.16-1.73-1.66-2.1-1.69-4.52-2.76-7.05-3.61-.48-.16-.96-.3-1.48-.46-.03.16-.06.25-.06.34-.09,2.62.1,5.22.85,7.75,1.26,4.24,3.82,7.33,8.02,8.93.58.23,1.22.32,1.82.47Z"/>
</svg>