<?xml version="1.0" encoding="UTF-8"?>
<svg id="Layer_1" data-name="Layer 1" xmlns="http://www.w3.org/2000/svg" viewBox="0 0 141.73 141.73">
  <defs>
    <style>
      .cls-1 {
        fill: #231f20;
      }
    </style>
  </defs>
  <path class="cls-1" d="M104.63,68.51c-1.68,1.02-3.32,1.54-4.89,1.54-2.65,0-4.19-1.51-4.21-1.53l-.02-.02c-2.53-1.23-4.23-1.24-5.02-.05-1.62,2.44,1.02,9,1.15,9.28,2.86,5.56,6.2,6.73,8.5,6.73,4.39,0,8.27-4.22,9-8,.61-3.19,1.17-7.03-.03-8.49-.34-.42-.81-.63-1.4-.63-.79,0-1.82.39-3.07,1.15"/>
  <path class="cls-1" d="M107.05,55.06s-4.14,1.7-8.19-3.07c-1.24-1.45-2.22-2.07-3.03-2.07-1.83,0-2.68,3.21-3.24,7.04-.82,5.52,5.72,14.75,15.06,6.81,0,0,9.09-9.32-.61-8.71M100.78,65.74l-2.57-.58.23-1.04,2.57.58-.23,1.04ZM102.13,65.39l-.2-1.21c3.03-1.11,5.78-4.46,5.78-4.46l.33,1.32c-1.62,2.44-5.91,4.35-5.91,4.35"/>
  <path class="cls-1" d="M75.18,66.99c-.31,0-.47.1-.47.31,0,1.24-.11,2.62-.34,4.14v.06c0,.07.05.14.16.19.11.05.24.08.4.08.31,0,.51-.1.58-.29.37-1.22.72-2,1.04-2.36.32-.35.76-.6,1.32-.74.55-.14,1.37-.21,2.46-.21,1.16,0,1.99.03,2.49.1.5.07.76.19.76.38,0,.1-.25.54-.75,1.32-.5.78-1.84,2.73-4.04,5.84-2.23,3.14-3.83,5.58-4.79,7.33-.11.18-.17.35-.17.5,0,.25.13.37.39.37h13.65c.2,0,.3-.14.3-.42,0-1.31.12-2.72.37-4.22v-.06c0-.11-.06-.2-.18-.27-.12-.07-.26-.1-.44-.1-.35,0-.55.09-.6.28-.35,1.17-.7,1.97-1.04,2.42-.34.45-.81.76-1.39.94-.59.18-1.58.27-2.97.27s-2.23-.04-2.67-.12c-.45-.08-.68-.22-.68-.43,0-.14.07-.31.21-.52,1.3-2.25,2.78-4.53,4.47-6.85,1.68-2.35,3.25-4.74,4.7-7.14.08-.15.13-.28.13-.4,0-.26-.19-.39-.56-.39h-12.36ZM66.61,66.94c-1.27.22-2.43.37-3.48.44-.11,0-.19.06-.25.19-.06.12-.09.25-.09.38,0,.37.11.55.34.55.92.11,1.54.29,1.86.53.32.24.53.64.65,1.19.12.55.18,1.68.18,3.37v6.06c0,.58-.01,1.06-.04,1.46-.02.39-.12.72-.29.99-.17.27-.44.48-.8.62-.37.15-.89.26-1.56.33-.27.05-.41.25-.41.59s.12.53.37.53c.73,0,1.47-.04,2.25-.13.77-.08,1.57-.13,2.39-.13.67,0,1.43.04,2.26.13.82.09,1.42.13,1.8.13.14,0,.24-.06.31-.18.07-.12.1-.25.1-.39,0-.32-.14-.5-.41-.55-.68-.08-1.19-.23-1.51-.42-.32-.2-.54-.48-.67-.86-.13-.37-.19-1.16-.19-2.35v-12.06c0-.5-.24-.75-.73-.75-.15,0-.84.1-2.08.31M8.74,67.48c-1.45.74-2.56,1.8-3.33,3.15-.77,1.36-1.16,2.9-1.16,4.63s.38,3.35,1.15,4.74c.76,1.39,1.81,2.47,3.13,3.23,1.32.76,2.76,1.14,4.32,1.14,1.11,0,2.19-.14,3.23-.41,1.05-.28,1.94-.73,2.68-1.35.75-.62,1.12-1.06,1.12-1.31-.01-.13-.08-.28-.21-.43-.12-.15-.26-.22-.39-.22l-.23.07c-1.19.82-2.67,1.23-4.43,1.23s-3.34-.68-4.55-2.03c-1.21-1.35-1.81-3.08-1.81-5.16,0-2.2.46-3.92,1.39-5.17.92-1.25,2.19-1.88,3.81-1.88.71,0,1.38.12,2.01.36.63.24.94.59.94,1.04,0,.2-.1.41-.3.64-.19.22-.28.51-.28.87,0,.53.17.93.52,1.21.35.27.79.41,1.33.41.65-.01,1.13-.22,1.44-.61.31-.39.47-.81.47-1.27,0-1.17-.56-2.12-1.67-2.87-1.11-.75-2.51-1.12-4.18-1.12-1.9,0-3.57.37-5.01,1.11M49.06,81.55c-.43-.46-.65-1.12-.65-2,0-1.1.5-2.01,1.52-2.73,1.01-.72,2.56-1.16,4.65-1.34.1,0,.16.03.19.09.03.06.04.23.04.52v4.22c0,.39-.43.81-1.28,1.26-.85.45-1.72.67-2.61.67-.81,0-1.43-.23-1.86-.69M47.09,67.71c-1.31.9-1.96,1.96-1.96,3.2,0,.53.14.98.44,1.35.29.37.79.55,1.49.55.49,0,.91-.17,1.28-.5.37-.33.55-.67.55-1.01,0-.29-.1-.55-.28-.81-.17-.28-.26-.55-.26-.81,0-.58.28-1.05.84-1.42.56-.37,1.22-.55,1.96-.55,1.23,0,2.15.36,2.76,1.08.61.72.91,1.88.91,3.49,0,.48,0,.85-.01,1.11,0,.27-.01.46-.02.59,0,.13-.02.2-.04.23-.02.02-.05.04-.09.04-3.28,0-5.76.49-7.47,1.47-1.7.98-2.55,2.4-2.55,4.26,0,1.41.4,2.5,1.21,3.26.8.76,1.94,1.14,3.41,1.14,1.22,0,2.25-.17,3.08-.5.83-.33,1.66-.83,2.48-1.49l.13-.06s.09.03.11.09c.33.7.75,1.2,1.28,1.5.53.3,1.19.45,1.97.45.61,0,1.22-.16,1.81-.48.6-.32,1.12-.74,1.56-1.25.06-.06.09-.14.09-.22,0-.13-.07-.28-.21-.43-.14-.16-.25-.23-.33-.23l-.13.06c-.32.21-.58.34-.75.41-.18.06-.42.09-.7.09-.42,0-.73-.17-.92-.52-.2-.35-.29-.97-.29-1.85v-7.55c0-2.16-.58-3.7-1.76-4.63-1.17-.93-2.78-1.39-4.82-1.39-1.86,0-3.44.45-4.75,1.34M126.27,82.4c-.67-.32-1.2-.73-1.62-1.23-.41-.49-.62-.92-.62-1.26v-6.94c0-1.13.45-2.1,1.35-2.91.9-.82,2.09-1.23,3.57-1.23s2.55.53,3.2,1.6c.65,1.07.97,2.67.97,4.8,0,2.41-.4,4.29-1.21,5.64-.8,1.35-1.97,2.03-3.5,2.03-.76,0-1.47-.16-2.13-.49M126.26,67.25c-1.04.59-1.82,1.28-2.35,2.08l-.08.06c-.08,0-.12-.03-.12-.09,0-.34.03-.72.1-1.12.07-.4.1-.71.1-.9,0-.13-.03-.28-.08-.42-.06-.15-.24-.22-.55-.22s-1,.1-2.03.29c-1.03.19-2.42.35-4.16.47-.11,0-.19.06-.24.19-.05.12-.08.24-.08.37,0,.14.04.26.1.39.06.12.17.18.3.18.85.02,1.49.18,1.9.48.41.29.7.81.85,1.56.15.74.22,2.2.22,4.37v15.21c0,.58,0,1.06-.04,1.45-.03.39-.14.71-.33.97-.2.27-.51.47-.95.63-.43.15-1.03.27-1.81.34-.16.02-.29.1-.38.21-.09.12-.13.24-.13.38s.04.26.13.38c.09.12.2.17.34.17.88,0,1.75-.05,2.61-.14.86-.09,1.71-.14,2.55-.14s1.6.05,2.39.14c.79.09,1.81.14,3.06.14.14,0,.25-.06.33-.17.09-.12.13-.24.13-.38,0-.34-.16-.54-.47-.59-.88-.07-1.56-.19-2.03-.34-.47-.15-.82-.37-1.04-.64-.22-.28-.36-.63-.4-1.05-.04-.42-.06-.95-.06-1.59v-5.77c0-.27.04-.4.12-.4l.16.04c1.43.42,2.86.63,4.28.63,2.65,0,4.8-.89,6.43-2.68,1.63-1.78,2.45-4.06,2.45-6.82,0-1.61-.31-3.07-.93-4.39-.62-1.32-1.5-2.34-2.63-3.05-1.13-.71-2.45-1.07-3.97-1.07-1.42,0-2.65.3-3.68.88M65.71,59.21c-.44.39-.65.88-.65,1.48s.23,1.11.7,1.48c.47.37,1.01.56,1.64.56.58,0,1.05-.19,1.44-.58.38-.39.58-.87.58-1.43s-.2-1.09-.61-1.49c-.41-.4-.9-.61-1.49-.61-.63,0-1.17.19-1.61.58M26.43,57.84c-2.73.45-4.45.69-5.14.72-.29,0-.43.2-.43.59,0,.16.03.3.1.43.07.12.17.18.29.18,1.11.12,1.83.3,2.17.54.33.24.57.65.7,1.23.13.58.2,1.69.2,3.33v14.81c0,1.36-.14,2.24-.41,2.62-.27.39-.94.65-2,.78-.26.04-.39.23-.39.57,0,.15.03.28.09.39.06.11.15.17.26.17.59,0,1.25-.04,1.98-.13.74-.08,1.52-.13,2.34-.13.76,0,1.49.04,2.2.13.71.09,1.22.13,1.56.13.1,0,.18-.06.25-.17.06-.11.09-.24.09-.39,0-.33-.13-.52-.37-.57-.57-.08-1-.21-1.27-.38-.27-.17-.46-.43-.57-.79-.11-.36-.16-1.18-.16-2.46v-6.66c0-.63.2-1.27.59-1.93.39-.65.93-1.19,1.62-1.61.69-.42,1.48-.63,2.39-.63,2.34,0,3.52,1.79,3.52,5.36v5.69c0,1.07-.06,1.8-.18,2.18-.12.39-.33.66-.64.83-.31.17-.83.3-1.55.39-.22.05-.33.24-.33.57,0,.15.03.28.09.39.06.11.13.17.2.17.56,0,1.24-.04,2.03-.13.79-.08,1.6-.13,2.42-.13.76,0,1.51.04,2.24.13.73.09,1.27.13,1.64.13.13,0,.22-.06.3-.17.07-.11.11-.24.11-.39,0-.33-.13-.52-.38-.57-.7-.1-1.2-.24-1.51-.42-.31-.18-.53-.45-.64-.78-.12-.34-.18-1.07-.18-2.2v-6.96c0-1.89-.48-3.42-1.44-4.59-.96-1.16-2.52-1.75-4.7-1.75-.97,0-1.95.24-2.92.71-.98.47-1.8,1.14-2.48,2l-.09.09-.09-.09v-10.83c0-.34-.18-.52-.54-.52l-.93.11Z"/>
  <path class="cls-1" d="M111.55,69.51s7.39-2.66,0,6.12c0,0,8.45-7.18,1.64-7.63h-.03c-.27,0-2.47.04-1.62,1.52"/>
  <path class="cls-1" d="M91.46,54.67c-3.35-10.21,2.03-5.48,2.03-5.48,1.28-1.12-.89-1.88-.89-1.88-.52-.15-.95-.22-1.32-.22-3.79,0,.18,7.59.18,7.59"/>
</svg>