<?xml version="1.0" encoding="UTF-8"?>
<svg id="Layer_1" data-name="Layer 1" xmlns="http://www.w3.org/2000/svg" viewBox="0 0 141.73 141.73">
  <defs>
    <style>
      .cls-1, .cls-2 {
        fill: #231f20;
      }

      .cls-2 {
        fill-rule: evenodd;
      }

      .cls-3 {
        fill: #ed2124;
      }

      .cls-4 {
        fill: #ffda9e;
      }
    </style>
  </defs>
  <path class="cls-1" d="M11.37,65.14c.84,0,1.58.19,2.19.55s1.12.93,1.51,1.67l.12.23h4.7l-.13-.54c-.47-1.93-1.45-3.49-2.93-4.64-1.48-1.15-3.24-1.73-5.25-1.73-1.23,0-2.4.24-3.48.7-1.07.47-2.05,1.16-2.9,2.06-.78.81-1.37,1.73-1.77,2.73-.4,1.01-.6,2.1-.6,3.25s.22,2.21.66,3.28c.44,1.07,1.05,2.01,1.83,2.81.83.84,1.78,1.49,2.82,1.93,1.03.43,2.17.65,3.39.65,2.06,0,3.83-.58,5.28-1.73,1.45-1.15,2.43-2.75,2.93-4.75l.13-.54h-4.74l-.11.28c-.29.76-.72,1.32-1.3,1.69-.58.37-1.33.56-2.23.56-1.17,0-2.11-.39-2.88-1.19-.78-.81-1.15-1.79-1.15-3.02s.37-2.25,1.13-3.06c.75-.81,1.66-1.2,2.78-1.2"/>
  <path class="cls-1" d="M70.95,69.04l-2.3-7.89h-3.33l-2.44,7.93-2.22-7.93h-4.87l5.73,16.53h1.18c1.09,0,2.04-.72,2.33-1.77l1.84-6.55,2.37,8.32h3.03l5.76-16.53h-3.1c-1.05,0-1.97.7-2.25,1.71l-1.73,6.19Z"/>
  <path class="cls-1" d="M96.73,60.83c-1.01,0-1.94.25-2.77.74-.68.4-1.3.98-1.86,1.71-.61-.76-1.32-1.35-2.11-1.74-.95-.47-2.11-.71-3.43-.71-.95,0-1.8.19-2.55.56-.43.21-.83.49-1.2.83v-1.08h-4.43v16.53h2.04c1.3,0,2.35-1.05,2.35-2.35v-4.8c0-2,.25-3.41.73-4.19.45-.73,1.19-1.08,2.25-1.08s1.75.31,2.14.95c.43.7.65,2.07.65,4.1v7.37h4.49v-7.14c0-2,.24-3.41.71-4.2.44-.73,1.16-1.08,2.21-1.08s1.68.31,2.07.94c.42.69.64,2.07.64,4.11v4.33c0,1.68,1.36,3.04,3.04,3.04h1.42v-9.42c0-2.35-.55-4.18-1.64-5.46-1.11-1.3-2.7-1.96-4.75-1.96"/>
  <path class="cls-3" d="M138.65,65.68c-.17-.77-.45-1.47-.84-2.09-.6-.91-1.36-1.61-2.27-2.07-.9-.46-1.96-.69-3.15-.69-.95,0-1.8.19-2.55.56-.43.21-.83.49-1.2.83v-1.08h-4.43v16.53h4.39v-7.14c0-2,.25-3.41.73-4.19.45-.73,1.19-1.08,2.25-1.08s1.73.31,2.14.96c.44.7.66,2.08.66,4.08v4.74c0,1.45,1.18,2.63,2.63,2.63h1.89v-8.72c0-1.44-.08-2.51-.24-3.27"/>
  <path class="cls-1" d="M110.26,72.29s1.64,1.95,3.94,1.05c1.93-.75,2.52-2.25,2.52-2.25,0,0,1.87,6.49-4.52,6.94-2.93.21-8.76-3.29-7.64-9.98.12-.74.52-4.67,5.02-6.68,3.27-1.46,7.24-.04,7.86.91v5.81s-2.25-4.05-5.87-2.57c-3.62,1.48-2.63,5.87-1.31,6.77"/>
  <rect class="cls-1" x="117.44" y="61.15" width="4.43" height="16.53"/>
  <path class="cls-1" d="M33.84,61.3s-1.83-.95-4.35-.36c-2.68.62-3.4,2.06-3.26,4.54,0,0,.55-1.87,2.3-1.84,1.74.03,3.74.83,3.81,4.91v6.31c0,1.71.27,2.83,1.93,2.83h2.66v-10.01c0-3.17-.66-4.97-3.08-6.37"/>
  <path class="cls-1" d="M21.44,56.08h2.6c.9,0,1.83.83,1.83,2.32v19.28h-4.43v-21.6Z"/>
  <path class="cls-2" d="M54.85,73.5c.53-2.1.57-3.94.11-5.52-.31-1.08-.73-2.02-1.23-2.82-.51-.8-1.1-1.46-1.76-1.96-.67-.51-1.39-.88-2.15-1.11-.77-.24-1.68-.32-2.75-.24-1.06.07-1.69.13-1.89.17-.03,0-.09.07-.2.18-.11.12-.2.25-.26.41-.1.07-.24.13-.42.16l-.45.06c-.33.06-.54.24-.62.54-.01.02-.04.03-.07.04-.04,0-.09-.03-.14-.11l-.17.14.05.18s-.07-.02-.12-.07c-.05-.05-.1-.08-.15-.07h-.05c-.77.46-1.2.79-1.28,1-.19.12-.34.2-.46.24-.08.12-.19.34-.32.66-.14.32-.25.57-.35.75-.09.19-.19.34-.29.48-.1.13-.11.34-.03.61-.35.49-.52,1.25-.52,2.27,0,1.02.16,2.04.46,3.08.28.95.67,1.78,1.19,2.49.52.71,1.02,1.12,1.51,1.24l.08.27c.37.26.75.49,1.14.7.39.21.92.36,1.58.44.66.09,1.21.15,1.66.19.45.04.95.05,1.48.02.54-.02,1.06-.08,1.57-.18.3-.06.54-.11.72-.16l.89-.4c.27-.11.49-.2.65-.26.06-.03.26-.2.6-.52l.81-.71c.08-.06.13-.12.16-.18.03-.08.04-.16.01-.25l-.03-.1c.02-.09.16-.25.41-.47.25-.22.45-.4.61-.52.15-.13.21-.26.17-.4-.03-.11-.08-.2-.13-.26M50.7,60.72c.61-.16,1.59.36,2.92,1.55,1.33,1.2,2.24,2.62,2.71,4.25.24.84.4,1.64.45,2.42.06.78.02,1.51-.12,2.19-.29,1.5-.52,2.48-.69,2.94-.37,1.03-.88,1.89-1.52,2.58-.64.69-1.34,1.25-2.11,1.66-.76.41-1.67.72-2.71.92-2.49.47-3.88.51-4.2.13-.2-.04-.49-.08-.89-.13-.39-.05-.61-.09-.64-.12l-.47-.35c-.34-.02-.51-.03-.53-.02-1.1-.39-2.02-1.03-2.74-1.93-.72-.9-1.35-2.25-1.87-4.05-.4-1.39-.39-3.09.05-5.12.03-.13.04-.3.03-.49,0-.2.06-.37.19-.52.13-.15.19-.28.18-.38.52-.95.83-1.54.91-1.75.08-.21.35-.47.81-.76.45-.3.72-.6.8-.9.03-.1.1-.14.21-.14.11,0,.19,0,.24-.01l.1-.05c.04-.09.08-.17.13-.25.05-.08.09-.11.12-.11.03,0,.35-.17.94-.5.59-.34.94-.51,1.05-.51.11,0,.49-.11,1.13-.33l.83-.32c.21-.04.46-.05.77-.04.3,0,.51.01.61.01,1.68-.15,2.79-.11,3.32.12"/>
  <path class="cls-2" d="M39.62,65.23l2.6.94,1.38-2.48-.23,1.62,6.79-.36.1-.88.78,1.22,3.07-.58-2.04-3.13s-.65-2.96-1.74-3.33c-1.09-.37-6.26-.75-7.39,1.19-1.12,1.93-.35,2.65-.35,2.65l-2.47,2.62-.48.52Z"/>
  <path class="cls-4" d="M43.58,63.77l-1.37,2.4-2.22-.97s-.81,1.32-.92,1.67c-.11.35.06.55.06.55,0,0-.65,2.1-.18,4.02.48,1.92.63,4.3,3.07,5.37.15.5,1.12.94,2.14,1.37,1.02.43,3.32.68,5.6.22,2.28-.46,3.09-1.26,3.4-1.46.3-.2,1.05-.95,1.11-1.3.06-.35-.05-.5-.05-.5,0,0,.95-.47,1.13-.9.18-.42-.07-.65-.07-.65,0,0,.92-1.94.85-3.53-.07-1.59-.44-3.72-1.35-5.19l-.3-.27-.99.21-2.47.47-.78-1.22-.1.88-6.79.36.22-1.54Z"/>
  <path class="cls-2" d="M46.14,73.1s-1.27-.01-1.86,1.46c-.59,1.47-.71,1.6-1.33,1.61s.81.47,1.25.11c.44-.36.71-1.32.96-1.99.25-.67.71-.89,1.11-.97.4-.07.26-.17.11-.21s-.24,0-.24,0"/>
  <path class="cls-2" d="M47.43,73.19s.95-.14,1.44.6c.49.74.96,2.11,1.69,2.18.74.07,2.33-.41,2.33-.41,0,0-1.42.27-1.85-.17-.43-.44-.88-1.85-1.79-2.16-.91-.31-1.34-.41-1.65-.34-.31.07-.39.11-.37.2.03.09.2.09.2.09"/>
  <path class="cls-2" d="M41.22,69.09s.62-.38,1.23-.63c.61-.33,1.75-.2,2.25.1.51.26.69.59.84.46.15-.11.22-.13-.12-.39-.3-.37-1.98-1-2.8-.81-.82.01-1.6.59-1.47.68.11.08-.02.29-.06.36-.04.07.12.22.12.22"/>
  <path class="cls-2" d="M48.4,58.21s1.34-3.92,1.51-3.95c.17-.03.14.08-.04.61-.17.52-1.05,3.27-1.05,3.27l-.43.08Z"/>
  <path class="cls-2" d="M47.06,54.25l.36,3.8s.48.08.46,0c-.02-.08-.59-3.85-.59-3.85,0,0-.07-.09-.13-.08-.06.01-.1.06-.09.09,0,.02,0,.03,0,.03"/>
  <path class="cls-2" d="M48.38,68.96s-.37,0,.29-.55c.3-.27,1.12-.69,1.94-.66.81-.03,1.63.39,1.65.49.12.22.35.5.35.5,0,.02.1.45-.54.02-.66-.52-2.17-.54-2.56-.32-.42.11-.6.28-.85.46-.25.2-.16.11-.2.1-.04,0-.09-.04-.09-.04"/>
  <path class="cls-2" d="M43.84,73.68s5.04,3.13,7.71-.8c0,0-.53,2.18-2.84,2.46-1,.1-2.79-.33-4.87-1.66"/>
  <path class="cls-1" d="M51.48,72.52s-.03.81.6,1.01c-.77-.2-.83-.63-.6-1.01"/>
  <path class="cls-1" d="M43.8,73.09s.2.8-.39,1.01c.72-.2.69-.63.39-1.01"/>
  <path class="cls-1" d="M51.52,72.03s1.23,1.13.87,2.21c.33-.95-.06-1.66-.87-2.21"/>
  <path class="cls-1" d="M43.39,72.52s-.95,1.35-.27,2.24c-.75-.69-.29-1.98.27-2.24"/>
  <path class="cls-1" d="M5.74,84.41l1.59,2.08s.03.06.02.08c0,.02-.03.04-.07.04h-.75s-.06,0-.08-.03c-.02-.02-.04-.04-.06-.07l-1.16-1.53-.47.5v1.02c0,.07-.03.1-.1.1h-.55c-.07,0-.1-.03-.1-.1v-3.61s0-.06.03-.08c.02-.02.04-.03.07-.03h.54s.04,0,.07.03c.03.02.04.05.04.08v1.59l1.43-1.62s.06-.06.08-.06c.02,0,.05-.01.08-.01h.67s.06.01.06.04c0,.03,0,.05-.03.08l-1.32,1.5Z"/>
  <path class="cls-1" d="M7.72,83.93c.1-.24.24-.45.42-.62.18-.18.39-.32.63-.42.24-.1.49-.15.77-.15s.53.05.77.15c.24.1.45.24.62.42.18.18.32.39.42.62.1.24.15.49.15.77s-.05.53-.15.77c-.1.24-.24.45-.42.62-.18.18-.39.32-.62.42-.24.1-.49.15-.77.15s-.53-.05-.77-.15c-.24-.1-.45-.24-.63-.42-.18-.18-.32-.39-.42-.62-.1-.24-.15-.49-.15-.77s.05-.53.15-.77M8.41,85.19c.06.15.15.28.26.39.11.11.24.2.38.26.15.06.31.1.48.1s.33-.03.48-.1c.15-.06.27-.15.38-.26.11-.11.19-.24.25-.39.06-.15.09-.31.09-.49s-.03-.34-.09-.49c-.06-.15-.15-.28-.25-.4-.11-.11-.24-.2-.38-.27-.15-.06-.31-.1-.48-.1s-.33.03-.48.1c-.15.06-.28.15-.38.27-.11.11-.19.24-.26.4-.06.15-.09.31-.09.49s.03.34.09.49"/>
  <path class="cls-1" d="M12.18,82.9s0-.06.03-.08c.02-.02.04-.03.07-.03h.55c.07,0,.1.04.1.11v3.01h1.62c.07,0,.11.03.11.1v.51c0,.07-.04.1-.11.1h-2.27c-.07,0-.1-.03-.1-.1v-3.62Z"/>
  <path class="cls-1" d="M16.89,84.41l1.59,2.08s.03.06.02.08c0,.02-.03.04-.07.04h-.75s-.06,0-.08-.03c-.02-.02-.04-.04-.06-.07l-1.16-1.53-.47.5v1.02c0,.07-.03.1-.1.1h-.55c-.07,0-.1-.03-.1-.1v-3.61s0-.06.03-.08c.02-.02.04-.03.07-.03h.54s.04,0,.07.03c.03.02.04.05.04.08v1.59l1.43-1.62s.06-.06.08-.06c.02,0,.05-.01.08-.01h.67s.06.01.06.04c0,.03,0,.05-.03.08l-1.32,1.5Z"/>
  <path class="cls-1" d="M20.24,82.89c.03-.07.07-.1.13-.1h.43c.06,0,.1.03.13.1l1.45,3.62s.01.06,0,.08c-.01.02-.04.03-.07.03h-.56c-.06,0-.1-.03-.13-.09l-.25-.62h-1.58l-.25.61s-.03.06-.05.07c-.02.01-.05.02-.08.02h-.56s-.06,0-.07-.03c-.01-.02-.01-.05,0-.08l1.46-3.62ZM20.58,83.78l-.55,1.46h1.09l-.54-1.46Z"/>
  <path class="cls-1" d="M22.07,82.89c0-.07.03-.1.1-.1h2.75c.07,0,.1.03.1.1v.49c0,.07-.03.1-.1.1h-1.01v3.03c0,.07-.03.1-.1.1h-.55c-.07,0-.1-.03-.1-.1v-3.03h-.98c-.07,0-.1-.03-.1-.1v-.49Z"/>
  <path class="cls-1" d="M26.07,82.89c.03-.07.07-.1.13-.1h.43c.06,0,.1.03.13.1l1.45,3.62s.01.06,0,.08c-.01.02-.04.03-.07.03h-.56c-.06,0-.1-.03-.13-.09l-.25-.62h-1.58l-.25.61s-.03.06-.05.07c-.02.01-.05.02-.08.02h-.56s-.06,0-.07-.03c-.01-.02-.01-.05,0-.08l1.46-3.62ZM26.42,83.78l-.55,1.46h1.09l-.54-1.46Z"/>
  <rect class="cls-1" x="30.32" y="82.79" width=".62" height="4.82" rx=".1" ry=".1"/>
  <path class="cls-1" d="M33.37,82.89c0-.07.03-.1.1-.1h1.66c.15,0,.28.03.41.08.13.06.24.13.33.23.09.1.17.21.22.34.05.13.08.27.08.42s-.02.28-.07.4c-.05.12-.12.23-.22.31.07.05.14.11.2.17.06.07.11.14.15.22.04.08.07.17.09.26.02.09.03.18.03.28,0,.15-.03.29-.08.42-.05.13-.13.25-.22.35-.09.1-.21.18-.33.24s-.26.09-.41.09h-1.83c-.07,0-.1-.03-.1-.1v-3.62ZM34.12,83.41v.93h.81c.15,0,.27-.04.36-.12.09-.08.14-.2.14-.34,0-.07-.01-.13-.03-.19-.02-.06-.06-.11-.1-.15-.04-.04-.09-.07-.16-.09-.06-.02-.13-.03-.2-.03h-.81ZM34.12,84.93v1.05h.98c.08,0,.15-.02.21-.05.06-.03.11-.07.15-.12.04-.05.07-.1.09-.16.02-.06.03-.12.03-.18,0-.08-.01-.15-.04-.21-.03-.07-.06-.12-.11-.17-.05-.05-.1-.09-.16-.11-.06-.03-.12-.04-.19-.04h-.97Z"/>
  <path class="cls-1" d="M36.94,82.89c0-.07.03-.1.1-.1h2.52c.07,0,.1.03.1.1v.5c0,.07-.03.1-.1.1h-1.86v.78h1.42s.06,0,.08.03c.02.02.03.04.03.08v.49c0,.07-.04.1-.12.1h-1.42v.94h1.91c.07,0,.11.03.11.1v.5c0,.07-.04.1-.11.1h-2.56c-.07,0-.1-.03-.1-.1v-3.62Z"/>
  <path class="cls-1" d="M41.05,83.9v2.6c0,.07-.04.1-.11.1h-.51c-.07,0-.1-.04-.1-.1v-3.62s0-.05.02-.07c.02-.02.04-.03.08-.03h.6c.06,0,.11.03.15.1l1.73,2.49v-2.48s0-.05.03-.07c.02-.02.04-.03.08-.03h.51s.05,0,.07.03c.02.02.04.04.04.07v3.62c0,.07-.04.1-.11.1h-.54s-.06,0-.08-.02c-.02-.01-.05-.04-.07-.07l-1.78-2.61Z"/>
  <path class="cls-1" d="M46.56,85.93c.1-.03.2-.07.28-.13v-.79c0-.07.03-.1.1-.1h.46s.05,0,.07.02c.02.01.03.04.03.08v1.17s0,.04-.01.06c0,.02-.02.03-.04.05-.08.05-.16.1-.25.15-.09.05-.19.09-.29.12-.1.03-.21.06-.32.08-.11.02-.22.03-.34.03-.27,0-.53-.05-.77-.15-.24-.1-.45-.24-.63-.42-.18-.18-.32-.39-.42-.63-.1-.24-.16-.49-.16-.77s.05-.53.15-.76c.1-.24.24-.45.42-.62.18-.18.39-.32.62-.42.24-.1.49-.15.77-.15.23,0,.44.03.63.1.19.07.36.16.52.28.03.02.05.05.05.07,0,.02,0,.04-.02.06l-.31.44s-.05.04-.07.04c-.02,0-.04,0-.07-.02-.1-.08-.21-.14-.33-.18-.12-.05-.25-.07-.39-.07-.18,0-.35.03-.5.1-.15.06-.28.15-.4.26-.11.11-.2.24-.26.39-.06.15-.1.31-.1.49s.03.34.1.49c.06.16.15.29.27.41.11.12.24.21.4.27.15.07.31.1.49.1.1,0,.2-.02.3-.04"/>
  <path class="cls-1" d="M49.51,82.89c.03-.07.07-.1.13-.1h.43c.06,0,.1.03.13.1l1.45,3.62s.01.06,0,.08c-.01.02-.04.03-.07.03h-.56c-.06,0-.1-.03-.13-.09l-.25-.62h-1.58l-.25.61s-.03.06-.05.07c-.02.01-.05.02-.08.02h-.56s-.06,0-.07-.03c-.01-.02-.01-.05,0-.08l1.46-3.62ZM49.86,83.78l-.55,1.46h1.09l-.54-1.46Z"/>
  <path class="cls-1" d="M52.16,82.9s0-.06.03-.08c.02-.02.04-.03.07-.03h.55c.07,0,.1.04.1.11v3.01h1.62c.07,0,.11.03.11.1v.51c0,.07-.04.1-.11.1h-2.27c-.07,0-.1-.03-.1-.1v-3.62Z"/>
  <path class="cls-1" d="M55.87,85.09c0,.15.02.28.07.39.05.11.11.21.19.28.08.08.17.14.27.17s.21.06.33.06.23-.02.33-.06c.1-.04.19-.1.27-.18.08-.08.14-.17.18-.28.04-.11.07-.23.07-.37v-2.2s0-.06.03-.08c.02-.02.04-.03.08-.03h.54s.06.01.08.03c.02.02.03.05.03.08v2.2c0,.28-.04.51-.13.71-.09.2-.2.36-.35.49-.15.13-.32.22-.51.29-.2.06-.4.09-.62.09s-.42-.03-.62-.09-.37-.16-.51-.29c-.15-.13-.26-.3-.35-.49-.09-.2-.13-.44-.13-.71v-2.19s0-.05.03-.07c.02-.02.04-.03.07-.03h.56s.07,0,.08.03c.01.02.02.04.02.08v2.2Z"/>
  <path class="cls-1" d="M59.08,82.89s0-.05.02-.07c.02-.02.04-.03.08-.03h1.64c.18,0,.34.03.49.1.15.07.28.16.38.28.11.12.19.25.25.4.06.15.09.31.09.47,0,.11-.02.21-.05.32-.03.1-.08.2-.13.29-.06.09-.13.18-.21.25-.08.08-.17.14-.26.2l.7,1.39s.01.05,0,.07c-.01.02-.03.04-.07.04h-.66s-.05,0-.07-.02c-.02-.01-.03-.04-.05-.07l-.61-1.23h-.78v1.22c0,.07-.03.1-.1.1h-.55c-.07,0-.1-.03-.1-.1v-3.62ZM59.83,83.43v1.2h.8c.09,0,.17-.02.25-.05.08-.03.14-.07.2-.13.06-.05.1-.12.13-.19.03-.07.05-.15.05-.23s-.02-.16-.05-.23c-.03-.07-.07-.14-.13-.19-.06-.05-.12-.1-.2-.13-.08-.03-.16-.05-.25-.05h-.8Z"/>
  <path class="cls-1" d="M63.38,85.09c0,.15.02.28.07.39.05.11.11.21.19.28.08.08.17.14.27.17s.21.06.33.06.23-.02.33-.06c.1-.04.19-.1.27-.18.08-.08.14-.17.18-.28.04-.11.07-.23.07-.37v-2.2s0-.06.03-.08c.02-.02.04-.03.08-.03h.54s.06.01.08.03c.02.02.03.05.03.08v2.2c0,.28-.04.51-.13.71-.09.2-.2.36-.35.49-.15.13-.32.22-.51.29-.19.06-.4.09-.62.09s-.42-.03-.62-.09c-.2-.06-.37-.16-.51-.29-.15-.13-.26-.3-.35-.49-.09-.2-.13-.44-.13-.71v-2.19s0-.05.03-.07c.02-.02.04-.03.07-.03h.56s.07,0,.08.03c.01.02.02.04.02.08v2.2Z"/>
  <path class="cls-1" d="M68.29,82.79h.41c.06,0,.1.05.1.1v4.62c0,.06-.05.1-.1.1h-.41c-.06,0-.1-.05-.1-.1v-4.62c0-.06.05-.1.1-.1Z"/>
  <path class="cls-1" d="M71.22,82.89c0-.07.03-.1.1-.1h1.28c.16,0,.32.02.48.07.16.04.31.11.45.19.14.08.28.18.4.29.12.12.23.24.32.38.09.14.16.29.21.46.05.16.08.34.08.52,0,.26-.05.5-.15.73-.1.23-.23.43-.41.6s-.37.31-.61.41c-.23.1-.48.16-.75.17h-1.3c-.07,0-.1-.03-.1-.1v-3.62ZM73.69,84.23c-.06-.15-.15-.28-.26-.39-.11-.11-.24-.2-.39-.26-.15-.06-.32-.09-.49-.09h-.56v2.43h.56c.18,0,.34-.03.49-.1.15-.06.28-.15.39-.26.11-.11.2-.24.26-.39.06-.15.09-.31.09-.47s-.03-.33-.09-.48"/>
  <path class="cls-1" d="M75.22,82.89c0-.07.03-.1.1-.1h2.52c.07,0,.1.03.1.1v.5c0,.07-.03.1-.1.1h-1.86v.78h1.42s.06,0,.08.03c.02.02.03.04.03.08v.49c0,.07-.04.1-.12.1h-1.42v.94h1.91c.07,0,.11.03.11.1v.5c0,.07-.04.1-.11.1h-2.56c-.07,0-.1-.03-.1-.1v-3.62Z"/>
  <path class="cls-1" d="M78.61,82.9s0-.06.03-.08c.02-.02.04-.03.07-.03h.55c.07,0,.1.04.1.11v3.01h1.62c.07,0,.11.03.11.1v.51c0,.07-.04.1-.11.1h-2.27c-.07,0-.1-.03-.1-.1v-3.62Z"/>
  <path class="cls-1" d="M84.07,84.96h-1.71v1.54c0,.07-.04.1-.11.1h-.54c-.07,0-.1-.03-.1-.1v-3.61s0-.06.02-.08c.02-.02.04-.03.08-.03h.56s.04,0,.06.02c.02.01.03.04.03.08v1.35h1.71v-1.34s0-.06.02-.08c.02-.02.04-.03.08-.03h.56s.04,0,.06.02c.02.01.03.04.03.08v3.62c0,.07-.04.1-.11.1h-.54c-.07,0-.1-.03-.1-.1v-1.54Z"/>
  <path class="cls-1" d="M85.66,82.9c0-.07.03-.11.1-.11h.54c.07,0,.1.04.1.11v3.61c0,.07-.03.1-.1.1h-.54c-.07,0-.1-.03-.1-.1v-3.61Z"/>
  <path class="cls-1" d="M89.57,83.9v2.6c0,.07-.04.1-.11.1h-.51c-.07,0-.1-.04-.1-.1v-3.62s0-.05.02-.07c.02-.02.04-.03.08-.03h.6c.06,0,.11.03.15.1l1.73,2.49v-2.48s0-.05.03-.07c.02-.02.04-.03.08-.03h.51s.05,0,.07.03c.02.02.04.04.04.07v3.62c0,.07-.04.1-.11.1h-.54s-.06,0-.08-.02c-.02-.01-.05-.04-.07-.07l-1.78-2.61Z"/>
  <path class="cls-1" d="M95.59,85.68s.05.01.07.04l.26.44s.03.06.03.08c0,.02-.02.05-.06.07-.15.11-.31.2-.49.26-.18.06-.39.1-.62.1-.27,0-.53-.05-.77-.15-.24-.1-.45-.24-.63-.42-.18-.18-.32-.39-.42-.63-.1-.24-.16-.49-.16-.77s.05-.53.16-.77c.1-.24.24-.45.42-.62.18-.18.39-.32.63-.42.24-.1.5-.15.77-.15.23,0,.44.03.62.1.18.06.35.15.5.26.03.02.04.04.04.07,0,.02,0,.04-.01.06l-.27.46s-.03.03-.06.03c-.03,0-.05,0-.08-.03-.12-.08-.24-.13-.35-.17-.11-.04-.24-.06-.38-.06-.17,0-.33.03-.48.1-.15.06-.28.15-.38.26-.11.11-.19.24-.25.4-.06.15-.09.31-.09.49s.03.34.09.49c.06.15.15.29.25.4.11.11.24.21.38.27.15.07.31.1.48.1.14,0,.27-.02.4-.07.13-.05.23-.1.33-.17.04-.03.07-.04.09-.04"/>
  <path class="cls-1" d="M96.63,82.89s0-.05.02-.07c.02-.02.04-.03.08-.03h1.64c.18,0,.34.03.49.1s.28.16.38.28c.11.12.19.25.25.4.06.15.09.31.09.47,0,.11-.02.21-.05.32-.03.1-.08.2-.13.29-.06.09-.13.18-.21.25-.08.08-.17.14-.26.2l.7,1.39s.01.05,0,.07c-.01.02-.03.04-.07.04h-.66s-.05,0-.07-.02c-.02-.01-.03-.04-.05-.07l-.61-1.23h-.78v1.22c0,.07-.03.1-.1.1h-.55c-.07,0-.1-.03-.1-.1v-3.62ZM97.38,83.43v1.2h.8c.09,0,.17-.02.25-.05.08-.03.14-.07.2-.13.06-.05.1-.12.13-.19.03-.07.05-.15.05-.23s-.02-.16-.05-.23c-.03-.07-.07-.14-.13-.19-.06-.05-.12-.1-.2-.13-.08-.03-.16-.05-.25-.05h-.8Z"/>
  <path class="cls-1" d="M101.91,82.79h.41c.06,0,.1.05.1.1v4.62c0,.06-.05.1-.1.1h-.41c-.06,0-.1-.05-.1-.1v-4.62c0-.06.05-.1.1-.1Z"/>
  <path class="cls-1" d="M107.34,84.96h-1.71v1.54c0,.07-.04.1-.11.1h-.54c-.07,0-.1-.03-.1-.1v-3.61s0-.06.02-.08c.02-.02.04-.03.08-.03h.56s.04,0,.06.02c.02.01.03.04.03.08v1.35h1.71v-1.34s0-.06.02-.08c.02-.02.04-.03.08-.03h.56s.04,0,.06.02c.02.01.03.04.03.08v3.62c0,.07-.04.1-.11.1h-.54c-.07,0-.1-.03-.1-.1v-1.54Z"/>
  <path class="cls-1" d="M109.83,85l-1.23-2.1s-.02-.06,0-.08c.01-.02.04-.03.07-.03h.63s.05,0,.07.02c.02.01.04.04.05.07l.78,1.5.77-1.5c.03-.06.07-.09.13-.09h.64s.06,0,.07.03c.01.02.01.05,0,.08l-1.23,2.09v1.5c0,.07-.03.11-.1.11h-.55c-.07,0-.1-.04-.1-.11v-1.5Z"/>
  <path class="cls-1" d="M112.32,82.89c0-.07.03-.1.1-.1h1.28c.16,0,.32.02.48.07.16.04.31.11.45.19.14.08.28.18.4.29.12.12.23.24.32.38.09.14.16.29.21.46.05.16.08.34.08.52,0,.26-.05.5-.15.73-.1.23-.23.43-.41.6-.17.17-.37.31-.61.41-.23.1-.48.16-.75.17h-1.3c-.07,0-.1-.03-.1-.1v-3.62ZM114.79,84.23c-.06-.15-.15-.28-.26-.39-.11-.11-.24-.2-.39-.26-.15-.06-.32-.09-.49-.09h-.56v2.43h.56c.18,0,.34-.03.49-.1.15-.06.28-.15.39-.26.11-.11.2-.24.26-.39.06-.15.09-.31.09-.47s-.03-.33-.09-.48"/>
  <path class="cls-1" d="M116.32,82.89c0-.07.03-.1.1-.1h2.52c.07,0,.1.03.1.1v.5c0,.07-.03.1-.1.1h-1.86v.78h1.42s.06,0,.08.03c.02.02.03.04.03.08v.49c0,.07-.04.1-.12.1h-1.42v.94h1.91c.07,0,.11.03.11.1v.5c0,.07-.04.1-.11.1h-2.56c-.07,0-.1-.03-.1-.1v-3.62Z"/>
  <path class="cls-1" d="M119.71,82.89s0-.05.02-.07c.02-.02.04-.03.08-.03h1.64c.18,0,.34.03.49.1s.28.16.38.28c.11.12.19.25.25.4.06.15.09.31.09.47,0,.11-.02.21-.05.32-.03.1-.08.2-.13.29-.06.09-.13.18-.21.25-.08.08-.17.14-.26.2l.7,1.39s.01.05,0,.07c-.01.02-.03.04-.07.04h-.66s-.05,0-.07-.02c-.02-.01-.03-.04-.05-.07l-.61-1.23h-.78v1.22c0,.07-.03.1-.1.1h-.55c-.07,0-.1-.03-.1-.1v-3.62ZM120.46,83.43v1.2h.8c.09,0,.17-.02.25-.05.08-.03.14-.07.2-.13.06-.05.1-.12.13-.19.03-.07.05-.15.05-.23s-.02-.16-.05-.23c-.03-.07-.07-.14-.13-.19-.06-.05-.12-.1-.2-.13-.08-.03-.16-.05-.25-.05h-.8Z"/>
  <path class="cls-1" d="M124.51,82.89c.03-.07.07-.1.13-.1h.43c.06,0,.1.03.13.1l1.45,3.62s.01.06,0,.08c-.01.02-.04.03-.07.03h-.56c-.06,0-.1-.03-.13-.09l-.25-.62h-1.58l-.25.61s-.03.06-.05.07c-.02.01-.05.02-.08.02h-.56s-.06,0-.07-.03c-.01-.02-.01-.05,0-.08l1.46-3.62ZM124.85,83.78l-.55,1.46h1.09l-.54-1.46Z"/>
  <path class="cls-1" d="M127.14,82.89c0-.07.03-.1.1-.1h1.66c.15,0,.28.03.41.08.13.06.24.13.33.23.09.1.17.21.22.34.05.13.08.27.08.42s-.02.28-.07.4c-.05.12-.12.23-.22.31.07.05.14.11.2.17.06.07.11.14.15.22.04.08.07.17.09.26.02.09.03.18.03.28,0,.15-.03.29-.08.42-.05.13-.13.25-.22.35-.09.1-.21.18-.33.24s-.26.09-.41.09h-1.83c-.07,0-.1-.03-.1-.1v-3.62ZM127.9,83.41v.93h.81c.15,0,.27-.04.36-.12.09-.08.14-.2.14-.34,0-.07-.01-.13-.03-.19-.02-.06-.06-.11-.1-.15-.04-.04-.09-.07-.16-.09-.06-.02-.13-.03-.2-.03h-.81ZM127.9,84.93v1.05h.98c.08,0,.15-.02.21-.05.06-.03.11-.07.15-.12.04-.05.07-.1.09-.16.02-.06.03-.12.03-.18,0-.08-.01-.15-.04-.21-.03-.07-.06-.12-.11-.17-.05-.05-.1-.09-.16-.11-.06-.03-.12-.04-.19-.04h-.97Z"/>
  <path class="cls-1" d="M131.93,82.89c.03-.07.07-.1.13-.1h.43c.06,0,.1.03.13.1l1.45,3.62s.01.06,0,.08c-.01.02-.04.03-.07.03h-.56c-.06,0-.1-.03-.13-.09l-.25-.62h-1.58l-.25.61s-.03.06-.05.07c-.02.01-.05.02-.08.02h-.56s-.06,0-.07-.03c-.01-.02-.01-.05,0-.08l1.46-3.62ZM132.27,83.78l-.55,1.46h1.09l-.54-1.46Z"/>
  <path class="cls-1" d="M134.54,82.89c0-.07.03-.1.1-.1h1.28c.16,0,.32.02.48.07.16.04.31.11.45.19.14.08.28.18.4.29.12.12.23.24.32.38.09.14.16.29.21.46.05.16.08.34.08.52,0,.26-.05.5-.15.73-.1.23-.23.43-.41.6-.17.17-.37.31-.61.41-.23.1-.48.16-.75.17h-1.3c-.07,0-.1-.03-.1-.1v-3.62ZM137.01,84.23c-.06-.15-.15-.28-.26-.39-.11-.11-.24-.2-.39-.26-.15-.06-.32-.09-.49-.09h-.56v2.43h.56c.18,0,.34-.03.49-.1.15-.06.28-.15.39-.26.11-.11.2-.24.26-.39.06-.15.1-.31.1-.47s-.03-.33-.1-.48"/>
</svg>