<?xml version="1.0" encoding="UTF-8"?>
<svg id="Layer_1" data-name="Layer 1" xmlns="http://www.w3.org/2000/svg" viewBox="0 0 141.73 141.73">
  <defs>
    <style>
      .cls-1 {
        fill: #231f20;
      }
    </style>
  </defs>
  <g>
    <rect class="cls-1" x="31.06" y="49.7" width="3.73" height="19.41"/>
    <rect class="cls-1" x="92.82" y="40.37" width="3.71" height="28.74"/>
    <path class="cls-1" d="M42.37,63.62v-10.21h-4.13v-3.71h2.82c.73,0,1.32-.59,1.32-1.32v-8.02h3.71v9.33h4.21v3.71h-4.21v9.79c0,1.21.98,2.19,2.19,2.19h2.45v3.71h-2.87c-3.03,0-5.48-2.45-5.48-5.48"/>
    <path class="cls-1" d="M79.46,69.11v-14.38c0-.73-.59-1.32-1.32-1.32h-2.39v-3.71h3.71v-3.83c0-3.01,2.43-5.46,5.44-5.48l2.91-.02v3.78h-2.44c-1.21,0-2.19.98-2.19,2.19v3.36h4.64v3.71h-4.64v15.7h-3.71Z"/>
    <path class="cls-1" d="M10.8,59.62v-.44c0-5.24,4.25-9.49,9.49-9.49h6.12v3.71h-5.9c-3.31,0-5.99,2.68-5.99,5.99s2.68,5.99,5.99,5.99h5.9v3.71h-6.12c-5.24,0-9.49-4.25-9.49-9.49"/>
    <path class="cls-1" d="M101.43,59.4h0c0-5.36,4.34-9.7,9.7-9.7h8.86c5.36,0,9.7,4.34,9.7,9.7s-4.34,9.7-9.7,9.7h-8.86c-5.36,0-9.7-4.34-9.7-9.7M111.14,65.39h8.86c3.31,0,5.99-2.68,5.99-5.99s-2.68-5.99-5.99-5.99h-8.86c-3.31,0-5.99,2.68-5.99,5.99s2.68,5.99,5.99,5.99"/>
    <path class="cls-1" d="M54.65,78.44v-3.29h2.01c1.34,0,2.55-.81,3.05-2.06l1.55-3.83-7.9-19.56h3.68l6.07,15.01,6.06-15.01h3.68l-7.87,19.48-2.08,5.15c-1,2.49-3.42,4.11-6.1,4.11h-2.14Z"/>
  </g>
  <g>
    <path class="cls-1" d="M15.62,101.17h-2.52l-2.93-5.25h-3.33v5.25h-2.22v-14.13h5.85c.89,0,1.68.2,2.39.58.71.39,1.26.92,1.66,1.59.4.67.6,1.43.6,2.26,0,.92-.24,1.74-.73,2.46-.48.73-1.14,1.26-1.96,1.61l3.19,5.61ZM6.85,89.06v4.84h3.63c.71,0,1.29-.23,1.75-.69.45-.46.68-1.04.68-1.74s-.23-1.29-.68-1.74c-.45-.45-1.03-.68-1.75-.68h-3.63Z"/>
    <path class="cls-1" d="M23.7,101.17h-2.22v-14.13h2.22v14.13Z"/>
    <path class="cls-1" d="M30.56,101.17v-14.13h4.74c1.35,0,2.58.32,3.71.96,1.13.64,2.02,1.5,2.67,2.58s.98,2.26.98,3.52-.33,2.44-.98,3.52-1.54,1.94-2.67,2.58c-1.13.64-2.37.96-3.71.96h-4.74ZM35.3,99.15c.95,0,1.83-.22,2.61-.67.79-.44,1.41-1.05,1.86-1.83.45-.77.68-1.62.68-2.55s-.23-1.78-.68-2.55c-.45-.77-1.07-1.38-1.86-1.83-.79-.44-1.66-.67-2.61-.67h-2.52v10.09h2.52Z"/>
    <path class="cls-1" d="M58.81,101.17h-10.19v-14.13h9.99v2.02h-7.77v3.77h6.16v2.02h-6.16v4.3h7.97v2.02Z"/>
    <path class="cls-1" d="M72.13,101.17v-14.13h5.65c.82,0,1.55.17,2.2.5s1.15.79,1.5,1.36c.36.57.53,1.19.53,1.87s-.17,1.23-.5,1.73c-.34.49-.75.85-1.25,1.08.62.23,1.18.65,1.7,1.26.51.61.77,1.34.77,2.19,0,.74-.2,1.43-.6,2.06-.4.63-.95,1.14-1.65,1.51s-1.5.57-2.39.57h-5.95ZM77.78,92.79c.61,0,1.09-.18,1.46-.53s.56-.82.56-1.38-.19-1.03-.56-1.38-.86-.53-1.46-.53h-3.43v3.83h3.43ZM78.08,99.25c.7,0,1.28-.22,1.74-.67.46-.44.69-1,.69-1.66s-.23-1.21-.69-1.66c-.46-.44-1.04-.67-1.74-.67h-3.73v4.64h3.73Z"/>
    <path class="cls-1" d="M90.89,101.17h-2.22v-14.13h2.22v14.13Z"/>
    <path class="cls-1" d="M102.6,101.17h-2.22v-12.11h-4.24v-2.02h10.7v2.02h-4.24v12.11Z"/>
    <path class="cls-1" d="M122.27,101.17h-10.19v-14.13h9.99v2.02h-7.77v3.77h6.16v2.02h-6.16v4.3h7.97v2.02Z"/>
    <path class="cls-1" d="M129.04,100.74c-.87-.42-1.54-.91-2.03-1.49l1.49-1.45c.98,1.04,2.17,1.55,3.55,1.55.87,0,1.56-.2,2.07-.62.51-.41.76-.91.76-1.5,0-.43-.13-.78-.39-1.05-.26-.27-.59-.48-.99-.65-.4-.16-.95-.34-1.64-.53-.96-.28-1.72-.56-2.3-.82-.58-.26-1.08-.67-1.5-1.22s-.64-1.29-.64-2.2c0-.71.19-1.37.59-1.97.39-.6.95-1.08,1.68-1.43.73-.36,1.59-.53,2.57-.53s1.82.18,2.59.55c.77.36,1.39.79,1.85,1.27l-1.49,1.45c-.35-.34-.78-.63-1.28-.88-.51-.25-1.06-.37-1.67-.37-.82,0-1.46.18-1.93.55-.46.37-.7.82-.7,1.36,0,.43.13.78.39,1.05.26.27.59.48.99.65s.95.34,1.64.52c.96.28,1.72.56,2.3.82.58.26,1.08.67,1.5,1.22.42.55.64,1.29.64,2.2,0,.74-.2,1.43-.62,2.06-.41.63-1,1.14-1.77,1.51-.77.38-1.65.57-2.66.57-1.14,0-2.15-.21-3.02-.63Z"/>
  </g>
</svg>