<?xml version="1.0" encoding="UTF-8"?>
<svg id="Layer_1" data-name="Layer 1" xmlns="http://www.w3.org/2000/svg" viewBox="0 0 141.73 141.73">
  <defs>
    <style>
      .cls-1 {
        fill: #e32526;
      }

      .cls-2 {
        fill: #f7ec13;
      }

      .cls-3 {
        fill: none;
        stroke: #070902;
        stroke-miterlimit: 10;
        stroke-width: .37px;
      }

      .cls-4 {
        font-family: MyriadPro-Bold, 'Myriad Pro';
        font-size: 8.02px;
        font-weight: 700;
      }

      .cls-4, .cls-5 {
        fill: #070902;
      }
    </style>
  </defs>
  <circle class="cls-2" cx="70.87" cy="70.87" r="66.61"/>
  <g>
    <g>
      <path class="cls-5" d="M107.29,81.92c.2,2.74.11,5.47-.4,8.17-.54,2.89-2.76,5.38-6.05,5.66-3.28.28-6.55.32-9.82,0-2.88-.29-5.64-2.89-6.08-5.82-.57-3.73-.88-7.47-.71-11.23.11-2.5.3-5.01,1.17-7.39.56-1.53,1.57-2.55,3.3-2.61,1.92-.07,3.84-.03,5.73.36,1.11.23,1.51.77,1.63,1.9.31,3.02.17,6.05.2,9.08,0,.3-.18.8.27.83.39.02.37-.51.41-.8.14-1.1.06-2.21.02-3.32-.08-1.69-.17-3.38.3-5.04.18-.65.48-1.24.94-1.74.39-.41.84-.65,1.43-.67,1.44-.06,2.87-.2,4.32-.19,1.76.01,2.99,1.14,3.1,2.91.09,1.65.19,3.3.23,4.94.04,1.65,0,3.3,0,4.95Z"/>
      <path class="cls-5" d="M41,55.56c0-3.78.01-6.58,0-9.38,0-1.16.19-2.28.54-3.38.51-1.59,1.58-2.41,3.25-2.56,3.24-.3,6.47-.14,9.7.1,1.62.12,3.25.15,4.88.28,2.32.18,4.71,2.46,4.46,5.47-.05.58-.13,1.16-.26,1.73-.12.51-.39.61-.85.58-1.14-.08-2.19-.49-3.23-.92-1.6-.66-3.17-1.39-4.88-1.73-.38-.08-.94-.29-1.09.01-.17.34.34.64.66.87,1.29.95,2.81,1.43,4.3,1.96,1.3.46,2.62.85,3.89,1.36,1.67.67,1.92,1.36,1.5,3.13-.4,1.7-1.69,2.57-3.03,3.39-1.89,1.15-3.98,1.9-5.91,2.96-.46.25-.9.52-1.32.82-.26.19-.65.46-.47.79.18.34.61.14.9,0,.57-.26,1.11-.56,1.67-.86,1.91-1.01,3.94-1.81,5.76-2.98.39-.25.77-.5,1.12-.79.34-.29.53-.19.74.14.3.44.54.93.56,1.44.08,2.05-.03,4.09-.53,6.09-.5,1.99-1.98,2.73-3.84,3.02-2.39.38-4.79.26-7.19.11-2.44-.15-4.89.04-7.31-.36-.8-.13-1.63-.24-2.37-.55-.91-.37-1.32-1.2-1.36-2.16-.13-3.19-.31-6.38-.25-8.6Z"/>
      <path class="cls-5" d="M82.97,83.31c-.01,1.8-.02,3.59-.23,5.38-.37,3.22-2.1,5.74-5.39,6.6-3.94,1.03-7.9,1.01-11.82-.06-2.61-.72-4.23-2.53-4.8-5.17-.94-4.35-.93-8.75-.4-13.14.22-1.82.74-3.59,1.75-5.17,1.07-1.68,2.68-2.61,4.56-2.88,3.2-.45,6.41-.17,9.6.35.97.16,1.94.34,2.85.69,1.64.64,2.46,1.98,2.9,3.6.86,3.22,1.02,6.5.99,9.81ZM72.07,80.69c.03-.5-.04-1.05-.41-1.51-.3-.38-.7-.38-.87.05-.4,1.02-.62,2.07-.14,3.14.1.23.24.46.53.47.28,0,.45-.22.56-.44.26-.51.34-1.06.33-1.7Z"/>
      <path class="cls-5" d="M88.96,50.13c.17,2.19-.52,4.54-1.55,6.84-1.26,2.79-2.5,5.58-4.39,8.04-1.11,1.44-2.53,2.17-4.26,2.3-1.98.15-3.96.16-5.9-.43-1.02-.31-1.82-.85-2.32-1.84-1.42-2.8-2.89-5.58-4.31-8.39-.99-1.96-1.08-4.09-1.09-6.23-.01-2.58.37-5.12.83-7.65.1-.57.3-1.13.52-1.67.18-.46.52-.86,1.05-.89,2.23-.12,4.47-.18,6.66.43,1.02.29,1.63,1,1.88,1.99.47,1.86.49,3.76.35,5.66-.13,1.9-.36,3.79-.37,5.69,0,.21.01.42.02.63.02.23.1.42.36.42.22,0,.31-.16.36-.37.13-.59.28-1.17.28-1.79,0-1.9,0-3.8.16-5.7.08-1,.08-2-.13-2.99-.19-.92.08-1.78.48-2.6.25-.5.64-.83,1.22-.98,2.05-.54,4.12-.74,6.2-.38,1.43.25,2.43,1.15,2.86,2.58.68,2.27,1.11,4.58,1.09,7.32Z"/>
      <path class="cls-5" d="M58.77,74.64c.1,1.97-.2,3.91-.5,5.85-.12.78-1.31,1.75-2.29,1.9-.97.15-1.93.35-2.9.46-.45.05-.55.23-.53.64.08,1.71,0,3.42-.17,5.13-.17,1.62-.49,3.22-.84,4.8-.33,1.46-1.2,2.37-2.74,2.47-2.25.15-4.5.26-6.71-.38-1.28-.37-1.95-1.14-2.14-2.51-.24-1.72-.14-3.42-.03-5.12.1-1.61.15-3.21.11-4.82-.02-.56-.29-.76-.75-.9-.99-.32-2.03-.18-3.03-.46-.93-.25-1.51-.82-1.64-1.73-.34-2.35-.37-4.7-.24-7.06.04-.8.27-1.56.55-2.3.26-.68.73-1.14,1.4-1.43,1.52-.65,2.91-.6,4.39.29,2.14,1.28,3.45,3.21,4.72,5.23.22.35.48.68.69,1.04.27.45.45.52.74,0,.75-1.38,1.56-2.72,2.71-3.8,1.71-1.59,3.68-2.68,6.08-2.68,2.2,0,2.82.86,3.1,2.89.11.82.02,1.67.02,2.5Z"/>
      <path class="cls-5" d="M103.24,53.22c.06-3.1.11-6.32.71-9.49.13-.67.3-1.35.53-1.99.27-.76.86-1.23,1.67-1.34,2.17-.29,4.36-.44,6.54-.25,1.21.11,2.02,1.11,2.13,2.34.15,1.71-.03,3.42-.06,5.13-.04,1.79-.21,3.58-.08,5.38.09,1.23.31,1.47,1.54,1.52,1.88.08,3.75-.13,5.63-.22,2.11-.1,3.44.74,4.09,3.43.35,1.44.43,2.92.45,4.41.02,1.5-.67,2.56-1.78,3.47-1.3,1.06-2.87,1.27-4.44,1.47-3.23.41-6.46.41-9.68-.01-1.66-.22-3.36-.4-4.88-1.21-1-.53-1.5-1.39-1.68-2.49-.53-3.33-.58-6.69-.68-10.16Z"/>
      <path class="cls-5" d="M90.16,60.02c.15-2.34.31-4.67.46-7,.14-2.11,1.49-3.4,3.59-3.49,1.94-.08,3.88-.19,5.82,0,1,.1,1.62.67,1.72,1.66.34,3.37.35,6.75.16,10.13-.08,1.4-.41,2.76-1.16,3.98-.62,1-1.43,1.65-2.66,1.72-1.75.09-3.5.16-5.24.35-1.12.12-1.72-.46-2.18-1.3-.34-.62-.52-1.31-.5-2.04.02-1.33,0-2.67,0-4Z"/>
      <path class="cls-1" d="M94.52,48.42c-.88,0-1.75,0-2.63,0-.71-.01-1.2-.43-1.23-1.14-.07-1.4-.11-2.8.01-4.19.11-1.23.9-1.94,2.36-2.3,1.67-.41,3.38-.48,5.08-.63.56-.05,1.12.05,1.67.2,1.47.41,1.86,1.62,2.06,2.91.15.97.1,1.96,0,2.93-.1.95-.81,1.64-1.78,1.84-1.83.39-3.68.43-5.54.38Z"/>
      <path class="cls-5" d="M31.57,102.79c.04.31.06.71-.33.98-.19.13-.4.15-.6.06-.23-.11-.03-.29-.02-.44.08-1.13.03-2.25.03-3.38,0-.21-.31-.55.12-.6.36-.04.81-.21,1.07.25.24.42.44.85.68,1.26.07.13.09.38.32.3.19-.07.11-.29.11-.44,0-.23-.04-.46-.03-.69.01-.38.23-.63.6-.69.27-.05.44-.02.4.39-.13,1.24-.18,2.49.03,3.73.05.31-.07.31-.27.33-.53.06-.99.02-1.19-.6-.12-.35-.33-.67-.52-.99-.07-.12-.06-.39-.3-.32-.21.06-.11.28-.12.43,0,.1.01.21.02.4Z"/>
      <path class="cls-5" d="M43.06,101.52c-.03-.51.07-1.12-.07-1.72-.07-.31.04-.43.34-.42.17,0,.33,0,.5,0,.35,0,.52,0,.46.51-.12.92-.06,1.87-.06,2.81,0,.2.05.38.32.34.25-.04.55-.07.55-.39.01-.89.13-1.8-.06-2.68-.11-.53.02-.64.49-.59.21.02.42,0,.62.02.18.01.27.1.21.29-.3,1.07-.09,2.15-.14,3.23-.04.77-.19.95-.97.95-.42,0-.83,0-1.25,0-.66,0-.93-.27-.94-.95,0-.44,0-.88,0-1.4Z"/>
      <path class="cls-5" d="M112.31,101.59c-.08-.55.14-1.23-.14-1.88-.08-.18,0-.28.18-.31.12-.02.25-.02.37-.02.8-.02.77-.02.72.76-.05.81-.02,1.63-.02,2.44,0,.25.06.47.38.44.27-.02.51-.09.49-.43-.03-.94.11-1.88-.08-2.81-.07-.36.07-.4.33-.4.23,0,.46,0,.69,0,.24,0,.34.11.29.36-.17,1.04-.05,2.08-.08,3.13-.02.76-.26,1-1.02,1-.42,0-.84,0-1.25,0-.65-.01-.86-.22-.88-.86,0-.02,0-.04,0-.06,0-.42,0-.84,0-1.36Z"/>
      <path class="cls-5" d="M120.35,103.87c-.31,0-.63.02-.94,0-.38-.03-.6-.28-.65-.65-.03-.2-.04-.47.22-.51.32-.05.71-.31.94.14.14.26.32.21.53.16.25-.06.31-.24.31-.47,0-.27-.05-.5-.35-.58-.32-.09-.65-.16-.96-.27-.61-.21-.85-.78-.69-1.66.11-.59.55-.65,1.04-.64.44.01.88,0,1.31,0,.4,0,.69.18.79.57.06.22.07.5-.22.58-.34.1-.71.34-.99-.13-.14-.24-.39-.23-.61-.18-.22.05-.16.26-.16.42,0,.3.2.38.44.43.04,0,.08.01.12.02q1.45.26,1.44,1.74c0,.83-.22,1.05-1.02,1.05-.19,0-.38,0-.56,0h0Z"/>
      <path class="cls-5" d="M21.39,99.39c.29,0,.58-.01.88,0,.38.02.62.24.69.6.05.23.04.49-.25.56-.32.07-.69.32-.94-.13-.16-.28-.42-.26-.66-.19-.2.06-.14.28-.14.44,0,.3.23.36.47.4.23.03.45.06.68.08.56.04.84.39.84.89.02,1.54.25,1.93-1.72,1.84-.27-.01-.54.02-.81-.01-.35-.04-.56-.28-.61-.61-.03-.22-.06-.51.25-.55.3-.05.68-.28.9.12.15.29.35.24.57.18.26-.07.27-.28.27-.49,0-.25-.05-.46-.32-.54-.3-.09-.61-.15-.9-.25-.69-.23-.92-.71-.77-1.67.09-.64.57-.68,1.08-.66.17,0,.33,0,.5,0h0Z"/>
      <path class="cls-5" d="M63.47,100.56c0-.15-.02-.3,0-.44.05-.23-.3-.52,0-.67.33-.16.74-.08,1.11-.04.16.02.16.16.13.3-.13.58-.07,1.16-.07,1.74,0,.39-.19.71-.5.78-.65.15-.59.59-.47,1,.17.59-.07.7-.57.64-.16-.02-.33,0-.5-.01-.23-.01-.38-.08-.23-.34.14-.25.09-.53.11-.8.01-.24-.07-.37-.33-.42-.47-.09-.67-.4-.68-.9,0-.58.13-1.17-.13-1.73-.09-.19.05-.27.22-.28.31-.01.62-.02.94,0,.29,0,.27.21.21.4-.11.35-.08.7-.09,1.05,0,.3-.03.59.43.58.42,0,.48-.23.45-.56,0-.1,0-.21,0-.31h0Z"/>
      <path class="cls-5" d="M95.07,101.57c0-.48,0-.96,0-1.44.01-.44.25-.71.69-.74.6-.03,1.21-.02,1.81,0,.35.01.58.23.65.56.05.23.06.5-.23.58-.32.09-.69.31-.96-.1-.17-.26-.42-.29-.65-.21-.26.09-.15.36-.15.55-.01.58,0,1.17,0,1.75,0,.18-.03.41.18.49.2.07.44.03.57-.15.31-.45.72-.25,1.07-.14.25.08.22.4.15.61-.13.41-.44.56-.87.54-.46-.02-.92,0-1.38,0-.64,0-.89-.26-.9-.92,0-.46,0-.92,0-1.38Z"/>
      <path class="cls-5" d="M79.9,103.85c-.42,0-.92.15-1.23-.04-.41-.25.07-.73.02-1.13-.12-.99.13-1.99-.15-2.98-.08-.27.13-.31.33-.31.71,0,1.42,0,2.13,0,.51,0,.49.38.49.7,0,.45-.33.24-.54.23-.17,0-.33-.08-.49-.08-.25,0-.62-.23-.67.27-.05.47.3.4.58.42.17.01.44-.07.45.2,0,.24-.02.51-.32.61-.08.03-.16.05-.24.06-.63.05-.47.53-.46.89.02.48.38.32.65.29.17-.02.33-.07.49-.07.21,0,.56-.2.55.23,0,.33.02.75-.54.71-.35-.02-.71,0-1.06,0,0,0,0-.01,0-.02Z"/>
      <path class="cls-5" d="M38.35,99.39c.31,0,.63.03.94,0,.45-.05.64.21.65.57.02.48-.37.24-.6.26-.23.02-.46,0-.69-.02-.24-.02-.4.03-.41.32,0,.28.08.41.38.43.22.02.6-.22.63.25.03.38-.21.58-.57.61-.4.03-.47.26-.45.59.03.33-.02.68.06.99.11.44-.07.52-.44.49-.12-.01-.25,0-.37,0-.4.03-.54-.02-.48-.54.14-1.13.13-2.29,0-3.42-.05-.47.07-.54.46-.52.29.02.58,0,.87,0Z"/>
      <path class="cls-5" d="M85.91,103.84c-.44,0-.98.16-1.28-.04-.33-.21.11-.72.06-1.13-.12-.99.14-2-.16-2.98-.08-.26.09-.29.27-.3.27-.01.54,0,.81,0,.3,0,.35.14.29.4-.2.91-.06,1.83-.09,2.74-.02.41.17.57.58.47.18-.05.37-.08.56-.08.21,0,.59-.18.56.22-.02.28.06.78-.52.74-.35-.03-.71,0-1.06,0,0-.01,0-.02,0-.03Z"/>
      <path class="cls-5" d="M49.48,101.69c-.04-.64.07-1.27-.08-1.89-.07-.31.04-.43.34-.41.23,0,.46,0,.69,0,.26,0,.33.1.28.39-.18.97-.05,1.95-.08,2.93,0,.27.12.37.39.32.25-.05.49-.11.74-.11.21,0,.57-.24.58.2,0,.33,0,.75-.53.74-.69,0-1.38,0-2.06,0-.28,0-.44-.06-.35-.4.15-.59.05-1.2.09-1.79Z"/>
      <path class="cls-5" d="M56.73,103.85c-.42,0-.91.14-1.23-.03-.45-.25.06-.72,0-1.12-.12-.99.13-2-.15-2.99-.06-.21.05-.31.26-.32.15,0,.29,0,.44,0,.54-.05.73.02.6.7-.17.85-.05,1.75-.05,2.62,0,.27.17.36.42.32.23-.03.45-.1.68-.1.22,0,.6-.24.6.26,0,.36-.03.73-.57.68-.33-.03-.67,0-1,0,0,0,0-.01,0-.02Z"/>
      <path class="cls-5" d="M91.3,103.84c-.6.11-.81.07-.72-.63.13-1.09.06-2.21,0-3.31-.03-.4.02-.54.42-.51.19.01.38,0,.56,0,.28,0,.34.12.31.4-.11,1.25-.12,2.5,0,3.74.07.65-.46.18-.57.31Z"/>
      <path class="cls-5" d="M26.88,103.83c-.68.14-.78-.02-.71-.64.12-1.11.13-2.24-.02-3.36-.05-.37.05-.45.37-.44.21,0,.42,0,.62,0,.26,0,.35.09.32.38-.12,1.24-.13,2.49,0,3.73.07.69-.5.17-.58.33Z"/>
      <path class="cls-5" d="M102.13,103.84c-.61.12-.76.02-.69-.62.13-1.11.12-2.25-.01-3.37-.05-.4.07-.54.39-.46.31.08.91-.33.89.35-.05,1.27-.09,2.53.02,3.8.05.59-.47.16-.6.28Z"/>
      <path class="cls-5" d="M39.75,52.51c-.05,0-.1,0-.15,0,0-2.34,0-4.68,0-7.01,0-1.03-.18-2.03-.58-2.99-.78-1.88-1.88-2.54-3.9-2.39-1.81.13-3.63.22-5.44.32-.86.05-1.31.43-1.53,1.28-.18.69-.22,1.4-.23,2.11-.01.67-.02,1.33-.19,1.99-.09.34-.26.55-.6.65-.6.17-1.2.33-1.82.43-1.55.24-3.12.17-4.69.26-2.84.16-5.04,2.25-5.18,5.1-.17,3.65-.15,7.31.66,10.91.38,1.67,1.25,3,3.08,3.52,1.6.45,3.21.69,4.87.71,2.53.02,5.04-.27,7.57-.35,1.17-.03,2.32-.23,3.42-.67,1.79-.71,3.36-1.69,4.12-3.58.41-1.02.49-2.11.57-3.19.19-2.36.13-4.72.02-7.07ZM26.22,58.25c-.28.52-.69.5-.99,0-.32-.53-.33-1.11-.31-1.69,0-.57.07-1.12.3-1.65.23-.53.55-.58.95-.16.2.2.31.45.37.71.22.96.16,1.91-.31,2.79Z"/>
      <path class="cls-5" d="M75.39,100.14c-.02-.46-.26-.74-.75-.74-.71,0-1.42,0-2.13,0-.32,0-.42.09-.36.45.19,1.2.2,2.4,0,3.6-.06.36.03.45.36.44.69-.01,1.38-.01,2.06,0,.55,0,.81-.28.83-.79.02-.48,0-.96,0-1.44h0c0-.5.02-1,0-1.5ZM73.72,103.06c-.4.03-.35-.26-.35-.51,0-.31,0-.62,0-.94s0-.62,0-.94c0-.27,0-.51.38-.48.33.02.57.1.56.5-.01.62-.01,1.25,0,1.87,0,.41-.28.46-.58.49Z"/>
      <path class="cls-5" d="M109.05,101.62c0-.48.01-.96,0-1.44-.02-.49-.27-.78-.78-.79-.52,0-1.04,0-1.57,0-.54,0-.81.26-.81.8,0,.96,0,1.92,0,2.88,0,.54.28.8.82.79.5,0,1,0,1.5,0,.55,0,.8-.3.83-.81.03-.48,0-.96,0-1.44ZM107.35,103.06c-.33.02-.35-.23-.35-.47,0-.33,0-.67,0-1,0-.31,0-.62,0-.94,0-.25.01-.47.35-.46.29,0,.55.04.55.42,0,.67,0,1.33,0,2,0,.39-.27.42-.55.44Z"/>
    </g>
    <g>
      <text class="cls-4" transform="translate(117.9 42.22)"><tspan x="0" y="0">R</tspan></text>
      <circle class="cls-3" cx="120.28" cy="39.59" r="4.51"/>
    </g>
  </g>
</svg>