<?xml version="1.0" encoding="UTF-8"?>
<svg id="Layer_1" data-name="Layer 1" xmlns="http://www.w3.org/2000/svg" viewBox="0 0 141.73 141.73">
  <defs>
    <style>
      .cls-1 {
        fill: #f70;
      }

      .cls-1, .cls-2 {
        fill-rule: evenodd;
      }

      .cls-2 {
        fill: #0034ad;
      }
    </style>
  </defs>
  <path class="cls-1" d="M51.74,68.02s-.02-.01-.03-.02c.52-3.27,2.67-7.82,10.32-10.21-9.15-.42-15.52,1.93-19.52,7.46-.01,0-.03,0-.04,0-1.62-3.5-2.74-9.16,1.96-15.78-7.85,5.48-12.4,11.58-12.58,18.4-.04.02-.07.04-.11.06-4.62-1.12-12.91-4.96-12.79-13.43-1.91,9.4-.81,16.61,3.97,21.92-.03.05-.06.11-.08.16-3.58,1.91-11.77,5.28-18.58-1.41,6.24,12.19,13.26,12.54,20.12,12.57,2.69,2.64,7.11,3.92,11.98,3.51-5.46.07-10.09-2.18-11.68-6.22-2.3-5.84,2.6-13.25,10.91-16.5,8.31-3.25,16.92-1.16,19.23,4.68.27.68.37,1.59.45,2.31,2.38-2.14,6.68-4.51,13.53-1.71-6.4-5.58-10.88-6.81-17.05-5.78"/>
  <path class="cls-2" d="M36.91,78.45h-2.01v8.28h2.01c2.26,0,3.88-1.87,3.88-4.15s-1.62-4.13-3.88-4.13M36.91,88.43h-4.15v-11.69h4.15c3.53,0,6.07,2.63,6.07,5.84s-2.54,5.85-6.07,5.85Z"/>
  <path class="cls-2" d="M46.79,81.85c.28-1.44,1.4-2.06,2.31-2.06.28,0,.45.05.7.12v2.02c-.32-.12-.7-.17-.97-.17-.75,0-2.01.42-2.01,2.76v3.91h-2.06v-8.46h2.02v1.87Z"/>
  <path class="cls-2" d="M51.44,85.94c.79,0,1.4.59,1.4,1.35s-.62,1.32-1.4,1.32-1.41-.57-1.41-1.32.6-1.35,1.41-1.35"/>
  <polygon class="cls-2" points="65.1 88.3 61.76 80.26 61.06 88.43 58.92 88.43 60 76.73 62.24 76.73 65.84 85.34 69.42 76.73 71.66 76.73 72.76 88.43 70.62 88.43 69.9 80.26 66.56 88.3 65.1 88.3"/>
  <path class="cls-2" d="M78.79,86.86c1.44,0,2.53-1.17,2.53-2.66s-1.09-2.66-2.53-2.66-2.51,1.17-2.51,2.66,1.09,2.66,2.51,2.66M78.79,79.79c2.48,0,4.6,1.99,4.6,4.42s-2.12,4.42-4.6,4.42-4.58-1.96-4.58-4.42,2.14-4.42,4.58-4.42Z"/>
  <path class="cls-2" d="M87.17,81.85c.28-1.44,1.4-2.06,2.31-2.06.28,0,.45.05.7.12v2.02c-.32-.12-.7-.17-.97-.17-.75,0-2.01.42-2.01,2.76v3.91h-2.06v-8.46h2.02v1.87Z"/>
  <path class="cls-2" d="M92.97,83.1h4.82c-.32-1.3-1.47-1.67-2.34-1.67s-2.04.37-2.48,1.67M99.51,87c-1.14,1.27-2.53,1.62-3.83,1.62-3.04,0-4.87-1.97-4.87-4.38s1.96-4.45,4.63-4.45c2.29,0,4.45,1.44,4.45,4.7h-7.02c0,1.34,1.09,2.39,2.91,2.39,1.05,0,1.84-.38,2.56-1.04l1.17,1.15Z"/>
  <path class="cls-2" d="M106.05,81.51c-1.4,0-2.52.95-2.52,2.63s1.05,2.76,2.58,2.76,2.44-1.22,2.44-2.68-.95-2.71-2.49-2.71M101.52,92.26v-12.29h2.06v1.27c.6-.92,1.66-1.45,2.89-1.45,2.51,0,4.15,1.97,4.15,4.45s-1.57,4.38-4.16,4.38c-1.14,0-2.19-.47-2.88-1.44v5.08h-2.06Z"/>
  <path class="cls-2" d="M113.98,83.1h4.82c-.32-1.3-1.47-1.67-2.34-1.67s-2.04.37-2.47,1.67M120.52,87c-1.14,1.27-2.53,1.62-3.83,1.62-3.04,0-4.87-1.97-4.87-4.38s1.96-4.45,4.63-4.45c2.29,0,4.45,1.44,4.45,4.7h-7.02c0,1.34,1.09,2.39,2.91,2.39,1.05,0,1.84-.38,2.56-1.04l1.17,1.15Z"/>
  <path class="cls-2" d="M122.52,79.97h2.06v1.42c.54-1.1,1.54-1.61,2.74-1.61,2.11,0,3.13,1.52,3.13,3.96v4.68h-2.06v-4.67c0-1.47-.62-2.24-1.64-2.24-1.2,0-2.17.9-2.17,2.68v4.23h-2.06v-8.46Z"/>
  <path class="cls-2" d="M34.03,66.89c8.94-3.5,18.24-1.23,20.72,5.05.43,1.08.52,2.42.5,3.58-.08-.71-.19-1.63-.45-2.31-2.3-5.84-10.92-7.93-19.23-4.68-8.31,3.25-13.21,10.67-10.91,16.5,1.59,4.04,6.23,6.29,11.68,6.22-6.5.54-12.19-1.91-14.05-6.62-2.48-6.28,2.79-14.25,11.73-17.75"/>
  <path class="cls-2" d="M134.14,76.56h-.72s0,1.38,0,1.38h.72c.41,0,.69-.05.85-.16.16-.1.24-.27.24-.52,0-.25-.09-.43-.26-.54-.17-.11-.45-.16-.84-.16M134.24,76.17c.54,0,.94.08,1.2.26.26.17.39.44.39.8,0,.27-.08.49-.24.68-.16.18-.38.29-.66.33l.86,1.76h-.66s-.81-1.68-.81-1.68h-.89s0,1.69,0,1.69h-.58s0-3.83,0-3.83h1.4ZM137.12,78.15c0-.4-.07-.79-.22-1.15-.15-.36-.36-.68-.63-.95-.29-.28-.61-.5-.97-.64-.36-.15-.75-.22-1.15-.22-.39,0-.77.07-1.12.22-.35.15-.67.36-.95.64-.29.29-.51.62-.66.98-.15.36-.23.74-.23,1.13,0,.39.08.76.23,1.12.15.36.37.68.65.96.28.28.61.5.97.64.36.15.73.22,1.12.22.39,0,.77-.08,1.14-.23.36-.15.69-.37.98-.66.28-.27.48-.58.63-.93.14-.35.21-.73.21-1.14ZM134.14,74.82c.46,0,.89.08,1.3.25.41.17.76.41,1.08.72.31.31.55.66.71,1.07.17.4.25.83.25,1.28,0,.45-.08.88-.24,1.28-.16.4-.4.75-.71,1.06-.32.32-.69.57-1.1.74-.41.17-.83.26-1.27.26-.45,0-.87-.08-1.27-.25-.4-.17-.76-.41-1.08-.73-.32-.31-.56-.67-.73-1.07-.17-.4-.25-.82-.25-1.27,0-.43.08-.86.25-1.27.17-.41.42-.78.74-1.1.3-.31.65-.55,1.05-.72.4-.16.82-.25,1.27-.25Z"/>
</svg>