<?xml version="1.0" encoding="UTF-8"?>
<svg id="Layer_1" data-name="Layer 1" xmlns="http://www.w3.org/2000/svg" viewBox="0 0 141.73 141.73">
  <g>
    <g>
      <path d="M102.19,13.52c1.84,1.9,1.68,5.63-.08,7.57-2.1,2.31-4.78,1.2-7.34,1.59-3.79.58-1.14,2.85-.31,4.59,11.4,23.93-14.18,46.52-36.95,35.1-25.69-12.9-15.19-51.55,15.67-49.26,5.02.37,9.22,2.61,13.55,4.94,1.68-6.04,11.14-9.01,15.47-4.54ZM84.07,39.14c0-7.74-6.28-14.02-14.02-14.02s-14.02,6.28-14.02,14.02,6.28,14.02,14.02,14.02,14.02-6.28,14.02-14.02Z"/>
      <path d="M101.68,61.8c-2.04,15.09-14.51,24.6-29.16,26.15-12.03,1.28-24.41-2.63-32.63-11.67-.35-.38-1.51-1.69-1.25-2.17l10.5-7.32c3.55,3.34,7.77,6.16,12.54,7.41,4.53,1.18,8.53,1.49,13.07.27,6.11-1.64,11.92-6.33,13.36-12.68h13.56Z"/>
      <circle cx="54.27" cy="95.04" r="6.06"/>
    </g>
    <circle cx="94.9" cy="89.06" r="6.04"/>
  </g>
  <g>
    <path d="M70.86,114.8v11.56c0,.59-1.47,2.28-2,2.62-1.79,1.14-6.31.93-7.98-.35-1.05-.8.42-2.63.92-2.72.4-.07.87.63,1.34.76,1.71.51,4.78.78,4.63-1.71-10.03,3.94-12.01-11.79-1.45-10.41.39.05.76.49,1.29.51.85.03,2.21-.56,3.25-.27ZM64.63,117.33c-3.71.53-2.86,6.38,1.39,5.42,3.18-.72,2.4-5.97-1.39-5.42Z"/>
    <path d="M120.47,125.28h-2.77v-6.63c0-.08-.7-1.37-.82-1.4-.84-.21-2.88-.02-2.88,1.09v6.93h-3.08v-6.63c0-.07-.6-1.3-.67-1.34-.25-.15-1.86-.12-2.21,0-.45.15-1.13,1.89-1.13,2.26v5.7h-2.77v-10.48c.78.11,1.85-.17,2.57,0,.24.06.21.63.37.63.49.02,1.15-.66,1.68-.8,2.11-.58,4.01,1.11,4.42,1.04.95-.15,1.56-1.4,3.72-1.17,1.15.12,3.58,1.34,3.58,2.6v8.17Z"/>
    <path d="M46.21,125.28c-.87-.13-2.09.19-2.88,0-.24-.06-.21-.63-.37-.63-.37,0-1.08.56-1.83.64-4.15.48-6.38-1.96-6.33-6.02.04-2.9,3.23-5.08,5.98-4.75.91.11,1.78.83,2.19.9.17.03.1-.55.35-.62.76-.2,2.03.14,2.88,0v10.48ZM43.32,119.95c0-1.54-1.25-2.79-2.79-2.79s-2.79,1.25-2.79,2.79,1.25,2.79,2.79,2.79,2.79-1.25,2.79-2.79Z"/>
    <path d="M102.29,125.28c-1.13-.24-3.49.74-3.08-.93-1.18,1.1-3.42,1.24-4.91.76-5.27-1.71-4.34-12.06,3.32-10.4.55.12,1.21.67,1.45.71.18.04-.02-.56.58-.64.52-.07,2.64-.06,2.64.49v10.01ZM99.42,119.96c0-1.55-1.26-2.81-2.81-2.81s-2.81,1.26-2.81,2.81,1.26,2.81,2.81,2.81,2.81-1.26,2.81-2.81Z"/>
    <path d="M32.96,116.65c2.06,4.45-.49,9.37-5.7,8.94-7.24-.6-6.63-12.54,2.08-11.02.57.1,1.77.79,1.93.78.49-.05.51-1.58,2.36-1.3,2.44.36,1.73,2.96-.67,2.61ZM30.85,120.02c0-1.57-1.28-2.85-2.85-2.85s-2.85,1.28-2.85,2.85,1.28,2.85,2.85,2.85,2.85-1.28,2.85-2.85Z"/>
    <path d="M57.92,125.28h-3.08v-6.93c0-1.91-3.7-1.43-3.7.31v6.63h-3.08v-10.48c.84.14,2.14-.2,2.88,0,.3.08.11.72.35.62,1.63-.7,2.24-1.38,4.31-.61.94.35,2.32,2.02,2.32,2.92v7.55Z"/>
    <path d="M75.79,114.49v6.93c0,1.6,3.7,1.56,3.7-.62v-6.32h3.08v10.48c-.85-.14-2.13.2-2.88,0-.26-.07-.18-.67-.35-.62-.33.1-.6.53-1.26.6-1.59.17-3.62.27-4.6-1.23-.18-.28-.78-1.79-.78-1.99v-7.24h3.08Z"/>
    <path d="M84.11,115.26c.42-1.35,3.49.12,3.8.1.99-.07,2.89-2.35,3,.51.09,2.37-.84,1.3-2.3,2.05-2.51,1.29-.94,6.87-1.42,7.36-.14.14-2.05-.14-2.58,0-.36.09,0,.75-.51.62v-10.63Z"/>
    <path d="M34.81,124.66c-1.19,6.37-9.66,7.49-13.55,2.9,2.49-3.63,4.01.68,7.78-.2,1.58-.37,2.6-2.57,2.87-2.67.72-.26,2.06.09,2.89-.04Z"/>
  </g>
</svg>