<?xml version="1.0" encoding="UTF-8"?>
<svg id="Layer_1" data-name="Layer 1" xmlns="http://www.w3.org/2000/svg" viewBox="0 0 141.73 141.73">
  <defs>
    <style>
      .cls-1 {
        fill: #231f20;
      }
    </style>
  </defs>
  <path class="cls-1" d="M54.82,81.91c-1.94,1.21-4.02,1.6-6.22,1.2-1.82-.33-3.47-1.13-5-2.18-.18-.12-.36-.24-.54-.36-.22-.15-.31-.36-.24-.61.54-2.02,1.25-3.97,2.54-5.66,1.05-1.38,2.34-2.41,4.05-2.85.13-.03.29-.03.4-.22-.75-.23-1.49-.48-2.14-.89-1.66-1.06-2.8-2.55-3.55-4.35-.52-1.24-.86-2.53-1.05-3.87-.06-.4.05-.64.4-.84,2.18-1.21,4.44-2.14,6.98-2.16,1.04-.01,2.06.09,3.02.54.26.12.52.22.86.36-.66-1.39-1.04-2.78-1-4.25.06-2.47.96-4.66,2.33-6.67.17-.24.37-.38.69-.32,2.31.43,4.48,1.17,6.35,2.66,1.31,1.04,2.15,2.38,2.49,4.02.02.1.05.2.1.44.28-.86.46-1.61.83-2.29.97-1.79,2.53-2.91,4.29-3.79,1.15-.58,2.4-.91,3.63-1.28.4-.12.7-.07.95.29,1.97,2.83,3.11,5.85,2.12,9.35-.2.7-.59,1.34-.91,2.02.8-.45,1.59-.85,2.48-1.06,1.7-.39,3.35-.16,4.98.34,1.33.41,2.6,1,3.82,1.69.33.19.45.39.37.78-.45,2.27-1.21,4.4-2.66,6.23-1.04,1.32-2.37,2.23-4.05,2.55-.23.04-.45.13-.67.2-.02,0-.02.06-.04.09.02.09.1.1.17.1,2.59.07,4.27,1.63,5.62,3.59,1.01,1.47,1.49,3.17,1.77,4.92.08.47-.06.77-.45,1.05-2.08,1.49-4.35,2.45-6.96,2.42-1.12,0-2.18-.29-3.19-.79-.34-.17-.67-.34-1.11-.57.31.61.67,1.06.89,1.59.83,2.07.61,4.12-.14,6.15-.53,1.44-1.31,2.74-2.19,3.99-.14.2-.29.3-.55.23-2.36-.62-4.55-1.57-6.34-3.29-1.17-1.12-1.95-2.46-2.26-4.2-.28.78-.4,1.47-.71,2.1-1.13,2.32-3.12,3.55-5.45,4.35-1.03.35-2.08.61-3.17.75-.3.04-.52,0-.7-.27-1.32-2.11-2.17-4.37-2.15-6.9.02-1.57.47-2.99,1.3-4.34ZM65.04,77.9c4.04.03,7.28-3.14,7.3-7.13.02-3.94-3.18-7.14-7.09-7.24-3.72-.1-7.27,2.91-7.31,7.11-.04,4.13,3.39,7.32,7.11,7.26Z"/>
  <path class="cls-1" d="M30.46,39.61c.52.04,1.14-.05,1.75-.13,3.75-.5,6.99.67,9.89,2.98.37.29.71.61,1.01.98.24.29.21.46-.06.72-.97.93-1.96,1.82-2.89,2.79-1.97,2.07-3.62,4.38-5.07,6.84-1.5,2.56-2.74,5.23-3.48,8.11-.17.65-.31,1.31-.41,1.97-.07.47-.28.55-.7.43-1.54-.43-2.94-1.14-4.23-2.05-2.25-1.58-3.87-3.65-4.7-6.28-.31-.98-.76-1.83-1.48-2.55-.4-.4-.52-.37-.82.11-1.38,2.23-3.64,3.07-6.2,2.31-2.78-.83-4.47-2.65-4.79-5.55-.24-2.21.55-4.11,2.18-5.61,2.35-2.16,5.28-2.5,8.37-.98,1.96.96,3.64,2.3,5.16,3.84,1.49,1.49,3.01,2.94,4.9,3.92,1.29.67,2.61,1.26,4.12,1.22.98-.03,1.44-.83.9-1.65-.96-1.44-2.29-2.5-3.75-3.4-1.45-.9-3.07-1.36-4.67-1.88-2.44-.8-4.73-1.89-6.77-3.49-2.89-2.26-3.71-8.33.23-11.14,1.81-1.29,3.77-1.63,5.85-.75,1.07.45,2.13.93,2.92,1.83,1.37,1.59,1.5,3.38.85,5.3-.14.41-.27.81-.59,1.15-.34.35-.22.66.28.78.69.16,1.4.2,2.2.2Z"/>
  <path class="cls-1" d="M30.63,70.81c-.13,5.09.94,9.97,2.83,14.67.7,1.73,1.57,3.38,2.69,4.89.25.33.26.56-.15.77-3.14,1.6-6.41,2.23-9.88,1.35-1.06-.27-2.04-.75-3-1.25-.73-.38-1.51-.47-2.32-.45-.38.01-.57.16-.43.59.86,2.61-.78,5.21-3.23,6.3-1.65.73-3.32.98-5,.28-2.28-.95-3.71-2.66-4.13-5.13-.7-4.11,1.95-7.25,5.71-8.24,2.32-.61,4.67-.76,7.05-.74,2.25.03,4.44-.34,6.52-1.22.84-.36,1.59-.87,2.26-1.49.63-.58.5-1.35-.27-1.72-.26-.13-.54-.2-.83-.22-2.94-.19-5.67.43-8.25,1.86-2.26,1.25-4.67,2.1-7.21,2.65-3.74.81-7.42-2.03-8.38-4.9-1.08-3.24.52-6.73,3.73-7.87,1.17-.42,2.36-.79,3.66-.52.98.2,1.81.64,2.49,1.35.6.63,1.09,1.35,1.44,2.16.1.24.14.48.15.74.03.57.29.72.78.4,1.03-.69,1.98-1.49,2.66-2.54,1.11-1.71,2.73-2.78,4.47-3.69,1.88-.98,3.89-1.45,6.02-1.42.52,0,.69.17.66.7-.05.88-.01,1.77-.01,2.66Z"/>
  <path class="cls-1" d="M52.7,25.03c-.02,3.12.25,5.46,1.18,7.69.41.98.96,1.87,1.73,2.61.54.51,1.14.42,1.53-.22.23-.38.29-.81.31-1.25.12-2.92-.61-5.62-2.07-8.15-1.15-1.99-1.97-4.11-2.51-6.34-.89-3.64.76-7.28,4.02-8.83,2.78-1.32,6.48-.54,8.06,2.36.9,1.65,1.56,3.43.85,5.35-.7,1.87-2.09,2.99-4.02,3.44-.57.13-.65.38-.26.93.81,1.14,1.83,2.06,2.97,2.83,1.04.7,1.75,1.68,2.42,2.69,1.01,1.52,1.76,3.16,2.09,4.97.14.79.2,1.58.2,2.38,0,.46-.2.62-.63.57-1.17-.14-2.35-.13-3.53-.11-5.05.1-9.87,1.2-14.43,3.4-1.5.72-2.97,1.52-4.35,2.45-.35.23-.55.22-.76-.19-1.73-3.29-2.2-6.71-1.18-10.3.22-.77.59-1.48.94-2.19.37-.76.56-1.57.49-2.42-.03-.45-.23-.58-.68-.47-2.49.64-4.61-.3-5.91-2.51-1.47-2.52-1.53-5,.26-7.36,1.82-2.41,4.77-3.15,7.5-2.31,2.75.85,4.16,2.92,4.95,5.54.61,2.01.78,4.08.8,5.45Z"/>
  <path class="cls-1" d="M109.9,58.04c-1.24.04-3.51.32-5.67,1.21-1.01.42-1.94.97-2.7,1.78-.3.33-.44.65-.28,1.08.16.42.47.69.91.76,1.19.2,2.38.08,3.57-.1,2.25-.34,4.2-1.41,6.15-2.49,2.01-1.11,4.14-1.92,6.4-2.35,4.41-.82,8.8,2.86,8.63,7.17-.1,2.43-1.37,4.56-3.91,5.49-1.21.44-2.42.82-3.71.44-2.07-.59-3.3-2.06-4.07-3.99-.23-.57-.36-.66-.88-.28-1.15.84-2.11,1.87-2.9,3.06-.94,1.42-2.31,2.33-3.76,3.12-1.84,1.01-3.81,1.55-5.93,1.51-.51,0-.69-.14-.76-.7-.27-2.32-.07-4.67-.39-6.99-.33-2.37-.83-4.71-1.6-6.98-.97-2.84-2.28-5.52-3.93-8.02-.26-.39-.16-.61.23-.81,1.99-1.04,4.11-1.67,6.34-1.71,1.99-.04,3.92.44,5.69,1.39.99.53,2.05.54,3.12.48.39-.02.35-.28.26-.55-.29-.89-.41-1.79-.19-2.73.45-1.9,1.75-3.03,3.42-3.83,4.36-2.09,8.71,1.51,8.9,5.75.15,3.41-1.96,5.99-4.74,7.07-2.3.89-4.69,1.19-8.21,1.22Z"/>
  <path class="cls-1" d="M33.99,105.45c-.03-.8-.1-1.51-.3-2.22-.19-.7.06-1.4.16-2.1.45-2.9,1.65-5.42,3.77-7.48.53-.51.62-.52,1.13.04,1.14,1.26,2.3,2.51,3.57,3.64,4.15,3.68,8.88,6.28,14.24,7.72.56.15,1.12.3,1.69.42.32.07.42.23.32.54-1.42,4.23-4,7.35-8.39,8.69-1.12.34-1.98,1.03-2.76,1.86-.2.21-.2.34.06.5.51.32.99.66,1.41,1.1,1.11,1.17,1.58,2.54,1.34,4.13-.29,1.89-1,3.56-2.66,4.67-1.92,1.29-4,1.36-6.08.55-1.65-.64-2.89-1.85-3.68-3.46-1.03-2.11-.84-4.22.09-6.29.73-1.61,1.77-3.03,2.92-4.37,1.18-1.37,2.59-2.53,3.67-3.99,1.24-1.68,2.29-3.44,2.53-5.57.02-.14.05-.29.05-.43.03-.46-.08-.88-.51-1.12-.44-.25-.88-.14-1.28.13-.89.61-1.61,1.4-2.29,2.23-1.26,1.56-2.06,3.35-2.63,5.26-.71,2.39-1.7,4.66-3.07,6.75-2.28,3.47-7,4.14-9.9,2.41-2.87-1.71-3.94-5.1-2.48-8.09.71-1.45,1.66-2.64,3.27-3.14,1.68-.52,3.29-.24,4.83.55.46.24.67.17.77-.4.14-.86.28-1.72.18-2.52Z"/>
  <path class="cls-1" d="M96.73,35.81c-.02,1.04.09,1.97.34,2.89.2.75-.05,1.48-.16,2.2-.43,2.77-1.53,5.23-3.54,7.24-.48.49-.59.48-1.03-.02-2.59-2.97-5.58-5.46-9-7.44-2.97-1.73-6.12-2.96-9.44-3.8-.42-.11-.85-.2-1.28-.27-.43-.07-.55-.29-.42-.69,1.23-3.62,3.41-6.44,6.92-8.11.36-.17.74-.31,1.12-.4,1.17-.29,2.07-.99,2.9-1.83.29-.3.3-.48-.09-.7-2.74-1.54-3.3-4.13-2.32-6.8.7-1.9,1.91-3.27,3.86-3.81,4.86-1.33,8.81,2.45,8.85,6.54.02,2.13-.89,3.92-2.01,5.64-1.14,1.74-2.63,3.17-4.03,4.69-1.77,1.93-3.2,4.07-3.67,6.72-.06.36-.09.72-.05,1.08.07.76.7,1.15,1.4.86.73-.31,1.26-.9,1.79-1.46,1.77-1.87,2.83-4.12,3.52-6.59.7-2.49,1.77-4.82,3.28-6.94,2.13-2.99,6.69-3.68,9.47-2.03,2.76,1.63,4.31,5.06,2.36,8.54-.68,1.22-1.53,2.22-2.87,2.67-1.68.56-3.32.4-4.89-.41-.56-.29-.68-.25-.84.38-.16.64-.22,1.28-.19,1.85Z"/>
  <path class="cls-1" d="M100.32,102.48c-.75-.05-1.59.05-2.42.26-.77.19-1.55.07-2.32-.06-2.84-.46-5.38-1.55-7.43-3.63-.33-.33-.39-.53,0-.86,3.52-2.91,6.36-6.39,8.53-10.39,1.52-2.81,2.65-5.79,3.32-8.93.02-.09.04-.18.06-.26.16-.63.24-.68.87-.47,1.76.59,3.33,1.51,4.7,2.76,1.67,1.53,2.83,3.38,3.47,5.55.31,1.04,1.01,1.78,1.77,2.49.24.23.41.1.56-.14.23-.37.45-.75.73-1.07,1.3-1.53,2.97-1.96,4.9-1.6,2.77.52,4.68,2.29,5.17,4.83.88,4.57-3.15,8.78-7.77,8.14-1.84-.26-3.39-1.13-4.87-2.15-1.39-.96-2.64-2.08-3.83-3.28-1.73-1.75-3.71-3.11-6.07-3.89-.7-.23-1.41-.33-2.14-.32-1,.01-1.43.76-.9,1.63.44.72,1.07,1.28,1.68,1.84,1.83,1.66,4.02,2.59,6.37,3.25,2.26.63,4.36,1.63,6.36,2.88,3.94,2.46,4.72,8.71.87,11.71-2.09,1.63-4.19,1.83-6.57.68-.74-.36-1.41-.81-1.98-1.41-1.04-1.1-1.42-2.4-1.31-3.89.07-1,.26-1.97.8-2.84.21-.34-.03-.49-.32-.59-.7-.24-1.43-.21-2.26-.21Z"/>
  <path class="cls-1" d="M78.02,115.21c.09-1.72-.21-3.76-.91-5.75-.34-.96-.81-1.86-1.47-2.64-.34-.4-.75-.82-1.34-.59-.58.23-.79.75-.84,1.35-.26,3.13.49,6.01,2.01,8.76,1.29,2.34,2.18,4.86,2.5,7.54.16,1.36-.15,2.65-.81,3.87-1.27,2.34-3.17,3.83-5.85,4.06-2.37.21-5.3-1.07-6.38-4.52-1.2-3.85,1.42-6.48,4.14-7.23.45-.12.52-.3.26-.7-.74-1.15-1.64-2.17-2.77-2.95-1.54-1.05-2.48-2.56-3.3-4.17-.76-1.49-1.15-3.08-1.3-4.74-.12-1.27,0-1.44,1.27-1.34,3.4.27,6.77.01,10.1-.72,4.05-.89,7.84-2.45,11.32-4.72.74-.48.83-.47,1.19.33,1.13,2.56,1.68,5.2,1.12,7.99-.24,1.16-.6,2.28-1.18,3.32-.55,1-.84,2.03-.78,3.17.04.63.1.69.72.54,1.22-.3,2.41-.26,3.55.32,1.97.99,3.4,3.9,3.23,6.12-.26,3.29-3.64,6.19-7.5,5.71-3.04-.38-4.93-2.17-5.94-4.97-.88-2.47-1.08-5.05-1.02-8.04Z"/>
  <path class="cls-1" d="M30.02,21.99c.31-.02.63.12.94.27,1.35.69,2.78,1.11,4.24,1.49,1.72.44,3.31,1.18,4.65,2.37,1.52,1.36,2.33,3.05,2.39,5.11.09,3.07.66,6.04,1.95,8.85.27.59.59,1.16.99,1.68.24.31.23.54-.12.75-1.35.83-.93.94-2.07-.1-1.9-1.74-4.03-3.11-6.54-3.86-1.84-.55-3.52-1.41-4.92-2.76-1.3-1.25-1.96-2.8-1.98-4.56-.02-1.86-.4-3.67-.63-5.5-.11-.84-.22-1.69-.16-2.54.05-.77.49-1.19,1.25-1.19Z"/>
  <path class="cls-1" d="M16.08,57.64c1.96.03,3.53.6,4.86,1.83,1.89,1.74,3.91,3.28,6.25,4.37,1,.47,2.02.88,3.12,1.06.69.11.75.2.63.91-.2,1.15.07,1.07-1.27,1.14-2.76.13-5.39.75-7.85,2.08-1.96,1.06-4.08,1.59-6.34,1.26-1.01-.15-2-.49-2.75-1.21-1.64-1.58-3.5-2.86-5.29-4.24-.61-.47-1.23-.96-1.69-1.6-.38-.53-.34-1,.12-1.46.23-.24.51-.42.82-.52,1.65-.53,3.13-1.41,4.63-2.25,1.52-.86,3.18-1.27,4.76-1.36Z"/>
  <path class="cls-1" d="M18.66,107.69c-1.99.19-2.37-.93-1.59-2.4.78-1.47,1.1-3.1,1.57-4.67.43-1.42,1.14-2.7,2.08-3.85,1.42-1.73,3.28-2.51,5.47-2.57,3.1-.09,6.07-.72,8.88-2.05.44-.21.85-.48,1.28-.72.11-.06.24-.2.33-.17.59.16.69.78,1.06,1.16.22.22-.02.43-.18.6-1.52,1.59-2.86,3.32-3.71,5.38-.39.95-.67,1.95-1.06,2.91-.87,2.15-2.13,3.99-4.3,5.05-.8.39-1.67.52-2.53.54-1.95.03-3.85.4-5.77.68-.52.07-1.04.14-1.53.12Z"/>
  <path class="cls-1" d="M64.89,119.98c-.02,1.78-.61,3.32-1.87,4.6-1.17,1.19-2.11,2.57-3.09,3.92-.48.66-.97,1.31-1.55,1.89-1.17,1.19-2.12.95-2.65-.66-.39-1.18-.9-2.3-1.58-3.33-.95-1.44-1.56-3.01-1.86-4.72-.41-2.33.19-4.36,1.8-6.11,1.86-2.01,3.38-4.24,4.47-6.77.34-.8.58-1.64.76-2.49.1-.47.3-.62.8-.51,1.21.27,1.19.25,1.26,1.49.15,2.66.83,5.17,2.12,7.52.88,1.6,1.36,3.31,1.39,5.15Z"/>
  <path class="cls-1" d="M78.86,21.69c-.07,1.9-.69,3.47-1.93,4.85-1.99,2.21-3.65,4.64-4.66,7.46-.21.6-.38,1.21-.46,1.84-.05.41-.26.58-.66.51-1.5-.25-1.36.02-1.42-1.49-.1-2.59-.8-5.03-2.09-7.29-.91-1.58-1.49-3.28-1.56-5.1-.07-1.71.45-3.26,1.66-4.51,1.17-1.22,2.12-2.61,3.1-3.98.57-.79,1.15-1.58,1.87-2.26.86-.81,1.66-.67,2.19.43.28.59.52,1.2.78,1.79.47,1.08,1.2,2.02,1.76,3.06.8,1.49,1.28,3.07,1.41,4.68Z"/>
  <path class="cls-1" d="M101.73,117.67c0,.49.01.85,0,1.22-.04.92-.64,1.35-1.55,1.15-.67-.15-1.23-.52-1.84-.78-1.17-.5-2.43-.71-3.62-1.13-2.38-.85-4.45-2.11-5.56-4.53-.32-.71-.51-1.46-.53-2.26-.04-2.78-.34-5.52-1.29-8.16-.31-.87-.71-1.7-1.21-2.48-.4-.63-.38-.69.23-1.12.89-.63.89-.62,1.63.07,1.74,1.61,3.64,2.98,5.9,3.79.71.26,1.44.49,2.14.78,1.68.69,3.08,1.75,4.12,3.24.66.94,1.01,2.02.99,3.17-.03,1.87.21,3.72.49,5.56.08.54.06,1.08.08,1.5Z"/>
  <path class="cls-1" d="M114.2,71.8c1.74.03,3.23.45,4.4,1.59,1.64,1.6,3.6,2.8,5.35,4.26.4.34.8.69,1.13,1.09.56.66.45,1.31-.28,1.79-.24.16-.51.28-.78.38-1.35.49-2.58,1.22-3.81,1.95-2.04,1.21-4.22,1.91-6.63,1.57-1.22-.18-2.26-.73-3.17-1.55-1.92-1.75-3.99-3.3-6.36-4.42-1-.47-2.02-.89-3.14-1.02-.4-.04-.58-.25-.51-.66,0-.02,0-.04,0-.05.37-1.55-.07-1.3,1.48-1.38,2.82-.15,5.42-.99,7.89-2.37,1.39-.78,2.94-1.12,4.4-1.2Z"/>
  <path class="cls-1" d="M112.13,34.07c1.58-.02,2.08.57,1.75,1.81-.21.79-.63,1.49-.89,2.27-.41,1.26-.53,2.59-1.03,3.82-.79,1.93-1.81,3.67-3.7,4.74-.98.56-2.06.79-3.17.83-2.5.11-4.92.54-7.26,1.43-1.04.39-2.03.88-2.93,1.52-.33.24-.54.23-.75-.11-.03-.05-.07-.08-.11-.12-.87-1.12-.69-.96.03-1.78,1.87-2.11,3.17-4.5,3.92-7.23.56-2.03,1.61-3.78,3.31-5.11,1.13-.88,2.43-1.18,3.81-1.2,1.69-.03,3.33-.42,5-.65.77-.11,1.54-.18,2.02-.24Z"/>
  <path class="cls-1" d="M131.64,25.3c.47-1.79.91-3.5,1.36-5.22.16-.61.34-1.22.49-1.84.09-.36.29-.51.66-.51.96,0,1.92-.02,2.88-.04.27,0,.41.12.43.37.02.18.02.36.02.54,0,3.53,0,7.06,0,10.6,0,.68-.05.73-.75.74-.29,0-.58,0-.87,0-.87,0-.89-.01-.9-.86,0-2.16,0-4.31,0-6.47,0-.21.06-.42-.11-.72-.26,1-.5,1.91-.73,2.83-.39,1.53-.77,3.05-1.14,4.58-.11.45-.34.7-.83.63-.18-.02-.36,0-.54,0-1.44-.02-1.23.23-1.63-1.34-.56-2.19-1.09-4.39-1.72-6.58,0,.16-.03.33-.03.49,0,2.23,0,4.46,0,6.68,0,.65-.08.73-.71.74-.43.01-.87,0-1.3.01-.37,0-.51-.16-.52-.53-.09-3.67-.05-7.35-.07-11.02,0-.47.18-.68.68-.67.89,0,1.77.06,2.66-.06.38-.05.54.15.64.5.57,2.15,1.15,4.3,1.74,6.45.06.2.05.43.3.67Z"/>
  <path class="cls-1" d="M117.78,24.95c0-1.43-.02-2.86,0-4.29.01-.53-.2-.71-.7-.68-.72.04-1.45.04-2.17.07-.47.02-.7-.16-.7-.66.01-1.92-.21-1.63,1.58-1.65,2.52-.03,5.03.07,7.55-.06.41-.02.61.13.59.56-.02.42-.02.83,0,1.25.02.4-.17.6-.55.54-.76-.11-1.52.05-2.28,0-.52-.03-.69.16-.69.68.02,2.75,0,5.5,0,8.25q0,.97-1,.98c-.36,0-.72,0-1.09,0-.41,0-.57-.19-.57-.6.01-1.47,0-2.93,0-4.4Z"/>
  <path class="cls-1" d="M38.91,68.08c1.55.08,1.89.37,2.19,1.92.3,1.52.15,2.97-1.1,4.03-1.25,1.06-2.72,1.08-4.19.47-1.41-.59-1.97-1.71-1.98-3.19-.01-1.16.23-2.19,1.23-2.91.24-.17.49-.31.8-.31.39,0,.66.19.78.55.11.34-.03.6-.3.8-.09.07-.18.13-.27.18-.8.38-.96,1.05-.91,1.86.05.75.49,1.22,1.13,1.47,1,.39,2.01.47,2.94-.23.9-.67.79-2.06.39-2.84-.13-.26-.42-.26-.68-.23-.27.03-.27.25-.3.45-.04.27-.08.54-.15.8-.08.31-.27.52-.62.49-.35-.04-.6-.27-.59-.6.03-.72.01-1.45.21-2.15.1-.35.34-.54.72-.55.24,0,.47,0,.71,0Z"/>
  <path class="cls-1" d="M49.83,52.42c.02.56-.24,1.01-.53,1.46-.58.92-1.41,1.5-2.47,1.72-.99.21-1.71-.36-2.35-1-.86-.86-1.67-1.75-2.49-2.65-.42-.47-.4-.9.01-1.22.32-.25.63-.31.98,0,.84.75,1.54,1.63,2.35,2.4.17.16.33.34.51.49.75.66,1.29.64,1.97-.07.58-.6.6-1.17-.02-1.87-.65-.73-1.34-1.42-2-2.14-.23-.25-.48-.5-.68-.77-.27-.37-.26-.75.09-1.07.36-.33.73-.3,1.06.03,1.07,1.08,2.2,2.1,3.11,3.33.31.41.43.87.45,1.37Z"/>
  <path class="cls-1" d="M89.71,72.25c0-.21.07-.39.24-.52.12-.09.23-.2.36-.24,1.04-.27,1.07-1.04.94-1.88,0-.05-.02-.11-.01-.16.05-.84-.29-1.32-1.17-1.49-.66-.12-.87-.51-.72-.98.16-.49.56-.66,1.2-.46,1.76.54,3.52,1.09,5.28,1.63.55.17,1,.45,1.03,1.1.03.62-.36.96-.86,1.2-1.64.81-3.28,1.61-4.92,2.4-.42.2-.84.4-1.2-.11-.11-.15-.17-.32-.16-.5ZM92.5,69.17c.03.29.06.57.08.86.02.23.12.33.35.23.48-.21.96-.41,1.43-.64.25-.12.31-.29,0-.4-.47-.16-.96-.31-1.45-.43-.29-.07-.45.06-.41.37Z"/>
  <path class="cls-1" d="M50.71,94.31c.42,0,.83-.01,1.25,0,.65.03,1.23.23,1.5.88.27.62.02,1.17-.37,1.66-.16.2-.32.33-.09.59.97,1.1-.16,2.81-1.29,2.96-1.13.15-2.27.11-3.41.12-.33,0-.45-.17-.4-.49.31-1.74.62-3.49.92-5.23.06-.35.24-.5.59-.49.43,0,.87,0,1.3,0,0,0,0,0,0,0ZM50.45,99.3c.36,0,.73,0,1.05-.17.3-.16.44-.43.38-.77-.06-.32-.31-.42-.6-.44-.29-.02-.58-.02-.86-.01-.67,0-.89.24-.88.97,0,.62.5.35.8.42.03,0,.07,0,.11,0ZM50.98,95.52s0,0,0,0c-.2,0-.4-.02-.6,0-.4.06-.35.41-.39.68-.03.2-.03.43.24.46.45.04.91.09,1.35-.04.32-.09.54-.34.5-.68-.04-.32-.33-.4-.62-.41-.16-.01-.33,0-.49,0Z"/>
  <path class="cls-1" d="M67.98,44.53c-1.23-.04-1.22-.04-1.35,1.12-.04.32-.08.65-.16.96-.1.38-.39.56-.78.53-.41-.03-.67-.26-.72-.68-.03-.2-.03-.4-.01-.6.15-1.66.29-3.32.46-4.97.08-.79.34-1.01,1.15-.95.88.06,1.77.12,2.64.29,1.01.2,1.62.96,1.63,2.01,0,1.13-.63,1.99-1.62,2.22-.43.1-.86.07-1.24.07ZM66.93,42.34c-.03.84.01.88.85.93.35.02.69.01.99-.21.3-.22.45-.52.4-.89-.05-.35-.26-.6-.6-.7-.19-.06-.39-.09-.58-.11-1.01-.07-1.01-.06-1.05.98Z"/>
  <path class="cls-1" d="M81.26,54.85c.01-.39.26-.63.55-.82,1.2-.8,2.4-1.61,3.62-2.38.32-.21.39-.37.17-.68-.19-.26-.36-.54-.52-.82-.21-.36-.26-.72.13-1.01.41-.3.71-.13.97.22.93,1.27,1.78,2.59,2.6,3.93.2.33.12.64-.18.86-.3.23-.6.19-.88-.07-.29-.26-.46-.6-.67-.92-.21-.32-.42-.39-.75-.16-1.06.72-2.14,1.42-3.21,2.13-.27.18-.55.36-.86.45-.48.14-.98-.25-.98-.73Z"/>
  <path class="cls-1" d="M69.4,100.51c-.7,0-.74-.05-.6-.73.13-.66.24-1.32.35-1.98.04-.26.14-.58-.18-.72-.33-.14-.68-.09-.94.2-.31.34-.36.78-.43,1.21-.09.52-.16,1.04-.26,1.55-.08.44-.49.58-1.1.44-.46-.1-.29-.4-.24-.68.31-1.67.61-3.34.91-5.01.08-.46.4-.61,1.06-.49.47.08.31.41.27.67-.04.27-.12.53-.17.8-.02.12-.08.26.03.36.12.11.24,0,.34-.06.35-.2.73-.2,1.11-.17.62.05,1.08.53,1.07,1.16-.03,1.05-.36,2.06-.49,3.1-.05.4-.45.34-.72.35Z"/>
  <path class="cls-1" d="M74.01,98.68c-.34,0-.69,0-1.03,0-.4,0-.41.21-.25.5.22.41.72.48,1.09.09.23-.24.44-.35.76-.26.2.06.48-.01.57.23.1.26-.12.44-.28.6-.64.71-1.76.97-2.64.63-.47-.18-.79-.53-.91-1.01-.34-1.38.44-3.44,2.38-3.58,1.31-.1,2.32,1.3,1.81,2.51-.09.22-.26.28-.47.28-.34,0-.69,0-1.03,0,0,0,0,0,0,.01Z"/>
  <path class="cls-1" d="M62.38,97.82c-.03,2-2.22,3.42-3.85,2.5-.56-.31-.83-.79-.87-1.41-.13-1.87,1.44-3.3,3.3-2.99.84.14,1.44.94,1.43,1.9ZM59.08,98.47c0,.45.13.77.4.88.35.14.67.07.96-.17.4-.32.65-1.16.49-1.63-.14-.42-.51-.6-.94-.47-.55.16-.9.69-.91,1.39Z"/>
  <path class="cls-1" d="M82.09,95.91c.68-.05,1.27.04,1.64.66.24.4.17.59-.28.7-.39.09-.78.21-1.08-.21-.09-.12-.26-.13-.4-.13-.21,0-.52-.05-.57.19-.06.29.28.26.46.33.42.17.89.19,1.27.45.6.39.75.97.4,1.6-.6,1.08-2.57,1.49-3.55.73-.07-.05-.14-.12-.19-.19-.18-.28-.47-.57-.15-.91.22-.23.99-.18,1.19.07.28.36.62.49,1.05.33.15-.06.32-.12.31-.33-.01-.18-.17-.22-.3-.27-.41-.14-.84-.19-1.24-.39-.75-.38-.94-1.16-.44-1.85.48-.65,1.14-.85,1.88-.77Z"/>
  <path class="cls-1" d="M64.33,100.6c-.91,0-1.29-.44-1.17-1.25.09-.59.19-1.18.29-1.77.03-.18.05-.34-.11-.49-.36-.32-.3-.89.12-1.12.14-.08.34-.12.35-.31.03-.74.69-.8,1.14-1.09.23-.15.34-.01.33.22-.01.22-.06.43-.09.64-.03.23,0,.45.28.5.3.06.38.25.32.52-.06.28-.1.59-.49.62-.05,0-.12-.02-.16.01-.65.47-.35,1.25-.58,1.87-.12.32.12.44.43.45.17,0,.27.12.25.29-.03.3-.03.64-.38.78-.2.08-.42.1-.54.12Z"/>
  <path class="cls-1" d="M77.3,95.93c.34.03.57-.03.69.16.12.19.21.13.34.03.11-.08.24-.17.37-.21.33-.1.68-.09.92.14.27.26-.06.53-.14.78-.1.32-.33.43-.68.35-.4-.09-.66.13-.8.48-.27.68-.34,1.4-.45,2.11-.11.66-.63.95-1.25.7-.22-.09-.22-.25-.19-.45.22-1.19.45-2.38.67-3.57.07-.37.24-.61.52-.55Z"/>
  <path class="cls-1" d="M54.78,100.52c-.66,0-.79-.11-.66-.6.28-1.07.4-2.17.58-3.26.12-.73.49-.86,1.22-.62.21.07.35.12.54,0,.1-.07.23-.11.35-.13.31-.06.65-.08.84.21.18.27-.08.51-.18.75-.11.29-.33.4-.65.32-.44-.11-.66.18-.83.52-.35.68-.35,1.44-.48,2.16-.09.47-.28.74-.73.65Z"/>
</svg>