<?xml version="1.0" encoding="UTF-8"?>
<svg id="Layer_1" data-name="Layer 1" xmlns="http://www.w3.org/2000/svg" viewBox="0 0 141.73 141.73">
  <defs>
    <style>
      .cls-1 {
        fill: #231f20;
      }

      .cls-2 {
        fill: #fff;
      }

      .cls-3 {
        fill: #ce181e;
      }

      .cls-4 {
        fill: #ce181f;
      }
    </style>
  </defs>
  <rect class="cls-2" x="7.02" y="33.52" width="52.64" height="51.67"/>
  <path class="cls-3" d="M61.2,86.85V31.07H4.25v55.78h56.95ZM56.08,39.2c-.65,2.91-1.3,5.81-1.96,8.72-.73,3.21-1.47,6.42-2.21,9.63-.65,2.83-1.31,5.67-1.97,8.51-.75,3.22-1.49,6.44-2.24,9.67-.33,1.43-.66,2.86-1,4.29-.06.27-.15.53-.23.78-.25.81-.79,1.39-1.49,1.83-.5.31-1.05.49-1.63.51-.89.03-1.77.06-2.66.06-1.57,0-3.13,0-4.7-.01-1,0-2-.03-3-.03-.97,0-1.95.01-2.92.02-.53,0-1.06.02-1.59.02-1.31,0-2.63,0-3.94,0-.71,0-1.41-.02-2.12-.04-.91-.02-1.73-.31-2.42-.93-.46-.4-.78-.88-.97-1.46-.17-.5-.28-1.01-.39-1.53-.61-2.61-1.21-5.21-1.82-7.82-.66-2.83-1.31-5.66-1.97-8.49-.65-2.79-1.29-5.58-1.93-8.37-.49-2.14-.98-4.28-1.47-6.42-.52-2.3-1.04-4.59-1.56-6.89-.18-.81-.35-1.62-.52-2.43-.12-.59-.13-1.19.04-1.78.06-.19.14-.38.23-.55.28-.54.73-.86,1.33-.96.24-.04.49-.06.74-.06,7.02,0,14.04,0,21.06,0h21.12c.28,0,.56.04.83.1.53.11.9.43,1.16.89.22.37.32.78.36,1.2.04.52-.03,1.03-.15,1.53"/>
  <path class="cls-4" d="M48.19,49.65c-.16-.27-.37-.51-.61-.72-.05-.04-.1-.09-.15-.13.4-1.11.75-2.22.93-3.39-.71-.2-1.4-.12-2.08.09-.01-.06-.02-.1-.03-.14-.09-.52-.19-1.03-.34-1.54-.08-.27-.17-.54-.31-.79-.05-.09-.12-.17-.19-.26-.05.03-.08.04-.11.06-.3.22-.6.42-.88.65-.39.32-.75.67-1.04,1.08-.21.3-.38.63-.43,1,0,.05-.01.11-.02.17h-.68l-.03-.03s-.04-.06-.06-.09c-.32-.5-.72-.93-1.2-1.27-.66-.47-1.4-.72-2.22-.7-.44,0-.86.09-1.27.23-.7.23-1.34.59-1.93,1.02-.05.04-.11.08-.16.12-.05-.06-.09-.11-.13-.15-.46-.56-.99-1.05-1.57-1.48-.8-.59-1.68-1.03-2.63-1.32-.09-.03-.15-.06-.16-.16,0-.03-.01-.05-.02-.08-.27-.95-1.1-1.73-2.22-1.83-1.22-.11-2.33.68-2.65,1.87-.03.1-.08.15-.18.18-2.37.75-4.14,2.22-5.31,4.4-.02.04-.05.09-.08.13-1.55-.12-3.09-.25-4.63-.37v.03c.89,1,1.78,2.01,2.69,3.02-.43.27-.84.51-1.25.77-.41.25-.81.49-1.21.74-.41.25-.82.49-1.24.76.09.03.16.06.22.08,1.59.54,3.18,1.09,4.77,1.63.11.04.17.09.2.2.44,1.27,1.13,2.39,2.07,3.35.44.46.94.86,1.47,1.2.09.06.13.12.12.22,0,.04,0,.08,0,.13v9.04c0,.07,0,.14,0,.2.06.36.11.72.17,1.08.08.46.22.89.47,1.28.6.98,1.32,1.87,2.18,2.64,1.01.9,2.16,1.56,3.46,1.95.14.04.28.08.42.12.04.6.07,1.2.11,1.8-.41.17-.81.34-1.22.51-.41.17-.81.34-1.21.51-.4.17-.8.33-1.19.54.64.13,1.27.27,1.92.4-.24.55-.47,1.08-.7,1.61h0s.01.02.01.02c.04-.02.08-.04.12-.06,1.12-.59,2.25-1.18,3.37-1.77.06-.03.12-.05.19-.05.16-.01.32-.01.48-.01.57,0,1.15,0,1.72-.01.04,0,.07,0,.14-.02-.07-.05-.11-.08-.15-.11-.53-.39-1.06-.78-1.6-1.16-.12-.08-.16-.18-.17-.32,0-.51-.02-1.01-.03-1.52,0-.04,0-.08,0-.13.5.02,1,.05,1.49.06.5,0,.99,0,1.49-.04.49-.03.98-.11,1.47-.16v.18c0,.54,0,1.07,0,1.61,0,.14-.04.22-.15.31-1.02.81-2.04,1.63-3.06,2.44-.04.03-.08.07-.12.11v.03h1.4c-.06.4-.11.78-.18,1.19.07-.04.11-.07.15-.1.84-.6,1.68-1.19,2.52-1.79.08-.05.15-.08.24-.08.31.03.63.05.94.08.71.06,1.43.12,2.14.18.04,0,.08,0,.15,0-.07-.06-.11-.09-.15-.12-.76-.57-1.53-1.13-2.29-1.7-.08-.05-.11-.11-.11-.2,0-.47-.01-.95-.02-1.42,0-.37,0-.74,0-1.11.33-.15.65-.29.96-.45.49-.24.93-.58,1.36-.91.63-.49,1.24-1.01,1.76-1.62.77-.9,1.21-1.92,1.2-3.13,0-2.4.02-4.8.01-7.2,0-2.95-.02-5.9-.04-8.85,0-.23.05-.45.16-.65.07-.13.14-.25.23-.37.56-.75,1.4-.72,2.08-.34.24.13.45.33.66.51.5.41.75.94.75,1.6,0,.03.01.06.02.1l.03.02c.11-.12.22-.23.32-.35.36-.4.65-.84.81-1.36.17-.59.11-1.15-.21-1.68M27.56,43.6c-.03-.15-.06-.28-.08-.42-.05-.41,0-.8.19-1.17.08-.15.17-.28.3-.39.31-.26.7-.25,1,.01.13.12.24.26.31.42.11.24.17.48.17.75,0,.25,0,.5-.09.76,1.33.17,2.5.64,3.56,1.47-.06.04-.11.07-.15.09-1.04.57-2.15.96-3.32,1.13-1.03.15-2.04.09-3.02-.27-.67-.24-1.27-.62-1.8-1.1-.02-.02-.03-.04-.07-.08.91-.65,1.91-1.04,3-1.22M34.86,56.93v8.73c0,.78-.64,1.47-1.42,1.53-1.03.08-1.57-.56-1.8-1.18-.02-.06-.03-.12-.03-.18,0-2.27,0-4.55,0-6.82,0-.04,0-.08,0-.13,1.23-.48,2.3-1.2,3.22-2.15l.03.02v.18ZM30.17,57.21c-3.67.85-7.23-1.34-8.23-4.85-.03-.12-.09-.18-.21-.21-.89-.3-1.78-.6-2.66-.91-.05-.02-.09-.04-.18-.07.82-.5,1.61-.99,2.42-1.48-.59-.66-1.18-1.32-1.79-2,.9.06,1.76.14,2.63.2.25-.6.55-1.15.94-1.65.25.14.49.29.73.42,1.08.58,2.22.97,3.42,1.18.85.15,1.7.19,2.56.12,1.42-.1,2.78-.47,4.08-1.06.17-.08.34-.16.51-.24.03.04.06.09.09.13.55.89.88,1.86,1.01,2.9.39,3.35-1.76,6.7-5.32,7.52M40.55,49.92c-.44.66-1.01,1.18-1.64,1.65-.28.2-.56.4-.88.54-.27.12-.31.1-.37-.18-.1-.44.04-.71.43-.96.27-.17.54-.36.79-.56.53-.43.93-.97,1.18-1.62.15-.39.17-.8.15-1.22-.01-.21-.05-.43-.13-.63-.16-.44-.47-.72-.92-.83-.32-.08-.65-.11-.97,0-.11.04-.22.09-.32.15-.18.1-.35.2-.53.3-.09.04-.19.08-.29.09-.16.03-.27-.04-.34-.18-.08-.15-.1-.3-.09-.46,0-.06.04-.12.08-.16.46-.49.99-.85,1.68-.94.42-.05.81.02,1.2.18.46.19.86.48,1.21.84.25.26.38.58.44.92.05.26.07.52.1.78-.02.85-.29,1.61-.75,2.31M37.76,47.71c.12-.23.33-.34.57-.38.1-.02.2-.02.31-.01.28,0,.47.16.58.42.08.2.1.42.07.64h-1.61c-.03-.23-.02-.46.09-.66M44.98,46.9c-.05.2-.2.31-.4.33-.18.02-.35-.01-.52-.06-.07-.02-.09-.06-.09-.12-.02-.31,0-.61.12-.89.11-.26.29-.46.55-.58.02-.01.05-.02.07-.03,0,0,.02,0,.05,0,.14.35.25.69.25,1.06,0,.1,0,.2-.03.29M46.16,48.21c-.22.11-.44.06-.65-.05-.03-.02-.06-.05-.07-.08-.03-.13-.07-.26-.07-.39,0-.26.16-.42.43-.43.19-.01.38.01.57.04.14.02.28.07.43.11-.14.35-.3.64-.63.8M47.46,51.23c-.3-.11-.57-.25-.77-.48-.16-.18-.22-.39-.15-.63.02-.08.07-.13.15-.13.13,0,.27-.02.4,0,.22.04.36.18.42.4.08.28.03.55-.04.84"/>
  <path class="cls-4" d="M24.56,47.59c-.62,0-1.26.47-1.26,1.26,0,.79.65,1.26,1.26,1.25.62,0,1.25-.49,1.25-1.27,0-.69-.57-1.25-1.26-1.25"/>
  <path class="cls-1" d="M9.45,98.75l-4.53,9.59h1.07l1.49-3.16h4.13l1.51,3.16h1.04l-4.47-9.59h-.23ZM7.92,104.27l1.65-3.47,1.64,3.47h-3.28Z"/>
  <path class="cls-1" d="M23.64,103.07c.35-.26.6-.54.75-.84.16-.3.23-.63.23-.99,0-.56-.17-1.05-.51-1.46-.34-.41-.8-.7-1.37-.85-.41-.11-1.05-.17-1.92-.17h-1.51v9.59h2.69c.78,0,1.38-.11,1.82-.33.44-.22.8-.55,1.08-1,.28-.44.42-.94.42-1.47s-.13-1.05-.41-1.46c-.27-.41-.7-.75-1.28-1.03M21.14,100.5h.47c.42,0,.73.09.94.27.21.18.31.41.31.71,0,.32-.11.58-.32.76-.22.19-.55.28-.99.28h-.4v-2.02ZM23.13,106.32c-.27.19-.78.29-1.53.29h-.46v-2.46h.38c.72,0,1.23.12,1.54.36.31.24.47.56.47.98,0,.37-.13.65-.4.84"/>
  <rect class="cls-1" x="26.94" y="98.75" width="1.81" height="9.6"/>
  <path class="cls-1" d="M36.17,103.12c.3-.42.45-.95.45-1.58s-.14-1.12-.41-1.56c-.27-.44-.63-.75-1.09-.94-.45-.19-1.2-.28-2.26-.28h-1.94v9.6h1.83v-4.07h.17l2.16,4.07h1.99l-2.27-4.27c.61-.22,1.07-.54,1.37-.96M33.33,102.51h-.57v-1.97h.5c.49,0,.82.04,1,.1.18.07.33.18.44.34.11.15.16.34.16.54,0,.35-.11.61-.33.76-.22.15-.62.23-1.2.23"/>
  <polygon class="cls-1" points="40.38 98.75 38.55 98.75 38.55 108.35 43.04 108.35 43.04 106.61 40.38 106.61 40.38 98.75"/>
  <path class="cls-1" d="M47.36,98.75l-3.7,9.6h1.9l.78-1.98h3.91l.75,1.98h1.9l-3.69-9.6h-1.85ZM47.01,104.59l1.29-3.3,1.28,3.3h-2.57Z"/>
  <path class="cls-1" d="M61.72,101.07c-.58,0-1.1.13-1.57.37-.47.25-.89.62-1.25,1.12v-1.3h-.91v9.7h.91v-3.82c.38.47.81.82,1.28,1.05.47.23.99.35,1.56.35,1,0,1.86-.37,2.57-1.09.71-.73,1.06-1.61,1.06-2.66s-.36-1.9-1.08-2.62c-.71-.73-1.58-1.09-2.59-1.09M64.07,106.24c-.26.46-.6.81-1.03,1.06-.43.25-.89.38-1.39.38s-.97-.13-1.42-.38c-.45-.25-.8-.59-1.04-1.02-.24-.43-.36-.91-.36-1.45,0-.82.27-1.51.81-2.06.54-.55,1.2-.83,1.99-.83.51,0,.97.12,1.4.37.43.25.77.6,1.03,1.05.25.45.38.93.38,1.43s-.13.98-.39,1.43"/>
  <path class="cls-1" d="M68.56,101.37c-.31.2-.6.51-.88.92v-1.04h-.93v7.1h.93v-2.4c0-1.23.06-2.05.17-2.45.15-.53.36-.91.65-1.16.28-.25.58-.37.88-.37.13,0,.29.04.48.12l.47-.77c-.29-.16-.56-.24-.81-.24-.33,0-.66.1-.96.3"/>
  <path class="cls-1" d="M74.47,101.07c-1.1,0-2.01.4-2.73,1.19-.65.72-.98,1.58-.98,2.56s.34,1.86,1.03,2.6c.69.74,1.58,1.11,2.67,1.11s1.97-.37,2.66-1.11c.69-.74,1.04-1.61,1.04-2.6s-.33-1.84-.98-2.56c-.72-.79-1.63-1.19-2.72-1.19M76.87,106.28c-.25.44-.59.79-1.01,1.03-.42.24-.89.36-1.39.36s-.97-.12-1.39-.36c-.42-.24-.76-.58-1.01-1.03-.25-.44-.37-.92-.37-1.44,0-.8.27-1.48.82-2.04.54-.56,1.2-.84,1.96-.84s1.41.28,1.95.84c.55.56.82,1.24.82,2.04,0,.51-.12.99-.37,1.44"/>
  <path class="cls-1" d="M86.04,102.56c-.36-.5-.77-.87-1.24-1.12-.47-.25-1-.37-1.58-.37-1.01,0-1.87.36-2.59,1.09-.72.73-1.08,1.6-1.08,2.62s.36,1.93,1.07,2.66c.71.73,1.57,1.09,2.58,1.09.56,0,1.09-.12,1.56-.35.48-.23.9-.58,1.29-1.05v1.22h.9v-9.84h-.9v4.05ZM85.74,106.29c-.24.43-.58.77-1.03,1.03-.45.25-.92.38-1.42.38s-.96-.13-1.39-.38c-.43-.25-.77-.61-1.03-1.06-.26-.46-.39-.93-.39-1.43s.13-.98.38-1.43c.25-.45.6-.8,1.03-1.05.43-.25.9-.37,1.41-.37.79,0,1.46.27,2,.83.54.55.81,1.24.81,2.06,0,.54-.12,1.02-.36,1.45"/>
  <path class="cls-1" d="M94.17,104.57c0,.89-.04,1.47-.14,1.74-.14.4-.38.72-.74.97-.35.25-.78.37-1.3.37s-.95-.13-1.32-.38c-.37-.25-.62-.59-.75-1.03-.09-.3-.13-.86-.13-1.67v-3.31h-.91v3.42c0,1.01.11,1.77.34,2.27.23.5.57.89,1.04,1.17.46.28,1.04.42,1.73.42s1.27-.14,1.73-.42c.46-.28.8-.67,1.03-1.16.23-.49.34-1.23.34-2.21v-3.48h-.93v3.31Z"/>
  <path class="cls-1" d="M100.74,101.93c1.08,0,1.94.42,2.56,1.25l.72-.45c-.21-.36-.47-.65-.78-.88-.3-.23-.68-.42-1.11-.56-.44-.15-.89-.22-1.36-.22-.75,0-1.42.17-2.03.5-.6.33-1.08.79-1.42,1.38-.35.59-.52,1.23-.52,1.91,0,1.02.37,1.89,1.11,2.6.74.72,1.67,1.07,2.79,1.07.73,0,1.38-.14,1.96-.42.57-.28,1.03-.68,1.37-1.19l-.72-.48c-.66.83-1.51,1.25-2.56,1.25-.57,0-1.08-.13-1.54-.38-.46-.25-.82-.61-1.08-1.06-.26-.46-.39-.94-.39-1.46,0-.8.29-1.47.86-2.03.57-.56,1.29-.83,2.15-.83"/>
  <polygon class="cls-1" points="107.48 98.62 106.57 98.62 106.57 101.25 105.32 101.25 105.32 102.04 106.57 102.04 106.57 108.35 107.48 108.35 107.48 102.04 108.93 102.04 108.93 101.25 107.48 101.25 107.48 98.62"/>
  <path class="cls-1" d="M68.51,50.78c.07,0,.11-.02.14-.02.21-.11.55-.32.83-.51,1.63-1.08,2.53-2,2.97-2.99.6-1.38.67-2.6.67-5.77v-4.69c0-3.03,0-3.59.02-4.21.05-.69.16-.96.71-1.08.23-.05.37-.05.51-.05.07,0,.16-.09.16-.16,0-.11-.09-.16-.32-.16-.62,0-1.88.04-1.97.04-.11,0-1.42-.04-2.35-.04-.23,0-.32.04-.32.16,0,.07.09.16.16.16.18,0,.53.03.69.05.66.09.78.41.83,1.08.05.62.05,1.17.05,4.21v5.66c0,5.03-.62,6.04-1.93,7.35-.18.16-.46.39-.71.53-.18.11-.25.2-.25.32,0,.09.09.11.14.11"/>
  <path class="cls-1" d="M75.97,45.93c.83,0,1.84-.07,2.05-.07.23,0,1.33.07,1.82.07.18,0,.3-.04.3-.16,0-.09-.05-.16-.21-.16h-.18c-.34,0-.69-.14-.69-.53,0-.34.11-.83.3-1.31l1.15-3.13c.04-.11.11-.16.21-.16h4.67c.11,0,.14.02.18.11l1.82,4.48c.14.32-.07.49-.18.53-.09.04-.14.04-.14.14,0,.11.32.11.71.14,1.4.04,2.9.04,3.2.04.23,0,.46-.04.46-.16s-.14-.16-.25-.16c-.21,0-.51-.02-.8-.12-.44-.14-.99-.39-1.72-2.14-1.24-2.96-4.48-11.03-4.85-11.86-.21-.44-.28-.71-.48-.71-.14,0-.23.11-.48.76l-4.76,12.23c-.39.99-.78,1.68-1.7,1.8-.16.02-.46.04-.6.04-.09,0-.18.07-.18.16,0,.12.14.16.39.16M82.8,34.19c.11-.3.23-.3.34,0l2,5.35c.02.09.02.14-.07.14h-4.09c-.07,0-.1-.05-.07-.14l1.89-5.35Z"/>
  <path class="cls-1" d="M90.17,31.47c.16,0,.55.09.85.28.37.25.85.69,1.33,1.42.69,1.03,3.42,5.38,3.59,5.68.3.55.44.94.44,2v1.68c0,.32,0,1.15-.05,1.96-.04.58-.18.94-.59,1.03-.18.05-.41.09-.6.09-.11,0-.16.09-.16.16,0,.11.09.16.32.16.6,0,1.89-.07,1.98-.07.11,0,1.42.07,2.55.07.2,0,.32-.07.32-.16,0-.07-.05-.16-.16-.16-.18,0-.64-.04-.92-.09-.6-.09-.74-.46-.78-1.03-.07-.8-.07-1.63-.07-1.96v-1.68c0-.65-.09-1.27.25-1.95.41-.83,3.27-5.42,3.93-6.2.44-.53.62-.74,1.01-.97.32-.18.71-.25.94-.25.16,0,.25-.11.25-.21,0-.07-.11-.11-.25-.11-.39,0-1.84.04-1.97.04-.16,0-.87-.04-1.4-.04-.21,0-.32.04-.32.11,0,.09.11.18.3.23.23.07.32.23.32.5,0,.25-.09.58-.34,1.01-.37.64-2.9,4.83-3.31,5.65l-3.68-6.09c-.14-.25-.28-.48-.28-.76,0-.16.09-.25.25-.32.19-.07.32-.14.32-.21,0-.09-.04-.14-.28-.14-.78,0-1.61.04-1.75.04-.09,0-1.61-.04-2-.04-.18,0-.25.04-.25.14s.09.18.21.18"/>
  <path class="cls-1" d="M72.99,65.83c-1.36,0-2.87-.51-3.2-1.93-.07-.27-.07-.55-.07-.71s-.07-.23-.18-.23-.16.11-.16.32c-.03.32-.11,1.11-.11,2.07,0,.53.02.6.3.73.83.39,2,.53,2.94.53,1.1,0,2.37-.14,3.22-.69,1.45-.94,1.89-2.18,1.89-3.33,0-1.68-.85-3.03-3.31-4.71l-.58-.39c-2-1.35-2.62-2.07-2.62-3.31,0-1.38,1.22-2.11,2.69-2.11,1.82,0,2.48.73,2.62.96.11.21.28.73.3.97.02.16.05.25.18.25s.16-.14.16-.44c0-1.33.09-1.98.09-2.07,0-.11-.04-.14-.21-.14s-.32,0-.71-.09c-.48-.11-1.29-.23-2.09-.23-2.66,0-4.48,1.38-4.48,3.68,0,1.36.71,2.55,2.89,4.18l.92.69c1.79,1.33,2.55,2,2.55,3.4s-1.03,2.6-3.03,2.6"/>
  <path class="cls-1" d="M93.26,64.89c-.07.58-.14.96-.55,1.06-.18.05-.41.09-.59.09-.12,0-.16.09-.16.16,0,.11.09.16.32.16.6,0,1.91-.07,2-.07.11,0,1.4.07,2.51.07.23,0,.34-.07.34-.16,0-.07-.04-.16-.18-.16-.16,0-.62-.04-.9-.09-.62-.09-.66-.46-.73-1.03-.09-.8-.11-2.35-.11-4.23v-3.45c0-3.03,0-3.59.04-4.21.05-.69.16-.96.69-1.08.25-.05.37-.05.51-.05.09,0,.19-.09.19-.16,0-.11-.12-.16-.35-.16-.6,0-1.89.04-2,.04-.09,0-1.4-.04-2.3-.04-.23,0-.32.04-.32.16,0,.07.07.16.16.16.18,0,.53.03.69.05.67.09.76.41.8,1.08.02.62.05,1.22.05,4.25v.41c0,.11-.05.11-.12.11h-8.44c-.07,0-.11,0-.11-.11v-.41c0-3.04,0-3.63.03-4.25.04-.69.16-.96.71-1.08.23-.05.37-.05.51-.05.07,0,.16-.09.16-.16,0-.11-.09-.16-.32-.16-.62,0-1.91.04-2,.04-.11,0-1.4-.04-2.32-.04-.23,0-.32.04-.32.16,0,.07.09.16.16.16.18,0,.53.03.69.05.67.09.78.41.83,1.08.05.62.05,1.17.05,4.21v3.45c0,1.88,0,3.42-.11,4.23-.09.58-.14.94-.53,1.03-.19.05-.44.09-.62.09-.11,0-.16.09-.16.16,0,.11.11.16.32.16.62,0,1.91-.07,2.02-.07.09,0,1.38.07,2.51.07.23,0,.32-.07.32-.16,0-.07-.04-.16-.16-.16-.18,0-.62-.04-.92-.09-.6-.09-.67-.46-.74-1.03-.09-.8-.09-2.3-.09-4.18v-1.95c0-.09.05-.11.11-.11h8.44c.07,0,.12.02.12.11v1.95c0,1.89,0,3.36-.09,4.16"/>
  <path class="cls-1" d="M115.24,66.03c-.11,0-.32,0-.71-.07-.51-.07-1.17-.25-2.25-1.36-1.17-1.22-2.58-2.99-4.23-5.06,1.88-1.61,2.48-3.01,2.48-4.46,0-1.36-.9-2.3-1.41-2.67-1.06-.74-2.48-.85-3.77-.85-.62,0-2.32.05-2.53.05-.12,0-1.47-.05-2.39-.05-.23,0-.32.05-.32.16,0,.07.09.16.16.16.18,0,.53.03.69.05.67.09.78.41.83,1.08.05.62.05,1.17.05,4.2v3.45c0,1.89,0,3.42-.11,4.23-.09.58-.14.94-.53,1.03-.18.05-.44.09-.62.09-.11,0-.16.09-.16.16,0,.11.12.16.32.16.62,0,1.98-.07,2-.07.1,0,1.38.07,2.48.07.23,0,.32-.07.32-.16,0-.07-.02-.16-.16-.16-.18,0-.62-.04-.9-.09-.62-.09-.73-.46-.8-1.03-.09-.8-.09-2.32-.09-4.21v-.46c0-.11.05-.16.14-.16l2.57.05c.14,0,.18.02.28.11.44.53,1.33,1.79,2.18,2.85,1.15,1.47,1.88,2.41,2.76,2.87.51.28,1.01.39,2.16.39h1.27c.37,0,.48-.05.48-.16,0-.07-.07-.16-.18-.16M107.48,59.09c-.48.32-1.04.35-1.52.35-.9,0-1.93-.14-2.23-.3-.09-.07-.14-.14-.14-.25v-6.27c0-.12.07-.18.16-.23.21-.04.85-.11,1.45-.11,2.16,0,3.49,1.4,3.49,3.84,0,1.49-.53,2.53-1.22,2.99"/>
  <path class="cls-1" d="M124.68,63.71c-.11,0-.16.07-.21.3-.11.78-.39,1.13-.92,1.35-.53.21-1.49.21-2.02.21-2,0-2.37-.25-2.41-1.56-.02-.39,0-2.67,0-3.33v-1.63c0-.07.03-.14.14-.14.34,0,2.51.02,3.06.09.78.09.97.32,1.04.6.09.25.09.46.09.64,0,.12.04.18.14.18.14,0,.18-.21.18-.37,0-.14.04-.87.09-1.26.04-.65.16-.97.16-1.08s-.04-.16-.11-.16-.16.11-.3.25c-.21.21-.51.23-.99.28-.46.04-3.13.04-3.38.04-.11,0-.11-.07-.11-.21v-5.31c0-.14.03-.21.11-.21.23,0,2.58.02,2.92.07,1.1.14,1.31.28,1.45.6.09.23.11.55.11.69,0,.16.05.25.16.25.09,0,.16-.11.18-.21.04-.23.09-1.1.11-1.29.05-.55.16-.78.16-.92,0-.09-.02-.18-.09-.18-.09,0-.18.07-.28.09-.16.03-.53.09-.92.11-.46.03-4.69,0-4.83,0-.12,0-1.43-.04-2.35-.04-.23,0-.32.04-.32.16,0,.07.09.16.16.16.18,0,.53.03.69.05.67.09.78.41.83,1.08.04.62.04,1.17.04,4.21v3.45c0,1.88,0,3.42-.11,4.23-.09.58-.14.97-.53,1.03-.18.02-.44.09-.62.09-.11,0-.16.09-.16.16,0,.11.11.16.32.16.32,0,.78-.03,1.17-.05.44-.02.83-.02.87-.02.3,0,.83,0,1.68.04.83.03,2,.07,3.52.07.78,0,.99,0,1.13-.51.11-.41.27-1.75.27-1.89s-.02-.3-.14-.3"/>
  <path class="cls-1" d="M137.34,63.71c-.11,0-.16.07-.21.3-.11.78-.39,1.13-.92,1.35-.53.21-1.49.21-2.03.21-2,0-2.37-.25-2.41-1.56-.02-.39,0-2.67,0-3.33v-1.63c0-.07.03-.14.14-.14.35,0,2.51.02,3.06.09.78.09.97.32,1.04.6.09.25.09.46.09.64,0,.12.04.18.14.18.14,0,.18-.21.18-.37,0-.14.04-.87.09-1.26.04-.65.16-.97.16-1.08s-.04-.16-.11-.16-.16.11-.3.25c-.21.21-.51.23-.99.28-.46.04-3.13.04-3.38.04-.11,0-.11-.07-.11-.21v-5.31c0-.14.03-.21.11-.21.23,0,2.58.02,2.92.07,1.1.14,1.31.28,1.45.6.09.23.11.55.11.69,0,.16.05.25.16.25.09,0,.16-.11.18-.21.05-.23.09-1.1.12-1.29.05-.55.16-.78.16-.92,0-.09-.02-.18-.09-.18-.09,0-.19.07-.28.09-.16.03-.53.09-.92.11-.46.03-4.69,0-4.83,0-.12,0-1.43-.04-2.35-.04-.23,0-.32.04-.32.16,0,.07.09.16.16.16.18,0,.53.03.69.05.67.09.78.41.83,1.08.05.62.05,1.17.05,4.21v3.45c0,1.88,0,3.42-.11,4.23-.09.58-.14.97-.53,1.03-.18.02-.44.09-.62.09-.11,0-.16.09-.16.16,0,.11.11.16.32.16.32,0,.78-.03,1.17-.05.44-.02.83-.02.87-.02.3,0,.83,0,1.68.04.83.03,2,.07,3.52.07.78,0,.99,0,1.13-.51.11-.41.27-1.75.27-1.89s-.02-.3-.14-.3"/>
  <path class="cls-1" d="M80.64,74.02l.02.21c.02.28.07.34.16.34s.18-.09.18-.25c0-.23.07-1.63.07-2.23,0-.11,0-.23-.09-.23s-.28.04-.57.09c-.32.04-.78.09-1.45.09h-7.63c-.23,0-1.01-.02-1.59-.09-.55-.07-.76-.23-.89-.23-.07,0-.19.25-.21.37-.04.16-.44,1.91-.44,2.11,0,.11.09.16.14.16.09,0,.16-.02.21-.19.07-.14.09-.27.32-.62.3-.46.78-.6,2.04-.62l2.92-.04v8.21c0,1.88,0,3.42-.09,4.23-.07.58-.18.97-.6,1.06-.18.04-.41.09-.6.09-.11,0-.16.07-.16.14,0,.11.09.16.32.16.6,0,2-.07,2.1-.07.11,0,1.4.07,2.51.07.23,0,.32-.07.32-.16,0-.07-.02-.16-.16-.16-.18,0-.64-.04-.92-.09-.62-.09-.71-.46-.78-1.03-.09-.8-.09-2.35-.09-4.23v-8.21l2.53.04c1.93.05,2.37.48,2.44,1.08"/>
  <path class="cls-1" d="M92.54,86.32c.11-.41.28-1.75.28-1.89s-.02-.3-.14-.3-.16.07-.21.3c-.11.78-.39,1.13-.92,1.36-.53.21-1.49.21-2.02.21-2,0-2.37-.25-2.41-1.56-.03-.39,0-2.66,0-3.33v-1.63c0-.07.02-.14.14-.14.35,0,2.51.03,3.06.1.78.09.97.32,1.03.59.09.25.09.46.09.65,0,.11.04.18.14.18.14,0,.18-.2.18-.37,0-.14.04-.87.09-1.27.05-.64.16-.96.16-1.08s-.05-.16-.11-.16-.16.11-.3.25c-.21.2-.51.23-.99.27-.46.05-3.13.05-3.38.05-.11,0-.11-.07-.11-.21v-5.31c0-.14.02-.21.11-.21.23,0,2.57.02,2.92.07,1.1.14,1.31.28,1.45.6.09.23.11.55.11.69,0,.16.04.25.16.25.09,0,.16-.11.18-.2.05-.23.09-1.11.11-1.29.05-.55.16-.78.16-.92,0-.09-.02-.18-.09-.18-.09,0-.18.07-.28.09-.16.03-.53.09-.92.11-.46.03-4.69,0-4.83,0-.11,0-1.42-.04-2.35-.04-.23,0-.32.04-.32.16,0,.07.09.16.16.16.18,0,.53.03.69.05.66.09.78.41.83,1.08.05.62.05,1.17.05,4.2v3.45c0,1.89,0,3.42-.12,4.23-.09.58-.14.97-.53,1.03-.18.02-.44.09-.62.09-.11,0-.16.09-.16.16,0,.11.12.16.32.16.32,0,.78-.03,1.17-.05.44-.02.83-.02.87-.02.3,0,.83,0,1.68.04.83.03,2,.07,3.52.07.78,0,.99,0,1.13-.51"/>
  <path class="cls-1" d="M109.36,86.45c-.2,0-.51-.02-.8-.11-.44-.14-.99-.39-1.72-2.14-1.24-2.96-4.48-11.03-4.85-11.86-.21-.44-.28-.71-.48-.71-.14,0-.23.11-.48.76l-4.76,12.23c-.39.99-.78,1.68-1.7,1.8-.16.02-.46.04-.6.04-.09,0-.18.07-.18.16,0,.12.14.16.39.16.83,0,1.84-.07,2.04-.07.23,0,1.34.07,1.82.07.18,0,.3-.05.3-.16,0-.09-.05-.16-.21-.16h-.18c-.35,0-.69-.14-.69-.53,0-.34.12-.83.3-1.31l1.15-3.12c.05-.12.11-.16.21-.16h4.67c.11,0,.14.02.18.11l1.82,4.48c.14.32-.07.48-.18.53-.09.04-.14.04-.14.14,0,.12.32.12.72.14,1.4.05,2.89.05,3.2.05.23,0,.46-.05.46-.16s-.14-.16-.25-.16M103.27,80.52h-4.09c-.07,0-.09-.05-.07-.14l1.89-5.36c.11-.3.23-.3.34,0l2,5.36c.03.09.03.14-.07.14"/>
</svg>