<?xml version="1.0" encoding="UTF-8"?>
<svg id="Layer_1" data-name="Layer 1" xmlns="http://www.w3.org/2000/svg" xmlns:xlink="http://www.w3.org/1999/xlink" viewBox="0 0 141.73 141.73">
  <defs>
    <style>
      .cls-1 {
        stroke: url(#linear-gradient-2);
      }

      .cls-1, .cls-2, .cls-3, .cls-4, .cls-5, .cls-6, .cls-7, .cls-8, .cls-9, .cls-10, .cls-11, .cls-12 {
        fill: #fff;
      }

      .cls-1, .cls-3, .cls-4, .cls-6, .cls-7, .cls-8, .cls-9, .cls-10, .cls-11, .cls-12 {
        stroke-miterlimit: 10;
        stroke-width: .44px;
      }

      .cls-3 {
        stroke: url(#linear-gradient-4);
      }

      .cls-4 {
        stroke: url(#linear-gradient-8);
      }

      .cls-5, .cls-13, .cls-14 {
        fill-rule: evenodd;
      }

      .cls-6 {
        stroke: url(#linear-gradient-7);
      }

      .cls-15 {
        fill: #2e368f;
      }

      .cls-7 {
        stroke: url(#linear-gradient-6);
      }

      .cls-8 {
        stroke: url(#linear-gradient-10);
      }

      .cls-13 {
        fill: url(#GradientFill_1);
      }

      .cls-9 {
        stroke: url(#linear-gradient);
      }

      .cls-14 {
        fill: url(#_Áåçûìÿííûé_ãðàäèåíò_38);
      }

      .cls-10 {
        stroke: url(#linear-gradient-9);
      }

      .cls-11 {
        stroke: url(#linear-gradient-3);
      }

      .cls-12 {
        stroke: url(#linear-gradient-5);
      }
    </style>
    <linearGradient id="_Áåçûìÿííûé_ãðàäèåíò_38" data-name="Áåçûìÿííûé ãðàäèåíò 38" x1="-1438.26" y1="2612.21" x2="-1310.7" y2="2612.21" gradientTransform="translate(1445.34 -2544.03)" gradientUnits="userSpaceOnUse">
      <stop offset="0" stop-color="#b1883a"/>
      <stop offset=".09" stop-color="#cea557"/>
      <stop offset=".18" stop-color="#e5bd6f"/>
      <stop offset=".27" stop-color="#f3cb7d"/>
      <stop offset=".34" stop-color="#f8d082"/>
      <stop offset=".34" stop-color="#f7cf81"/>
      <stop offset=".38" stop-color="#ebc374"/>
      <stop offset=".44" stop-color="#e4bc6d"/>
      <stop offset=".55" stop-color="#e2ba6b"/>
      <stop offset=".6" stop-color="#e5c173"/>
      <stop offset=".67" stop-color="#eed589"/>
      <stop offset=".75" stop-color="#fef6ac"/>
      <stop offset=".82" stop-color="#ead589"/>
      <stop offset=".89" stop-color="#d8b96b"/>
      <stop offset=".96" stop-color="#cda859"/>
      <stop offset="1" stop-color="#caa253"/>
    </linearGradient>
    <radialGradient id="GradientFill_1" data-name="GradientFill 1" cx="-993.49" cy="2616.67" fx="-993.49" fy="2616.67" r="62.01" gradientTransform="translate(1007.24 -1101.98) rotate(-1.76) scale(.98 .44)" gradientUnits="userSpaceOnUse">
      <stop offset="0" stop-color="#29abe2"/>
      <stop offset=".5" stop-color="#228dcc"/>
      <stop offset="1" stop-color="#2e368f"/>
    </radialGradient>
    <linearGradient id="linear-gradient" x1="-1419.54" y1="2615.47" x2="-1400.58" y2="2615.47" gradientTransform="translate(1445.34 -2544.03)" gradientUnits="userSpaceOnUse">
      <stop offset="0" stop-color="#fff"/>
      <stop offset=".01" stop-color="#fefbf6"/>
      <stop offset=".09" stop-color="#fceccc"/>
      <stop offset=".16" stop-color="#fadfac"/>
      <stop offset=".22" stop-color="#f9d794"/>
      <stop offset=".29" stop-color="#f8d186"/>
      <stop offset=".34" stop-color="#f8d082"/>
      <stop offset=".34" stop-color="#f7cf81"/>
      <stop offset=".38" stop-color="#ebc374"/>
      <stop offset=".44" stop-color="#e4bc6d"/>
      <stop offset=".55" stop-color="#e2ba6b"/>
      <stop offset=".6" stop-color="#e5c173"/>
      <stop offset=".67" stop-color="#eed589"/>
      <stop offset=".75" stop-color="#fef6ac"/>
      <stop offset=".82" stop-color="#ead589"/>
      <stop offset=".89" stop-color="#d8b96b"/>
      <stop offset=".96" stop-color="#cda859"/>
      <stop offset="1" stop-color="#caa253"/>
    </linearGradient>
    <linearGradient id="linear-gradient-2" x1="-1404.57" y1="2616.2" x2="-1396.3" y2="2616.2" xlink:href="#linear-gradient"/>
    <linearGradient id="linear-gradient-3" x1="-1398.17" y1="2614.73" x2="-1383.73" y2="2614.73" xlink:href="#linear-gradient"/>
    <linearGradient id="linear-gradient-4" x1="-1386.23" y1="2611.51" x2="-1380.7" y2="2611.51" xlink:href="#linear-gradient"/>
    <linearGradient id="linear-gradient-5" x1="-1380.44" y1="2612.86" x2="-1372.16" y2="2612.86" xlink:href="#linear-gradient"/>
    <linearGradient id="linear-gradient-6" x1="-1374.68" y1="2610.37" x2="-1364.96" y2="2610.37" xlink:href="#linear-gradient"/>
    <linearGradient id="linear-gradient-7" x1="-1361.82" y1="2609.77" x2="-1350.52" y2="2609.77" xlink:href="#linear-gradient"/>
    <linearGradient id="linear-gradient-8" x1="-1350.76" y1="2608.59" x2="-1342.88" y2="2608.59" xlink:href="#linear-gradient"/>
    <linearGradient id="linear-gradient-9" x1="-1344.55" y1="2605.73" x2="-1339.01" y2="2605.73" xlink:href="#linear-gradient"/>
    <linearGradient id="linear-gradient-10" x1="-1339.83" y1="2604.98" x2="-1331.2" y2="2604.98" xlink:href="#linear-gradient"/>
  </defs>
  <path class="cls-14" d="M7.09,49.54c36.57,4.08,86.13-3.04,120.4-16.19-7.31,19.33-4.87,37.15,7.16,53.49-37.32-9.63-87.34-6.03-120.4,16.19,6.12-22.31,6.41-41.55-7.16-53.48Z"/>
  <path class="cls-13" d="M7.99,42.48c35.97,7.8,85.99,5.77,121.43-3.81-9.25,18.49-8.64,36.46,1.66,53.94-36.14-13.39-86.27-14.92-121.43,3.81,8.36-21.57,10.62-40.68-1.66-53.94Z"/>
  <g>
    <path class="cls-2" d="M115.56,52.82c-.97,0-1.77-.79-1.77-1.77s.79-1.77,1.77-1.77,1.77.79,1.77,1.77-.79,1.77-1.77,1.77h0ZM115.56,49.54c-.83,0-1.51.68-1.51,1.51s.68,1.51,1.51,1.51,1.51-.68,1.51-1.51-.68-1.51-1.51-1.51h0Z"/>
    <path class="cls-5" d="M114.67,51.86v-1.23h-.39v-.25h1.04v.25h-.39v1.23h-.27ZM115.49,51.86v-1.48h.4l.23,1.01.23-1.01h.4v1.48h-.25v-1.17l-.26,1.17h-.25l-.26-1.17v1.17h-.25Z"/>
  </g>
  <g>
    <path class="cls-15" d="M14.78,105.52l.42-.38,2.26,2.5,1.48-1.34.27.41-1.85,1.67-2.58-2.86Z"/>
    <path class="cls-15" d="M17.22,103.14l.43-.33.38.49-.43.33-.38-.49ZM17.99,104.12l.43-.33,1.73,2.23-.43.33-1.73-2.23Z"/>
    <path class="cls-15" d="M19.39,103.05c.93.71,1.64,1.26,1.91,1.51h0c-.14-.33-.38-1.19-.71-2.34l.45-.31.77,2.91-.49.34-2.42-1.76.48-.33Z"/>
    <path class="cls-15" d="M22.66,102.69c.28.45.71.65,1.11.41.36-.22.37-.47.34-.69l.47-.28c.09.36.09.95-.59,1.36-.77.47-1.45.05-1.83-.58-.44-.73-.42-1.51.32-1.96.79-.48,1.42-.02,1.75.51.05.07.08.13.12.2l-1.68,1.02ZM23.68,101.64c-.23-.37-.6-.56-.99-.32-.4.25-.41.63-.21,1.05l1.2-.73Z"/>
    <path class="cls-15" d="M26.51,100.49c.24.47.66.7,1.07.49.38-.19.4-.44.39-.66l.49-.25c.07.37.02.95-.69,1.31-.8.41-1.45-.06-1.78-.71-.38-.76-.3-1.54.47-1.93.82-.42,1.42.09,1.7.64.04.08.07.14.1.21l-1.75.89ZM27.61,99.52c-.2-.39-.55-.61-.97-.4-.42.21-.46.6-.29,1.03l1.25-.64Z"/>
    <path class="cls-15" d="M28.52,97.8c.79.87,1.39,1.54,1.61,1.82h0c-.08-.34-.16-1.24-.28-2.43l.5-.23.24,3-.54.25-2.06-2.16.53-.24Z"/>
    <path class="cls-15" d="M31.78,98.01c.21.49.6.75,1.03.58.39-.16.43-.41.44-.63l.51-.21c.04.37-.05.95-.79,1.26-.83.34-1.44-.18-1.72-.85-.33-.78-.18-1.56.62-1.89.85-.35,1.41.2,1.65.77.03.08.06.15.08.22l-1.82.75ZM32.95,97.13c-.17-.4-.51-.65-.93-.47-.44.18-.5.56-.37,1.01l1.3-.54Z"/>
    <path class="cls-15" d="M33.97,96.32c-.13-.35-.22-.56-.28-.71l.5-.19c.03.07.13.28.22.52,0-.4.22-.74.66-.92l.19.5c-.53.22-.78.6-.52,1.28l.48,1.26-.51.19-.73-1.92Z"/>
    <path class="cls-15" d="M36.03,94.72c.82,1.07,1.32,1.71,1.48,1.95h0c-.02-.33-.05-1-.1-2.44l.52-.18.03,3.11c0,.87-.13,1.15-.69,1.34-.08.03-.19.06-.3.09l-.15-.44c.07-.01.15-.04.22-.06.32-.11.41-.3.41-.76l-1.96-2.41.55-.2Z"/>
    <path class="cls-15" d="M40.09,94.1c-.07-.23-.14-.48-.21-.7l.5-.15c.03.08.1.26.14.39.06-.27.22-.57.64-.7.38-.11.7,0,.88.25.07-.29.26-.59.72-.73.45-.13.93.01,1.15.74l.53,1.78-.51.15-.51-1.72c-.09-.3-.29-.58-.69-.46-.42.12-.5.49-.36.95l.46,1.55-.51.15-.51-1.7c-.1-.33-.28-.6-.69-.48-.41.12-.51.5-.36,1.01l.45,1.5-.52.15-.6-2.01Z"/>
    <path class="cls-15" d="M47.27,92.78c.21.79-.08,1.56-.92,1.78-.79.21-1.43-.27-1.65-1.09-.21-.81.09-1.56.93-1.78.77-.2,1.42.23,1.64,1.09ZM45.24,93.33c.15.58.55.92,1.01.8.47-.13.64-.59.48-1.19-.16-.61-.53-.93-1.01-.8-.48.13-.64.58-.48,1.19Z"/>
    <path class="cls-15" d="M47.77,91.95c-.05-.24-.11-.48-.17-.71l.51-.12c.03.08.08.27.11.4.07-.27.26-.55.68-.65.39-.09.69.05.86.3.09-.29.29-.57.76-.68.45-.1.93.07,1.1.81l.42,1.81-.52.12-.4-1.74c-.07-.31-.25-.6-.66-.5-.42.1-.53.45-.42.93l.37,1.58-.52.12-.4-1.73c-.08-.34-.24-.62-.65-.52-.42.1-.54.47-.42.98l.35,1.53-.53.12-.47-2.04Z"/>
    <path class="cls-15" d="M52.98,91.6c.11.52.45.86.9.76.41-.08.51-.32.55-.53l.54-.11c-.04.37-.23.92-1.01,1.08-.88.18-1.38-.45-1.53-1.17-.17-.83.12-1.57.97-1.74.9-.18,1.35.47,1.47,1.08.02.09.03.15.04.23l-1.93.39ZM54.3,90.95c-.09-.43-.37-.73-.83-.64-.46.09-.6.46-.55.92l1.38-.28Z"/>
    <path class="cls-15" d="M55.43,90.29c-.04-.24-.09-.49-.13-.7l.52-.09c.03.08.08.35.1.43.07-.25.24-.56.77-.66.53-.09.99.16,1.12.9l.32,1.78-.54.1-.31-1.72c-.07-.4-.27-.64-.68-.57-.49.09-.63.48-.53,1.03l.27,1.49-.54.1-.37-2.08Z"/>
    <path class="cls-15" d="M58.13,89.09l.47-.08-.13-.81.54-.09.13.81.6-.1.07.43-.6.1.26,1.58c.04.26.13.38.38.34.06-.01.16-.03.23-.06l.06.4c-.12.07-.29.1-.43.12-.45.07-.68-.13-.76-.6l-.27-1.69-.47.08-.07-.43Z"/>
    <path class="cls-15" d="M62.1,88.47c.5,1.23.78,1.94.87,2.23h0c.02-.28.1-.95.31-2.39l.52-.07c.62,1.49.8,1.92.88,2.18h0c.03-.31.08-.74.29-2.34l.54-.07-.48,2.91-.58.08c-.4-.99-.76-1.83-.86-2.14h0c0,.32-.13,1.16-.29,2.29l-.6.08-1.18-2.69.57-.08Z"/>
    <path class="cls-15" d="M65.99,86.72l.54-.06.07.62-.54.06-.07-.62ZM66.13,87.95l.54-.06.32,2.81-.54.06-.32-2.81Z"/>
    <path class="cls-15" d="M67.23,87.83l.48-.05-.08-.82.54-.06.08.82.61-.06.04.43-.61.06.17,1.6c.03.26.11.38.36.36.06,0,.16-.02.23-.04l.04.4c-.12.06-.3.08-.43.1-.46.05-.67-.17-.72-.64l-.18-1.7-.48.05-.04-.43Z"/>
    <path class="cls-15" d="M69.87,86.31l.14,1.64c.12-.25.35-.5.82-.54.46-.04.97.18,1.04,1l.16,1.8-.54.05-.15-1.71c-.04-.46-.25-.69-.64-.66-.49.04-.66.39-.61.95l.14,1.53-.54.05-.36-4.05.54-.05Z"/>
    <path class="cls-15" d="M76.69,88.47c.05.82-.38,1.51-1.25,1.56-.82.05-1.35-.54-1.4-1.39-.05-.84.4-1.51,1.26-1.56.79-.05,1.34.51,1.4,1.39ZM74.59,88.6c.04.6.36,1.01.84.98.49-.03.74-.45.7-1.07-.04-.63-.34-1.01-.84-.98-.5.03-.74.44-.7,1.08Z"/>
    <path class="cls-15" d="M79.7,88.93c.01.27.03.64.04.82l-.53.02c-.01-.07-.03-.24-.04-.4-.13.31-.39.49-.82.51-.49.02-.94-.22-.98-1l-.08-1.85.54-.02.07,1.74c.01.36.14.68.58.66.49-.02.67-.3.64-.97l-.06-1.48.54-.02.08,2Z"/>
    <path class="cls-15" d="M80.53,87.68c0-.37-.02-.6-.02-.77h.53c0,.06.02.3.03.55.13-.37.46-.63.93-.65v.54c-.56.03-.92.31-.9,1.03l.03,1.34h-.54s-.05-2.04-.05-2.04Z"/>
    <path class="cls-15" d="M84.42,88.36c0,.53.27.93.73.93.42,0,.56-.21.65-.41h.55c-.11.36-.41.86-1.21.86-.9,0-1.27-.72-1.26-1.45,0-.85.43-1.51,1.3-1.51.92,0,1.23.73,1.23,1.35,0,.09,0,.16,0,.23h-1.97ZM85.84,87.99c0-.44-.22-.79-.68-.79-.47,0-.68.33-.73.79h1.41Z"/>
    <path class="cls-15" d="M87.34,86.86c.37.62.52.88.61,1.04h0c.12-.18.35-.53.67-1.01h.61s-.97,1.35-.97,1.35l.93,1.49h-.63c-.32-.56-.53-.93-.64-1.11h0c-.09.15-.32.52-.68,1.07h-.6s.96-1.4.96-1.4l-.88-1.44h.61Z"/>
    <path class="cls-15" d="M92.1,88.42c-.03.82-.53,1.46-1.4,1.43-.82-.03-1.29-.68-1.26-1.52.03-.84.55-1.46,1.41-1.43.79.03,1.29.64,1.25,1.52ZM90,88.34c-.02.6.25,1.04.74,1.06.49.02.78-.38.81-1,.02-.63-.23-1.04-.74-1.06-.5-.02-.78.37-.81,1Z"/>
    <path class="cls-15" d="M92.51,87.03l.48.03.05-.82.54.03-.05.82.61.03-.03.43-.61-.04-.09,1.6c-.01.26.04.4.29.41.06,0,.16,0,.23,0l-.02.4c-.13.04-.31.04-.44.03-.46-.03-.64-.28-.61-.75l.1-1.71-.48-.03.02-.43Z"/>
    <path class="cls-15" d="M94.71,87.16l.54.04-.19,2.82-.54-.04.19-2.82ZM94.8,85.92l.54.04-.04.63-.54-.04.04-.63Z"/>
    <path class="cls-15" d="M98.24,89.4c-.16.47-.52.9-1.26.84-.79-.07-1.22-.67-1.14-1.56.07-.8.59-1.45,1.43-1.38.84.07,1.06.69,1.07,1.05l-.54-.05c-.04-.28-.19-.53-.58-.56-.47-.04-.77.34-.82.96-.05.63.17,1.05.63,1.09.34.03.54-.14.68-.44l.54.05Z"/>
    <path class="cls-15" d="M100.67,86.45l.54.07-.2,1.61c.15-.21.43-.4.93-.34.71.09,1.07.73.97,1.55-.1.84-.61,1.47-1.41,1.37-.44-.05-.65-.24-.76-.51-.02.13-.04.27-.06.35l-.52-.06c.04-.31.08-.62.12-.94l.38-3.1ZM102.36,89.28c.07-.58-.14-1-.61-1.06-.57-.07-.81.28-.89.93-.07.56.05,1.03.62,1.1.48.06.8-.32.88-.97Z"/>
    <path class="cls-15" d="M103.38,90.89l.58-4.03.54.08-.58,4.03-.54-.08Z"/>
    <path class="cls-15" d="M105.31,89.86c-.08.53.12.96.57,1.03.42.07.58-.12.7-.3l.54.09c-.17.34-.55.78-1.33.65-.88-.15-1.13-.91-1.02-1.63.14-.84.67-1.42,1.53-1.28.91.15,1.09.91.99,1.53-.01.09-.03.16-.05.23l-1.94-.32ZM106.78,89.72c.07-.43-.09-.82-.55-.89-.47-.08-.72.21-.84.67l1.39.23Z"/>
    <path class="cls-15" d="M108.09,89.51c.05-.24.1-.49.13-.7l.52.1c0,.08-.05.36-.06.44.15-.2.43-.44.96-.33.53.1.86.51.72,1.24l-.35,1.78-.53-.1.34-1.71c.08-.4-.02-.7-.43-.78-.48-.09-.76.22-.87.76l-.29,1.48-.53-.1.41-2.07Z"/>
    <path class="cls-15" d="M114.07,88.79l-.74,3.19c-.06.26-.12.51-.17.77l-.51-.12c0-.08.04-.28.06-.38-.2.24-.51.34-.95.24-.71-.16-1.01-.84-.81-1.68.2-.85.81-1.36,1.58-1.18.47.11.64.35.68.51l.35-1.48.53.12ZM111.49,90.93c-.15.64.07,1.05.49,1.15.62.14.85-.29.99-.86.14-.58.11-.99-.49-1.13-.47-.11-.84.2-.99.83Z"/>
    <path class="cls-15" d="M118.08,92.68c-.24.79-.88,1.29-1.71,1.04-.79-.24-1.08-.98-.84-1.79.24-.81.89-1.28,1.72-1.04.76.23,1.09.94.83,1.79ZM116.07,92.08c-.17.58-.01,1.07.45,1.21.47.14.85-.17,1.03-.77.18-.6.03-1.07-.45-1.21-.48-.14-.85.16-1.03.77Z"/>
    <path class="cls-15" d="M118.38,94.28l.77-2.26-.42-.14.14-.41.42.14.1-.3c.17-.5.52-.86,1.11-.66.1.03.24.09.29.14l-.15.43c-.05-.03-.14-.07-.21-.1-.26-.09-.41.03-.54.4l-.09.27.52.18-.14.41-.52-.18-.77,2.26-.52-.17Z"/>
    <path class="cls-15" d="M121.84,92.51l.44.18.31-.76.51.2-.31.76.57.23-.16.4-.57-.23-.6,1.49c-.1.24-.08.39.15.48.06.02.15.06.22.07l-.15.37c-.14,0-.3-.06-.43-.12-.43-.17-.52-.47-.34-.91l.64-1.59-.44-.18.16-.4Z"/>
    <path class="cls-15" d="M123.63,94.89c-.22.48-.14.96.28,1.15.38.18.59.04.76-.1l.5.23c-.25.28-.74.61-1.46.27-.81-.38-.85-1.18-.54-1.84.36-.77,1.02-1.19,1.81-.83.84.39.81,1.17.55,1.74-.04.08-.07.14-.11.21l-1.78-.83ZM125.07,95.15c.18-.4.13-.81-.29-1.01-.43-.2-.75.01-.99.42l1.28.59Z"/>
    <path class="cls-15" d="M127.58,97.67c-.13.23-.25.5-.28.58l-.45-.25c.01-.06.06-.19.13-.33-.18.11-.48.21-.95-.05-.58-.33-.62-.85-.41-1.22.31-.55.89-.56,1.62-.15.16.09.32.18.41.23l.11-.2c.12-.21.19-.49-.25-.74-.39-.22-.56-.07-.71.1l-.46-.26c.23-.34.67-.6,1.39-.2.61.35.81.78.5,1.35l-.64,1.15ZM127.47,96.78c-.07-.04-.25-.14-.38-.21-.48-.27-.79-.27-.98.06-.13.24-.07.51.22.68.56.31.85-.02,1.09-.45l.04-.08Z"/>
  </g>
  <g>
    <path class="cls-9" d="M33.3,70c.4-.79.77-1.49,1.1-2.1.34-.61.65-1.15.94-1.61.29-.46.57-.85.83-1.18.26-.32.52-.59.78-.8.26-.21.53-.37.8-.48.27-.11.56-.19.87-.23.74-.1,1.14.08,1.2.55,0,.06.01.14.01.22,0,.09,0,.17-.03.25-.02.08-.05.16-.1.22-.05.06-.11.1-.2.11-.06,0-.14-.01-.23-.06-.09-.05-.19-.11-.31-.17-.12-.06-.25-.11-.4-.16-.15-.04-.31-.06-.49-.03-.19.03-.4.14-.62.33-.22.19-.46.44-.7.75-.25.31-.5.66-.75,1.06-.26.4-.51.82-.77,1.26,1.11,1.8,2.08,3.37,2.92,4.69.84,1.32,1.59,2.41,2.25,3.26.66.85,1.24,1.47,1.76,1.86s1,.55,1.45.49c.08-.01.16-.03.23-.07.08-.03.14-.07.2-.11.07-.04.14-.08.2-.14l.22.3c-.09.07-.21.15-.36.26-.15.1-.34.2-.56.3-.22.1-.46.2-.73.29-.27.09-.56.15-.87.2-.43.06-.84.05-1.23-.04-.39-.08-.78-.25-1.17-.5-.39-.25-.79-.6-1.2-1.04-.41-.44-.84-.98-1.31-1.63-.47-.65-.97-1.41-1.51-2.29-.54-.88-1.13-1.88-1.78-3.02l-.25.52.72,5.2c.06.43-.01.76-.21.99-.2.23-.53.37-1,.44-.47.07-.83.02-1.09-.15-.25-.17-.41-.46-.47-.9l-1.41-10.14c-.02-.12-.04-.22-.08-.29-.04-.07-.09-.12-.14-.16-.06-.04-.12-.05-.19-.06-.07,0-.15,0-.23.01-.12.02-.27.06-.45.12-.18.06-.36.15-.55.26-.19.11-.38.23-.57.38-.19.14-.35.3-.49.47-.14.17-.25.35-.32.54s-.1.39-.07.6c.02.18.07.32.13.42.06.1.13.17.2.22.07.04.14.07.2.07.07,0,.11,0,.14,0,.14-.02.25-.06.34-.12.08-.06.16-.12.22-.19.07-.06.13-.12.19-.18.06-.06.13-.09.21-.1.07,0,.14,0,.22.02.08.02.16.06.23.12s.14.14.2.24c.06.1.1.23.12.39.03.22.01.42-.05.6s-.16.33-.28.46-.27.23-.44.31c-.17.08-.34.13-.52.15-.27.04-.52.02-.75-.04-.23-.06-.43-.16-.6-.31-.17-.14-.32-.32-.42-.53-.11-.21-.18-.44-.21-.68-.05-.39-.03-.75.06-1.09.1-.34.25-.66.46-.95.21-.29.46-.56.77-.8.3-.24.63-.45,1-.63.36-.18.75-.33,1.16-.46s.82-.21,1.23-.27c.46-.06.82-.07,1.09-.02.27.05.47.13.61.24.14.11.23.23.27.36.04.13.07.24.08.33l.53,3.85Z"/>
    <path class="cls-1" d="M43.15,68.64c-.18.02-.34.07-.49.13-.15.06-.27.13-.37.21-.1.08-.18.16-.23.25-.05.09-.07.16-.06.23.01.08.06.13.15.15.09.02.18.05.29.08.11.03.21.08.3.15.09.07.15.19.17.36.02.11,0,.22-.02.31-.03.1-.08.19-.15.27-.07.08-.15.15-.25.2-.1.05-.2.09-.31.1-.3.04-.55-.03-.76-.2-.21-.18-.34-.43-.38-.76-.04-.32,0-.61.14-.86.14-.25.33-.47.58-.66.25-.19.54-.34.88-.46.33-.12.67-.2,1.02-.25.41-.06.81-.07,1.2-.03.39.04.74.13,1.05.29s.58.37.79.65c.21.28.35.63.41,1.06l.62,4.47s.02.1.03.16c.01.06.03.11.06.15.03.04.06.08.11.11.05.03.11.03.19.02.1-.01.18-.06.25-.14.07-.08.14-.17.19-.25l.22.14c-.06.12-.14.26-.23.4-.09.15-.21.29-.35.43s-.31.26-.51.37c-.2.11-.44.18-.7.22-.33.05-.64-.01-.93-.17-.29-.16-.5-.44-.63-.84-.14.25-.29.46-.45.64-.16.18-.33.33-.51.45-.18.12-.36.22-.55.29-.19.07-.38.12-.57.14-.25.04-.5.03-.75-.02-.25-.05-.48-.14-.69-.29-.21-.15-.39-.35-.54-.61-.15-.26-.25-.59-.31-.98-.07-.48-.03-.89.12-1.22.15-.33.36-.62.64-.88.28-.25.61-.48.98-.68.37-.2.75-.41,1.14-.63.29-.16.49-.38.59-.64s.14-.52.11-.77c-.05-.39-.21-.69-.47-.89-.26-.2-.59-.28-.99-.22ZM44.89,71.94c-.02-.13-.07-.23-.17-.28-.09-.06-.21-.08-.34-.06-.19.03-.35.09-.51.2-.15.11-.28.25-.39.43-.1.18-.18.4-.22.65-.04.25-.04.53,0,.85.04.31.1.56.17.75.07.19.16.35.25.45.09.11.19.18.3.21.11.03.22.04.33.03.14-.02.26-.07.37-.16.11-.09.2-.19.28-.32.07-.12.13-.26.16-.4.03-.14.04-.29.02-.42l-.27-1.93Z"/>
    <path class="cls-11" d="M56.15,73.85c0,.07.01.15,0,.25,0,.1-.05.19-.12.29-.07.1-.18.19-.34.27-.16.08-.37.14-.65.18-.28.04-.5.04-.67,0-.17-.04-.3-.1-.4-.18-.09-.08-.16-.16-.19-.26-.03-.09-.06-.17-.06-.23l-.78-5.6c-.01-.07-.03-.15-.06-.22-.03-.07-.07-.14-.12-.2-.05-.06-.11-.1-.18-.13-.07-.03-.15-.04-.23-.03-.14.02-.28.08-.4.18-.13.1-.24.21-.34.33-.1.12-.19.24-.27.36-.07.12-.12.21-.15.26l.74,5.31c0,.07,0,.15,0,.25,0,.1-.05.2-.12.29-.07.1-.18.19-.33.27-.15.08-.37.14-.65.18-.28.04-.5.04-.67,0-.17-.04-.3-.1-.4-.18-.1-.08-.16-.16-.2-.25-.03-.09-.06-.17-.06-.23l-.85-6.11c-.02-.15-.08-.28-.16-.39-.09-.1-.22-.14-.38-.12-.09.01-.16.04-.22.08-.06.04-.12.1-.19.16l-.19-.18c.11-.12.23-.23.37-.35s.29-.23.45-.33c.16-.1.34-.18.54-.26.19-.08.4-.13.62-.16.34-.05.62-.03.82.06.21.09.36.2.48.35.11.15.19.3.23.47.04.17.07.31.09.43.21-.31.44-.6.7-.86.1-.11.22-.22.35-.33.13-.11.26-.21.4-.3.14-.09.28-.17.44-.23.15-.06.31-.11.47-.13.31-.04.58-.02.81.06.23.08.42.19.58.33.15.14.27.29.36.45.08.16.14.31.15.43.21-.31.45-.6.7-.86.1-.11.22-.22.34-.33.12-.11.26-.21.4-.3.14-.09.29-.17.44-.23.15-.06.3-.11.46-.13.31-.04.58-.02.81.06.23.08.43.21.59.38.16.17.28.36.38.59.09.22.16.45.19.68l.68,4.9s.02.1.03.15c.01.05.03.11.06.15.03.05.07.08.12.11.05.03.11.03.18.02.1-.01.19-.06.25-.14.07-.08.13-.16.19-.25l.21.14c-.06.12-.14.26-.24.41-.1.15-.23.3-.38.44-.15.14-.33.27-.54.39-.21.11-.45.19-.72.23-.23.03-.44.03-.62,0-.18-.04-.34-.1-.47-.19-.13-.09-.24-.2-.32-.33-.08-.13-.13-.28-.15-.44l-.73-5.29c-.01-.07-.03-.15-.06-.22-.03-.07-.07-.14-.12-.2-.05-.06-.11-.1-.18-.13s-.15-.04-.23-.03c-.14.02-.28.08-.41.18-.13.1-.24.21-.35.33-.1.12-.19.24-.26.36-.07.12-.12.21-.15.26l.74,5.31Z"/>
    <path class="cls-3" d="M64.42,72.7c0,.07,0,.15,0,.25-.01.1-.05.2-.13.29-.08.1-.19.19-.35.27-.16.08-.38.14-.66.18-.28.04-.5.04-.67,0-.17-.04-.3-.11-.38-.18-.09-.08-.15-.16-.18-.26-.03-.09-.05-.17-.06-.23l-1.42-10.22c-.02-.15-.08-.28-.16-.39-.09-.1-.22-.14-.38-.12-.09.01-.17.04-.23.08-.06.04-.13.09-.19.16l-.18-.17c.11-.12.23-.23.36-.35.13-.12.29-.23.45-.32.17-.1.35-.19.54-.26.19-.08.4-.13.62-.16.34-.05.62-.04.82.03.2.07.36.16.47.28.11.12.18.26.22.41.04.15.07.28.08.4l1.43,10.32Z"/>
    <path class="cls-12" d="M67.28,65.3c-.18.02-.34.07-.49.13-.15.06-.27.13-.37.21-.1.08-.18.16-.23.25-.05.09-.07.16-.06.23.01.08.06.13.15.15.09.02.18.05.29.08s.21.08.3.15c.09.07.15.19.17.36.02.11,0,.22-.02.31-.03.1-.08.19-.15.27-.07.08-.15.15-.25.2-.1.05-.2.09-.31.1-.3.04-.55-.03-.76-.2-.21-.18-.34-.43-.38-.76-.04-.32,0-.61.14-.86.14-.25.33-.47.58-.66.25-.19.54-.34.88-.46.33-.12.67-.2,1.02-.25.41-.06.81-.07,1.2-.03.39.04.74.13,1.05.29s.58.37.79.65c.21.28.35.63.41,1.06l.62,4.47s.02.1.03.16c.01.06.03.11.06.15.03.04.06.08.11.11.05.03.11.03.19.02.1-.01.18-.06.25-.14.07-.08.13-.17.19-.25l.22.14c-.06.12-.14.26-.23.4-.09.15-.21.29-.35.43s-.31.26-.51.37c-.2.11-.44.18-.7.22-.33.05-.64-.01-.93-.17-.29-.16-.5-.44-.63-.84-.14.25-.29.46-.45.64-.16.18-.33.33-.51.45-.18.12-.36.22-.55.29-.19.07-.38.12-.57.14-.25.04-.5.03-.75-.02-.25-.05-.48-.14-.69-.29-.21-.15-.39-.35-.54-.61-.15-.26-.25-.59-.31-.98-.07-.48-.03-.89.12-1.22.15-.33.36-.62.64-.88.28-.25.61-.48.98-.68.37-.2.75-.41,1.14-.63.29-.16.49-.38.59-.63.11-.26.14-.52.11-.77-.05-.39-.21-.69-.47-.89-.26-.2-.59-.28-.99-.22ZM69.02,68.59c-.02-.13-.07-.23-.17-.28-.09-.06-.21-.08-.34-.06-.19.03-.35.09-.51.2-.15.11-.28.25-.39.43-.1.18-.18.4-.22.65-.04.25-.04.53,0,.85.04.31.1.56.17.75.07.19.16.35.25.45.09.11.19.18.3.21.11.03.22.04.33.03.14-.02.26-.07.37-.16.11-.09.2-.19.28-.32.07-.12.13-.26.16-.4.03-.14.04-.29.02-.42l-.27-1.93Z"/>
    <path class="cls-7" d="M75.13,65.08c.16-.31.34-.59.56-.84.09-.11.19-.22.3-.32.11-.11.23-.21.36-.3.13-.09.27-.17.42-.23s.31-.11.47-.13c.35-.05.68-.02.98.07.3.1.57.3.8.59.24.3.44.7.61,1.22.17.52.32,1.17.42,1.95.11.77.13,1.44.07,2.02-.06.58-.17,1.09-.34,1.52-.17.43-.37.78-.62,1.07-.25.29-.5.53-.77.71-.27.18-.53.32-.78.41-.26.09-.48.15-.67.19l-.12-.31c.23-.09.43-.23.59-.41.16-.18.28-.47.36-.84s.11-.88.09-1.5c-.02-.62-.09-1.42-.23-2.38-.09-.67-.2-1.19-.31-1.58-.12-.39-.24-.68-.36-.88-.13-.19-.26-.32-.39-.37-.13-.05-.26-.06-.39-.05-.15.02-.28.08-.39.18-.11.1-.19.21-.27.32-.07.12-.13.23-.18.35s-.09.2-.12.26l.73,5.29c0,.07.01.15,0,.25,0,.1-.05.2-.12.3-.07.1-.18.19-.33.27-.15.08-.37.14-.65.18-.28.04-.51.04-.68,0-.17-.04-.31-.1-.4-.18-.09-.08-.16-.16-.19-.26-.03-.09-.06-.17-.06-.23l-1.42-10.22c-.02-.15-.08-.28-.16-.39-.09-.1-.22-.14-.38-.12-.09.01-.17.04-.23.08-.06.04-.13.09-.19.16l-.18-.17c.11-.12.23-.23.36-.35.13-.12.28-.23.45-.32.17-.1.35-.19.54-.26.19-.08.4-.13.62-.16.34-.05.62-.04.82.03.2.07.36.16.47.28.11.12.18.26.22.41.04.15.07.28.08.4l.6,4.3Z"/>
    <path class="cls-6" d="M94.57,63.94l-1.21.17.69,4.95c.11.76.07,1.45-.11,2.05-.18.61-.47,1.13-.89,1.57-.41.44-.92.8-1.53,1.08-.61.28-1.29.47-2.03.57-.29.04-.57.05-.84.04s-.51-.04-.73-.1c-.21-.06-.39-.13-.53-.23s-.22-.22-.23-.36c-.01-.1-.01-.21,0-.31.01-.11.04-.21.09-.3.04-.09.1-.17.18-.24.07-.06.16-.1.26-.12.07,0,.13.01.18.07.05.06.11.12.17.21.06.08.14.17.22.27.08.1.18.19.29.26.11.08.25.13.4.18.15.04.34.05.56.02.43-.06.8-.19,1.11-.39.31-.2.56-.46.74-.78.18-.31.3-.68.36-1.09.06-.41.06-.86,0-1.33l-.07-.51c-.23.08-.46.15-.7.21-.24.06-.5.11-.8.15-.76.11-1.5.09-2.2-.05-.7-.14-1.33-.42-1.9-.84-.56-.42-1.04-.99-1.43-1.71s-.66-1.6-.81-2.65c-.1-.73-.12-1.41-.04-2.05.07-.64.21-1.23.43-1.76.21-.54.48-1.02.82-1.45.33-.43.71-.8,1.12-1.12.42-.32.87-.57,1.35-.77.48-.2.99-.33,1.5-.41.49-.07.95-.08,1.38-.05.43.03.82.12,1.16.25.34.13.61.32.83.56s.35.52.39.85c.02.15.02.31-.01.49-.03.17-.09.34-.17.49s-.19.28-.34.39c-.14.11-.31.18-.52.2-.24.03-.43-.01-.56-.13-.13-.12-.25-.28-.33-.47-.09-.19-.16-.41-.22-.65-.06-.24-.14-.45-.24-.65-.1-.19-.22-.35-.38-.47-.16-.12-.37-.16-.63-.12-.2.03-.41.11-.65.24-.23.13-.46.31-.69.55-.22.24-.44.54-.64.89-.2.35-.36.76-.49,1.23-.13.47-.21,1-.24,1.59-.04.59,0,1.25.1,1.97.11.8.26,1.47.43,2.02.18.55.38,1,.6,1.36.22.36.45.63.7.82.25.19.49.33.74.41s.48.12.72.12c.23,0,.44-.01.63-.04.2-.03.37-.07.53-.12.16-.05.3-.12.42-.19l-.59-4.25-1.48.21-.1-.75,5.11-.71.1.75Z"/>
    <path class="cls-4" d="M94.86,65.06c-.1-.69-.08-1.31.05-1.86.13-.55.34-1.02.62-1.41.29-.39.64-.71,1.06-.95.42-.24.87-.39,1.36-.45.49-.07.96-.05,1.43.05.47.1.89.29,1.27.58.38.29.71.67.98,1.15.27.48.45,1.07.55,1.77.1.69.08,1.32-.05,1.88-.13.56-.33,1.05-.62,1.46-.28.41-.64.74-1.05.99-.42.25-.87.41-1.36.47-.49.07-.96.04-1.43-.07-.47-.12-.89-.32-1.28-.63-.38-.3-.71-.7-.98-1.2-.27-.49-.46-1.09-.55-1.78ZM99.72,64.3c-.06-.42-.13-.83-.21-1.22-.08-.39-.19-.73-.32-1.03s-.28-.52-.47-.68c-.18-.16-.4-.22-.66-.19-.26.04-.45.16-.59.38-.13.21-.22.48-.26.81-.04.33-.05.69-.02,1.1.03.41.07.82.13,1.24.06.42.13.83.21,1.23.08.4.19.75.32,1.06.13.3.29.54.47.71.19.17.41.24.67.2.26-.04.45-.16.58-.39.13-.22.22-.5.25-.84.04-.34.04-.72.02-1.13-.03-.42-.07-.84-.13-1.26Z"/>
    <path class="cls-10" d="M106.1,66.92c0,.07,0,.15,0,.25-.01.1-.05.2-.13.29-.08.1-.19.19-.35.27-.16.08-.38.14-.66.18-.28.04-.5.04-.67,0-.17-.04-.3-.11-.38-.18-.09-.08-.15-.16-.18-.26-.03-.09-.05-.17-.06-.23l-1.42-10.22c-.02-.15-.08-.28-.16-.39-.09-.1-.22-.14-.38-.12-.09.01-.17.04-.23.08-.06.04-.13.09-.19.16l-.18-.17c.11-.12.23-.23.36-.35.13-.12.29-.23.45-.32.17-.1.35-.19.54-.26.19-.08.4-.13.62-.16.34-.05.62-.04.82.03.2.07.36.16.47.28.11.12.18.26.22.41.04.15.07.28.08.4l1.43,10.32Z"/>
    <path class="cls-8" d="M110.93,59.03c-.17-.51-.38-.99-.62-1.42-.24-.43-.51-.8-.81-1.09-.3-.3-.62-.52-.96-.67-.35-.15-.7-.19-1.07-.14-.21.03-.4.08-.56.16-.16.08-.3.16-.42.25-.12.09-.21.17-.28.25-.07.08-.13.13-.16.17l-.24-.25c.1-.18.24-.36.4-.52.16-.17.34-.32.55-.45.2-.13.42-.24.65-.33.23-.09.47-.15.7-.19.78-.11,1.49-.03,2.13.23.64.26,1.2.67,1.68,1.24s.88,1.28,1.21,2.13c.32.85.56,1.82.71,2.9.12.87.14,1.65.05,2.33-.09.68-.26,1.27-.53,1.76-.27.49-.62.88-1.05,1.17-.44.29-.95.47-1.53.56-.41.06-.83.04-1.27-.05-.44-.09-.85-.27-1.24-.55-.39-.28-.72-.67-1.01-1.17-.29-.5-.49-1.14-.6-1.91-.09-.67-.08-1.27.04-1.81.12-.54.31-1.02.57-1.42.27-.4.6-.72.99-.97.39-.25.82-.4,1.28-.46.18-.02.34-.03.49-.02.15,0,.28.03.39.06.11.03.21.06.3.1.09.04.16.08.23.12ZM111.51,62.5c0-.06-.02-.18-.05-.35s-.06-.38-.1-.61c-.04-.23-.09-.47-.16-.72-.06-.25-.14-.49-.23-.7-.15-.15-.31-.27-.48-.38-.17-.11-.38-.15-.62-.11-.41.06-.68.37-.8.93-.12.57-.1,1.41.06,2.54.07.5.15.95.26,1.35.1.41.22.75.35,1.03.13.28.28.5.45.64.17.14.35.2.55.17.84-.12,1.1-1.38.77-3.79Z"/>
  </g>
</svg>