<?xml version="1.0" encoding="UTF-8"?>
<svg id="Layer_1" data-name="Layer 1" xmlns="http://www.w3.org/2000/svg" viewBox="0 0 141.73 141.73">
  <defs>
    <style>
      .cls-1 {
        fill: #2e4742;
      }
    </style>
  </defs>
  <g>
    <path class="cls-1" d="M68.61,38.63c-.18,2.26.26,3.63,1.19,6.03,1.49,3.82-.53,6.67-2.91,8.06-1.3.76-1.62.91-2.15,1.16-.32.15-.71.34-1.46.73-1.11.58-1.89,1.14-2.56,1.72.22.89.41,1.57.53,2,.35,1.25,1.17,2.84,1.71,3.51.15-.18.29-.34.42-.51.78-.95,1.45-1.77,3.62-3.22.95-.64,2.08-1.26,3.27-1.92,1.46-.81,2.97-1.65,4.08-2.48,1.8-1.36,4.47-3.83,3.97-9.73,0,0-.51-6.01-.8-8.4-.31-2.57.65-11.51.67-13.58.02-2.07.03-4.08-1.52-4.24-1.55-.16-1.44,2.1-1.44,2.1,0,0-.02,4.48-.57,9.74-.54,5.23-.65,8.28-.8,10.87-.03.44-1.29,1.14-1.14-1.06.15-2.2.5-13.78.5-13.78,0,0,.14-8.1.05-9.1-.09-1-.95-2.11-2.16-1.46-1.21.65-.71,3.04-.73,5.55-.01,2.43-1.39,13.51-1.76,18.02Z"/>
    <path class="cls-1" d="M63.95,38.31c-.03,1.36.13,2.19.43,3.26.2.7.42,1.49.56,2.52.33,2.48-1.05,4.6-4.09,6.3-.45.25-.85.49-1.22.73.23,1.39.48,2.64.73,3.72.61-.47,1.33-.95,2.26-1.43.77-.4,1.18-.59,1.51-.75.5-.24.8-.38,2.04-1.1.92-.54,3.81-2.59,2.33-6.41-.99-2.53-1.49-4.09-1.28-6.58.15-1.76.67-5.67.8-7.02.16-1.63.46-5.2.74-9.74.16-2.63.23-4.32-.61-4.63-2.12-.78-2.27,2.37-2.27,2.37-.09,3.9-1.02,9.81-1.02,9.81-.59,4.82-.86,7.22-.9,8.96Z"/>
    <path class="cls-1" d="M82.7,38.95c-.1-1.28-.1-3.42,0-5.03.06-1.14-1.44-1.66-2.12-.73-.18.24-.35.53-.53.88-1.18,2.39-.97,4.56-.94,4.86,0,.02.56,3.84.59,5.13.2,7.08-2.55,9.24-4.51,10.73-1.18.89-2.74,1.76-4.24,2.59-1.16.65-2.26,1.26-3.17,1.86-1.99,1.33-2.57,2.04-3.31,2.95-.16.19-.33.4-.51.62,6.42,5.43,12.24,1.57,13.96-.69,1.92-2.51,2.85-4.51,3.6-6.59.95-2.63,1.77-5.88,1.74-8.53-.03-2.63-.41-6.17-.55-8.03Z"/>
    <path class="cls-1" d="M60.15,49.21c2.58-1.45,3.66-3.02,3.4-4.95-.12-.93-.32-1.65-.52-2.33-.31-1.09-.6-2.13-.48-3.72,0,0,1.19-9.53,1.04-12.61-.04-.88-.23-1.5-.95-1.54-.6-.03-1.08.89-1.17,1.24-.37,1.48-.37,1.85-2.06,11.51-.78,4.42-.54,9-.01,12.82.24-.14.48-.29.74-.43Z"/>
  </g>
  <g>
    <g>
      <path class="cls-1" d="M24.3,107.61l-.09,1.37h-13.74c-2.38,0-3.39.04-3.39.04l.4-.75c.88-1.67,1.1-1.98,1.1-15.19s-.18-12.99-1.1-14.75l-.4-.75s1.14.09,4.05.09,4.05-.09,4.05-.09l-.44.75c-.88,1.67-1.1,2.2-1.1,14.36v13.17h3.35c5.46,0,6.16-1.28,7.79-3.66,0,0-.22,1.63-.48,5.42Z"/>
      <path class="cls-1" d="M54.95,78.32c-.84,1.54-1.1,2.03-1.1,12.95v2.91c0,5.5-.09,8.32-1.63,10.61-1.72,2.82-4.67,4.62-10.17,4.62-4.53,0-7.93-1.01-9.99-3.74-1.63-2.11-2.07-4.36-2.07-9.73v-3.48c0-11.8-.18-12.38-1.1-14.14l-.4-.75s1.23.09,4.05.09,4.05-.09,4.05-.09l-.4.75c-.84,1.54-1.1,2.03-1.1,12.95v6.12c0,1.32.09,3.04.35,4.05.79,3.04,2.95,4.67,6.87,4.67s6.12-1.59,6.91-4.8c.22-.92.31-2.38.31-3.61v-4.62c0-12.82-.18-12.99-1.1-14.75l-.4-.75s1.01.09,3.65.09,3.65-.09,3.65-.09l-.4.75Z"/>
      <path class="cls-1" d="M81.72,108.93c-3.52,0-4.93.09-4.93.09.66-.57.97-1.28.97-1.98,0-1.23-.26-1.85-2.64-5.55l-3.7-5.77-3.26,5.68c-2.2,3.88-2.47,4.4-2.47,5.64,0,.7.31,1.41.97,1.98,0,0-1.81-.09-4.32-.09-3.17,0-4.58.09-4.58.09,1.81-1.28,2.38-1.98,6.47-8.41l5.2-8.02-4.27-6.61c-4.14-6.43-4.67-7.13-6.47-8.41,0,0,1.59.09,5.2.09s4.98-.09,4.98-.09c-.7.57-.97,1.28-.97,1.98,0,1.23.26,1.85,2.64,5.55l2.51,3.92,2.16-3.83c2.25-3.88,2.51-4.4,2.51-5.64,0-.7-.31-1.41-.97-1.98,0,0,1.67.09,4.23.09,3.17,0,4.58-.09,4.58-.09-1.76,1.28-2.38,1.98-6.43,8.41l-4.01,6.25,5.37,8.37c4.09,6.43,4.67,7.14,6.47,8.41,0,0-1.58-.09-5.24-.09Z"/>
      <path class="cls-1" d="M116.42,108.93c-2.82,0-4.05.09-4.05.09l.44-.75c.88-1.5,1.1-2.03,1.1-15.19v-12.29c-.04.18-.57,1.98-1.23,3.61l-8.32,19.69-8.19-19.55c-.7-1.59-1.23-3.48-1.28-3.66l-.04,12.64c0,12.82.18,12.95,1.14,14.75l.4.75s-1.19-.09-3.43-.09-3.3.09-3.3.09l.4-.75c.84-1.63,1.06-1.98,1.06-15.19s-.13-12.99-1.06-14.75l-.4-.75s1.76.09,4.49.09c2.55,0,4.01-.13,4.01-.13l6.3,15.02c.4.97.48,1.41.53,1.54,0-.04.09-.44.57-1.5l6.38-14.97s1.63.09,4.14.09c2.64,0,4.23-.13,4.23-.13l-.4.75c-.88,1.63-1.1,1.98-1.1,15.19s.18,12.99,1.1,14.75l.4.75s-1.06-.09-3.87-.09Z"/>
      <path class="cls-1" d="M130.68,108.93c-2.86,0-4.05.09-4.05.09l.4-.75c.88-1.67,1.1-1.98,1.1-15.19s-.18-12.99-1.1-14.75l-.4-.75s1.14.09,4.01.09,4.01-.09,4.01-.09l-.4.75c-.88,1.67-1.1,1.98-1.1,15.19s.18,12.99,1.1,14.75l.4.75s-1.19-.09-3.96-.09Z"/>
    </g>
    <g>
      <path class="cls-1" d="M23.11,126.69v-8.94h5.74v1.6h-3.83v2.03h3.25v1.54h-3.25v2.16h4.02v1.6h-5.93Z"/>
      <path class="cls-1" d="M37.34,126.35v-1.84c.62.32,1.44.6,2.25.65.29.01.56,0,.79-.05.68-.1,1.08-.36,1.08-.79,0-.6-.53-.91-1.76-1.35-1.56-.57-2.48-1.23-2.48-2.78s1.32-2.61,3.24-2.61c.89,0,1.77.2,2.33.45v1.76c-.52-.31-1.36-.55-2.18-.55-.92,0-1.51.36-1.51.93,0,.52.48.88,1.7,1.34,1.56.61,2.53,1.27,2.53,2.77,0,1.61-1.22,2.58-3.32,2.58-1.02,0-2.01-.22-2.65-.51Z"/>
      <path class="cls-1" d="M55.39,119.35v7.33h-1.91v-7.33h-2.49v-1.6h6.91v1.6h-2.51Z"/>
      <path class="cls-1" d="M70.52,117.62h.07l4.34,9.07h-2l-.72-1.58h-3.34l-.69,1.58h-2l4.33-9.07ZM71.64,123.77c-.41-.93-.81-1.87-1.08-2.66-.26.62-.73,1.81-1.1,2.66h2.18Z"/>
      <path class="cls-1" d="M87.63,119.35v7.33h-1.91v-7.33h-2.49v-1.6h6.91v1.6h-2.51Z"/>
      <path class="cls-1" d="M98.32,126.69v-8.94h5.74v1.6h-3.83v2.03h3.25v1.54h-3.25v2.16h4.02v1.6h-5.93Z"/>
      <path class="cls-1" d="M112.04,126.35v-1.84c.62.32,1.44.6,2.25.65.29.01.56,0,.79-.05.68-.1,1.08-.36,1.08-.79,0-.6-.53-.91-1.76-1.35-1.56-.57-2.48-1.23-2.48-2.78s1.32-2.61,3.24-2.61c.89,0,1.77.2,2.33.45v1.76c-.52-.31-1.36-.55-2.18-.55-.92,0-1.51.36-1.51.93,0,.52.48.88,1.7,1.34,1.56.61,2.53,1.27,2.53,2.77,0,1.61-1.22,2.58-3.32,2.58-1.02,0-2.01-.22-2.65-.51Z"/>
    </g>
    <path class="cls-1" d="M12.65,122.61s-1.13.93-1.48,1.27c-.3.3-1.1,1.31-1.1,1.31-.09.09-.24.09-.33,0,0,0-.94-1.08-1.28-1.42-.3-.3-1.3-1.16-1.3-1.16-.09-.09-.09-.24,0-.33,0,0,1.05-.84,1.35-1.14.35-.35,1.23-1.44,1.23-1.44.09-.09.24-.09.33,0,0,0,.78.97,1.08,1.27.35.35,1.5,1.31,1.5,1.31.09.09.09.24,0,.33Z"/>
    <path class="cls-1" d="M134.52,122.61s-1.13.93-1.48,1.27c-.3.3-1.1,1.31-1.1,1.31-.09.09-.24.09-.33,0,0,0-.94-1.08-1.28-1.42-.3-.3-1.3-1.16-1.3-1.16-.09-.09-.09-.24,0-.33,0,0,1.05-.84,1.35-1.14.35-.35,1.23-1.44,1.23-1.44.09-.09.24-.09.33,0,0,0,.78.97,1.08,1.27.35.35,1.5,1.31,1.5,1.31.09.09.09.24,0,.33Z"/>
  </g>
</svg>