<?xml version="1.0" encoding="UTF-8"?>
<svg id="Layer_1" data-name="Layer 1" xmlns="http://www.w3.org/2000/svg" viewBox="0 0 141.73 141.73">
  <defs>
    <style>
      .cls-1 {
        fill: #464d3f;
      }
    </style>
  </defs>
  <g>
    <path class="cls-1" d="M6.38,79.65l.05,13.59h-2.12s-.06-17.01-.06-17.01h2.21s6.3,9.21,6.3,9.21l6.19-9.26h2.16s.06,17.01.06,17.01h-2.12s-.05-13.61-.05-13.61l-5.88,8.68h-.83s-5.94-8.61-5.94-8.61Z"/>
    <path class="cls-1" d="M33.55,76.13l7.06,17h-2.29s-2.01-4.92-2.01-4.92l-7.22.02-1.98,4.94h-2.24s6.97-17.04,6.97-17.04h1.7ZM29.87,86.26l5.67-.02-2.87-7.07-2.8,7.09Z"/>
    <path class="cls-1" d="M46.44,83.41l7.1-7.34h2.72s-7.44,7.68-7.44,7.68l8.08,9.33h-2.75s-6.76-7.9-6.76-7.9l-.95.98.02,6.95h-2.16s-.06-17.01-.06-17.01h2.16s.02,7.31.02,7.31Z"/>
    <path class="cls-1" d="M67.62,76.02l7.06,17h-2.29s-2.01-4.92-2.01-4.92l-7.22.02-1.98,4.94h-2.24s6.97-17.04,6.97-17.04h1.7ZM63.93,86.15l5.67-.02-2.87-7.07-2.8,7.09Z"/>
    <path class="cls-1" d="M80.48,75.98l.06,17.02h-2.16s-.06-17.01-.06-17.01h2.16Z"/>
    <path class="cls-1" d="M86.08,75.96l5.3-.02c.78,0,1.5.1,2.15.3.66.2,1.22.49,1.68.88.46.39.83.86,1.09,1.42.26.56.39,1.19.4,1.88,0,.81-.17,1.51-.5,2.11-.34.59-.85,1.05-1.53,1.38.99.32,1.75.85,2.28,1.57.53.73.8,1.6.8,2.62,0,.76-.13,1.44-.41,2.04-.27.6-.66,1.11-1.16,1.52-.5.42-1.11.73-1.83.95-.72.22-1.52.33-2.39.34l-5.81.02-.06-17.02ZM91.38,83.21c.96,0,1.73-.24,2.31-.71.58-.47.87-1.13.87-1.97s-.3-1.52-.88-1.98c-.59-.46-1.36-.69-2.34-.69h-3.09s.02,5.36.02,5.36h3.11ZM91.91,91.04c1.12,0,2.01-.27,2.66-.79.65-.52.98-1.26.98-2.22s-.34-1.65-1.02-2.17c-.67-.52-1.57-.79-2.69-.78h-3.57s.02,5.97.02,5.97h3.62Z"/>
    <path class="cls-1" d="M109.01,75.88l7.06,17h-2.29s-2.01-4.92-2.01-4.92l-7.22.02-1.98,4.94h-2.24s6.97-17.04,6.97-17.04h1.7ZM105.32,86.01l5.67-.02-2.87-7.07-2.8,7.09Z"/>
    <path class="cls-1" d="M121.93,92.86h-2.16s-.06-17.01-.06-17.01l4.98-.02c.79,0,1.53.1,2.2.32.67.22,1.25.53,1.74.94.49.41.87.93,1.14,1.54.27.62.41,1.31.41,2.09,0,.66-.1,1.26-.31,1.8-.21.54-.5,1.01-.87,1.41-.37.41-.82.74-1.33,1.01-.52.27-1.08.46-1.7.58l5.37,7.3h-2.55s-5.23-7.2-5.23-7.2h-1.65s.02,7.23.02,7.23ZM121.9,83.72h2.8c.97-.01,1.77-.27,2.38-.8.61-.52.92-1.25.92-2.19,0-.96-.31-1.68-.93-2.17-.62-.49-1.41-.74-2.39-.73h-2.8s.02,5.89.02,5.89Z"/>
    <path class="cls-1" d="M137.38,75.79l.06,17.02h-2.16s-.06-17.01-.06-17.01h2.16Z"/>
  </g>
  <g>
    <path class="cls-1" d="M6.84,107.16c-1.35,0-2.48-1.03-2.49-2.4,0-1.38,1.15-2.44,2.51-2.44s2.48,1.01,2.48,2.4c0,1.41-1.11,2.44-2.5,2.44ZM6.86,102.87c-1.07,0-1.97.8-1.97,1.89,0,1.07.9,1.86,1.95,1.85,1.07,0,1.94-.79,1.94-1.89,0-1.08-.86-1.86-1.92-1.86Z"/>
    <path class="cls-1" d="M15.2,104.82c-.23.19-.42.24-.7.29l1.08,1.91h-.62s-1.08-1.9-1.08-1.9h-1.84s0,1.92,0,1.92h-.54s-.02-4.62-.02-4.62h2.31c.75-.01.96.01,1.31.24.36.23.56.68.57,1.1s-.17.8-.48,1.07ZM14.13,102.95h-2.09s0,1.63,0,1.63h1.99c.41,0,.61-.02.79-.15.2-.14.31-.41.31-.66,0-.61-.47-.82-1.01-.82Z"/>
    <path class="cls-1" d="M20.69,107c-.28.08-.56.12-.85.12-1.42,0-2.56-.95-2.57-2.41,0-1.45,1.15-2.42,2.55-2.42.82,0,1.39.29,1.97.85l-.37.39c-.49-.45-.92-.7-1.61-.7-1.09,0-2.01.75-2,1.88s.93,1.86,2.03,1.86c.19,0,.38-.02.56-.06.4-.09.95-.34.95-.83v-.65s-1.6,0-1.6,0v-.54s2.14,0,2.14,0v1.23c0,.67-.62,1.1-1.2,1.28Z"/>
    <path class="cls-1" d="M27.33,106.98l-.76-1.59h-2.23s-.72,1.6-.72,1.6h-.61s2.19-4.62,2.19-4.62h.56s2.18,4.61,2.18,4.61h-.61ZM25.48,103.03l-.86,1.83h1.71s-.85-1.83-.85-1.83Z"/>
    <path class="cls-1" d="M33.17,106.96l-3.02-3.75v3.76s-.53,0-.53,0l-.02-4.62h.54s3.02,3.8,3.02,3.8v-3.81s.54,0,.54,0l.02,4.62h-.55Z"/>
    <path class="cls-1" d="M36.19,106.95l-.02-4.62h.54s.02,4.62.02,4.62h-.54Z"/>
    <path class="cls-1" d="M41.46,107.05c-1.42,0-2.58-.95-2.58-2.41,0-1.43,1.09-2.43,2.49-2.44.85,0,1.63.31,2.24.91l-.39.38c-.53-.47-1.13-.76-1.88-.75-1.05,0-1.92.82-1.92,1.89,0,1.17.95,1.89,2.07,1.88.74,0,1.31-.26,1.82-.8l.37.41c-.65.65-1.28.93-2.22.93Z"/>
  </g>
  <g>
    <path class="cls-1" d="M116.59,106.68v-4.23s.55,0,.55,0v4.23s-.55,0-.55,0Z"/>
    <path class="cls-1" d="M122.3,106.78c-.84,0-2.21-.21-2.22-1.31,0-.52.4-.88.85-1.05-.32-.23-.54-.5-.55-.91,0-.99,1.15-1.16,1.91-1.16s2.03.13,2.04,1.16c0,.41-.2.68-.54.91.47.22.85.55.85,1.11,0,1.1-1.56,1.26-2.35,1.27ZM123.05,104.79c-.23-.04-.45-.06-.68-.06-.45,0-1.71.12-1.71.77s1.29.71,1.71.7c.42,0,1.72-.08,1.71-.72,0-.44-.7-.64-1.03-.7ZM122.34,102.91c-.35,0-1.38.06-1.38.59,0,.59,1.06.66,1.46.66s1.35-.09,1.35-.64c0-.57-1.05-.6-1.43-.6Z"/>
    <path class="cls-1" d="M129.56,106.62c-.3.08-.61.12-.92.12-.96,0-1.36-.14-2.17-.63l.33-.47c.47.28,1.12.52,1.78.52.24,0,.47-.03.7-.08.39-.09,1.01-.34,1-.82,0-.64-.98-.82-1.45-.81-.73,0-1.12.16-1.76.48l-.39-.33v-2.18s3.85-.01,3.85-.01v.57s-3.28.01-3.28.01v1.23c.59-.21.96-.33,1.59-.33.3,0,.61.04.89.13.59.19,1.12.62,1.13,1.28,0,.72-.67,1.16-1.3,1.33Z"/>
    <path class="cls-1" d="M134.89,106.72c-.35,0-.7-.06-1.04-.17-.36-.12-.58-.25-.88-.47l.33-.47c.58.39.9.53,1.6.53.95,0,1.99-.59,2.01-1.64-.79.41-1.17.52-2.05.52-.8,0-2.09-.28-2.09-1.3,0-.7.7-1.13,1.3-1.3.3-.08.61-.12.92-.12,1.28,0,2.48.73,2.49,2.12,0,1.41-1.28,2.29-2.59,2.29ZM135,102.88c-.23,0-.46.03-.68.08-.34.08-.97.32-.97.75,0,.61,1.05.75,1.48.74.85,0,1.24-.14,1.98-.56-.33-.76-1.03-1.02-1.81-1.02Z"/>
  </g>
  <g>
    <g>
      <path class="cls-1" d="M72.07,38.89c2.66,0,4.88,2.03,5.41,4.74.46-.87.72-1.85.72-2.91-.01-3.38-2.76-6.11-6.14-6.1-3.38.01-6.11,2.76-6.1,6.14,0,1.05.27,2.04.74,2.9.51-2.72,2.72-4.77,5.38-4.78Z"/>
      <path class="cls-1" d="M77.46,43.8l-.03-.15c-.53-2.73-2.78-4.71-5.35-4.7-2.57,0-4.81,2-5.32,4.73l-.03.15-.08-.14c-.49-.89-.74-1.91-.75-2.93-.01-3.41,2.75-6.19,6.16-6.2,3.41-.01,6.19,2.75,6.2,6.16,0,1.02-.25,2.04-.73,2.93l-.07.14ZM72.06,34.68c-3.35.01-6.06,2.74-6.05,6.09,0,.95.23,1.89.66,2.74.57-2.71,2.82-4.66,5.4-4.67s4.84,1.93,5.43,4.63c.42-.85.65-1.79.64-2.74-.01-3.35-2.74-6.06-6.09-6.05Z"/>
    </g>
    <g>
      <path class="cls-1" d="M60.37,47.45c.81-2.53,3.44-4.02,6.18-3.68-.68-.71-1.54-1.26-2.54-1.58-3.22-1.03-6.67.74-7.7,3.96-1.03,3.22.74,6.67,3.96,7.7,1,.32,2.02.37,2.99.19-2.43-1.32-3.7-4.06-2.88-6.59Z"/>
      <path class="cls-1" d="M62.17,54.2c-.65,0-1.3-.1-1.92-.3-1.57-.5-2.85-1.59-3.61-3.06-.75-1.47-.89-3.14-.39-4.71.5-1.57,1.59-2.85,3.06-3.61,1.47-.75,3.14-.89,4.71-.39.97.31,1.86.87,2.56,1.6l.11.11-.16-.02c-2.76-.34-5.33,1.19-6.12,3.64-.79,2.45.41,5.2,2.86,6.52l.14.08-.15.03c-.36.07-.73.1-1.1.1ZM62.11,41.95c-.94,0-1.88.23-2.75.67-1.44.74-2.51,2-3,3.54-.5,1.54-.36,3.19.38,4.63.74,1.44,2,2.51,3.54,3,.91.29,1.87.37,2.81.22-2.4-1.38-3.56-4.12-2.77-6.58.79-2.46,3.33-4.01,6.09-3.73-.67-.66-1.5-1.17-2.41-1.46-.62-.2-1.25-.3-1.88-.29Z"/>
    </g>
    <g>
      <path class="cls-1" d="M64.9,61.22c-2.16-1.56-2.76-4.51-1.59-7.02-.88.43-1.68,1.07-2.29,1.93-1.98,2.74-1.36,6.57,1.38,8.55,2.74,1.98,6.57,1.36,8.55-1.38.61-.85.98-1.81,1.11-2.78-2.01,1.9-5,2.26-7.16.71Z"/>
      <path class="cls-1" d="M65.99,65.9c-1.29,0-2.55-.4-3.62-1.17-1.34-.97-2.22-2.4-2.48-4.02-.26-1.63.12-3.26,1.09-4.6.6-.83,1.4-1.5,2.31-1.94l.14-.07-.07.14c-1.18,2.52-.52,5.44,1.57,6.95,2.09,1.51,5.07,1.21,7.09-.7l.11-.11-.02.16c-.13,1.01-.52,1.98-1.12,2.81-.97,1.34-2.4,2.22-4.02,2.48-.33.05-.65.08-.98.08ZM63.19,54.33c-.84.43-1.57,1.07-2.13,1.84-.95,1.31-1.33,2.92-1.07,4.52.26,1.6,1.13,3,2.44,3.95,1.31.95,2.92,1.33,4.52,1.07,1.6-.26,3-1.13,3.95-2.44.56-.77.93-1.67,1.07-2.6-2.06,1.85-5.02,2.11-7.11.6-2.09-1.51-2.78-4.41-1.67-6.94Z"/>
    </g>
    <g>
      <path class="cls-1" d="M79.4,61.18c-2.15,1.57-5.14,1.23-7.16-.66.13.97.5,1.93,1.12,2.77,2,2.73,5.83,3.32,8.56,1.33,2.73-2,3.32-5.83,1.33-8.56-.62-.85-1.42-1.49-2.3-1.91,1.19,2.5.6,5.46-1.54,7.03Z"/>
      <path class="cls-1" d="M78.33,65.86c-.33,0-.65-.02-.98-.07-1.63-.25-3.07-1.13-4.04-2.46-.6-.82-1-1.79-1.13-2.8l-.02-.16.11.11c2.03,1.9,5.01,2.17,7.09.65l.03.05-.03-.05c2.08-1.52,2.72-4.45,1.52-6.96l-.07-.14.14.07c.92.44,1.72,1.1,2.33,1.93.97,1.33,1.37,2.96,1.12,4.6-.25,1.63-1.13,3.07-2.46,4.04-1.06.78-2.32,1.19-3.62,1.19ZM72.31,60.67c.15.93.53,1.83,1.09,2.59.96,1.31,2.37,2.17,3.97,2.41,1.6.25,3.2-.14,4.51-1.1,1.31-.96,2.17-2.37,2.41-3.97.25-1.6-.14-3.2-1.1-4.51-.56-.77-1.3-1.4-2.14-1.82,1.13,2.53.46,5.43-1.62,6.95-2.08,1.52-5.05,1.28-7.12-.56Z"/>
    </g>
    <g>
      <path class="cls-1" d="M83.83,47.37c.83,2.53-.42,5.27-2.84,6.61.97.17,1.99.12,2.99-.21,3.21-1.06,4.96-4.52,3.91-7.73s-4.52-4.96-7.73-3.91c-1,.33-1.85.89-2.53,1.6,2.74-.36,5.38,1.11,6.21,3.64Z"/>
      <path class="cls-1" d="M82.08,54.13c-.37,0-.74-.03-1.1-.1l-.15-.03.14-.08c2.43-1.35,3.62-4.1,2.81-6.54h0c-.8-2.45-3.39-3.96-6.15-3.6l-.16.02.11-.11c.7-.74,1.58-1.3,2.55-1.62,1.57-.52,3.24-.39,4.72.36,1.47.74,2.57,2.02,3.08,3.59.52,1.57.39,3.24-.36,4.72-.74,1.47-2.02,2.57-3.59,3.08-.62.2-1.27.31-1.91.31ZM81.15,53.95c.93.14,1.9.06,2.8-.24,1.54-.51,2.79-1.58,3.52-3.03.73-1.45.85-3.09.35-4.63-.51-1.54-1.58-2.79-3.03-3.52-1.45-.73-3.09-.85-4.63-.35-.9.3-1.73.8-2.4,1.47,2.75-.29,5.3,1.24,6.11,3.69.81,2.45-.34,5.2-2.73,6.6Z"/>
    </g>
    <path class="cls-1" d="M72.14,60.47c-5.1.02-9.26-4.12-9.28-9.21-.02-5.1,4.12-9.26,9.21-9.28,5.1-.02,9.26,4.12,9.28,9.21.02,5.1-4.12,9.26-9.21,9.28ZM72.09,44.21c-3.87.01-7,3.17-6.99,7.03s3.17,7,7.03,6.99c3.87-.01,7-3.17,6.99-7.03-.01-3.87-3.17-7-7.03-6.99Z"/>
    <g>
      <circle class="cls-1" cx="72.11" cy="51.22" r="2.47"/>
      <path class="cls-1" d="M72.12,54.81c-1.98,0-3.59-1.6-3.59-3.57,0-1.98,1.6-3.59,3.57-3.59,1.98,0,3.59,1.6,3.59,3.57,0,1.98-1.6,3.59-3.57,3.59ZM72.11,49.87c-.74,0-1.35.61-1.34,1.35,0,.74.61,1.35,1.35,1.34.74,0,1.35-.61,1.34-1.35s-.61-1.35-1.35-1.34Z"/>
    </g>
  </g>
</svg>