<?xml version="1.0" encoding="UTF-8"?>
<svg id="Layer_1" data-name="Layer 1" xmlns="http://www.w3.org/2000/svg" viewBox="0 0 141.73 141.73">
  <defs>
    <style>
      .cls-1 {
        fill: #231f20;
      }
    </style>
  </defs>
  <g>
    <path class="cls-1" d="M96.35,107.08v.38c-.11.01-.21.03-.3.04-.88.09-1.23.48-1.18,1.38.04.68.12,1.36.18,2.04.19,1.96.37,3.92.57,5.89.04.38.1.76.17,1.14.15.76.48,1.04,1.26,1.14.08.01.17.03.27.05v.35h-4.68c-.09-.23-.06-.35.23-.4.81-.12,1.08-.39,1.05-1.2-.04-1-.14-2-.23-3-.14-1.47-.29-2.94-.43-4.4-.03-.25-.06-.51-.11-.83-.09.11-.15.16-.19.23-1.55,2.65-2.72,5.48-3.91,8.3-.22.51-.43,1.03-.67,1.53-.05.11-.2.24-.3.23-.1,0-.25-.14-.3-.25-.65-1.58-1.28-3.17-1.92-4.76-.81-2.01-1.61-4.02-2.42-6.03-.03-.06-.07-.12-.18-.18-.04.41-.09.81-.12,1.22-.14,2.16-.31,4.33-.4,6.5-.02.6.19,1.22.37,1.8.12.4.44.7.87.81.25.07.29.19.21.42h-4.25c-.04-.18-.1-.34.16-.44.55-.21.86-.66,1.06-1.19.55-1.43.86-2.92,1.06-4.43.16-1.25.28-2.51.41-3.77.04-.34.05-.69.05-1.04,0-.71-.28-1.02-.98-1.1-.08-.01-.17-.02-.27-.03v-.39h.48c.61,0,1.22,0,1.83,0,.83,0,.83,0,1.14.79,1.24,3.08,2.48,6.16,3.73,9.23.03.08.08.15.16.31.23-.54.44-1.02.65-1.51.93-2.22,1.86-4.43,2.77-6.65.26-.63.46-1.28.7-1.92.04-.1.17-.24.26-.24,1.05-.02,2.11-.01,3.21-.01Z"/>
    <path class="cls-1" d="M18.88,117.41c.29-.67.54-1.24.78-1.82.93-2.24,1.87-4.48,2.79-6.73.21-.5.36-1.03.56-1.53.04-.1.17-.24.26-.24,1.07-.02,2.13-.01,3.22-.01v.39c-.12.01-.23.02-.34.03-.87.09-1.23.51-1.17,1.39.06.75.14,1.51.21,2.26.14,1.53.28,3.06.44,4.59.08.74.15,1.48.29,2.21.16.8.45,1.03,1.26,1.12.27.03.36.13.27.4h-4.69v-.32s.06-.04.08-.04c1.01-.07,1.29-.56,1.22-1.57-.09-1.27-.24-2.54-.37-3.81-.12-1.18-.24-2.37-.36-3.55-.02-.16-.03-.31-.05-.47l-.1-.03c-.26.46-.51.92-.77,1.37-1.23,2.18-2.13,4.5-3.12,6.78-.27.63-.52,1.26-.81,1.88-.05.11-.2.21-.31.22-.09,0-.23-.12-.27-.22-.71-1.74-1.41-3.49-2.11-5.24-.74-1.84-1.48-3.67-2.23-5.51-.03-.08-.07-.15-.19-.23-.04.35-.09.71-.12,1.06-.15,2-.33,4-.43,6.01-.03.66.09,1.33.22,1.98.13.62.47,1.11,1.15,1.29.09.02.14.2.25.37h-4.46c.08-.17.1-.36.2-.4.62-.28.97-.79,1.15-1.4.33-1.17.68-2.34.87-3.53.27-1.7.44-3.42.58-5.13.1-1.22-.19-1.42-1.26-1.54v-.38c1,0,1.98,0,2.96.01.1,0,.25.18.3.31.56,1.36,1.11,2.73,1.67,4.1.76,1.88,1.53,3.76,2.29,5.65.02.05.05.11.12.27Z"/>
    <path class="cls-1" d="M48.45,108.68c0,.11-.02.21-.02.32.03,1.96.02,3.92.1,5.88.04,1.06.14,2.13.57,3.13.2.47.48.86.97,1.07.1.04.13.23.22.4h-4.24c.04-.15.04-.34.11-.38.91-.42,1.17-1.29,1.29-2.13.21-1.39.32-2.8.39-4.21.06-1.23.01-2.46.01-3.69,0-1.15-.27-1.46-1.41-1.59-.11-.27-.05-.4.27-.39.86.01,1.71,0,2.57.01.14,0,.32.11.41.22,2.24,2.99,4.47,5.98,6.7,8.97.07.09.14.17.26.33.02-.18.04-.28.04-.38-.01-1.4,0-2.81-.06-4.21-.05-1.14-.15-2.28-.57-3.36-.2-.51-.47-.95-1.01-1.17-.07-.03-.13-.17-.13-.26,0-.06.12-.16.19-.16,1.31,0,2.63,0,3.93,0,.1.25.04.37-.19.47-.77.34-.98,1.08-1.17,1.8-.34,1.36-.37,2.75-.38,4.14-.01,2,0,4,0,6,0,.13,0,.27,0,.4-.27.11-.42.03-.58-.18-2.64-3.58-5.3-7.16-7.95-10.74-.08-.11-.17-.21-.25-.32l-.08.02Z"/>
    <path class="cls-1" d="M70.08,106.77c2.43.03,4.23,1.11,5.36,3.23.81,1.52.84,3.17.28,4.77-.76,2.18-2.2,3.78-4.41,4.58-2.73.99-5.66.35-7.37-2.21-.75-1.13-.98-2.39-.9-3.73.18-3.22,2.87-5.86,5.54-6.46.49-.11,1.01-.13,1.51-.19ZM74.49,114.36c-.03-.35-.03-.7-.09-1.04-.43-2.59-1.64-4.57-4.26-5.47-1.73-.59-3.65,0-4.7,1.49-.72,1.01-.88,2.16-.83,3.36.1,2.55,1.22,4.48,3.47,5.72,1.59.88,3.49.72,4.81-.41,1.13-.96,1.59-2.21,1.59-3.67Z"/>
    <path class="cls-1" d="M100.58,119.39c.08-.11.15-.27.26-.32.67-.25,1.06-.78,1.34-1.39.47-1.03.88-2.07,1.3-3.12,1.01-2.55,2-5.1,3-7.65.09-.22.17-.38.47-.36.3.02.28.23.34.4,1.12,3.23,2.23,6.46,3.36,9.69.19.55.47,1.07.73,1.58.21.41.52.71.98.85.1.03.15.21.28.41-.85,0-1.57,0-2.29,0-.35,0-.7,0-1.04,0-.07,0-.17-.08-.2-.14-.02-.05.03-.2.08-.21.44-.11.32-.42.24-.68-.28-.86-.57-1.72-.88-2.57-.29-.8-.3-.79-1.18-.79-1.03,0-2.06,0-3.09,0-.12,0-.34.08-.36.16-.22.85-.49,1.69-.59,2.56-.1.86.35,1.27,1.23,1.29.23,0,.49-.03.35.37h-4.23s-.06-.05-.09-.08ZM106.3,109.38s-.07,0-.1,0c-.67,1.71-1.34,3.41-2.03,5.15h3.9c-.6-1.75-1.19-3.45-1.77-5.15Z"/>
    <path class="cls-1" d="M42.61,119.47h-3.43c.06-.15.08-.33.15-.35.34-.09.32-.34.25-.56-.36-1.08-.73-2.16-1.12-3.23-.04-.11-.22-.23-.34-.23-1.25-.02-2.51-.02-3.76,0-.12,0-.31.11-.33.2-.23.82-.48,1.64-.61,2.48-.12.8.38,1.29,1.19,1.33.1,0,.21-.02.29.02.07.03.13.13.14.2,0,.05-.09.12-.15.16-.05.03-.12,0-.18,0-1.22,0-2.43,0-3.65,0-.08,0-.17,0-.35-.02.08-.16.11-.35.19-.38.82-.26,1.23-.93,1.53-1.63.63-1.47,1.21-2.96,1.79-4.44.81-2.06,1.61-4.13,2.43-6.19.05-.12.24-.21.38-.25.25-.08.31.13.37.31.55,1.59,1.09,3.19,1.65,4.78.68,1.94,1.35,3.88,2.06,5.81.17.46.51.87.81,1.28.11.15.32.25.5.3.27.07.26.21.2.42ZM38.2,114.54c-.61-1.77-1.19-3.47-1.78-5.17h-.1c-.67,1.71-1.34,3.41-2.03,5.17h3.91Z"/>
    <path class="cls-1" d="M120.47,114.09c.38-.64.73-1.2,1.05-1.78.55-.99,1.06-1.99,1.27-3.12.02-.11.04-.22.05-.33.05-.89-.29-1.28-1.19-1.36-.11,0-.22-.02-.35-.03-.01-.07-.03-.13-.03-.18,0-.06.01-.12.03-.19h4.54c.01.11.02.22.03.31-.04.03-.05.06-.07.06-.65.1-1.12.49-1.46,1.01-.71,1.09-1.38,2.21-2.05,3.32-.5.83-1,1.66-1.46,2.5-.15.27-.24.6-.25.9-.03.78-.02,1.56,0,2.35,0,.91.36,1.34,1.25,1.52.26.05.25.18.18.39h-4.62c-.09-.22-.06-.35.23-.39.91-.12,1.2-.44,1.21-1.37,0-.92,0-1.84,0-2.76,0-.13-.02-.28-.08-.39-.93-1.86-1.87-3.72-2.82-5.57-.11-.22-.26-.42-.4-.63-.32-.46-.71-.82-1.31-.91v-.36h3.56c-.12.19-.18.34-.29.41-.24.16-.19.35-.09.55.63,1.24,1.25,2.48,1.88,3.72.31.62.62,1.24.94,1.86.06.13.14.25.25.45Z"/>
    <path class="cls-1" d="M131.62,106.09c.08,1.15-1.01,2.42-2.45,2.38-1.28-.04-2.37-1.12-2.37-2.42,0-1.34,1.11-2.4,2.5-2.39,1.3,0,2.41,1.17,2.31,2.43ZM131.2,106.08c.11-.96-.79-2.03-1.97-2.02-1.11,0-2.02.9-2.01,2,0,1.08.9,1.98,1.99,1.98,1.12,0,1.98-.85,1.98-1.96Z"/>
    <path class="cls-1" d="M129.93,106.94c-.35.14-.4-.11-.5-.29-.12-.22-.2-.48-.56-.32-.01.19-.03.4-.04.61-.03.02-.06.05-.08.07-.08-.08-.22-.15-.22-.23-.02-.54-.01-1.08-.01-1.64.36,0,.68-.04.99,0,.36.05.56.56.3.81-.26.25-.17.44-.03.67.06.09.1.19.16.31ZM128.85,106.01c.55.05.72-.04.7-.33-.02-.32-.27-.35-.48-.31-.43.08-.13.41-.22.64Z"/>
  </g>
  <g>
    <path class="cls-1" d="M69.56,129.42c-.41-1.24-.8-2.48-1.23-3.71-.13-.36-.35-.69-.53-1.04h1.68c-.27.17-.42.27-.63.4.3,1.01.6,2.03.9,3.06l.13.02c.31-.87.67-1.72.9-2.61.06-.23-.27-.57-.42-.85.72-.24.85-.18,1.08.53.31.96.64,1.92,1.08,2.9.24-1.02.48-2.04.72-3.06-.24-.11-.43-.2-.62-.29,0-.03,0-.06.01-.1h1.78c-.81.34-.82.97-.98,1.54-.31,1.08-.65,2.15-1.1,3.23-.41-1.1-.83-2.2-1.31-3.47-.48,1.25-.89,2.35-1.31,3.45-.05,0-.1,0-.15,0Z"/>
    <path class="cls-1" d="M127.51,129.14c.78-.11.65-.64.65-1.13,0-.76,0-1.51,0-2.27q0-.68-.62-1.02c.13-.05.22-.11.31-.11.66-.01,1.31-.03,1.97,0,1.22.05,1.95.72,2.06,1.82.15,1.51-.41,2.55-1.63,2.78-.86.16-1.75.13-2.63.18-.04-.08-.07-.16-.11-.24ZM128.78,129.02c.88,0,1.73-.02,2.18-.87.44-.84.47-1.76-.05-2.57-.48-.75-1.3-.71-2.12-.67v4.1Z"/>
    <path class="cls-1" d="M14.46,126.97c-.07,1.97-1.6,3-3.26,2.17-.73-.37-.98-1.04-1.04-1.76-.16-1.78.58-3.01,2.48-2.81.75.08,1.28.43,1.52,1.14.14.41.2.84.3,1.26ZM13.76,127.01c-.06-.47-.07-.83-.17-1.17-.19-.68-.61-.95-1.33-.95-.72,0-1.14.29-1.32.96-.21.78-.22,1.56.09,2.33.23.57.65.83,1.25.83.57,0,1.02-.23,1.2-.79.14-.43.21-.88.29-1.22Z"/>
    <path class="cls-1" d="M26.22,124.66c-.64.71-1.25,1.4-1.89,2.11.63.84,1.23,1.63,1.83,2.42-.47.32-.54.32-.86-.12-.38-.53-.74-1.09-1.15-1.6-.17-.2-.45-.31-.73-.49-.31,1.26-.17,1.83.54,2.25h-1.73c.7-.23.52-.82.53-1.32,0-.66,0-1.31,0-1.97,0-.49.16-1.06-.56-1.27h1.71c-1.1.44-.42,1.33-.63,2.09,1.21-.04,1.32-1.17,2.15-1.71-.25-.11-.4-.18-.56-.25.03-.04.06-.09.09-.13h1.28Z"/>
    <path class="cls-1" d="M4.27,129.21c.61-.2.57-.66.56-1.15-.02-.74-.02-1.47,0-2.21.01-.49.05-.96-.58-1.17h1.68c-1.07.45-.39,1.33-.61,2.08,1.21-.07,1.34-1.17,2.05-1.67-.18-.15-.29-.25-.49-.42h1.37c-.52.59-1.04,1.21-1.59,1.79-.23.25-.18.44,0,.67.53.69,1.06,1.38,1.6,2.09-.36.23-.65.25-.93-.18-.34-.54-.7-1.06-1.1-1.56-.18-.22-.48-.33-.8-.41.12.74-.57,1.62.63,2.13h-1.79Z"/>
    <path class="cls-1" d="M137.44,129.25h-3.24c.72-.28.51-.88.52-1.4,0-.62,0-1.23,0-1.85,0-.5.19-1.1-.55-1.34h3.31c-.07.42-.14.82-.21,1.22-.05,0-.11,0-.16,0-.09-.29-.17-.58-.26-.9h-1.47v1.74h1.73c0,.07.01.14.02.2-.51.39-1.17,0-1.76.23v1.87c.73-.27,1.72.27,2.07-.9v1.12Z"/>
    <path class="cls-1" d="M51.71,124.69c-.1.47-.18.82-.25,1.18-.25-.68-.65-1.08-1.38-1.04-.42.02-.72.2-.84.62-.12.43.13.68.47.86.42.22.86.4,1.28.62.52.28.91.67.8,1.32-.1.59-.63,1.06-1.32,1.08-.64.02-1.29-.06-2.01-.1.08-.5.14-.87.21-1.25.03,0,.07-.01.1-.02.06.15.07.34.18.43.3.25.64.61.97.63.37.02.84-.22,1.13-.49.29-.27.18-.69-.2-.91-.41-.24-.85-.42-1.28-.63-.77-.38-1.05-.84-.91-1.48.14-.62.64-.98,1.45-.98.51,0,1.02.08,1.62.13Z"/>
    <path class="cls-1" d="M101.75,124.7c-.1.46-.17.82-.25,1.17-.26-.67-.66-1.07-1.39-1.02-.41.03-.74.18-.85.62-.1.42.11.69.46.87.43.21.87.39,1.29.62.69.39.87.74.76,1.39-.09.52-.53.93-1.19,1-.43.05-.88.05-1.31,0-.79-.1-.81-.15-.67-.94.02-.14.05-.27.1-.5.09.17.15.25.18.35.28.86,1.37,1.14,2.03.53.36-.33.36-.86-.06-1.12-.4-.25-.85-.42-1.28-.63-.77-.38-1.06-.85-.92-1.48.12-.58.68-.98,1.47-.97.51,0,1.02.08,1.63.13Z"/>
    <path class="cls-1" d="M121.36,124.7c-.09.46-.16.81-.22,1.15-.25-.62-.62-1.01-1.31-1.01-.47,0-.83.17-.96.64-.13.46.18.7.54.88.41.21.83.37,1.23.59.69.39.87.76.75,1.4-.12.67-.63.92-1.19.99-.5.06-1.02-.04-1.54-.05-.5-.02-.6-.27-.47-.71.06-.19.08-.38.14-.71.11.27.17.42.24.56.35.74,1.48.91,2.03.3.32-.36.27-.86-.16-1.12-.39-.23-.82-.39-1.23-.6-.73-.36-1.04-.84-.93-1.43.12-.62.68-1.03,1.49-1.02.51,0,1.02.08,1.61.13Z"/>
    <path class="cls-1" d="M32.79,129.24h-1.76c.31-.18.47-.27.7-.4-.31-.4-.02-1.24-.79-1.24-1.79-.02-1.31-.35-1.88,1.22.16.11.32.22.57.4-.19.03-.28.06-.37.06-.39,0-.79,0-1.26,0,1.02-.78,1.06-1.97,1.54-2.93.23-.46.34-.98.57-1.44.08-.16.33-.32.51-.33.13,0,.35.21.41.37.41,1.1.77,2.21,1.19,3.31.13.34.37.63.58.98ZM30.49,125.14s-.1,0-.15,0c-.24.67-.47,1.35-.72,2.06h1.54c-.24-.72-.46-1.38-.68-2.05Z"/>
    <path class="cls-1" d="M79.49,124.66c-.06.41-.12.81-.18,1.26-.48-.24-.03-.96-.67-.97-.4-.01-.79,0-1.24,0v1.75h1.75c0,.07.01.14.02.21-.52.4-1.19,0-1.79.25v1.79c1.13.05,1.3-.02,2.08-.87v1.17h-3.22c.73-.26.52-.87.53-1.38,0-.62,0-1.23,0-1.85,0-.5.19-1.1-.56-1.34h3.29Z"/>
    <path class="cls-1" d="M62.62,127.9c.44,1.07,1.1,1.44,1.86,1.05.26-.13.51-.46.56-.74.03-.2-.24-.52-.46-.67-.38-.25-.83-.38-1.23-.59-.65-.34-.9-.8-.79-1.38.11-.57.6-.99,1.31-1,.56-.01,1.13.07,1.76.11-.08.47-.14.82-.21,1.18-.29-.62-.64-1.07-1.38-1.02-.41.02-.74.17-.87.59-.14.45.11.72.48.91.42.22.87.39,1.28.62.68.38.86.75.74,1.4-.1.54-.58.94-1.25,1-.39.03-.8.03-1.19,0-.82-.09-.9-.21-.72-1.02.02-.11.06-.22.12-.43Z"/>
    <path class="cls-1" d="M40.35,128.85c.21.11.37.2.69.38h-1.48c.25-.5.55-1.03.78-1.58.37-.88.68-1.78,1.06-2.66.08-.19.33-.38.52-.41.13-.02.36.24.43.42.39,1.04.73,2.1,1.13,3.14.15.39.4.73.61,1.09h-1.74c.31-.17.47-.26.69-.39-.32-.41-.02-1.17-.76-1.25-1.46-.16-1.46-.13-1.93,1.26ZM40.93,127.19h1.55c-.25-.74-.48-1.42-.75-2.25-.3.84-.54,1.52-.8,2.25Z"/>
    <path class="cls-1" d="M94.13,124.98v1.73h1.78c0,.08.01.17.02.25-.54.29-1.18,0-1.78.18v1.89c.71-.29,1.73.32,2.06-.9v1.1h-3.25c.68-.2.56-.73.56-1.21,0-.72,0-1.43,0-2.15,0-.48.14-1.03-.59-1.2h3.33c-.06.4-.13.8-.2,1.23-.11-.05-.19-.07-.2-.1-.1-.27-.11-.7-.29-.79-.3-.14-.7-.06-1.05-.07-.11,0-.23.02-.4.03Z"/>
    <path class="cls-1" d="M81.74,129.24c.61-.22.57-.7.55-1.18-.02-.7,0-1.39,0-2.09,0-.5.19-1.1-.56-1.32h3.33c-.07.41-.13.81-.2,1.21-.06,0-.12,0-.18,0-.06-.25-.06-.56-.21-.73-.13-.15-.44-.17-.67-.2-.27-.03-.55,0-.87,0v1.76h1.75c.01.09.02.17.03.26-.26.04-.52.09-.77.11-.32.02-.63,0-1,0v1.93c.68-.28,1.69.35,2.05-.88v1.11h-3.24Z"/>
    <path class="cls-1" d="M106.79,129.24h-1.94c.83-.21.61-.86.61-1.39,0-.93,0-1.87,0-2.85h-1.13c-.1.31-.2.61-.31.91-.06,0-.13-.02-.19-.02-.02-.39-.04-.79-.06-1.22h3.93c-.02.42-.05.82-.07,1.22-.06.04-.11.09-.17.13-.12-.84-.46-1.34-1.41-.96v2.11c0,.3,0,.6,0,.9q0,.77.73,1.19Z"/>
    <path class="cls-1" d="M89.33,125.05c0,1.18-.03,2.41.03,3.64,0,.18.39.34.64.54h-1.91s0-.09,0-.09c.59-.12.67-.5.65-1.04-.05-1.03-.01-2.06-.01-3.12h-1.1c-.11.3-.23.61-.35.93-.06,0-.11-.02-.17-.03-.02-.39-.04-.78-.07-1.22h3.94c-.02.4-.05.8-.07,1.2-.05.05-.09.09-.14.14-.18-.8-.5-1.37-1.44-.94Z"/>
    <path class="cls-1" d="M37.08,129.24h-1.84c.8-.19.6-.82.61-1.34,0-.97,0-1.94,0-2.87-.92-.35-1.32.05-1.42.95-.06-.04-.12-.07-.18-.11-.03-.39-.06-.78-.09-1.22h3.94c-.02.42-.04.81-.05,1.21l-.13.02c-.16-.31-.26-.7-.51-.91-.18-.14-.56-.03-.93-.03,0,1.27-.02,2.5.02,3.72,0,.18.34.35.57.56Z"/>
    <path class="cls-1" d="M16.62,124.67h1.7c-.8.32-.55,1-.55,1.56-.01.89,0,1.78,0,2.74.58-.04,1.1-.06,1.62-.12.1-.01.21-.2.26-.33.08-.19.12-.39.18-.59.05,0,.1.02.16.02v1.27h-3.35c.67-.26.52-.82.52-1.3,0-.64,0-1.27,0-1.91,0-.5.19-1.09-.54-1.35Z"/>
    <path class="cls-1" d="M123.61,124.67h1.76c-.76.2-.55.8-.56,1.3,0,.71.01,1.43,0,2.14-.01.46-.05.92.55,1.11h-1.71c.77-.23.56-.86.57-1.4,0-.64,0-1.27,0-1.91,0-.49.18-1.09-.6-1.25Z"/>
    <path class="cls-1" d="M45.53,124.22c.23.04.49.05.49.08.03.49.02.99.02,1.48-.11,0-.21.01-.32.02-.06-.5-.12-.99-.18-1.58Z"/>
  </g>
  <g>
    <path class="cls-1" d="M62.84,46.87h3.67l4.8,11.85,2.76-6.5c1.04-2.45,1.72-4.23,2.05-5.34h4v.53c-.65.02-1.1.12-1.36.33-.26.2-.39.57-.39,1.11,0,.07,0,.16.01.26l.85,8.94c.1,1.1.28,1.8.52,2.12.24.31.73.48,1.47.5v.54h-5.52v-.54c.56-.02.96-.13,1.19-.34.23-.21.35-.62.35-1.22,0-.12,0-.25-.02-.38l-.88-8.9c-1.27,2.26-2.18,4.03-2.73,5.31l-2.81,6.59h-.5l-5.25-13.04-.38,4.02c-.17,1.82-.26,3.25-.26,4.31,0,2.36.59,3.57,1.77,3.64v.54h-5.07v-.54c.52-.12.94-.45,1.24-1,.31-.55.62-1.53.95-2.94.32-1.41.56-2.91.71-4.51l.28-2.98c0-.14,0-.29,0-.46,0-.53-.1-.89-.31-1.07-.21-.18-.6-.28-1.16-.3v-.53Z"/>
    <g>
      <path class="cls-1" d="M41.53,71.84c-4.12-.53-4.76-1.1-5.35-4.69,1.34.11,2.47,1.19,2.83,2.7.33,1.37.81,1.69,2.35,1.49-.14-.17-.26-.31-.37-.45-.71-.86-.77-1.77-.17-2.71.35-.54.72-1.07,1.07-1.61,1.27,1.33,1.19,2.7-.28,4.37.57.54,1.2.35,1.8.12.47-.18.88-.53,1.36-.64.98-.22,1.99-.33,2.95-.48-1.9-1.22-3.03-3.28-4.27-5.25-.34-.55-.78-1.05-1.25-1.5-.74-.68-1.65-.84-2.6-.5-.78.28-1.09.82-1,1.66.14-.02.3-.1.42-.06.24.08.53.17.67.35.09.11.02.51-.1.59-.2.13-.58.23-.74.13-.29-.19-.57-.5-.69-.82-.38-1.06.03-2.43.85-3.09.83-.66,2.25-.81,3.18-.09.78.59,1.38,1.42,2,2.2.32.4.5.91.64,1.19.22-1.2.41-2.55.74-3.85.15-.58.56-1.12.94-1.61.32-.41.83-.52,1.27-.15.41.35.37.83.07,1.23-.3.4-.64.8-1.05,1.07-1.49,1.02-1.67,2.41-1.23,4,.37,1.32,1.12,2.41,2.05,3.39,2.12,2.25,4.69,3.85,7.48,5.12.08.04.18.05.27.07.05-.07.09-.14.14-.2-.51-.37-1.02-.76-1.54-1.11-.25-.16-.55-.24-.82-.37-1.77-.91-2.42-2.16-2.14-4.14.07-.5.21-1,.17-1.49-.03-.42-.17-.92-.45-1.2-.53-.54-1.23-.26-1.39.49-.09.44-.08.96-.69,1.02-.18.02-.56-.23-.55-.27.12-.43.2-.94.49-1.24,1.57-1.62,4.77-.82,5.64,1.38.09.23.16.46.32.9.35-1.05.31-1.87-.1-2.69-.14-.27-.4-.51-.42-.78-.03-.35.01-.9.23-1.03.24-.15.88-.07,1.05.15.32.4.61.98.59,1.47-.04.83-.33,1.65-.52,2.48,0,0,.1-.01.19-.06,1.79-.89,3.66-.31,4.64,1.44.39.7.76,1.42,1.2,2.09.24.37.58.69.93.97.59.48,1.22.53,1.84,0,.27-.23.53-.5.85-.62.25-.09.58,0,.87.03-.03.3.04.67-.11.89-.58.84-1.97,1.1-2.94.58-.35-.19-.66-.44-.94-.63-.24.47-.45.96-.74,1.39-.09.13-.43.09-.65.13.04-.22.04-.46.12-.67.06-.15.23-.26.36-.38.5-.42.51-.88.15-1.39-.22-.3-.41-.62-.62-.93-.33.56-.58,1.11-.94,1.57-.61.81-1.43,1.04-2.42.71-.51-.17-1.05-.27-1.59-.41,0-1.04.67-1.69,1.73-1.61.25.02.5.07.74.13.62.16,1.2.22,1.56-.47.34-.66.28-1.41-.26-1.95-.75-.76-1.68-1.13-2.74-.89-1.14.26-1.9.99-2.22,2.13-.51,1.85.58,4,2.48,4.91,1.66.8,3.43.73,5.18.56,2.67-.26,5.01-1.42,7.2-2.9.16-.11.25-.44.24-.66-.02-.63.26-1.05.8-1.05.54,0,.86.3.85.84-.02.64-.42.81-1.02.82-.29,0-.65.18-.86.4-2.06,2.13-4.44,3.72-7.39,4.26-1.2.22-2.45.21-3.68.24-.5.01-.91.16-.97.62-.05.4.04.94.29,1.21.21.23.75.23,1.13.19.39-.04.75-.3,1.14-.36,1.2-.2,2.02.42,2.29,1.81-.85-.61-1.5-.2-2.16.23-1.15.74-2.41.62-3.15-.25-.76-.89-.65-2.19.26-3.22.05-.06.09-.12.13-.17-.63-.32-1.28-.01-1.51.74-.14.45-.18.94-.28,1.4-.4,1.8-2.61,2.88-4.18,2.18.31-.56.78-1.09.89-1.69.34-1.83,1.33-2.8,3.2-2.89.12,0,.23-.05.37-.15-2.65-.72-4.64-2.58-6.94-3.89-1.01-.57-2.15-.99-3.28-1.24-1.38-.31-2.59.48-3.15,1.77-.61,1.4-.39,2.83.65,3.64.33.26.81.41,1.23.44.77.04,1.14-.42,1.1-1.19-.01-.22-.08-.44-.12-.66-.13-.69.18-1.19.79-1.3.6-.11,1.11.27,1.24.92.32,1.62-1.06,3.09-2.69,2.88-2.41-.32-3.65-2.62-2.69-5.01.09-.22.19-.44.33-.75-.91.19-1.49.52-1.76,1.41-.59,1.97-2.86,3.37-4.96,2.97.75-1.18,1.25-2.59,2.23-3.35.99-.76,2.48-.89,3.87-1.34ZM66.47,74.31c-.24-.05-.3-.08-.34-.07-.21.07-.42.16-.63.24-3.69,1.43-7.36,1.45-10.97-.25-1.34-.63-2.6-1.42-3.93-2.07-1.12-.55-2.27-1.06-3.45-1.47-.5-.17-1.1-.03-1.65-.03-.01.08-.03.15-.04.23,1.75.3,3.27,1.08,4.69,2.08.64.45,1.26.92,1.91,1.34,3.94,2.57,8.07,2.97,12.39,1.05.64-.29,1.25-.65,2.01-1.05ZM51.14,65.27c1.94.98,2.36,2.57,1.95,4.52-.05.26-.05.56,0,.82.1.63.34,1.17.97,1.45-.06-.67-.16-1.28-.15-1.9,0-.65.13-1.3.15-1.95.06-1.7-1.12-2.93-2.91-2.94ZM38.73,62.7c1.03-.67,2.12-.83,3.09-.24.9.55,1.64,1.38,2.32,1.98-.41-1.18-1.42-2.39-2.46-2.86-1.23-.55-2.47-.12-2.95,1.13Z"/>
      <path class="cls-1" d="M53.24,33.46c.79-.39.92-1,.88-1.7-.01-.23-.02-.45-.01-.68.06-1.15.76-2,1.82-2.19.97-.17,2.06.47,2.48,1.46.08.2.15.4.23.63.62-.55.64-1.16.07-1.75-.31-.32-.68-.59-1.02-.89-1.38-1.23-1.22-3.69.2-4.73.28.49.46,1.12.87,1.46,1.61,1.36,2.05,2.87.82,4.69.12.04.18.08.2.07,1.49-1.48,3.37-2.34,5.22-3.26,1.08-.53,2.13-1.14,3.12-1.82.54-.37,1-.92,1.37-1.48.66-1.01.71-2.1.02-3.12-.71-1.05-1.67-1.79-3.02-1.62-.47.06-1,.27-1.33.59-.83.78-.57,1.71.51,2.08.12.04.24.06.36.1.62.22.9.74.71,1.29-.2.59-.78.86-1.4.68-1.44-.43-2.11-2.17-1.37-3.51.89-1.61,2.83-2.18,4.49-1.21.69.4,1.26,1.02,1.91,1.56.24-.7.27-1.34-.35-2-1.41-1.49-1.51-4.23-.16-5.84.66,1.23,1.64,2.35,1.81,3.58.17,1.24-.45,2.6-.76,4.06.86-1.17,1.63-2.23,2.89-2.78,1.4-.61,2.58.05,3.82.49-.5.86-1.91,1.46-3.05,1.29-.22-.03-.44-.09-.66-.16-1.37-.4-1.91-.14-2.53,1.3.2-.04.35-.06.5-.09,1.16-.25,2.02.16,2.55,1.22.28.56.56,1.12.84,1.68-1.43.58-2.66-.21-3.67-2.4-.71.23-.95.84-.97,1.45-.04,1.55-.25,3.03-1.25,4.08,1.61-.25,3.3-.54,5.01-.76.97-.13,1.96-.09,2.93-.22,1.22-.16,2.1-.81,2.43-2.06.21-.79-.06-1.37-.85-1.85-.1.19-.15.45-.31.55-.22.13-.52.15-.78.21-.05-.29-.23-.77-.15-.83.35-.22.8-.45,1.18-.4,1.12.16,2.17,1.27,2.31,2.31.15,1.05-.45,2.35-1.53,2.8-.86.36-1.83.46-2.76.61-.54.08-1.1.01-1.75.01.22.12.37.22.53.3,1.4.71,2.52,1.73,3.32,3.09.15.26.27.54.34.83.12.49-.02,1-.55,1.07-.33.04-.85-.2-1.03-.48-.27-.42-.41-.98-.46-1.49-.17-1.78-1.26-2.75-2.88-3.02-1.19-.19-2.47-.21-3.65,0-3.22.6-6,2.19-8.64,4.06.03.08.06.16.09.24.5-.18,1.02-.3,1.48-.54.48-.25.89-.65,1.37-.92,1.39-.78,2.74-.73,4.02.26.52.4,1.01.86,1.58,1.14.35.18.89.22,1.26.08.66-.26.68-.89.15-1.37-.33-.3-.81-.54-.54-1.09.08-.17.53-.37.57-.33.29.3.65.63.76,1.02.58,2.2-1.69,4.53-4.03,4.19-.22-.03-.44-.07-.85-.15.72.89,1.52,1.18,2.44,1.24.25.02.54-.08.74.02.31.16.78.44.79.68.01.29-.33.75-.62.87-.73.29-1.46.04-2.03-.47-.51-.46-.95-1.01-1.47-1.56-.04.39-.05.76-.13,1.11-.36,1.55-1.88,2.56-3.68,2.49-.85-.03-1.71-.06-2.55.04-1.56.18-2.03.86-1.81,2.39.07.47.32,1.06-.41,1.24-.49.12-.81-.35-.84-1.17-.04-1.31.49-1.97,2.11-2.66-.29-.46-.61-.91-.84-1.41-.06-.13.17-.39.26-.6.15.14.37.25.44.43.64,1.53.64,1.53,2.48,1.25-.16-.2-.29-.36-.42-.52-1.04-1.31-.93-2.6.3-3.71.31-.28.57-.62.87-.95.83.36,1.14,1.24.67,2.11-.15.28-.39.52-.6.77-.37.44-.81.86-.41,1.52.38.64,1.13.99,1.87.84,2.08-.44,2.99-2.97,1.66-4.65-1.05-1.33-3.13-1.87-4.8-1.06-.88.43-1.72,1.08-2.33,1.83-2.48,3.07-3.09,6.69-2.78,10.51.02.19.26.42.46.53.54.29.77.76.49,1.23-.28.45-.68.58-1.16.32-.46-.25-.49-.79-.2-1.31.13-.24.2-.6.12-.85-1.28-4.24-.86-8.24,1.6-11.99.16-.24.17-.82,0-.99-.27-.28-.76-.49-1.15-.48-.27,0-.61.37-.79.66-.14.23-.08.58-.13.88-.23,1.47-1.46,2.21-2.84,1.58ZM56.3,40.32c.06,0,.12.01.18.01.03-.24.07-.48.1-.73.48-3.43,1.85-6.44,4.56-8.67,1.47-1.2,3.17-2.11,4.75-3.19,1.07-.73,2.15-1.49,3.14-2.32.41-.35.62-.94.92-1.42-.08-.06-.15-.12-.23-.19-1.47,1.9-3.59,2.79-5.67,3.74-.32.15-.64.3-.95.46-2.97,1.51-4.93,3.93-6.11,6.98-.66,1.7-.77,3.51-.69,5.32ZM71.81,31.56c-2.35.99-2.87.93-4.81-.49-.3-.22-.63-.42-.98-.56-.59-.24-1.1-.15-1.41.1.98.62,2.02,1.26,3.04,1.92,1.49.96,3.19.61,4.16-.97ZM75.92,25.95c.56,0,1.08.04,1.59,0,1.07-.11,2.07-.43,2.77-1.32.61-.77.6-1.72-.05-2.41,0,1.15-.38,2.15-1.33,2.67-.89.49-1.93.71-2.98,1.07Z"/>
      <path class="cls-1" d="M100.29,36.55c.92-.19,1.47-.53,1.73-1.39.57-1.93,2.9-3.38,4.98-2.99-.77,1.2-1.29,2.61-2.29,3.39-.99.76-2.47.88-3.76,1.33,3.02.13,5.25,1.15,5.21,4.77-1.03-.31-1.91-.82-2.43-1.83-.16-.31-.26-.66-.34-.99-.32-1.31-.88-1.68-2.38-1.48.15.17.26.31.38.45.69.8.8,1.7.28,2.57-.37.62-.78,1.2-1.18,1.81-1.26-1.5-1.18-2.7.26-4.37-.54-.52-1.07-.49-2.04-.06-.82.36-1.68.66-2.54.87-.49.12-1.03.02-1.66.02,2,1.33,3.14,3.28,4.33,5.2.37.59.83,1.14,1.33,1.63.8.77,1.98.91,2.86.41.56-.32.91-.77.79-1.51-.15.01-.28.06-.38.02-.26-.1-.56-.18-.74-.37-.08-.08.01-.54.12-.58.28-.1.66-.17.89-.04.25.13.44.47.54.76.36,1.1-.08,2.52-.93,3.14-.89.65-2.4.73-3.31-.1-.85-.78-1.47-1.81-2.18-2.74-.16-.21-.24-.47-.42-.68.14,1.53-.1,2.97-.72,4.35-.18.41-.42.81-.69,1.16-.36.45-.85.71-1.37.28-.48-.4-.35-.92,0-1.35.28-.35.59-.71.95-.96,1.52-1.04,1.69-2.45,1.22-4.06-.43-1.49-1.36-2.68-2.44-3.75-2.08-2.07-4.55-3.54-7.2-4.76-.06-.03-.14-.01-.21-.02-.04.07-.08.13-.12.2.57.39,1.14.79,1.72,1.17.21.14.46.2.68.32,1.78.91,2.43,2.15,2.16,4.13-.07.55-.17,1.1-.19,1.65-.02.56.16,1.05.77,1.24.55.17.94.02,1.07-.59.01-.05,0-.11.03-.15.21-.33.41-.67.67-.96.04-.05.54.21.53.25-.09.41-.15.9-.41,1.19-1.56,1.69-4.81.92-5.7-1.31-.09-.23-.16-.47-.31-.9-.36,1.05-.31,1.88.1,2.69.14.27.39.51.42.79.04.33,0,.88-.19.98-.28.15-.9.12-1.06-.08-.33-.43-.64-1.02-.62-1.53.02-.8.31-1.59.49-2.41-.4.13-.83.33-1.28.4-1.45.23-2.8-.51-3.56-1.88-.39-.7-.75-1.42-1.21-2.08-.28-.4-.67-.75-1.07-1.04-.52-.38-1.08-.37-1.6.06-.27.22-.53.5-.84.63-.28.11-.62.04-.94.05.05-.34-.02-.77.17-1,.66-.83,2-1,2.96-.44.32.19.61.43.87.62.2-.46.34-.94.61-1.33.12-.17.5-.15.76-.22-.06.24-.11.49-.19.72-.04.11-.16.19-.26.27-.57.46-.56.96-.14,1.51.19.26.37.53.63.91.12-.29.2-.49.28-.68.63-1.56,1.71-2.07,3.31-1.56.42.13.86.21,1.3.31-.02,1.01-.55,1.58-1.53,1.59-.3,0-.6-.05-.9-.11-.61-.12-1.2-.27-1.58.44-.38.69-.3,1.44.25,2.02,1.47,1.57,4.07,1.06,4.84-.94.37-.96.33-1.92-.1-2.86-.78-1.74-2.19-2.64-4.03-2.91-3.96-.58-7.44.68-10.65,2.89-.16.11-.21.45-.21.68,0,.61-.31,1.05-.85,1.01-.53-.03-.82-.35-.82-.89,0-.56.4-.81,1.04-.81.27,0,.61-.14.8-.34,2.02-2.09,4.33-3.69,7.23-4.25,1.22-.24,2.49-.24,3.75-.28.5-.02.99-.05,1.08-.57.07-.41-.04-.93-.26-1.29-.26-.44-.74-.36-1.22-.18-.48.19-1,.35-1.51.36-1.02.03-1.62-.57-1.79-1.73.79.47,1.43.18,2.09-.25,1.19-.78,2.39-.7,3.15.15.8.89.71,2.18-.21,3.28-.05.05-.08.12-.13.18.66.28,1.28-.04,1.51-.81.11-.36.15-.74.21-1.11.35-1.96,2.51-3.12,4.23-2.44-.32.63-.75,1.24-.95,1.91-.6,2.03-1,2.41-3.11,2.66-.12.01-.23.04-.53.11.29.13.44.18.57.25,1.27.64,2.57,1.24,3.81,1.95,1.05.6,1.98,1.39,3.04,1.96.85.45,1.79.85,2.73,1,2.42.38,4.2-1.66,3.58-4.04-.23-.9-.78-1.59-1.75-1.78-.97-.19-1.57.39-1.46,1.36.01.1.02.2.06.3.17.49.21,1.01-.28,1.28-.31.17-.88.26-1.1.09-.32-.25-.58-.76-.6-1.17-.1-1.63,1.3-2.77,2.93-2.45,2.14.41,3.24,2.37,2.57,4.62-.1.33-.24.65-.4,1.09ZM96.88,38.1c0-.07.01-.15.02-.22-.11-.05-.21-.11-.32-.13-1.42-.24-2.67-.88-3.85-1.66-.92-.61-1.81-1.28-2.73-1.88-4.2-2.75-9.9-2.65-14.01.23-.04.03-.05.1-.08.18.07-.01.1-.01.12-.02.21-.08.42-.17.63-.26,3.12-1.24,6.31-1.6,9.51-.48,1.65.57,3.17,1.49,4.77,2.23,1.5.69,3,1.38,4.53,2,.41.16.94.02,1.42.02ZM88.42,36.66c0,.93,0,1.87,0,2.81,0,.5-.09,1-.05,1.5.09,1.45,1.47,2.63,2.87,2.49,0-.02,0-.06-.03-.07-.08-.06-.16-.11-.25-.16-1.44-.82-1.95-2.08-1.74-3.69.06-.42.12-.85.11-1.27-.02-.71-.32-1.29-.9-1.61ZM98.26,44.21c.59,1.37,1.35,2.59,2.85,3.08,1.13.36,2.25-.2,2.48-1.18-2.44,1.28-3.94-.1-5.33-1.89Z"/>
      <path class="cls-1" d="M71,88.64c-.22.05-.41.11-.6.14-1.03.19-1.88-.19-2.35-1.09-.32-.61-.62-1.25-.93-1.87,1.75-.43,2.82.27,3.64,2.37.68-.19.97-.73,1.06-1.74.06-.75.12-1.52.34-2.22.2-.62.63-1.17.98-1.79-.63.21-1.25.53-1.89.62-1.67.22-3.34.31-5.01.49-.65.07-1.3.16-1.92.36-.95.32-1.53,1.04-1.7,2.03-.12.75.16,1.31.91,1.67.08-.18.12-.38.23-.47.2-.16.44-.31.68-.34.12-.02.39.24.39.36,0,.25-.09.63-.26.71-.34.15-.78.24-1.13.17-1.09-.22-2.07-1.33-2.18-2.35-.12-1.07.51-2.36,1.59-2.76.92-.34,1.94-.43,2.92-.58.43-.07.88-.01,1.51-.01-.33-.19-.5-.31-.69-.4-1.23-.64-2.22-1.56-2.97-2.72-.23-.35-.46-.77-.48-1.16-.02-.33.21-.89.45-.96.3-.09.85.1,1.06.36.28.35.39.86.47,1.32.44,2.29,1.56,3.29,3.92,3.47,1.64.12,3.2-.22,4.73-.76,2.41-.85,4.6-2.09,6.62-3.64-.73.01-1.36.16-1.97.65-1.82,1.48-3.56,1.79-5.56.07-.4-.34-.84-.64-1.3-.89-.57-.31-1.09-.13-1.44.4-.34.52,0,.83.38,1.13.14.1.34.25.35.38.02.28-.07.58-.12.86-.28-.06-.71-.03-.82-.2-.53-.83-.62-1.74-.18-2.65.88-1.83,2.35-2.51,4.62-2.16-.38-.7-1.22-1.16-2.22-1.21-.3-.01-.64.08-.89-.03-.3-.13-.75-.44-.74-.65.02-.31.32-.77.61-.88.73-.27,1.46-.07,2.03.45.51.47.96,1,1.45,1.53.07-.44.09-.89.22-1.31.39-1.29,1.72-2.22,3.17-2.25.8-.01,1.61.05,2.41,0,.49-.03,1-.13,1.46-.3.82-.31,1.07-.79.98-1.64-.03-.3-.17-.62-.11-.89.07-.32.3-.6.46-.9.27.25.68.45.77.74.34,1.16-.22,2.29-1.32,2.82-.26.13-.54.23-.73.32.3.44.63.84.84,1.3.07.16-.15.45-.23.69-.16-.16-.4-.28-.48-.47-.55-1.43-.77-1.55-2.36-1.17.29.51.64,1,.86,1.54.38.94.2,1.8-.62,2.43-.44.34-.96.57-1.34.96-.72-.09-.83-1.35-.35-2.03.17-.24.39-.46.58-.7.31-.39.71-.76.42-1.34-.32-.63-.83-1.02-1.56-.99-1.05.04-1.8.64-2.3,1.5-.53.91-.5,1.88.04,2.8.96,1.64,3.22,2.32,5.12,1.4.83-.4,1.64-1.03,2.22-1.75,2.49-3.09,3.14-6.72,2.81-10.57-.02-.19-.27-.42-.47-.53-.53-.3-.75-.79-.47-1.24.28-.45.69-.58,1.17-.31.45.26.5.79.19,1.31-.12.2-.22.51-.15.72,1.31,4.31.93,8.39-1.63,12.18-.32.47-.07,1.08.49,1.36.6.29,1.32.06,1.51-.53.1-.3.09-.64.14-.96.24-1.47,1.48-2.21,2.79-1.59-.81.45-.87,1.16-.83,1.95.07,1.42-.63,2.42-1.76,2.61-1.23.2-2.23-.5-2.68-1.88-.02-.05-.05-.09-.07-.13-.59.39-.67,1-.16,1.61.27.32.63.58.95.86,1.51,1.3,1.44,3.7-.02,4.86-.35-.55-.62-1.18-1.07-1.65-1.6-1.7-1.7-2.11-.81-4.28.04-.09.06-.18.04-.32-2.01,2.01-4.71,2.83-7.1,4.17-1.08.61-2.07,1.34-2.72,2.44-.68,1.15-.58,2.39.26,3.44.9,1.11,2.21,1.62,3.32,1.16.43-.17.84-.55,1.1-.94.38-.59.14-1.18-.5-1.49-.2-.1-.43-.15-.64-.22-.67-.23-.95-.74-.75-1.33.21-.6.82-.85,1.49-.62,1.36.48,1.97,2.13,1.28,3.43-.76,1.43-2.52,2.15-3.99,1.47-.88-.4-1.62-1.1-2.44-1.67-.2.56-.27,1.18.3,1.79,1.37,1.49,1.59,3.78.58,5.55-.06.1-.16.18-.23.26-.49-.67-.98-1.3-1.44-1.95-.89-1.28-.71-2.6-.13-3.94.22-.51.36-1.06.46-1.61-2.56,3.62-4.17,3.45-6.81,2.24.78-1.08,2.33-1.54,3.78-1.1,1.34.4,1.97.08,2.48-1.32ZM72.45,84.74c.07.05.13.1.2.16,1.3-1.58,3.01-2.54,4.84-3.33.58-.25,1.15-.52,1.7-.81,3.79-2,6.07-5.11,6.76-9.34.17-1.02.14-2.08.2-3.12-.08,0-.15-.01-.23-.02-.03.17-.07.33-.09.5-.51,4.38-2.52,7.85-6.24,10.26-1.2.78-2.47,1.45-3.66,2.26-.95.64-1.86,1.37-2.71,2.14-.36.32-.53.85-.78,1.29ZM77.95,78.08c-.67-.33-1.27-.59-1.82-.92-.58-.34-1.1-.8-1.68-1.14-1.37-.8-3.16-.25-3.82,1.13.02,0,.05.03.06.02.09-.04.18-.09.26-.14,1.43-.82,2.77-.68,4.06.33.33.26.67.53,1.05.73.6.32,1.22.39,1.88,0ZM62.16,86.69c.08-2.97,2.11-3.53,4.4-3.81-1.48-.2-2.89-.16-4.08.83-.93.78-1.07,1.87-.32,2.97Z"/>
      <path class="cls-1" d="M51.83,47.17c1.03.55,1.7,1.31,1.87,2.44.15,1-.11,1.87-.61,2.73-.51.86-1.03,1.73-1.37,2.67-.4,1.13-.03,1.73,1.08,2.17.26.1.56.16.75.34.19.18.43.59.36.69-.15.22-.5.43-.76.42-.98-.05-1.95-1.1-2.01-2.13-.03-.44,0-.89,0-1.18-.48,0-1,.04-1.5-.03-.17-.02-.29-.33-.44-.51.21-.07.44-.24.63-.21,1.56.25,1.7.16,2.21-1.44-.51,0-1.02.04-1.53,0-1.22-.12-1.78-.66-2.06-1.85-.12-.5-.28-.99-.43-1.5.85-.5,1.68-.32,2.18.55.15.26.22.55.32.84.2.55.35,1.13,1.11,1.13.72,0,1.36-.42,1.63-1.12.76-1.93-.89-4.04-3.01-3.84-1.81.17-3.41,1.87-3.51,3.87-.04.78.05,1.63.32,2.36,1.42,3.87,4.32,6.33,7.94,8.04.15.07.45-.04.62-.15.5-.32,1.09-.27,1.31.19.22.46.15.9-.33,1.17-.46.27-.93.03-1.23-.51-.12-.22-.37-.41-.61-.51-1.51-.61-3.1-1.07-4.52-1.82-2.27-1.19-3.86-3.11-4.99-5.39-.22-.44-.51-.88-1-.69-.41.16-.82.54-1.03.93-.26.47.14.81.52,1.11.35.27.7.58.96.94.61.86.41,2.03-.55,2.61.04-.9-.5-1.33-1.21-1.68-1.3-.64-1.84-1.73-1.45-2.86.39-1.13,1.56-1.68,2.97-1.39.05,0,.1,0,.15,0,0-.67-.52-1.08-1.3-.92-.54.11-1.05.35-1.58.5-1.66.48-3.75-1.03-3.81-2.62.62,0,1.3.17,1.85-.03,1.86-.69,3.23-.2,4.24,1.47.04.06.1.09.22.18-.11-.85-.31-1.64-.3-2.42.02-1.68.13-3.36.21-5.04.07-1.47.02-2.92-.67-4.27-.63-1.23-1.76-1.8-3.12-1.62-1.37.18-2.5,1.05-2.71,2.26-.08.47.04,1.05.26,1.49.32.63.95.7,1.55.29.19-.12.34-.3.51-.45.55-.47,1.11-.45,1.52.05.4.48.33,1.1-.17,1.54-1.17,1.05-3.08.66-3.78-.77-1.09-2.21.37-4.63,3.01-4.97.2-.02.4-.03.61-.05-.49-.84-1-1.06-1.93-.86-2.03.43-4.44-.81-5.13-2.81,1.42.06,2.91-.21,4.08.28,1.18.49,2.04,1.74,3.19,2.79-.72-1.37-1.22-2.6-1.08-4.01.15-1.55,1.33-2.27,2.37-3.11.56,1.33.19,2.75-1,3.89-.98.94-1,1.63-.03,2.74.08-.23.14-.45.22-.65.37-.96,1.07-1.43,2.09-1.4.7.02,1.39.07,2.09.11-.58,1.79-1.7,2.36-4.07,1.93.09.35.09.69.26.9.28.37.63.72,1.02.97,1.29.84,1.3.83,2.71,3.13.07-.41.12-.75.17-1.08.26-1.64,1.02-3.08,1.81-4.52.42-.77.79-1.57,1.06-2.41.35-1.09.09-2.1-.82-2.86-.64-.54-1.23-.54-1.92-.02.09.12.23.22.26.35.05.25.11.55.02.77-.05.13-.43.26-.56.19-.21-.11-.48-.4-.47-.59.02-.34.16-.74.38-1,.7-.82,2.17-1.18,3.12-.78,1.11.47,1.7,1.41,1.66,2.56-.03.85-.34,1.71-.66,2.51-.24.62-.68,1.16-1.12,1.88.28-.16.44-.24.59-.34,1.27-.85,2.68-1.24,4.19-1.33.32-.02.65.04.97.12.49.12.83.42.75.97-.08.59-.55.78-1.06.73-.52-.06-1.05-.18-1.52-.4-1.41-.66-2.59-.27-3.67.69-1.37,1.22-2.04,2.85-2.46,4.58-.65,2.71-.74,5.47-.48,8.24,0,.09.05.17.08.25.09,0,.17,0,.26.01.07-.61.17-1.22.2-1.83.06-.9-.04-1.81.13-2.68.19-.95.9-1.6,1.81-1.99.64-.28,1.3-.53,1.93-.84.51-.25.84-.64.75-1.26-.08-.6-.5-.85-1.07-.68-.26.08-.56.24-.79.18-.23-.06-.4-.34-.6-.53.2-.21.39-.58.6-.59.99-.06,1.82.34,2.38,1.18,1.12,1.7.99,3.11-.5,5.16,1.02-.16,1.71-.68,2.22-1.47.15-.23.22-.56.43-.7.3-.19.78-.44,1-.32.25.13.46.67.41.98-.14.81-.74,1.31-1.5,1.54-.64.2-1.3.29-2.07.45ZM44.06,40.37c.14.55.38,1.11.39,1.66.02,1.75.04,3.51-.08,5.26-.36,5.19,1.51,9.27,5.88,12.15.43.28.88.51,1.46.85-.11-.22-.12-.27-.15-.3-.07-.07-.15-.13-.23-.19-3.72-2.8-5.65-6.51-5.76-11.17-.04-1.71-.06-3.42-.16-5.12-.07-1.17-.29-2.34-1.34-3.14ZM51.79,42.46c-.06.08-.08.1-.08.13-.01.07-.02.15-.02.22-.02,1.63-.78,2.76-2.31,3.36-.44.17-.88.38-1.27.64-.62.41-.84.92-.8,1.4,1.03-.54,2.12-1.13,3.22-1.7,1.58-.81,2.1-2.4,1.26-4.05ZM48.84,36.05c.68-.82,1.14-1.71,1.32-2.74.14-.8.02-1.55-.49-2.2-.51-.65-1.18-.88-1.84-.67,2.4,1.48,1.88,3.5,1.01,5.6Z"/>
      <path class="cls-1" d="M97.7,55.17c.26.81.81,1.12,1.59.92.41-.11.81-.28,1.21-.42,1.76-.57,3.81.79,4,2.5-.66.03-1.37-.09-1.97.11-1.69.55-3.01.26-3.98-1.29-.04-.06-.1-.12-.15-.16-.04-.03-.09-.03-.16-.04.09.78.27,1.54.26,2.31-.02,1.71-.12,3.41-.22,5.12-.08,1.45,0,2.87.7,4.18.61,1.15,1.78,1.74,3.01,1.57,1.44-.2,2.57-1.05,2.79-2.27.08-.47-.04-1.05-.27-1.48-.35-.66-1-.7-1.61-.25-.1.07-.19.16-.28.25-.35.39-.79.66-1.26.39-.3-.18-.67-.63-.63-.91.05-.4.37-.88.71-1.12.84-.58,1.77-.54,2.62.02.98.66,1.25,1.68,1.17,2.78-.11,1.49-1.2,2.61-2.84,3.03-.36.09-.73.14-1.1.21.55.82.97,1,1.89.81,2.03-.43,4.35.75,5.12,2.65-1.05.08-2.08.25-3.11.21-1.21-.05-2.05-.83-2.75-1.78-.33-.45-.74-.84-1.21-1.22,1.43,2.75,1.57,5.19-1.42,6.96-.48-.72-.31-2.3.4-3.23.15-.2.33-.38.51-.55,1.02-.98,1.06-1.54.17-2.73-.04.02-.11.02-.12.05-.67,1.8-1.18,2.11-3.12,1.89-.42-.05-.84,0-1.27,0,.64-1.85,1.66-2.37,4.11-1.99-.12-.38-.14-.75-.32-.97-.31-.38-.7-.73-1.11-.99-1.16-.72-2.06-1.65-2.57-2.97-.05.31-.06.64-.16.93-.48,1.34-.97,2.68-1.5,4-.42,1.02-.99,1.98-1.36,3.02-.42,1.19.04,2.41.98,2.99.64.4,1.09.38,1.74-.1-.09-.12-.23-.22-.26-.35-.05-.25-.11-.54-.02-.76.05-.13.45-.28.56-.2.22.15.49.44.49.67,0,.32-.16.69-.37.94-.69.82-2.17,1.19-3.11.79-1.12-.47-1.63-1.39-1.69-2.55-.07-1.26.5-2.34,1.14-3.37.18-.29.38-.58.51-.77-1.11.41-2.27.91-3.48,1.24-.63.17-1.35.12-2.01.06-.54-.05-.97-.38-.86-1.02.11-.58.57-.77,1.08-.69.59.1,1.18.26,1.73.49.97.39,1.86.3,2.73-.26,1.39-.88,2.21-2.19,2.73-3.69,1.1-3.17,1.22-6.45.89-9.76,0-.04-.05-.07-.26-.32-.11.76-.25,1.33-.27,1.91-.03.7.12,1.41.05,2.1-.13,1.24-.82,2.14-1.97,2.65-.64.29-1.3.53-1.94.84-.5.25-.85.63-.76,1.26.09.6.48.86,1.06.68.24-.07.51-.23.72-.17.26.08.45.34.68.53-.22.21-.45.6-.67.6-.98,0-1.8-.39-2.35-1.26-1.07-1.71-.94-3.08.52-5.09-.92.13-1.58.57-2.08,1.26-.15.2-.25.43-.39.65-.27.45-.57.88-1.2.6-.48-.22-.58-.84-.25-1.46.52-.98,1.47-1.23,2.46-1.39.29-.05.58-.06.98-.09-.16-.14-.22-.23-.29-.26-1.7-.84-2.12-3.19-1.05-4.85.51-.8,1.02-1.63,1.37-2.5.53-1.34.18-1.99-1.14-2.51-.12-.05-.24-.08-.35-.14-.38-.19-.87-.36-.61-.93.23-.51.71-.39,1.12-.26,1,.33,1.65,1.23,1.64,2.29,0,.37-.06.74-.08,1.04.54-.03,1.07-.09,1.59-.05.15.01.28.33.43.51-.19.07-.39.21-.58.2-1.68-.14-1.68-.15-2.28,1.46.59,0,1.18-.06,1.75.01,1.08.14,1.68.8,1.88,1.87.09.48.27.95.42,1.45-.77.52-1.64.35-2.16-.49-.16-.25-.25-.55-.35-.83-.21-.61-.39-1.23-1.23-1.19-.77.04-1.41.59-1.6,1.37-.54,2.15,1.42,4.08,3.56,3.52,2.14-.56,3.53-2.97,2.97-5.31-.58-2.39-1.88-4.41-3.75-5.97-1.28-1.07-2.77-1.89-4.17-2.81-.3-.2-.58-.27-.93.05-.41.39-.92.32-1.23-.16-.28-.43-.2-.88.26-1.18.44-.28.95-.04,1.26.44.16.25.46.51.74.57,4.28,1.03,7.51,3.39,9.53,7.35.13.26.64.58.86.51.4-.13.81-.47,1.01-.84.12-.23-.07-.7-.25-.99-.14-.24-.48-.35-.71-.54-1.1-.95-1.1-2.29.13-3.25-.16,1.11.62,1.42,1.32,1.8,1.18.65,1.67,1.73,1.29,2.81-.38,1.08-1.57,1.66-2.84,1.4-.09-.02-.19-.03-.37-.06ZM98.13,68.47c.09-.04.18-.07.27-.11-.9-2.22-.68-4.49-.4-6.76.44-3.51-.52-6.62-2.57-9.42-1.22-1.67-2.9-2.78-4.74-3.66.2.25.45.44.7.64,2.62,2.06,4.48,4.65,5.08,7.95.35,1.94.29,3.94.44,5.92.1,1.27.19,2.55.41,3.8.1.58.53,1.1.81,1.64ZM90.65,66.23c-.06-2.14,1.1-3.31,3-3.93.26-.08.5-.24.71-.41.49-.38.8-.87.78-1.4-1.1.58-2.21,1.17-3.33,1.75-1.52.8-2.02,2.38-1.16,3.99ZM93.49,72.81c-.73.86-1.24,1.83-1.26,2.92-.01.63.21,1.34.54,1.88.42.71,1.21.9,1.81.66-2.31-1.41-1.94-3.38-1.08-5.46Z"/>
      <path class="cls-1" d="M56.04,27.79c-.75.1-1.48.2-2.22.28-.47.04-.96.12-1.4.02-.53-.11-.88-.53-.79-1.12.09-.59.52-.84,1.09-.83,1.4.02,2.44.77,3.32,1.65Z"/>
      <path class="cls-1" d="M86.63,27.94c-.41-.56-.82-1.08-1.2-1.62-.29-.4-.64-.78-.82-1.23-.23-.56-.08-1.12.54-1.37.59-.24,1.02.06,1.3.58.63,1.2.53,2.44.19,3.64Z"/>
      <path class="cls-1" d="M40.59,54.2c-.29.69-.54,1.36-.84,2-.22.47-.4,1.03-.78,1.31-.29.22-.93.23-1.28.06-.49-.24-.45-.79-.2-1.26.7-1.27,1.9-1.77,3.11-2.12Z"/>
      <path class="cls-1" d="M55.79,80.79c.39.53.79,1.08,1.2,1.63.29.4.64.78.83,1.23.22.53.05,1.07-.51,1.33-.58.27-1.01-.02-1.32-.52-.57-.91-.63-2.47-.19-3.67Z"/>
      <path class="cls-1" d="M101.81,54.54c.29-.72.56-1.43.88-2.11.19-.42.39-.88.7-1.21.37-.39.89-.47,1.36-.09.44.36.48.89.16,1.28-.51.59-1.1,1.13-1.74,1.59-.4.29-.94.39-1.35.55Z"/>
      <path class="cls-1" d="M86.42,80.93c.69-.09,1.43-.21,2.19-.28.49-.04,1-.08,1.47.03.5.12.79.55.69,1.1-.09.52-.46.73-.96.78-1.12.11-2.65-.65-3.39-1.63Z"/>
    </g>
  </g>
</svg>