<?xml version="1.0" encoding="UTF-8"?>
<svg id="Layer_1" data-name="Layer 1" xmlns="http://www.w3.org/2000/svg" viewBox="0 0 141.73 141.73">
  <defs>
    <style>
      .cls-1 {
        fill: #231f20;
      }

      .cls-2 {
        fill: #211f20;
      }
    </style>
  </defs>
  <g>
    <path d="M72.24,21.67c3.2,2.11,4.15,4.84,2.62,7.52-1.07,1.86-3.16,2.9-5.26,2.62-2.03-.27-3.81-1.83-4.33-3.79-.56-2.14.23-4.36,2.02-5.65.33-.24.66-.47.99-.7,1.32,0,2.64,0,3.96,0ZM70.28,24.79c-1.1.14-1.8.78-1.81,1.86-.02,1.11.72,1.79,1.83,1.78,1.11-.01,1.8-.7,1.81-1.82.01-1.14-.72-1.7-1.83-1.82Z"/>
    <path d="M66.91,47.78c-.01.55-.37.79-.65,1.07-4.51,4.52-9.04,9.03-13.54,13.57-.74.75-1.29.76-2.02,0-2.83-2.94-2.62-2.07-.07-4.66,2.88-2.93,5.78-5.84,8.73-8.7.9-.87.94-1.43.02-2.33-3.24-3.14-6.37-6.4-9.62-9.53-1.02-.99-1.16-1.65-.05-2.68,2.46-2.27,1.82-2.31,4.14,0,4.06,4.04,8.11,8.1,12.15,12.16.35.35.78.66.91,1.1Z"/>
    <path d="M70.13,44.88c-.54,0-.77-.31-1.01-.55-4.6-4.59-9.18-9.18-13.79-13.75-.67-.67-.61-1.14.04-1.76,2.98-2.84,1.98-2.94,4.86-.12,2.93,2.88,5.85,5.78,8.71,8.72.8.83,1.29.79,2.08-.02,3.23-3.3,6.54-6.51,9.76-9.82.9-.92,1.49-1.07,2.44-.05,2.44,2.59,2.41,1.95,0,4.37-4.04,4.06-8.11,8.11-12.16,12.15-.32.32-.67.6-.92.82Z"/>
    <path d="M88.84,33.34c1.05.71,2.03,1.63,2.73,2.72.55.85-.5,1.32-.99,1.81-3.04,3.05-6.14,6.05-9.19,9.1-1.44,1.43-1.44,1.6.01,3.05,3.08,3.08,6.17,6.16,9.32,9.16,1.04.99,1.14,1.66.03,2.68-2.47,2.27-1.83,2.3-4.15,0-4.1-4.07-8.16-8.19-12.28-12.25-.82-.81-.93-1.34-.05-2.21,4.45-4.37,8.84-8.81,13.25-13.21.35-.35.64-.8,1.31-.84Z"/>
    <path d="M70.49,58.15c-.46.04-.65.44-.93.72-3.33,3.34-6.69,6.65-9.98,10.03-.9.92-1.45.86-2.31-.04-2.17-2.28-2.2-2.23.02-4.44,3.99-3.97,7.99-7.93,11.93-11.95.92-.93,1.48-1,2.44-.03,4.38,4.43,8.83,8.8,13.28,13.16.79.78.83,1.35,0,2.13-2.86,2.71-2.01,2.58-4.56.08-2.97-2.91-5.89-5.87-8.84-8.81-.32-.32-.58-.71-1.06-.84Z"/>
    <path d="M65.13,68.9c.04-2.89,2.46-5.28,5.27-5.19,2.77.09,5.22,2.63,5.18,5.37-.04,2.85-2.48,5.18-5.35,5.12-2.93-.06-5.14-2.36-5.09-5.3ZM72.15,68.9c-.22-1.02-.79-1.77-1.92-1.7-1.09.06-1.81.78-1.76,1.89.05,1.09.78,1.81,1.88,1.76,1.1-.05,1.66-.82,1.8-1.94Z"/>
    <path d="M54.37,47.8c-.03,2.86-2.42,5.21-5.27,5.18-2.75-.03-5.17-2.43-5.2-5.15-.03-2.92,2.41-5.35,5.32-5.3,2.9.05,5.17,2.38,5.14,5.27ZM50.91,47.69c-.05-1.2-.74-1.81-1.84-1.75-1.08.05-1.78.72-1.72,1.88.06,1.13.73,1.8,1.85,1.75,1.11-.05,1.71-.75,1.71-1.87Z"/>
    <path d="M85.88,47.77c-.02-2.89,2.28-5.21,5.18-5.24,2.86-.02,5.27,2.33,5.29,5.17.02,2.78-2.44,5.27-5.22,5.28-2.83.01-5.23-2.38-5.25-5.22ZM92.9,47.66c-.12-1.14-.77-1.78-1.89-1.73-1.11.05-1.74.73-1.68,1.89.05,1.17.75,1.77,1.85,1.74,1.14-.04,1.66-.8,1.72-1.9Z"/>
  </g>
  <g>
    <path class="cls-1" d="M8.05,92.88v-14.25h3.09l4.07,6.66,4.15-6.66h2.97v14.25h-3.36v-4.44c0-.79,0-1.52.03-2.19s.06-1.33.11-1.97l-3.3,5.13h-1.34l-3.22-5.07c.05.58.09,1.21.11,1.87s.03,1.41.03,2.22v4.44h-3.36Z"/>
    <path class="cls-1" d="M25.93,92.88v-14.25h9.94v2.95h-6.58v2.65h5.66v2.81h-5.66v2.89h6.78v2.95h-10.14Z"/>
    <path class="cls-1" d="M45.68,93.08c-1.53,0-2.86-.32-3.99-.97-1.13-.64-2-1.52-2.62-2.64s-.93-2.38-.93-3.79c0-1.06.19-2.03.57-2.92.38-.89.91-1.67,1.6-2.33.69-.66,1.5-1.18,2.43-1.55.94-.37,1.97-.55,3.09-.55s2.26.22,3.24.66c.98.44,1.76,1.01,2.34,1.7l-2.1,2.22c-.5-.47-1.04-.85-1.61-1.12-.57-.27-1.2-.41-1.89-.41-.79,0-1.49.19-2.11.56s-1.11.89-1.47,1.54c-.36.65-.54,1.38-.54,2.2s.19,1.55.56,2.2c.37.65.88,1.17,1.53,1.56.64.39,1.37.58,2.17.58.54,0,1.04-.11,1.49-.33.45-.22.81-.51,1.09-.88s.43-.78.46-1.24h-3.46v-2.71h6.7c.03.15.05.35.06.61.01.26.02.51.03.75,0,.24,0,.43,0,.55,0,1.24-.29,2.33-.87,3.27-.58.94-1.37,1.68-2.37,2.22-1,.54-2.15.8-3.42.8Z"/>
    <path class="cls-1" d="M54.98,92.88v-14.25h3.46v5.6h5.38v-5.6h3.46v14.25h-3.46v-5.56h-5.38v5.56h-3.46Z"/>
    <path class="cls-1" d="M69.03,92.88l5.64-14.25h2.93l5.6,14.25h-3.5l-1.02-2.73h-5.21l-1.02,2.73h-3.42ZM75.14,85.67l-.69,1.85h3.26l-.69-1.87c-.15-.41-.31-.86-.47-1.34-.16-.49-.31-.96-.45-1.43-.15.46-.3.92-.46,1.38-.16.46-.32.93-.5,1.41Z"/>
    <path class="cls-1" d="M84.98,92.88v-14.25h3.46v11.2h6.35v3.05h-9.82Z"/>
    <path class="cls-1" d="M95.57,92.88l5.64-14.25h2.93l5.6,14.25h-3.5l-1.02-2.73h-5.21l-1.02,2.73h-3.42ZM101.68,85.67l-.69,1.85h3.26l-.69-1.87c-.15-.41-.31-.86-.47-1.34-.16-.49-.31-.96-.45-1.43-.15.46-.3.92-.46,1.38-.16.46-.32.93-.5,1.41Z"/>
    <path class="cls-1" d="M113.57,92.88v-6.31l-5.62-7.94h3.93l3.44,4.93,3.14-4.93h3.81l-5.21,7.9v6.35h-3.48Z"/>
    <path class="cls-1" d="M120.47,92.88l5.64-14.25h2.93l5.6,14.25h-3.5l-1.02-2.73h-5.21l-1.02,2.73h-3.42ZM126.58,85.67l-.69,1.85h3.26l-.69-1.87c-.15-.41-.31-.86-.47-1.34-.16-.49-.31-.96-.45-1.43-.15.46-.3.92-.46,1.38-.16.46-.32.93-.5,1.41Z"/>
  </g>
  <g>
    <path class="cls-2" d="M12.94,111.89c-1.13,0-2.14-.26-3.02-.79-.88-.53-1.57-1.26-2.07-2.2-.5-.94-.76-2.01-.76-3.21,0-.87.15-1.68.44-2.43.29-.75.71-1.39,1.23-1.95.53-.55,1.14-.98,1.85-1.28.71-.3,1.48-.46,2.3-.46.55,0,1.1.09,1.65.27.54.18,1.05.42,1.5.73.46.31.84.67,1.13,1.07l-.92.96c-.43-.53-.95-.94-1.55-1.24-.6-.3-1.21-.45-1.82-.45-.85,0-1.61.2-2.29.61s-1.2.97-1.59,1.69c-.39.72-.58,1.54-.58,2.47s.2,1.81.59,2.53c.39.72.94,1.29,1.63,1.7.7.41,1.5.62,2.41.62.62,0,1.23-.13,1.81-.4s1.05-.61,1.4-1.03l.68,1.12c-.27.32-.63.61-1.06.85s-.91.44-1.43.59c-.52.14-1.03.22-1.56.22Z"/>
    <path class="cls-2" d="M25.35,111.89c-.84,0-1.62-.15-2.33-.46s-1.33-.73-1.85-1.29-.93-1.21-1.22-1.96-.43-1.57-.43-2.45.14-1.72.43-2.47c.29-.75.69-1.41,1.22-1.96s1.14-.99,1.85-1.29c.71-.3,1.49-.46,2.33-.46s1.63.15,2.34.46c.71.3,1.33.73,1.85,1.29.53.56.94,1.21,1.22,1.96.29.75.43,1.58.43,2.47s-.14,1.7-.43,2.45-.7,1.41-1.22,1.96c-.53.56-1.14.99-1.85,1.29-.71.3-1.49.46-2.34.46ZM25.35,110.57c.86,0,1.63-.21,2.3-.62s1.2-.99,1.59-1.72c.39-.73.58-1.57.58-2.5s-.19-1.78-.58-2.51c-.39-.73-.92-1.31-1.59-1.73-.67-.42-1.44-.63-2.3-.63s-1.64.21-2.31.63c-.67.42-1.19,1-1.57,1.73-.38.74-.57,1.57-.57,2.51s.19,1.76.57,2.5c.38.74.9,1.31,1.57,1.72s1.44.62,2.31.62Z"/>
    <path class="cls-2" d="M34.71,111.72v-12.05h1.33v10.74h5.71v1.31h-7.04Z"/>
    <path class="cls-2" d="M45.27,111.72v-12.05h1.33v10.74h5.71v1.31h-7.04Z"/>
    <path class="cls-2" d="M55.83,111.72v-12.05h7.21v1.31h-5.88v3.89h4.93v1.31h-4.93v4.24h5.85v1.31h-7.17Z"/>
    <path class="cls-2" d="M71.88,111.89c-1.13,0-2.14-.26-3.02-.79-.88-.53-1.57-1.26-2.07-2.2-.5-.94-.76-2.01-.76-3.21,0-.87.15-1.68.44-2.43.29-.75.71-1.39,1.23-1.95.53-.55,1.14-.98,1.85-1.28.71-.3,1.48-.46,2.3-.46.55,0,1.1.09,1.65.27.54.18,1.04.42,1.5.73s.84.67,1.13,1.07l-.92.96c-.43-.53-.94-.94-1.55-1.24-.6-.3-1.21-.45-1.82-.45-.85,0-1.61.2-2.29.61s-1.2.97-1.59,1.69c-.39.72-.58,1.54-.58,2.47s.2,1.81.59,2.53c.39.72.94,1.29,1.63,1.7.7.41,1.5.62,2.41.62.62,0,1.23-.13,1.81-.4.58-.26,1.05-.61,1.4-1.03l.68,1.12c-.27.32-.63.61-1.06.85-.44.25-.91.44-1.43.59-.52.14-1.03.22-1.56.22Z"/>
    <path class="cls-2" d="M81.53,111.72v-10.74h-3.4v-1.31h8.26v1.31h-3.54v10.74h-1.33Z"/>
    <path class="cls-2" d="M89.01,111.72v-1.27h1.92v-9.51h-1.92v-1.27h5.17v1.27h-1.92v9.51h1.92v1.27h-5.17Z"/>
    <path class="cls-2" d="M101.34,111.72l-4.61-12.05h1.5l2.96,7.85c.2.55.38,1.02.52,1.4.14.38.27.76.4,1.15.13-.4.26-.8.39-1.2.14-.4.31-.87.51-1.42l2.94-7.78h1.5l-4.74,12.05h-1.36Z"/>
    <path class="cls-2" d="M110.55,111.72v-12.05h7.21v1.31h-5.88v3.89h4.93v1.31h-4.93v4.24h5.85v1.31h-7.17Z"/>
    <path class="cls-2" d="M125.14,111.89c-1.85,0-3.29-.77-4.34-2.31l.92-1.03c.53.77,1.08,1.31,1.64,1.62.56.31,1.19.46,1.9.46.52,0,.99-.09,1.4-.26.41-.17.74-.41.98-.72.24-.31.36-.67.36-1.07,0-.65-.27-1.15-.81-1.48-.54-.33-1.3-.62-2.27-.86-1.14-.28-2.02-.67-2.63-1.19s-.91-1.26-.91-2.24c0-.63.17-1.19.52-1.69.35-.49.81-.88,1.4-1.16.59-.28,1.25-.42,1.97-.42.92,0,1.69.19,2.33.56.63.37,1.16.9,1.56,1.58l-.93.93c-.36-.57-.79-1.02-1.28-1.34-.49-.32-1.05-.48-1.7-.48-.75,0-1.36.19-1.83.57-.47.38-.71.86-.71,1.45s.22,1.04.65,1.35c.43.32,1.14.59,2.14.82,1.18.28,2.11.68,2.8,1.21.69.53,1.03,1.25,1.03,2.15,0,.71-.18,1.33-.53,1.87-.35.53-.84.95-1.47,1.25s-1.36.45-2.2.45Z"/>
  </g>
  <g>
    <path class="cls-1" d="M22.17,118.47h-.76l-.3-.96h-1.93l-.3.96h-.76l1.51-4.51h1.04l1.5,4.51ZM19.36,116.94h1.59l-.79-2.32-.79,2.32Z"/>
    <path class="cls-1" d="M27.45,116.54v-.6h2.23c.11,1.55-.81,2.68-2.21,2.68s-2.3-1.01-2.3-2.41.96-2.41,2.3-2.41c.91,0,1.71.55,1.94,1.32l-.66.2c-.17-.49-.7-.85-1.29-.85-.92,0-1.58.73-1.58,1.75s.67,1.75,1.59,1.75c.82,0,1.47-.62,1.5-1.41h-1.53Z"/>
    <path class="cls-1" d="M32.28,118.59c-.97,0-1.65-.72-1.65-1.75s.67-1.75,1.65-1.75,1.65.72,1.65,1.75-.68,1.75-1.65,1.75ZM32.28,115.71c-.58,0-1,.48-1,1.13s.42,1.13,1,1.13,1-.48,1-1.13-.42-1.13-1-1.13Z"/>
    <path class="cls-1" d="M34.54,115.23h.69l.87,2.7.88-2.7h.7l-1.11,3.24h-.91l-1.11-3.24Z"/>
    <path class="cls-1" d="M38.85,115.77h-.46v-.54h.5l.08-.78h.52v.78h.75v.54h-.75v1.74c0,.29.17.5.45.5.08,0,.23-.02.34-.06v.55c-.15.06-.37.09-.54.09-.54,0-.89-.42-.89-1.04v-1.78Z"/>
    <path class="cls-1" d="M41.58,117.71c.23,0,.4.17.4.42s-.17.42-.4.42-.4-.18-.4-.42.17-.42.4-.42Z"/>
    <path class="cls-1" d="M46.69,118.59c-.97,0-1.65-.72-1.65-1.75s.67-1.75,1.65-1.75,1.65.72,1.65,1.75-.68,1.75-1.65,1.75ZM46.69,115.71c-.58,0-1,.48-1,1.13s.42,1.13,1,1.13,1-.48,1-1.13-.42-1.13-1-1.13Z"/>
    <path class="cls-1" d="M51.07,114.31c-.1-.03-.2-.06-.31-.06-.26,0-.42.2-.42.48v.5h.73v.54h-.73v2.69h-.64v-2.69h-.46v-.54h.46v-.55c0-.62.35-1.04.87-1.04.19,0,.35.03.51.09v.58Z"/>
    <path class="cls-1" d="M54.34,118.47v-4.51h1l1.37,3.53,1.36-3.53h1.01v4.51h-.71v-3.56l-1.38,3.56h-.55l-1.38-3.55v3.55h-.71Z"/>
    <path class="cls-1" d="M62.74,117.48l.56.2c-.18.53-.78.91-1.44.91-.95,0-1.64-.75-1.64-1.78s.68-1.71,1.62-1.71,1.61.71,1.61,1.71c0,.08,0,.17-.01.24h-2.55c.08.57.46.96.96.96.39,0,.75-.23.89-.53ZM62.78,116.55c-.07-.51-.45-.87-.95-.87s-.85.35-.94.87h1.89Z"/>
    <path class="cls-1" d="M65.11,118.81c.14.39.5.66.91.66.56,0,.96-.38.96-1.07v-.41c-.26.34-.64.54-1.09.54-.88,0-1.53-.7-1.53-1.68s.64-1.73,1.53-1.73c.47,0,.85.21,1.1.55v-.44h.64v3.18c0,1.04-.66,1.65-1.59,1.65-.73,0-1.35-.46-1.52-1.11l.59-.13ZM67,116.85c0-.66-.42-1.13-1-1.13s-1,.48-1,1.13.42,1.1,1,1.1,1-.46,1-1.1Z"/>
    <path class="cls-1" d="M71.66,116.48v1.98h-.64v-1.92c0-.48-.27-.82-.72-.83-.45,0-.83.38-.83.89v1.86h-.65v-4.7h.65v1.85c.2-.32.58-.52.97-.52.75,0,1.23.58,1.23,1.38Z"/>
    <path class="cls-1" d="M75.29,115.23h.65v3.24h-.65v-.48c-.26.38-.66.61-1.13.61-.89,0-1.52-.73-1.52-1.75s.63-1.75,1.52-1.75c.47,0,.87.23,1.13.61v-.48ZM75.28,116.85c0-.66-.42-1.13-1-1.13s-1,.48-1,1.13.42,1.13,1,1.13,1-.48,1-1.13Z"/>
    <path class="cls-1" d="M77.77,118.47h-.64v-4.7h.64v4.7Z"/>
    <path class="cls-1" d="M81.45,115.23h.65v3.24h-.65v-.48c-.26.38-.66.61-1.13.61-.89,0-1.52-.73-1.52-1.75s.63-1.75,1.52-1.75c.47,0,.87.23,1.13.61v-.48ZM81.44,116.85c0-.66-.42-1.13-1-1.13s-1,.48-1,1.13.42,1.13,1,1.13,1-.48,1-1.13Z"/>
    <path class="cls-1" d="M83.29,119.24c.13.05.28.09.4.09.42,0,.54-.45.7-.85l-1.36-3.25h.71l.95,2.39.82-2.39h.67l-1.18,3.31c-.27.75-.53,1.36-1.17,1.36-.17,0-.38-.04-.53-.11v-.56Z"/>
    <path class="cls-1" d="M89.44,115.23h.65v3.24h-.65v-.48c-.26.38-.66.61-1.13.61-.89,0-1.52-.73-1.52-1.75s.63-1.75,1.52-1.75c.47,0,.87.23,1.13.61v-.48ZM89.44,116.85c0-.66-.42-1.13-1-1.13s-1,.48-1,1.13.42,1.13,1,1.13,1-.48,1-1.13Z"/>
    <path class="cls-1" d="M94.28,118.47h-.71v-4.51h.71v4.51Z"/>
    <path class="cls-1" d="M98.42,116.49v1.97h-.64v-1.92c0-.48-.27-.83-.72-.83s-.83.38-.83.89v1.86h-.65v-3.24h.64v.41c.21-.34.59-.54.98-.54.74,0,1.22.59,1.22,1.39Z"/>
    <path class="cls-1" d="M99.95,113.87c.24,0,.41.17.41.41s-.17.43-.41.43-.4-.18-.4-.43.17-.41.4-.41ZM100.28,118.47h-.64v-3.24h.64v3.24Z"/>
    <path class="cls-1" d="M101.8,115.77h-.46v-.54h.5l.08-.78h.52v.78h.75v.54h-.75v1.74c0,.29.17.5.45.5.08,0,.23-.02.34-.06v.55c-.16.06-.37.09-.54.09-.54,0-.89-.42-.89-1.04v-1.78Z"/>
    <path class="cls-1" d="M104.68,113.87c.24,0,.41.17.41.41s-.17.43-.41.43-.4-.18-.4-.43.17-.41.4-.41ZM105,118.47h-.64v-3.24h.64v3.24Z"/>
    <path class="cls-1" d="M108.77,115.23h.65v3.24h-.65v-.48c-.26.38-.66.61-1.13.61-.89,0-1.52-.73-1.52-1.75s.63-1.75,1.52-1.75c.47,0,.87.23,1.13.61v-.48ZM108.76,116.85c0-.66-.42-1.13-1-1.13s-1,.48-1,1.13.42,1.13,1,1.13,1-.48,1-1.13Z"/>
    <path class="cls-1" d="M110.87,115.77h-.46v-.54h.5l.08-.78h.52v.78h.75v.54h-.75v1.74c0,.29.17.5.45.5.08,0,.23-.02.34-.06v.55c-.16.06-.37.09-.54.09-.54,0-.89-.42-.89-1.04v-1.78Z"/>
    <path class="cls-1" d="M113.74,113.87c.24,0,.41.17.41.41s-.17.43-.41.43-.4-.18-.4-.43.17-.41.4-.41ZM114.07,118.47h-.64v-3.24h.64v3.24Z"/>
    <path class="cls-1" d="M115.07,115.23h.69l.87,2.7.88-2.7h.7l-1.11,3.24h-.91l-1.11-3.24Z"/>
    <path class="cls-1" d="M121.34,117.48l.56.2c-.18.53-.78.91-1.44.91-.95,0-1.64-.75-1.64-1.78s.68-1.71,1.62-1.71,1.61.71,1.61,1.71c0,.08,0,.17-.01.24h-2.55c.08.57.46.96.96.96.39,0,.75-.23.89-.53ZM121.38,116.55c-.07-.51-.45-.87-.95-.87s-.85.35-.94.87h1.89Z"/>
  </g>
</svg>