<?xml version="1.0" encoding="UTF-8"?>
<svg id="Layer_1" data-name="Layer 1" xmlns="http://www.w3.org/2000/svg" xmlns:xlink="http://www.w3.org/1999/xlink" viewBox="0 0 141.73 141.73">
  <defs>
    <style>
      .cls-1 {
        fill: url(#linear-gradient-2);
      }

      .cls-2, .cls-3 {
        fill: #231f20;
      }

      .cls-4 {
        fill: #010102;
      }

      .cls-5 {
        fill: #fff;
      }

      .cls-5, .cls-3 {
        fill-rule: evenodd;
      }

      .cls-6 {
        stroke: #a6ce38;
        stroke-miterlimit: 22.93;
        stroke-width: .2px;
      }

      .cls-6, .cls-7 {
        fill: none;
      }

      .cls-8 {
        fill: url(#linear-gradient-3);
      }

      .cls-9 {
        clip-path: url(#clippath-1);
      }

      .cls-7 {
        clip-rule: evenodd;
      }

      .cls-10 {
        clip-path: url(#clippath-2);
      }

      .cls-11 {
        fill: url(#linear-gradient);
      }

      .cls-12 {
        clip-path: url(#clippath);
      }
    </style>
    <clipPath id="clippath">
      <path class="cls-7" d="M10.24,31.43h121.25s0,.04,0,.05c0,3.8,2.68,6.9,5.96,6.9,0,0,.02,0,.03,0v57.27s-.02,0-.03,0c-3.28,0-5.96,3.1-5.96,6.9h0s-60.62,0-60.62,0H10.24c0-3.8-2.68-6.9-5.96-6.9,0,0-.02,0-.03,0v-57.27s.02,0,.03,0c3.28,0,5.96-3.1,5.96-6.9,0-.02,0-.04,0-.05"/>
    </clipPath>
    <linearGradient id="linear-gradient" x1="13.16" y1="16.2" x2="128.57" y2="117.78" gradientUnits="userSpaceOnUse">
      <stop offset="0" stop-color="#a25742"/>
      <stop offset=".21" stop-color="#fff9ae"/>
      <stop offset=".36" stop-color="#faa74b"/>
      <stop offset=".55" stop-color="#fff"/>
      <stop offset=".7" stop-color="#ffcb05"/>
      <stop offset=".85" stop-color="#a25742"/>
      <stop offset="1" stop-color="#faa74b"/>
    </linearGradient>
    <clipPath id="clippath-1">
      <polygon class="cls-7" points="12.81 34.39 128.93 34.39 129.18 35.18 129.53 36.03 129.96 36.83 130.45 37.59 131 38.29 131.62 38.95 132.3 39.53 133.04 40.05 133.83 40.5 134.52 40.79 134.52 93.24 133.83 93.53 133.04 93.98 132.3 94.5 131.62 95.09 131 95.74 130.44 96.44 129.96 97.2 129.53 98 129.18 98.85 128.94 99.59 12.79 99.59 12.55 98.85 12.2 98 11.78 97.2 11.29 96.44 10.73 95.74 10.11 95.09 9.44 94.5 8.7 93.98 7.9 93.53 7.21 93.24 7.21 40.79 7.9 40.5 8.7 40.06 9.44 39.53 10.12 38.94 10.73 38.29 11.29 37.59 11.78 36.83 12.2 36.03 12.55 35.18 12.81 34.39"/>
    </clipPath>
    <linearGradient id="linear-gradient-2" x1="70.87" y1="25.17" x2="70.87" y2="108.81" gradientUnits="userSpaceOnUse">
      <stop offset="0" stop-color="#8b0304"/>
      <stop offset=".63" stop-color="#ed1c24"/>
      <stop offset="1" stop-color="#ed1c24"/>
    </linearGradient>
    <clipPath id="clippath-2">
      <path class="cls-7" d="M70.87,26.59c15.38,0,27.84,2.54,27.84,5.68s-12.47,5.68-27.84,5.68-27.84-2.54-27.84-5.68,12.47-5.68,27.84-5.68"/>
    </clipPath>
    <linearGradient id="linear-gradient-3" x1="39.93" y1="37.72" x2="101.8" y2="26.81" gradientUnits="userSpaceOnUse">
      <stop offset="0" stop-color="#eaa12c"/>
      <stop offset=".12" stop-color="#f9f3cd"/>
      <stop offset=".25" stop-color="#fff"/>
      <stop offset=".41" stop-color="#f9f3cd"/>
      <stop offset=".81" stop-color="#e1a533"/>
      <stop offset="1" stop-color="#be6e31"/>
    </linearGradient>
  </defs>
  <path class="cls-2" d="M90.22,115.99l-2.62-5.71c.49,1.23-1.14,5.5.97,5.53v.18h-2.39v-.18c1.01.82,2.03-6.85,0-6.42v-.18h1.95l2.45,5.31,2.43-5.31h1.93v.18c-1.05-.73-2.02,6.79,0,6.42v.18h-2.91v-.18c1.62.65.78-4.44.97-5.53l-2.61,5.71h-.16ZM83.17,113.36l-1.14-2.74-1.17,2.74h2.32ZM83.32,113.73h-2.63c.22.3-1.68,1.85.16,2.08v.18h-2.14v-.18c.85.52,3.09-6.14,3.5-6.76h.17c1.06,1.48,1.6,6.12,3.53,6.76v.18h-2.68v-.18c.89-.03.78-.64.09-2.08ZM77.64,109.05v2.35h-.18c.64-2.06-4.95-2.64-2.34.1,3.41,1.46,4.9,4.69-1.28,4.65h-.18v-2.33h.18c-.58,2.03,4.85,2.77,2.81-.16-1.96-.76-6.19-4.59.82-4.61h.18ZM71.94,109.05v2.35h-.18c.64-2.06-4.95-2.64-2.34.1,3.41,1.46,4.9,4.69-1.28,4.65h-.18v-2.33h.18c-.58,2.03,4.85,2.77,2.81-.16-1.96-.76-6.19-4.59.82-4.61h.18ZM64.38,113.36l-1.14-2.74-1.17,2.74h2.32ZM64.53,113.73h-2.63c.22.3-1.68,1.85.16,2.08v.18h-2.14v-.18c.85.52,3.09-6.14,3.5-6.76h.17c1.06,1.48,1.6,6.12,3.53,6.76v.18h-2.68v-.18c.89-.03.78-.64.09-2.08ZM126.55,115.5c3.76,1.72,5.87-6.87,0-5.77v5.77ZM124.61,115.99v-.18c1.05.73,2.02-6.78,0-6.42v-.18c7.62-2,10.54,7.62,0,6.79ZM116.91,109.2h1.82l4.16,5.1c-.47-1.22,1.11-4.82-.97-4.91v-.18h2.39v.18c-1.67-.82-.76,5.93-.97,6.72h-.18l-4.47-5.47c.48,1.23-1.12,5.11.97,5.18v.18h-2.39v-.18c1.63.69.78-4.73.97-5.72-.27-.17-.28-.66-1.34-.71v-.18ZM112.93,109.57v2.68c.45-.44,1.99,1.04,2.56-.98h.18v2.37h-.18c-.07-1.05-.64-1.08-2.56-1.01-.4,2.33.58,5.04,3.68,1.67h.2l-.59,1.7h-5.23v-.18c1.11.68,1.99-6.8,0-6.42v-.18h5.23l.07,1.5h-.19c0-1.26-1.54-1.2-3.18-1.13ZM110.41,114.12l.16.04-.58,1.84h-5.25v-.18c1.04.73,2.02-6.78,0-6.42v-.18h3.07v.18c-2.23.12-1.94,10.63,2.6,4.73ZM99.81,115.5c1.36,1.24,6.07-2.77,0-2.78v2.78ZM99.81,112.25c1.81,1.03,5.43-2.72,0-2.6v2.6ZM102.43,112.53c4.13,1.62-1.22,4.48-4.55,3.47v-.18c1.05.72,2.02-6.77,0-6.42v-.18c1.46-.09,8.56-.4,4.55,3.32ZM52.93,115.99l-2.62-5.71c.49,1.23-1.14,5.5.97,5.53v.18h-2.39v-.18c1.01.82,2.03-6.86,0-6.42v-.18h1.95l2.45,5.31,2.43-5.31h1.93v.18c-1.05-.73-2.02,6.79,0,6.42v.18h-2.91v-.18c1.62.65.78-4.44.97-5.53l-2.61,5.71h-.16ZM46.24,109.39v-.18h2.39v.18c-3.22.55,2.66,7.89-5.26,6.37-1.97-.49.38-5.86-1.96-6.37v-.18h2.93v.18c-5.26,6.92,6.48,9.58,1.91,0ZM41.09,115.81v.18h-2.91v-.18c1.05.92,1.96-7.08,0-6.42v-.18h2.91v.18c-1.05-.91-1.96,7.08,0,6.42ZM33.01,115.99l-2.62-5.71c.49,1.23-1.14,5.5.97,5.53v.18h-2.39v-.18c1.01.82,2.03-6.85,0-6.42v-.18h1.95l2.45,5.31,2.43-5.31h1.93v.18c-1.05-.73-2.02,6.79,0,6.42v.18h-2.91v-.18c1.62.65.78-4.44.97-5.53l-2.61,5.71h-.16ZM24.7,109.57v2.68c.45-.44,1.99,1.04,2.56-.98h.18v2.37h-.18c-.07-1.05-.64-1.08-2.56-1.01-.4,2.33.58,5.04,3.68,1.67h.2l-.59,1.7h-5.23v-.18c1.11.68,1.99-6.81,0-6.42v-.18h5.23l.07,1.5h-.19c0-1.26-1.54-1.2-3.18-1.13ZM17.84,112.5c1.71.76,3.71-3.37,0-2.83v2.83ZM22.66,115.99h-1.82l-2.31-3.18c-.1,0-.29.02-.69,0,.35.61-.89,2.92.97,2.99v.18h-2.91v-.18c1.04.73,2.02-6.78,0-6.42v-.18c1.44-.1,8.62-.32,3.62,3.49,1.48,1.44.47,2.06,3.13,3.12v.18ZM12.13,112.52c1.69,1.17,3.64-3.31,0-2.82v2.82ZM12.13,112.81c.35.61-.9,2.93.97,3v.18h-2.91v-.18c1.04.74,2.02-6.79,0-6.42v-.18c2.77-1.24,9.34,2.79,1.94,3.61Z"/>
  <g>
    <g class="cls-12">
      <rect class="cls-11" x="4.25" y="31.43" width="133.23" height="71.12"/>
    </g>
    <g class="cls-9">
      <rect class="cls-1" x="7.21" y="34.39" width="127.31" height="65.2"/>
    </g>
    <polygon class="cls-6" points="12.8 34.39 128.93 34.39 129.18 35.18 129.53 36.03 129.95 36.83 130.44 37.59 131 38.29 131.62 38.95 132.3 39.53 133.04 40.06 133.83 40.5 134.52 40.79 134.52 93.24 133.83 93.53 133.04 93.98 132.3 94.5 131.62 95.09 131 95.74 130.44 96.44 129.95 97.2 129.53 98 129.18 98.85 128.94 99.59 12.79 99.59 12.55 98.85 12.2 98 11.78 97.2 11.29 96.44 10.73 95.74 10.11 95.09 9.43 94.5 8.7 93.98 7.9 93.53 7.21 93.24 7.21 40.79 7.9 40.5 8.7 40.06 9.43 39.53 10.12 38.95 10.73 38.29 11.29 37.59 11.78 36.83 12.2 36.03 12.55 35.18 12.8 34.39"/>
    <path class="cls-3" d="M70.87,25.53c16.13,0,29.2,3.02,29.2,6.74s-13.07,6.74-29.2,6.74-29.2-3.02-29.2-6.74,13.07-6.74,29.2-6.74"/>
    <g class="cls-10">
      <rect class="cls-8" x="43.02" y="26.59" width="55.69" height="11.35"/>
    </g>
    <path class="cls-5" d="M127.19,38.31c1.9,0,3.43,1.47,3.43,3.29s-1.54,3.29-3.43,3.29-3.43-1.47-3.43-3.29,1.54-3.29,3.43-3.29"/>
    <path class="cls-2" d="M127.87,40.79c0-.09-.02-.17-.05-.24-.03-.07-.09-.13-.17-.18-.07-.04-.14-.07-.22-.08-.08-.01-.19-.02-.32-.02h-.46v1.18h.39c.13,0,.25-.01.36-.04.11-.02.2-.07.27-.12.07-.06.12-.13.15-.2.03-.08.05-.17.05-.29M129.17,43.28h-.9l-1.12-1.35h-.49v1.35h-.65v-3.49h1.11c.25,0,.45,0,.59.03.15.02.29.07.44.15.16.09.27.19.35.31.07.12.11.28.11.47,0,.25-.07.46-.22.62-.15.16-.34.29-.57.38l1.37,1.52ZM130.17,41.6c0-.79-.29-1.47-.87-2.03-.58-.56-1.28-.84-2.1-.84s-1.52.28-2.1.84c-.58.56-.87,1.24-.87,2.03s.29,1.47.87,2.04c.58.56,1.28.84,2.1.84s1.52-.28,2.1-.84c.58-.56.87-1.24.87-2.04ZM130.63,41.6c0,.91-.34,1.69-1.01,2.33-.67.64-1.48.97-2.43.97s-1.76-.32-2.43-.97c-.67-.64-1.01-1.42-1.01-2.33s.34-1.69,1.01-2.33c.67-.64,1.48-.96,2.43-.96s1.76.32,2.43.96c.67.64,1.01,1.42,1.01,2.33Z"/>
    <path class="cls-3" d="M91.56,78.81l-.19-.27-.18-.24-.16-.2-.14-.16-.04-.04-.03.03-.11.15-.13.19-.16.25-.19.3-.21.36-.11.19h2.03l-.17-.26-.21-.31ZM61.08,71.7l-.18.33-.26.33-.3.28-.33.24-.36.21-.4.2-.09.03-.04.02h-.02s0,.01,0,.01l-.02.02-.13.06-.03.02h0s0,.02,0,.02l-.02.1-.02.15-.02.19v.23s-.02.26-.02.26v.3s0,.77,0,.77v.14s.12.02.12.02l.22.03.27.02.32.02h.36s.41.01.41.01h.61s.55-.01.55-.01l.48-.02.41-.02.35-.03.27-.03.14-.02v-.04s.01-.17.01-.17v-.65s0-.19,0-.19v-.18s-.03-.17-.03-.17l-.02-.15-.03-.14-.03-.13-.04-.12-.04-.11-.03-.08-.02-.05h0s-.01-.02-.01-.02l-.04-.02-.06-.03-.06-.02-.06-.03-.09-.04-.33-.15-.33-.19-.31-.22-.28-.27-.24-.32-.19-.37v-.03ZM60.89,86.62l.06-.2.23-.41.29-.35.33-.3.37-.26.4-.23.42-.2.09-.04.06-.03h.02s0-.02,0-.02h0s0-.01,0-.01h0s0-.03,0-.03v-.03s.03-.08.03-.08l.02-.16.02-.23.02-.29.02-.35v-.4s.02-.45.02-.45v-.51s0-.06,0-.06v-.19s-.01-.08-.01-.08l-.12-.02-.22-.02-.27-.02-.31-.02h-.36s-.4-.01-.4-.01h-.62s-.56.01-.56.01l-.49.02-.43.03-.36.03-.29.04-.21.04-.08.02-.02.08-.02.14v.21s0,.3,0,.3v.31s.02.29.02.29l.02.27.03.25.03.24.03.22.04.19.04.17.04.14.03.09.04.02.06.03.08.04.36.18.35.21.32.23.29.27.26.32.21.38.09.26ZM20.09,87.44l-.56-.46-.45-.4-.42-.41-.4-.42-.37-.44-.34-.45-.32-.46-.29-.48-.26-.49-.24-.5-.21-.5-.18-.51-.15-.52-.11-.52-.08-.53-.05-.53-.02-.54.02-.6.06-.6.1-.59.14-.59.18-.58.22-.57.25-.57.29-.56.32-.55.35-.53.38-.51.41-.49.44-.47.46-.45.49-.43.52-.41.55-.4.57-.37.59-.35.6-.32.63-.3.64-.28.66-.25.68-.23.69-.2.7-.18.71-.15.71-.12.72-.09.73-.07.73-.04h.74s.58,0,.58,0l.58.03.58.05.58.06.58.08.58.1.59.12.58.14.53.13.46.11.39.09.33.08.26.06.18.04h.05s.12,0,.12,0h.09s.12-.03.12-.03l.28-.05.17-.03.17-.03.17-.02.16-.02.16-.02h.15s.15-.02.15-.02h.17s.49.03.49.03l.5.1.49.17.47.23.45.29.42.34.4.39.37.44.34.47.3.49.26.5.21.52.17.53.12.55.07.56.02.57-.02.45-.07.45-.11.44-.16.42-.21.39-.25.36-.29.33-.32.3-.34.26-.37.23-.39.19-.4.16-.42.12-.43.08-.44.05-.47.02-.54-.03-.54-.1-.53-.16-.51-.22-.48-.29-.45-.34-.42-.4-.38-.43-.1-.12-.08-.1-.07-.09-.07-.08-.07-.08-.06-.07-.05-.06v-.02s-.24-.22-.24-.22l-.25-.22-.26-.21-.27-.19-.28-.18-.29-.17-.3-.16-.31-.14-.32-.13-.32-.11-.31-.09-.32-.08-.32-.06-.32-.04-.32-.02h-.32s-.43,0-.43,0l-.4.04-.36.06-.33.09-.29.11-.26.13-.24.15-.21.17-.18.18-.15.19-.13.2-.11.22-.08.24-.06.27-.04.3v.33s.02.61.02.61l.09.58.16.55.22.53.28.51.35.5.42.49.5.47.55.43.57.38.6.32.62.26.65.2.68.15.71.09.75.03h.31s.32-.02.32-.02l.32-.03.31-.04.3-.05.3-.06.29-.07.29-.08.28-.09.28-.1.28-.11.28-.12.27-.14.27-.15.27-.16.28-.18.05-.03.03-.02.03-.02.07-.05.04-.02.05-.04.2-.13.21-.12.21-.11.21-.1.22-.08.23-.06.24-.04h.23s.29,0,.29,0l.28.04.28.07.27.1.26.13.24.16.23.18.21.2.19.23.17.25.15.27.12.28.09.29.07.3.04.31v.3s0,.26,0,.26l-.02.26-.04.26-.06.26-.07.25-.08.25-.1.25-.11.25-.12.24-.13.23-.14.23-.15.22-.16.21-.17.21-.18.2-.17.17-.13.14-.16.14-.16.14-.16.13-.16.12-.16.11-.17.1-.18.09-.18.07-.18.06-.18.05-.19.04-.19.03-.19.02h-.19s-.19.02-.19.02h-.04s-.11,0-.11,0h0l-.23.12-.51.24-.52.23-.53.21-.54.19-.55.18-.56.16-.57.14-.57.12-.58.11-.59.09-.59.08-.6.06-.61.04-.61.02h-.62s-.84,0-.84,0l-.83-.04-.81-.07-.8-.1-.78-.13-.76-.16-.75-.19-.73-.22-.71-.26-.69-.28-.67-.31-.65-.34-.63-.38-.61-.4-.59-.43ZM110.3,66.1l-.27.31-.36.3-.39.25-.43.22-.47.19-.5.17-.53.14-.56.12-.59.1-.62.07-.65.05-.68.03h-.72s-.84,0-.84,0l-.79-.05-.74-.08-.7-.11-.65-.15-.61-.19-.57-.23-.53-.28-.5-.35-.46-.41-.42-.48-.39-.53-.35-.59-.32-.64-.29-.69-.25-.7v-.03s-.03-.05-.03-.05l-.02-.05v-.04s-.03-.04-.03-.04l-.02-.06-.02-.05h0s-.29-.81-.29-.81l-.31-.67-.31-.54-.31-.4-.29-.28-.26-.17-.25-.09-.16-.02v.13s0,.14,0,.14v.14s0,.13,0,.13v.12s0,.11,0,.11v1.24s0,.26,0,.26v.23s.03.2.03.2l.02.15.02.11v.03s0,0,0,0h.02s.03.03.03.03h.02s.02.02.02.02l.07.03.05.02.05.02.14.05.39.19.35.21.32.24.3.27.26.32.21.38.14.42.05.45-.05.49-.15.47-.25.42-.31.35-.36.28-.39.22-.42.17-.41.13.15.02.39.05.38.07.36.08.35.1.33.11.33.13.32.15.31.17.31.18.3.2.29.22.28.23.31.28.31.32.32.35.33.38.33.41.34.44.35.47.36.51.38.56.41.62.44.69.48.76.51.82.54.89.57.96.61,1.03.17.28.18.3.19.33.2.35.21.37.22.39.23.41.24.43.41.73.38.64.34.55.31.46.27.36.22.26.15.15.03.02h.04s.14.06.14.06l.09.03.11.03.44.13.43.17.39.2.37.25.24.23.17-.2.32-.29.36-.25.39-.22.4-.19.14-.06.11-.05.1-.05.08-.04.06-.03h.01s0-.01,0-.01l.04-.1.05-.16.05-.21.04-.26.04-.31.04-.37.03-.43.03-.5.02-.56.02-.63v-.69s.02-.75.02-.75v-.81s0-3.75,0-3.75v-.26s-.01-.22-.01-.22v-.2s-.03-.16-.03-.16l-.02-.13-.02-.09-.02-.06v-.02s-.01,0-.01,0h0s-.01-.02-.01-.02l-.02-.02-.03-.03-.05-.03-.06-.04-.09-.05h-.03s-.04-.03-.04-.03l-.04-.02-.05-.02-.05-.03-.06-.02-.06-.03-.09-.04-.34-.17-.32-.19-.3-.22-.27-.26-.25-.3-.2-.36-.13-.41-.04-.44.06-.53.18-.5.28-.43.35-.35.39-.28.43-.23.47-.19.51-.16.55-.13.6-.11.65-.09.7-.08.76-.06.78-.04-.45-.02-.74-.06-.69-.08-.65-.1-.61-.12-.57-.14-.52-.17-.48-.19-.44-.23-.4-.27-.3-.28ZM93.94,53.36l.04-.06.05-.08.05-.12.05-.16.05-.2.04-.24.02-.28v-.31s0-.21,0-.21l-.02-.18-.03-.15-.03-.12-.04-.09-.04-.07-.04-.06-.05-.05-.06-.05-.08-.05-.11-.05-.13-.05-.17-.04-.2-.03-.23-.02h-.26s-.11,0-.11,0v.04s-.03.22-.03.22l-.02.27v.32s-.01.37-.01.37v1.24s0,.08,0,.08v.08s0,.09,0,.09v.08s0,.09,0,.09v.1s0,.02,0,.02h.04s.28,0,.28,0l.25-.02.21-.04.17-.05.14-.05.11-.06.08-.06.05-.05ZM78.66,65.43l-.11.19-.19.29-.21.29-.23.29-.2.23-.18.19-.17.17-.17.17-.17.15-.16.14-.17.13-.18.12-.18.1-.19.09-.19.07-.19.06-.2.04-.2.03-.2.02h-.22s0,0,0,0l.19.05.45.14.42.18.39.22.36.28.32.34.25.42.16.47.05.5-.05.47-.15.44-.23.39-.28.33-.32.27-.35.23-.38.2-.39.17-.14.06-.2.09-.14.07v.03s-.04.14-.04.14l-.04.18-.03.22-.03.28-.03.38-.02.47-.02.56-.02.65v.74s-.02.83-.02.83v.91s0,.83,0,.83v.77s.02.71.02.71l.02.65.02.58.02.52.03.46.03.39.04.33.04.28.04.23.04.15.04.02.1.04.36.15.37.19.34.23.28.25.18-.13.42-.21.45-.17.47-.13.09-.02.06-.02h.06s.05-.03.05-.03l.08-.02h.03s.15-.08.15-.08l.2-.15.29-.28.36-.41.41-.54.45-.67.49-.79.53-.91.17-.31.17-.3.16-.28.15-.26.14-.25.13-.23.13-.22.11-.2.1-.18.12-.2.12-.21.13-.23.14-.25.16-.27.17-.29.18-.3.4-.69.37-.65.35-.62.33-.59.3-.56.28-.53.26-.5.24-.46.21-.44.19-.4.16-.37.14-.33.12-.3.09-.26.07-.22.06-.22.09-.31.12-.32.14-.31.17-.29.2-.27.23-.24.26-.21.24-.15h-.46s-.97.02-.97.02h-.98s-.91-.03-.91-.03l-.84-.04-.78-.05-.71-.07-.65-.08-.59-.1-.53-.12-.48-.14-.44-.18-.41-.22-.38-.27-.33-.35-.27-.42-.14-.41ZM68.66,61.94h-.06s-.22-.05-.22-.05l-.21-.06-.21-.08-.2-.11-.22-.15-.21-.21-.17-.23-.14-.24-.11-.24-.09-.25-.08-.26-.07-.28-.06-.27-.04-.22-.04-.16-.04-.13v-.04s-.11-.02-.11-.02h-.13s-.16-.02-.16-.02h-.19s-.21,0-.21,0h-.17s-.14.03-.14.03h0s0,.04,0,.04l-.02.17v.21s-.02.26-.02.26v.86s.03.44.03.44l.04.36.04.28.05.2h0s.2.05.2.05l.31.05.4.04.48.03.56.02h.64s.48,0,.48,0h.08ZM68.07,50.84h-1.28s-.46.03-.46.03l-.39.03-.32.04-.23.05-.05.02v.04s-.06.24-.06.24l-.04.33-.03.41-.02.48v.55s0,.24,0,.24v.2s.01.04.01.04l.18.02h.22s.26.01.26.01h.19s.17-.01.17-.01h.14s.11-.03.11-.03h.07s0-.03,0-.03l.04-.09.04-.12v-.02s0-.06,0-.06l.18-.63.2-.48.25-.45.32-.4.39-.33.09-.05ZM51.69,49.31l-.18.24-.26.25-.28.21-.3.18-.31.15-.15.06-.04.02-.03.02h-.01s-.03.04-.03.04l-.05.06-.06.1-.07.15-.07.2-.07.24-.06.29-.06.34-.05.41-.05.47-.04.53-.03.59-.02.65v.71s-.02.77-.02.77v.71s.01.68.01.68l.02.65.02.61.03.58.04.54.04.51.05.47.05.42.06.37.06.3.05.23.02.07.08.03.1.05.36.17.36.22.34.25.3.3.26.34.04-.04.28-.22.31-.19.3-.15.26-.12.21-.1.18-.09.14-.07.11-.06.07-.04h0s0-.01,0-.01l.04-.06.06-.13.07-.19.07-.25.07-.31.07-.36.06-.41.06-.47.05-.53.04-.6.03-.66.03-.72.02-.78v-.84s.02-.9.02-.9v-.66s-.01-.61-.01-.61v-.56s-.03-.51-.03-.51l-.02-.46-.03-.4-.04-.35-.04-.29-.04-.25-.05-.2-.05-.17-.05-.13-.04-.08h0s-.02-.02-.02-.02l-.12-.05-.15-.06-.18-.07-.22-.08-.27-.1-.32-.14-.32-.18-.3-.22-.28-.27h-.01ZM36.45,49.86l.31-.44.3-.42.3-.4.29-.38.32-.4.34-.38.35-.35.36-.33.38-.3.39-.27.4-.24.41-.21.45-.18.49-.15.53-.13.57-.1.61-.08.65-.05.69-.03h.73s.78,0,.78,0l.72.02.67.04.61.05.57.07.51.09.47.11.42.13.39.16.37.2.34.25.3.3.05.08.04-.07.23-.27.25-.22.28-.19.3-.15.31-.13.32-.1.34-.08.35-.06.37-.05.39-.03.41-.02h.42s.13,0,.13,0h.21s.3,0,.3,0h.4s.49.01.49.01h.59s.68.02.68.02h.78s.41.02.41.02h.41s.41.01.41.01h.4s.4.01.4.01h.4s.4,0,.4,0h.39s.39,0,.39,0h.39s.39,0,.39,0h.39s.38,0,.38,0h.38s.38,0,.38,0h.38s.61,0,.61,0h.6s.59-.01.59-.01h.57s.56-.02.56-.02h.55s.54-.03.54-.03l.52-.02.51-.02.5-.02.49-.03.48-.03.46-.03.45-.03.44-.04.43-.04h.08s.07-.01.07-.01h.06s.06,0,.06,0h.05s.05,0,.05,0h.05s.08,0,.08,0l.44.02.45.07.44.12.42.17.4.22.38.27.35.31.32.35.28.39.24.41.2.44.16.46.12.48.09.5.05.51.02.53v.36s-.05.35-.05.35l-.07.34-.1.34-.13.32-.16.31-.19.28-.22.26-.25.23-.27.2-.29.17-.3.14-.32.1-.32.07-.33.04h-.33s-.21,0-.21,0h-.2s-.2-.04-.2-.04l-.2-.04-.2-.05-.19-.06-.19-.07-.19-.08-.2-.11-.2-.13-.19-.15-.19-.16-.19-.18-.18-.18.17.39.15.43.12.46.09.48.06.5.03.53v.55s0,.66,0,.66l-.04.63-.06.59-.09.57-.12.53-.15.5-.18.47-.22.45-.26.41-.3.37-.34.32-.38.27-.41.21-.16.05.16-.03.33-.07.31-.08.28-.09.27-.1.25-.11.23-.12.22-.13.2-.14.19-.15.19-.16.06-.06.07-.07.08-.08.09-.09.09-.1.1-.11.1-.12.12-.14.27-.32.31-.31.33-.27.35-.23.37-.19.39-.14.4-.08.39-.03h.34s.31.04.31.04l.3.05.3.07.29.1.28.13.26.16.25.19.23.22.2.25.17.27.14.29.1.31.07.31.04.32v.32s0,.34,0,.34l-.03.34-.04.33-.06.34-.05.23.32-.2.39-.2.39-.16.06-.03.06-.02h.02s0-.03,0-.03l.06-.21.07-.28.07-.35.07-.4.06-.46.05-.5.05-.54.04-.58.03-.62.02-.66v-.7s.02-.74.02-.74v-.92s0-.83,0-.83v-.75s-.03-.66-.03-.66l-.02-.58-.02-.49-.03-.39-.03-.29-.03-.23-.04-.21-.04-.17-.03-.1-.08-.03-.1-.04-.11-.04-.15-.05-.4-.17-.38-.19-.35-.22-.32-.26-.29-.31-.24-.38-.16-.45-.05-.47.04-.45.13-.42.21-.38.27-.31.3-.25.33-.21.35-.17.37-.14.39-.11.42-.09.45-.08.48-.06.51-.05.55-.03.58-.02h.61s.12,0,.12,0h.14s.17,0,.17,0h.19s.22,0,.22,0h.25s.27,0,.27,0h.3s.3,0,.3,0h.29s.28,0,.28,0h.26s.25,0,.25,0h.24s.23,0,.23,0h.21s.4,0,.4,0h.43s.46,0,.46,0h.49s.51-.01.51-.01h.54s.56-.02.56-.02h.59s.58-.02.58-.02h.53s.48-.02.48-.02h.43s.38-.01.38-.01h.34s.29,0,.29,0h.24s.6,0,.6,0l.59.02.57.03.56.04.54.05.53.06.51.07.5.09.48.09.46.11.45.12.43.13.42.14.4.16.39.17.39.19.68.41.62.47.54.53.46.6.36.66.26.71.15.75.05.76v.4s-.05.37-.05.37l-.07.37-.09.36-.12.35-.15.34-.17.33-.2.31-.22.3-.24.28-.26.26-.28.25-.3.23-.32.22-.14.08h.03s.32.14.32.14l.32.16.31.18.3.2.29.22.28.25.26.26.25.28.23.3.22.31.2.32.18.34.16.34.14.36.12.37.1.35.03.1.03.11.03.11.03.13.03.13.03.13.03.14.03.14.07.32.07.26.07.2.06.13h0s.06.02.06.02l.06.02.06.02.08.02.43.14.41.16.38.19.35.23.22.2.25-.29.32-.29.36-.25.39-.22.4-.19.14-.06.11-.05.1-.05.08-.04.06-.03h.01s0-.02,0-.02l.04-.1.05-.16.05-.21.04-.26.04-.31.04-.37.03-.43.03-.5.02-.56.02-.63v-.69s.02-.75.02-.75v-.81s0-3.75,0-3.75v-.26s-.01-.22-.01-.22v-.2s-.03-.16-.03-.16l-.02-.13-.02-.1-.02-.06v-.02s-.01,0-.01,0h0s-.01-.02-.01-.02l-.02-.02-.03-.03-.05-.03-.06-.04-.09-.05-.1-.05-.05-.02-.06-.03-.12-.05-.09-.04-.34-.17-.32-.19-.3-.22-.28-.25-.25-.31-.2-.36-.13-.41-.04-.44.06-.53.18-.5.28-.43.35-.35.39-.28.43-.23.47-.19.51-.16.55-.13.6-.11.65-.09.7-.08.76-.06.81-.04.87-.02h.92s.91,0,.91,0l.85.02.79.04.74.06.68.07.62.09.57.11.52.13.48.15.45.19.41.23.38.28.33.35.27.43.17.49.06.52-.05.45-.14.42-.21.37-.26.32-.29.27-.32.23-.35.2-.36.17-.12.06-.09.04-.07.04-.05.02-.05.17-.05.26-.05.33-.05.4-.04.47-.02.25-.02.29-.02.32-.02.35v.37s-.03.4-.03.4v.43s-.02.46-.02.46v.48s-.02.51-.02.51v.54s-.01.57-.01.57v.59s0,.62,0,.62v.65s0,.67,0,.67v.39s.01.35.01.35v.3s.03.26.03.26l.02.21.02.16.02.1v.03s.02.01.02.01v.02s.03.02.03.02l.02.02.02.03.03.03.04.03.07.05h.02s.03.03.03.03l.1.05.06.03.07.04.08.04.1.05.33.19.32.22.29.24.27.27.23.31.19.36.13.4.05.44-.06.53-.18.5-.28.42-.35.35-.39.28-.43.22-.46.19-.5.16-.55.13-.6.11-.65.09-.7.07-.76.06-.69.03.4.02.74.05.68.07.62.09.57.11.52.13.48.15.45.19.41.23.38.28.33.35.27.43.17.49.06.52-.05.45-.14.42-.21.37-.26.32-.29.27-.32.23-.35.2-.36.17-.12.05-.09.04-.07.04-.05.02-.05.17-.05.26-.05.33-.05.4-.04.46-.02.25-.02.29-.02.32-.02.35v.37s-.03.4-.03.4v.43s-.02.46-.02.46v.49s-.02.51-.02.51v.54s-.01.57-.01.57v.59s0,.62,0,.62v.65s0,.67,0,.67v.39s.01.35.01.35v.3s.03.26.03.26l.02.21.02.16.02.1v.03s.02.01.02.01v.02s.03.02.03.02l.02.02.02.03.03.03.04.03.07.05h.02s.03.03.03.03l.05.03.06.03.06.03.07.04.08.04.1.05.33.19.32.22.29.24.27.27.24.31.19.36.13.4.05.44-.06.53-.19.5-.28.42-.35.35-.39.28-.43.22-.46.19-.5.16-.55.13-.6.11-.65.09-.7.07-.76.06-.82.04-.88.02h-.94s-.88,0-.88,0l-.83-.03-.78-.04-.74-.06-.69-.08-.65-.1-.61-.12-.57-.14-.52-.17-.48-.19-.44-.23-.4-.27-.3-.28-.31.32-.39.29-.43.24-.47.19-.51.16-.56.13-.61.11-.68.09-.74.07-.8.06-.87.04-.94.02h-1s-.58,0-.58,0h-.55s-.53-.01-.53-.01h-.51s-.49-.03-.49-.03l-.46-.02-.44-.02-.42-.02-.4-.03-.38-.03-.36-.03-.34-.04-.32-.04-.3-.05-.28-.05-.27-.06-.49-.13-.46-.16-.42-.2-.39-.26-.36-.33-.29-.42-.19-.5-.06-.48v-.26s.04-.22.04-.22l.05-.22.07-.2.09-.2.11-.19.12-.18.13-.16.14-.14.15-.13.16-.12h0s-.24-.02-.24-.02l-.49-.03-.55-.03-.61-.02h-.67s-.72-.02-.72-.02h-.57s-.52.02-.52.02l-.47.02h-.2s.16.11.16.11l.17.13.16.14.15.16.14.18.12.2.1.21.07.22.05.22.03.22v.26s-.03.44-.03.44l-.14.46-.23.41-.29.34-.34.28-.37.23-.4.18-.42.15-.46.12-.49.1-.53.08-.58.07-.62.05-.67.04-.71.02h-.76s-.71,0-.71,0l-.67-.02-.63-.04-.59-.05-.55-.07-.51-.08-.47-.1-.44-.12-.41-.15-.39-.18-.36-.22-.28-.23-.18.14-.4.23-.44.19-.47.16-.52.13-.56.11-.61.09-.67.07-.72.05-.78.04-.84.02h-.89s-.93,0-.93,0l-.87-.02-.81-.04-.75-.05-.69-.07-.63-.09-.57-.1-.53-.12-.48-.15-.45-.18-.41-.23-.38-.28-.33-.35-.27-.43-.13-.37-.09.26-.28.43-.35.35-.38.28-.42.23-.46.19-.5.16-.54.13-.59.11-.65.09-.7.07-.76.06-.82.04-.87.02h-.94s-.85,0-.85,0l-.8-.02-.75-.04-.7-.06-.65-.08-.6-.09-.55-.11-.51-.13-.47-.16-.44-.19-.4-.23-.37-.28-.32-.35-.26-.42-.17-.48-.05-.51.05-.49.15-.46.24-.42.3-.34.35-.28.38-.22.41-.18.41-.13.1-.03.07-.02.06-.02.02-.07.05-.19.05-.25.05-.31.05-.37.04-.41.04-.45.03-.5.02-.55.02-.59v-.63s.01-.68.01-.68v-.94s0-.87,0-.87v-.79s-.03-.71-.03-.71l-.02-.63-.03-.55-.03-.47-.03-.39-.04-.33-.04-.28-.04-.22-.02-.08-.05-.02-.11-.03-.4-.14-.39-.17-.36-.21-.34-.25-.3-.32-.24-.39-.16-.45-.05-.48.06-.53.19-.5.28-.42.35-.34.39-.28.42-.22.46-.19.5-.16.55-.13.59-.11.64-.09.69-.07.75-.06.8-.04.85-.02h.91s.93,0,.93,0l.87.02.8.03.73.05.67.06.61.08.55.09.49.12.45.14.42.17.39.22.36.27.32.34.25.42.04.13v-.02s.26-.43.26-.43l.32-.36.37-.29.41-.23.44-.19.47-.15.52-.12.59-.1.66-.08.73-.07.81-.05.88-.04.96-.02h1.04s.91,0,.91,0l.84.02h.08s-.37-.02-.37-.02l-.37-.02-.38-.02h-.38s-.39-.03-.39-.03h-.39s-.39-.01-.39-.01h-.4s-14.39,0-14.39,0h-.26s-.27-.03-.27-.03l-.26-.04-.26-.05-.26-.08-.25-.1-.24-.12-.23-.14-.22-.17-.2-.2-.18-.23-.03-.05-.02.02-.36.29-.4.23-.43.18-.46.15-.5.12-.56.1-.63.08-.7.06-.76.05-.84.03-.91.02h-.98s-.97,0-.97,0l-.89-.02-.82-.04-.75-.05-.68-.07-.61-.08-.55-.1-.5-.12-.45-.15-.42-.19-.39-.24-.36-.3-.31-.37-.23-.43-.14-.48-.05-.49.04-.42.11-.4.18-.37.23-.32.27-.27.3-.23.32-.19.31-.15.1-.05.08-.04.07-.03.05-.03.04-.02v-.02s.04-.05.04-.05l.03-.08.03-.11.03-.13.03-.15.03-.19.03-.24.02-.29.02-.34.02-.4v-.44s.02-.49.02-.49v-.21s-.07.1-.07.1l-.19.28-.21.36-.09.16-.09.16-.08.15-.08.14-.08.13-.07.12-.07.11-.06.1-.13.22-.14.24-.15.25-.16.27-.17.29-.18.31-.18.33-.2.35-.52.88-.5.78-.47.67-.45.58-.45.48-.47.4-.53.3-.65.14-.63-.14-.52-.3-.46-.39-.45-.47-.46-.56-.49-.66-.52-.76-.55-.87-.08-.13-.07-.11-.06-.1-.06-.1-.06-.1-.06-.09-.05-.08-.05-.08-.17-.28-.17-.29-.17-.3-.18-.32-.18-.33-.18-.35-.19-.36-.19-.37-.24-.44-.18-.31-.02.39v.46s-.02.52-.02.52v.57s0,.35,0,.35v.32s.02.27.02.27l.02.23.02.18.02.12v.02s.02,0,.02,0l.05.02.07.03h.05s.44.18.44.18l.4.19.37.22.33.27.3.33.24.4.16.45.05.47-.04.45-.12.42-.2.39-.26.33-.3.27-.33.22-.35.17-.38.13-.4.11-.44.09-.48.07-.53.06-.57.04-.62.03-.67.02h-.72s-.71,0-.71,0l-.66-.02-.61-.03-.57-.04-.52-.06-.48-.07-.44-.09-.41-.11-.38-.14-.35-.16-.33-.21-.31-.26-.27-.32-.21-.38-.13-.43-.04-.45.05-.48.15-.46.24-.41.3-.34.34-.27.37-.22.4-.18.41-.15.14-.04.1-.03.08-.03h.02s.02-.05.02-.05l.07-.19.08-.27.08-.35.07-.42.07-.48.06-.54.05-.6.05-.65.04-.7.03-.76.02-.81v-.86s.02-.92.02-.92v-.12s0-.13,0-.13v-.14s0-.15,0-.15v-.16s0-.17,0-.17v-.17s0-.18,0-.18v-.18s.01-.3.01-.3v-.13s0-.12,0-.12v-.1s0-.09,0-.09v-.35s-.01-.25-.01-.25v-.22s-.03-.19-.03-.19l-.02-.16-.03-.13-.02-.1-.02-.06-.02-.04-.02-.04-.03-.04-.03-.04-.03-.03-.04-.03-.05-.04-.07-.05h-.02s-.05-.04-.05-.04l-.06-.03-.07-.04-.08-.04-.08-.04-.09-.05-.12-.06-.37-.2-.35-.22-.32-.25-.29-.28-.25-.32-.21-.37-.14-.43-.05-.45.05-.48.14-.46.23-.41.29-.34.33-.28.37-.23.39-.19.42-.16.45-.13.49-.11.53-.09.56-.07.61-.06.65-.04.69-.02h.73s.43,0,.43,0h.42s.41.02.41.02l.4.02.38.02.37.03.36.03.35.04.33.04.31.04.28.04.25.05.24.05.22.06.22.07.21.1.28.17.29.24.29.28.3.33.33.38.36.44.39.5.4.53.05.05.05.06.05.06.04.06.04.05.04.05.04.05.03.05.19.26.22.29.22.31.23.32.24.34.25.36.26.37.27.38.4.55.36.46.32.37.27.29.22.19.1.07.05-.04.18-.16.22-.25.26-.33.29-.41.32-.5.32-.52.32-.5.32-.48.31-.46Z"/>
    <path class="cls-5" d="M110.13,87.24c0-.59.51-1.1,1.54-1.55.38-.17.64-.31.76-.41.29-.22.5-.82.61-1.81.12-.98.17-2.61.17-4.88v-3.76c0-.78-.07-1.32-.21-1.64-.14-.31-.4-.56-.79-.75-.11-.06-.27-.13-.47-.22-.8-.36-1.2-.79-1.2-1.28,0-.7.61-1.21,1.84-1.55,1.23-.34,3.09-.51,5.58-.51s4.26.16,5.4.48c1.15.32,1.72.82,1.72,1.52,0,.53-.43,1-1.31,1.39-.32.14-.53.25-.64.34-.28.21-.47,1.01-.58,2.4-.11,1.39-.16,3.93-.16,7.62,0,1.13.06,1.86.18,2.2.12.34.35.6.67.8.12.07.3.17.53.29.81.43,1.21.89,1.21,1.39,0,.69-.61,1.2-1.83,1.52-1.22.33-3.1.5-5.62.5-2.35,0-4.17-.18-5.46-.54-1.29-.36-1.94-.88-1.94-1.53M76.48,87.57c0-.65.58-1.12,1.74-1.41.2-.05.35-.09.47-.12.81-.23,1.97-1.67,3.47-4.31.48-.86.87-1.54,1.16-2.04.27-.45.64-1.09,1.12-1.93,2.2-3.74,3.44-6.23,3.7-7.45.17-.7.48-1.17.93-1.41.45-.25,1.21-.37,2.26-.37,1.18,0,2.15.12,2.91.35.76.24,1.45.63,2.07,1.18.71.62,1.52,1.6,2.46,2.95.94,1.35,2.24,3.44,3.89,6.25.42.71.95,1.65,1.6,2.84,1.16,2.12,2.01,3.33,2.56,3.64.09.04.3.11.59.19,1.11.3,1.67.74,1.67,1.32,0,.73-.61,1.26-1.84,1.6-1.23.33-3.2.5-5.93.5-3.07,0-5.21-.13-6.4-.41-1.2-.27-1.8-.74-1.8-1.39,0-.29.1-.54.3-.76.2-.22.48-.38.84-.49.52-.15.86-.29,1.01-.4.15-.12.23-.27.23-.45,0-.41-.45-.7-1.32-.88-.89-.18-2.34-.26-4.37-.26-1.62,0-2.72.09-3.31.26-.59.17-.88.47-.88.91,0,.24.09.41.25.53.17.13.52.23,1.05.32.36.06.65.19.86.4.21.21.32.48.32.79,0,.64-.48,1.11-1.45,1.41-.97.3-2.48.45-4.52.45-1.89,0-3.3-.15-4.24-.45-.95-.3-1.42-.75-1.42-1.36ZM88,80.54h5.91c-.72-1.31-1.35-2.3-1.87-2.97-.52-.67-.92-1-1.21-1-.27,0-.59.27-.99.82-.39.55-1.01,1.6-1.84,3.15ZM45.69,87.27c0-.65.5-1.12,1.49-1.4.24-.07.41-.13.51-.16.3-.1.53-.65.68-1.66.15-1.01.23-2.46.23-4.36,0-2.64-.05-4.47-.15-5.49-.11-1.03-.27-1.61-.51-1.75-.11-.05-.3-.12-.56-.2-.97-.29-1.45-.72-1.45-1.29,0-.68.61-1.19,1.83-1.52,1.22-.34,3.05-.51,5.5-.51s4.33.14,5.38.42c1.05.28,1.57.75,1.57,1.41,0,.58-.45,1.07-1.36,1.47-.14.05-.23.09-.27.12-.33.14-.55.35-.66.63-.12.27-.17.85-.17,1.74v.8c0,.63.17,1.01.51,1.15.34.14,1.1.22,2.28.22,1.75,0,2.84-.07,3.28-.22.43-.14.65-.57.65-1.26v-.47c0-.64-.07-1.19-.21-1.64-.14-.45-.33-.75-.57-.88-.1-.06-.25-.12-.47-.22-.77-.31-1.16-.75-1.16-1.29,0-.71.55-1.22,1.63-1.52,1.09-.3,3.06-.45,5.91-.45,2.47,0,4.23.14,5.28.44,1.05.29,1.57.76,1.57,1.42,0,.57-.48,1.05-1.45,1.44-.35.14-.61.26-.76.35-.25.13-.41.58-.51,1.34-.09.76-.14,2.42-.14,4.98,0,2.31.05,3.98.14,5.03.1,1.04.27,1.64.5,1.78.07.06.24.13.51.23.87.32,1.31.78,1.31,1.39,0,.71-.55,1.22-1.66,1.54-1.11.32-2.87.48-5.29.48s-4.35-.16-5.49-.47c-1.15-.31-1.72-.81-1.72-1.5,0-.63.53-1.19,1.58-1.65l.09-.04c.37-.16.61-.45.72-.86.11-.41.16-1.33.16-2.78v-.08c0-.71-.17-1.14-.53-1.29-.35-.14-1.1-.22-2.27-.22-1.76,0-2.9.08-3.41.25-.51.17-.77.67-.77,1.5,0,.94.07,1.72.2,2.35.14.62.3.99.51,1.1.09.05.22.11.4.19.9.41,1.34.87,1.34,1.4,0,.69-.6,1.2-1.8,1.53-1.2.32-3.06.49-5.59.49-2.3,0-4.01-.17-5.13-.5-1.12-.33-1.68-.83-1.68-1.5ZM39.51,87.61c-1.25.67-2.59,1.18-4.03,1.51-1.44.34-2.95.51-4.53.51-2.18,0-4.17-.3-5.98-.89-1.81-.6-3.4-1.49-4.76-2.66-1.13-.97-1.99-2.03-2.58-3.2-.59-1.16-.89-2.36-.89-3.59,0-1.39.37-2.74,1.11-4.07.74-1.33,1.76-2.49,3.06-3.49,1.32-1.01,2.84-1.78,4.58-2.33,1.73-.55,3.54-.82,5.41-.82,1.44,0,2.91.19,4.4.56,1.49.37,2.29.56,2.4.56.13,0,.41-.04.84-.12.43-.08.79-.12,1.08-.12,1.02,0,1.94.53,2.76,1.57.83,1.05,1.24,2.2,1.24,3.44,0,.91-.34,1.65-1.03,2.22-.68.57-1.54.86-2.56.86-1.18,0-2.19-.53-3.05-1.59-.24-.29-.43-.51-.56-.66-.73-.74-1.57-1.32-2.54-1.74-.97-.42-1.95-.63-2.95-.63-1.37,0-2.44.34-3.22,1.02-.78.69-1.17,1.63-1.17,2.84,0,2.01.82,3.72,2.45,5.13,1.63,1.41,3.57,2.12,5.81,2.12.97,0,1.88-.13,2.75-.38.86-.26,1.69-.64,2.48-1.16.08-.05.19-.12.3-.2.45-.31.83-.47,1.15-.47.5,0,.92.19,1.27.57.35.38.53.85.53,1.41,0,.49-.12.99-.37,1.51-.25.52-.58.98-1.01,1.38-.33.35-.66.59-.97.73-.31.14-.66.21-1.05.21-.08,0-.15,0-.21,0-.05,0-.11,0-.17,0ZM110.78,64.59c0-.59.51-1.1,1.54-1.55.38-.17.64-.31.76-.41.29-.22.5-.82.61-1.81.12-.98.17-2.61.17-4.88v-3.76c0-.78-.07-1.32-.21-1.64-.14-.31-.4-.56-.79-.75-.11-.06-.27-.13-.47-.22-.8-.36-1.2-.79-1.2-1.28,0-.7.61-1.21,1.84-1.55,1.23-.34,3.09-.51,5.58-.51s4.26.16,5.4.48c1.15.32,1.72.82,1.72,1.51,0,.53-.43,1-1.31,1.39-.32.14-.53.25-.64.34-.28.21-.47,1.01-.58,2.4-.11,1.39-.16,3.93-.16,7.62,0,1.13.06,1.86.18,2.2.12.34.35.6.67.8.12.07.3.17.53.29.81.43,1.21.89,1.21,1.39,0,.69-.61,1.2-1.83,1.52-1.22.33-3.1.5-5.62.5-2.35,0-4.17-.18-5.46-.54-1.29-.36-1.94-.88-1.94-1.53ZM91.72,58.19c0,.14,0,.42-.02.85-.01.43-.02.79-.02,1.09v.83c0,.88.06,1.46.16,1.74.11.27.32.49.62.64.09.04.2.09.36.15.9.41,1.34.88,1.34,1.43,0,.67-.51,1.14-1.55,1.42-1.03.27-2.87.41-5.51.41s-4.58-.15-5.71-.45c-1.13-.3-1.7-.78-1.7-1.46,0-.55.51-1.02,1.52-1.41.16-.06.28-.12.38-.15.29-.12.53-.81.72-2.06.19-1.26.28-2.92.28-4.99,0-2.58-.05-4.27-.14-5.06-.1-.8-.26-1.29-.5-1.47-.13-.09-.39-.21-.78-.35-.99-.37-1.49-.83-1.49-1.37s.41-.94,1.23-1.21c.82-.27,2.04-.41,3.67-.41.27,0,.81,0,1.64.01.83,0,1.52.01,2.08.01,1.06,0,2.4-.02,4.01-.06,1.62-.03,2.7-.05,3.26-.05,3.18,0,5.62.45,7.31,1.35,1.69.9,2.54,2.19,2.54,3.88,0,.79-.22,1.51-.64,2.13-.43.63-1.06,1.15-1.89,1.58-.19.09-.46.2-.82.34-.56.21-.84.4-.84.57,0,.21.37.4,1.09.57.53.13.95.24,1.25.35.71.26,1.34.72,1.88,1.37.54.64.91,1.39,1.11,2.23.06.23.13.53.2.92.2,1.03.48,1.61.83,1.72.12.04.27.08.46.14,1.1.32,1.65.73,1.65,1.23,0,.68-.56,1.22-1.7,1.64-1.13.41-2.63.62-4.51.62-2.2,0-3.83-.32-4.88-.95-1.05-.63-1.89-1.9-2.52-3.81-.02-.06-.06-.16-.09-.29-.83-2.52-1.94-3.78-3.31-3.78-.18,0-.35,0-.51.03-.15.02-.32.06-.47.09ZM91.59,54.72c.2.04.4.08.57.1.18.02.34.03.5.03.95,0,1.64-.22,2.07-.67.42-.45.63-1.2.63-2.27,0-.81-.21-1.41-.64-1.8-.42-.39-1.07-.58-1.96-.58-.53,0-.88.13-1.03.38-.15.25-.24.92-.24,2.01v1.09c0,.23,0,.47.02.73.01.26.04.59.07.99ZM68.36,66.53h-14.37c-.61,0-1.1-.12-1.45-.37-.35-.25-.53-.58-.53-1.02,0-.5.35-.91,1.04-1.22.7-.31,1.12-.54,1.26-.68.37-.34.63-1.15.8-2.41.17-1.27.25-3.15.25-5.65,0-1.86-.06-3.21-.19-4.03-.12-.82-.34-1.35-.64-1.59-.11-.08-.51-.25-1.23-.52-.71-.26-1.06-.67-1.06-1.21,0-.5.28-.89.84-1.15.56-.25,1.37-.38,2.46-.38.17,0,1.36.02,3.55.05,2.2.04,4.32.06,6.33.06,3.3,0,6.09-.11,8.38-.32.2-.02.33-.03.38-.03.99,0,1.79.38,2.4,1.12.6.75.9,1.73.9,2.96,0,.74-.2,1.31-.6,1.73-.4.42-.94.63-1.63.63-.41,0-.78-.08-1.1-.24-.32-.16-.74-.52-1.24-1.09-.45-.5-1.06-.88-1.84-1.12-.78-.24-1.76-.36-2.95-.36h-.82c-1.56,0-2.49.15-2.79.46-.3.31-.45,1.27-.45,2.9,0,.79.09,1.26.28,1.42.19.16.69.25,1.5.25.63,0,1.07-.08,1.31-.23.24-.15.43-.51.56-1.08v-.04c.28-1.16.84-1.74,1.67-1.74.89,0,1.55.34,2,1.02.45.69.67,1.71.67,3.09,0,1.68-.24,2.95-.72,3.8-.48.86-1.18,1.28-2.09,1.28-.47,0-.82-.09-1.04-.26-.22-.18-.4-.62-.54-1.33-.13-.67-.3-1.08-.53-1.25-.22-.16-.63-.25-1.25-.25-.7,0-1.15.11-1.36.32-.2.21-.31.73-.31,1.54v.37c0,1.54.18,2.45.54,2.72.36.27,1.47.41,3.32.41,1.37,0,2.53-.13,3.44-.39.92-.25,1.67-.67,2.27-1.23.22-.2.48-.49.8-.87.63-.79,1.31-1.18,2.03-1.18s1.24.16,1.61.48c.37.32.55.79.55,1.4,0,.71-.16,1.46-.46,2.25-.3.79-.72,1.5-1.24,2.14-.46.53-.83.88-1.11,1.05-.28.17-.62.25-1.02.25-.05,0-.22-.02-.53-.07-1.9-.29-3.93-.43-6.09-.43ZM16,65.06c0-.62.5-1.09,1.49-1.41.34-.1.56-.19.67-.26.35-.24.62-1.08.81-2.55.19-1.46.28-3.46.28-5.99,0-.31,0-.7.02-1.2.01-.49.02-.83.02-1.03,0-.83-.07-1.44-.22-1.82-.15-.38-.4-.67-.76-.88-.15-.08-.36-.19-.64-.33-.91-.45-1.36-.95-1.36-1.48,0-.64.48-1.12,1.44-1.44.96-.32,2.42-.48,4.38-.48,1.13,0,2.13.05,3,.14.88.09,1.44.2,1.68.33.38.18,1.15,1.03,2.3,2.58.14.17.24.3.31.39.52.69,1.15,1.57,1.89,2.62,1.14,1.63,1.98,2.45,2.54,2.45s1.31-.75,2.24-2.24c.87-1.4,1.67-2.57,2.41-3.52.76-1,1.61-1.72,2.53-2.14.93-.43,2.35-.64,4.29-.64,2.11,0,3.57.15,4.41.45.84.3,1.25.78,1.25,1.46,0,.47-.36.86-1.07,1.17-.14.06-.25.11-.33.15-.45.26-.77.88-.96,1.86-.19.98-.29,2.54-.29,4.7,0,1.98.07,3.61.22,4.89.15,1.27.33,1.99.56,2.15.09.06.25.13.51.25.89.38,1.33.88,1.33,1.51,0,.69-.53,1.19-1.58,1.48-1.05.29-2.92.44-5.6.44s-4.46-.15-5.49-.44c-1.02-.3-1.54-.81-1.54-1.53,0-.53.38-.97,1.13-1.3.29-.13.48-.25.58-.32.27-.24.45-.65.55-1.24.11-.59.15-1.64.15-3.14,0-.41-.07-.71-.22-.91-.15-.2-.37-.3-.67-.3-.46,0-1,.56-1.62,1.67-.25.44-.46.8-.61,1.06-.34.57-.77,1.33-1.31,2.27-1.39,2.43-2.43,3.65-3.1,3.65-.63,0-1.68-1.2-3.16-3.6-.2-.34-.37-.6-.49-.79-.4-.66-.86-1.51-1.38-2.52-.69-1.34-1.26-2.01-1.7-2.01-.32,0-.53.21-.64.64-.12.43-.17,1.46-.17,3.1,0,1.05.06,1.72.19,2.01.12.29.38.5.77.64.02,0,.06.02.09.03,1,.33,1.5.8,1.5,1.39s-.4,1.02-1.19,1.26c-.8.25-2.17.38-4.12.38s-3.26-.13-4.08-.38c-.82-.25-1.23-.66-1.23-1.22Z"/>
    <path class="cls-4" d="M89.17,31.14l.07,1.55h-.17c-.2-.46-.4-.77-.61-.94-.21-.17-.42-.25-.63-.25-.13,0-.24.04-.34.13-.09.09-.14.19-.14.31,0,.09.03.17.1.25.1.13.39.36.86.68.47.32.78.59.93.82.15.22.22.48.22.75,0,.25-.06.5-.19.74-.12.24-.3.43-.53.56-.23.13-.48.19-.76.19-.22,0-.5-.07-.86-.21-.1-.03-.16-.05-.2-.05-.11,0-.19.08-.27.25h-.17l-.08-1.63h.17c.14.42.34.74.6.95.25.21.49.32.72.32.16,0,.28-.05.38-.14.1-.1.15-.21.15-.35,0-.16-.05-.29-.14-.4-.1-.11-.31-.28-.65-.51-.49-.34-.81-.6-.96-.78-.21-.27-.32-.56-.32-.88,0-.35.12-.66.36-.95.24-.28.59-.42,1.04-.42.25,0,.48.06.71.18.09.05.16.07.21.07.06,0,.11-.01.14-.04.03-.02.09-.09.17-.21h.17ZM83.94,32.29v-.21c.37-.16.64-.37.81-.63.17-.26.25-.52.25-.8,0-.05-.01-.09-.03-.12-.02-.03-.04-.04-.07-.04-.02,0-.05.01-.09.03-.09.05-.21.08-.35.08-.19,0-.35-.07-.5-.22-.14-.15-.21-.32-.21-.52,0-.21.08-.4.24-.56.16-.16.36-.24.59-.24.28,0,.52.11.71.32.2.22.3.51.3.89,0,.46-.14.87-.42,1.23-.28.36-.69.62-1.24.79ZM80.89,34.77v-1.51c-.39.23-.68.48-.88.74-.13.17-.19.35-.19.53,0,.15.05.28.16.39.08.09.19.13.34.13.16,0,.35-.09.56-.28ZM80.89,35.13c-.55.49-1.05.74-1.49.74-.26,0-.48-.08-.65-.26-.17-.17-.26-.38-.26-.64,0-.35.15-.66.45-.93.3-.28.95-.64,1.95-1.1v-.46c0-.34-.02-.56-.06-.65-.04-.09-.11-.17-.21-.23-.1-.07-.22-.1-.35-.1-.21,0-.39.05-.52.14-.08.06-.13.13-.13.2,0,.07.04.15.14.25.12.14.18.27.18.4,0,.16-.06.29-.18.4-.12.11-.27.17-.46.17-.2,0-.37-.06-.51-.18-.14-.12-.21-.27-.21-.43,0-.23.09-.46.28-.67.19-.21.44-.37.77-.49.33-.11.67-.17,1.03-.17.43,0,.77.09,1.02.27.25.18.41.38.49.59.04.14.07.45.07.94v1.76c0,.21,0,.34.02.39.02.05.04.09.07.12.03.02.07.04.11.04.09,0,.17-.06.26-.17l.15.11c-.16.24-.33.42-.5.52-.17.11-.37.16-.59.16-.26,0-.46-.06-.61-.18-.15-.12-.23-.31-.27-.55ZM74.71,31.26v.59c.23-.25.46-.43.67-.55.21-.11.44-.17.69-.17.3,0,.54.08.73.25.19.16.32.37.39.61.05.19.08.54.08,1.06v1.77c0,.35.03.57.09.65.06.09.19.14.39.16v.17h-2.3v-.17c.17-.02.3-.09.37-.21.05-.08.08-.28.08-.6v-2.02c0-.37-.02-.61-.04-.7-.03-.1-.08-.17-.15-.23-.07-.05-.15-.08-.23-.08-.28,0-.53.2-.77.59v2.45c0,.34.03.56.09.64.06.09.18.15.35.17v.17h-2.3v-.17c.19-.02.32-.08.41-.18.05-.07.08-.28.08-.63v-2.58c0-.35-.03-.56-.09-.65-.06-.09-.19-.14-.39-.17v-.17h1.85ZM69.18,31.26v.59c.23-.25.46-.43.67-.55.21-.11.44-.17.69-.17.3,0,.54.08.73.25.19.16.32.37.39.61.05.19.08.54.08,1.06v1.77c0,.35.03.57.09.65.06.09.19.14.39.16v.17h-2.3v-.17c.17-.02.3-.09.37-.21.05-.08.08-.28.08-.6v-2.02c0-.37-.01-.61-.04-.7-.03-.1-.08-.17-.15-.23-.07-.05-.15-.08-.23-.08-.28,0-.53.2-.77.59v2.45c0,.34.03.56.09.64.06.09.18.15.35.17v.17h-2.3v-.17c.19-.02.32-.08.41-.18.05-.07.08-.28.08-.63v-2.58c0-.35-.03-.56-.09-.65-.06-.09-.19-.14-.39-.17v-.17h1.85ZM66.18,31.26v3.56c0,.35.03.57.1.65.06.09.2.14.39.16v.17h-1.85v-.61c-.22.26-.43.45-.65.56-.22.12-.46.17-.73.17-.26,0-.48-.08-.68-.24-.2-.16-.33-.34-.4-.55-.07-.21-.1-.58-.1-1.1v-1.8c0-.35-.03-.56-.09-.65-.06-.09-.19-.14-.39-.17v-.17h1.85v3.1c0,.32.01.53.05.63.03.09.08.17.15.21.07.05.14.07.23.07.12,0,.22-.03.31-.09.13-.08.29-.25.47-.51v-2.43c0-.35-.03-.56-.09-.65-.06-.09-.19-.14-.39-.17v-.17h1.85ZM56.81,33.56l1.8-4.35h2.67v.17h-.21c-.19,0-.35.03-.46.1-.08.05-.15.12-.19.23-.03.08-.05.29-.05.62v4.35c0,.34.02.55.05.64.04.08.11.16.22.22.11.06.26.1.44.1h.21v.17h-3.43v-.17h.21c.19,0,.35-.03.46-.1.08-.05.15-.12.19-.24.03-.08.05-.28.05-.62v-4.88l-2.53,6h-.12l-2.57-5.96v4.64c0,.33,0,.53.02.6.04.16.13.3.28.4.14.1.36.15.66.15v.17h-2.26v-.17h.07c.15,0,.28-.02.41-.07.13-.05.22-.12.29-.2.07-.08.12-.2.15-.36,0-.04,0-.2,0-.5v-4.17c0-.34-.02-.55-.05-.63-.03-.08-.11-.16-.22-.22-.11-.06-.26-.1-.44-.1h-.21v-.17h2.69l1.86,4.35Z"/>
  </g>
</svg>