<?xml version="1.0" encoding="UTF-8"?>
<svg id="Layer_1" data-name="Layer 1" xmlns="http://www.w3.org/2000/svg" viewBox="0 0 141.73 141.73">
  <defs>
    <style>
      .cls-1 {
        fill: #231f20;
      }

      .cls-2 {
        fill: #fff;
      }

      .cls-3 {
        fill: #85d3f5;
      }
    </style>
  </defs>
  <g>
    <path class="cls-2" d="M135,75.57c.05-.63.09-1.15-.14-1.77-.26-.71-.72-1.18-1.01-1.43.58-.68,1.07-1.62,1.28-2.93.15-.92.14-1.85.1-2.65-.09-3.03-1.9-4.82-3.8-5.34.01-.47.02-.95,0-1.44,0-.05,0-.1,0-.15-.09-1.86-1.5-5-6.18-5-.44,0-.84.02-1.14.04h-.17c-.13.02-.25.03-.38.05-2.66.37-4.63,2.35-4.8,4.82-.04.55-.08,1.1-.11,1.66-1.51-.85-3.25-1.3-5.1-1.3-1.1,0-2.21.16-3.3.48-.03,0-.07.02-.1.03-.21.07-.41.14-.61.22,0-.02-.01-.05-.02-.07-.4-1.47-1.38-2.66-2.77-3.34-.01,0-.02-.01-.03-.02-1.58-.76-3.66-1.2-5.71-1.2-.64,0-1.25.04-1.83.13-1.6.24-2.99.82-4.15,1.72-.3-.24-.64-.46-1-.63-.01,0-.02-.01-.03-.02-1.58-.76-3.66-1.2-5.71-1.2-.64,0-1.25.04-1.83.13-2.73.4-4.88,1.83-6.24,4.09-.24-.07-.49-.14-.76-.19-.82-.16-1.66-.2-2.27-.23h-.19c-.12-.02-.24-.02-.35-.02-1.49,0-2.7.5-3.6,1.25-1.5-.97-3.28-1.11-4.34-1.2h-.11c-.05-.01-.11-.02-.16-.02-.08,0-.17,0-.25,0-.34,0-.68.03-1,.09-2.16-3.6-6.79-5.25-10.99-5.25-.42,0-.83.02-1.24.05-.33-.04-.68-.07-1.04-.07-.87,0-1.69.12-2.23.21-1.21.16-2.3.68-3.12,1.49-.95-.97-2.45-1.7-4.71-1.7-.44,0-.84.02-1.14.04h-.17c-.13.02-.25.03-.38.05-2.66.37-4.63,2.35-4.79,4.82-.05.68-.09,1.36-.13,2.05-1.64-1.1-3.61-1.69-5.73-1.69-1.1,0-2.21.16-3.3.48-.03,0-.07.02-.1.03-.35.11-.69.24-1.03.39-.91-1.84-2.37-3.37-4.27-4.44-1.87-1.05-4.1-1.64-6.63-1.76,0,0-.02,0-.03,0-.39-.02-.77-.02-1.17-.02-.29,0-.58,0-.88.01-.27-.02-.54-.03-.84-.03-.46,0-.97.03-1.51.08-1.49.11-2.8.76-3.7,1.84-1.04,1.23-1.21,2.56-1.19,3.38-.02.71-.09,4.23-.23,7.83,0,.02,0,.04,0,.06-.03,1.27-.07,2.56-.1,3.76-.11,3.8-.14,5.18-.1,5.86,0,.06.01.13.02.19.28,2.45,2.12,5.3,6.39,5.3.47,0,.89-.03,1.29-.06,3.23-.23,5.14-2.76,5.36-5.15.01-.12.02-.25.02-.37.7-.28,1.37-.6,2.01-.97,1.3,2.94,3.7,5.17,6.66,6.09.04.01.07.02.11.03.99.28,2.03.43,3.09.43.73,0,1.45-.07,2.15-.21,1.96-.37,3.92-1.33,5.35-2.77,1.49,2.03,3.64,3.34,6.23,3.69.45.06.9.09,1.34.09,1.6,0,3.1-.41,4.35-1.18.83.31,1.8.49,2.94.49.28,0,.54,0,.73-.02.18,0,.36-.03.54-.06.02,0,.03,0,.05,0,.31.02.63.03.95.03,3.36,0,6.89-.97,9.41-3.03,1.73,1.84,4.04,2.93,6.64,2.93.79,0,1.58-.1,2.39-.29.66.21,1.43.34,2.34.34.61,0,1.19-.06,1.66-.11.05,0,.09-.01.14-.02.07,0,.13-.02.19-.03.08,2.82,2.33,5.78,7.16,5.78.03,0,.06,0,.09,0,2.35-.05,4.84-1.57,5.59-4.76.54,2.47,2.79,4.76,7.03,4.76.03,0,.06,0,.09,0,2.78-.06,5.77-2.18,5.81-6.71.04-1.09.04-2.2,0-3.63,1.37,2.02,3.33,3.53,5.64,4.25.04.01.07.02.11.03.99.28,2.03.43,3.09.43.73,0,1.45-.07,2.15-.21,1.79-.34,3.59-1.17,4.97-2.41,1.47,1.83,3.52,3.01,5.96,3.33.45.06.9.09,1.34.09,2.25,0,4.28-.81,5.73-2.28.01-.01.02-.02.04-.04.93-.97,1.04-1.9,1.37-5.99Z"/>
    <path class="cls-1" d="M98.71,89.47c-3.64,0-5.87-1.55-7.01-3.41-1.32,2.42-3.69,3.37-5.6,3.41h-.11c-4.85,0-7.37-2.81-7.85-5.69-.4.04-.84.07-1.3.07-.85,0-1.64-.1-2.36-.31-.79.18-1.58.27-2.36.27-2.49,0-4.85-.95-6.71-2.68-2.67,1.92-6.39,2.95-10.25,2.76-.2.03-.4.05-.6.06-.2,0-.47.02-.76.02-1.04,0-2-.14-2.86-.42-1.7.94-3.79,1.29-5.87,1-2.48-.33-4.62-1.47-6.22-3.32-1.42,1.18-3.24,2.04-5.12,2.4-.74.14-1.52.22-2.3.22-1.13,0-2.24-.15-3.31-.46-.04-.01-.09-.02-.13-.04-2.88-.9-5.31-2.98-6.77-5.76-.3.15-.61.3-.92.43-.29,2.68-2.45,5.5-6.07,5.76-.39.03-.85.07-1.35.07-4.78,0-6.84-3.23-7.16-5.99,0-.07-.02-.15-.02-.22-.05-.71-.02-2.03.1-5.93v-.14c.04-1.15.07-2.39.1-3.61v-.07c.14-3.56.22-7.08.23-7.8-.02-1.01.2-2.5,1.37-3.89,1.04-1.23,2.55-1.98,4.24-2.11.89-.09,1.71-.11,2.43-.05.71-.02,1.38-.01,2.06.01h.04c2.64.12,4.99.75,6.97,1.85,1.8,1,3.25,2.42,4.25,4.14.15-.05.29-.1.44-.15l.11-.03c2.95-.86,6.04-.61,8.56.65.02-.27.04-.53.06-.8.19-2.83,2.44-5.11,5.46-5.53.15-.02.29-.04.44-.04h.16c.3-.03.72-.05,1.18-.05,1.9,0,3.51.5,4.72,1.45.86-.66,1.88-1.08,3.01-1.22.55-.08,1.4-.21,2.33-.21.37,0,.72.02,1.06.06.4-.03.81-.05,1.22-.05,3.86,0,8.8,1.37,11.38,5.18.3-.03.59-.04.89-.03.07,0,.13,0,.2.01h.11c1.03.09,2.69.22,4.23,1.05,1.04-.72,2.29-1.09,3.65-1.09.12,0,.25,0,.39.01h.19c.63.04,1.5.09,2.37.25.09.02.18.04.27.06,1.49-2.19,3.72-3.56,6.47-3.97.61-.09,1.27-.14,1.94-.14,2.16,0,4.37.46,6.04,1.27l.04.02c.22.11.44.24.65.37,1.17-.79,2.53-1.31,4.03-1.53.61-.09,1.27-.14,1.94-.14,2.16,0,4.37.46,6.04,1.27l.03.02c1.36.67,2.38,1.76,2.94,3.12,2.71-.79,5.53-.65,7.93.36.01-.17.02-.34.04-.51.19-2.83,2.44-5.11,5.46-5.53.15-.02.29-.04.44-.04h.16c.3-.03.72-.05,1.18-.05,5.26,0,6.85,3.61,6.95,5.74,0,.06,0,.12,0,.18,0,.3,0,.6,0,.9,1.8.73,3.69,2.61,3.79,5.87.04.82.05,1.8-.11,2.8-.17,1.04-.51,1.96-1.03,2.74.32.37.56.79.72,1.24.29.79.24,1.46.18,2.1h0c-.33,4.05-.42,5.27-1.58,6.47l-.04.04c-1.59,1.62-3.83,2.51-6.28,2.51-.48,0-.97-.03-1.45-.1-2.33-.31-4.37-1.35-5.94-3.02-1.36,1.04-3.02,1.77-4.74,2.09-.74.14-1.52.22-2.3.22-1.13,0-2.24-.15-3.31-.46l-.13-.04c-1.74-.55-3.3-1.5-4.6-2.8,0,.5-.01.98-.03,1.46-.04,5.03-3.44,7.39-6.57,7.46h-.11ZM91.7,80.41l.73,3.36c.44,2.01,2.32,4.15,6.28,4.15h.08c2.48-.05,5.01-1.91,5.05-5.94.04-1.13.04-2.24,0-3.6l-.09-2.68,1.5,2.21c1.3,1.92,3.11,3.28,5.23,3.95l.09.03c1.55.44,3.28.52,4.88.2,1.72-.32,3.36-1.11,4.6-2.23l.61-.54.51.64c1.37,1.7,3.26,2.76,5.46,3.05.42.06.83.09,1.24.09,2.04,0,3.88-.73,5.18-2.04l.59.51-.56-.54c.72-.74.82-1.45,1.15-5.52.05-.62.07-.99-.1-1.44-.15-.41-.42-.79-.79-1.11l-.59-.5.5-.59c.57-.67.94-1.53,1.11-2.55.14-.86.13-1.74.09-2.49-.08-2.78-1.72-4.21-3.23-4.63l-.58-.16v-.61c.03-.49.03-.95.02-1.41,0-.04,0-.08,0-.13-.02-.43-.36-4.26-5.4-4.26-.42,0-.81.02-1.09.04h-.17c-.11.02-.21.03-.31.04-2.29.32-3.98,2.01-4.13,4.11-.04.55-.08,1.1-.11,1.65l-.07,1.24-1.08-.61c-2.23-1.26-5.09-1.55-7.81-.75l-.08.03c-.19.06-.38.13-.57.2l-.82.31-.22-.89c-.34-1.28-1.18-2.29-2.36-2.87h-.03c-1.47-.72-3.43-1.13-5.37-1.13-.6,0-1.17.04-1.71.12-1.45.21-2.72.74-3.79,1.56l-.48.37-.48-.38c-.26-.21-.55-.39-.86-.54-1.5-.72-3.46-1.13-5.4-1.13-.6,0-1.18.04-1.72.12-2.48.37-4.44,1.65-5.68,3.72l-.31.52-.58-.17c-.23-.07-.45-.12-.68-.17-.77-.15-1.58-.19-2.16-.22h-.19c-.11-.02-.21-.02-.31-.02-1.2,0-2.27.37-3.1,1.07l-.44.37-.48-.31c-1.33-.87-2.99-1-3.98-1.07h-.11s-.09-.02-.14-.02c-.35-.01-.71,0-1.07.08l-.53.1-.28-.46c-2.16-3.59-6.91-4.87-10.32-4.87-.39,0-.79.02-1.18.05h-.08s-.08,0-.08,0c-.29-.04-.61-.06-.94-.06-.81,0-1.6.12-2.12.2-1.06.14-1.99.58-2.69,1.27l-.55.55-.55-.55c-.96-.98-2.36-1.47-4.16-1.47-.42,0-.81.02-1.09.04h-.17c-.11.02-.21.03-.31.04-2.29.32-3.98,2.01-4.13,4.11-.05.68-.09,1.35-.13,2.04l-.08,1.36-1.13-.76c-1.52-1.02-3.35-1.56-5.3-1.56-1.02,0-2.06.15-3.09.45l-.08.02c-.31.1-.63.22-.95.36l-.68.29-.33-.66c-.85-1.71-2.22-3.13-3.96-4.1-1.77-.99-3.88-1.55-6.29-1.66-.69-.03-1.33-.03-2.02-.01h-.04s-.04,0-.04,0c-.64-.05-1.37-.04-2.21.05-1.29.1-2.42.65-3.19,1.57-.86,1.02-1.02,2.12-1.01,2.87v.02s0,.02,0,.02c-.01.68-.09,4.24-.23,7.84v.05c-.03,1.22-.07,2.46-.1,3.62v.14c-.11,3.69-.15,5.15-.1,5.78,0,.05,0,.1.01.15.26,2.23,1.87,4.61,5.62,4.61.44,0,.85-.03,1.23-.06,2.81-.2,4.46-2.39,4.65-4.45,0-.1.01-.2.01-.3v-.52s.49-.19.49-.19c.65-.26,1.29-.57,1.91-.92l.75-.43.35.79c1.22,2.75,3.47,4.82,6.18,5.67l.09.03c1.56.45,3.29.52,4.89.21,1.88-.35,3.68-1.28,4.95-2.55l.64-.64.54.73c1.39,1.9,3.36,3.07,5.71,3.38,1.89.26,3.72-.08,5.18-.98l.32-.2.36.13c.78.29,1.68.44,2.67.44.27,0,.52,0,.7-.02.15,0,.3-.02.45-.05l.09-.02h.13c3.79.21,7.41-.86,9.83-2.83l.56-.46.5.53c1.66,1.76,3.76,2.69,6.08,2.69.72,0,1.46-.09,2.2-.27l.21-.05.21.07c.63.2,1.33.3,2.1.3.58,0,1.12-.05,1.58-.11.04,0,.08,0,.12-.02.04,0,.08-.01.13-.02l.93-.16.03.9c.07,2.5,2.07,5.03,6.38,5.03h.08c1.79-.04,4.14-1.15,4.84-4.16l.78-3.35Z"/>
  </g>
  <g>
    <path class="cls-1" d="M106.43,84.41c.7-.83,1.8-1.06,2.46-.52.65.54.61,1.65-.09,2.47-.7.83-1.8,1.06-2.46.52-.65-.54-.61-1.65.09-2.47Z"/>
    <path class="cls-1" d="M111.01,85.04c.49-.23,1.04-.11,1.23.27.18.38-.07.87-.56,1.11s-1.04.11-1.23-.27c-.18-.38.07-.87.56-1.11Z"/>
  </g>
  <g>
    <path class="cls-1" d="M35.44,57.39c1.28.04,2.35-.73,2.38-1.71.03-.98-.99-1.81-2.27-1.85s-2.35.73-2.38,1.71c-.03.98.99,1.81,2.27,1.85Z"/>
    <path class="cls-1" d="M38.55,53.92c.42.01.77-.31.78-.73.01-.41-.32-.76-.74-.77s-.77.31-.78.73c-.01.41.32.76.74.77Z"/>
  </g>
  <g>
    <path class="cls-1" d="M37.19,69.94c.02.44-.08.8-.45.93-.31.18-2.3.5-4.19.72-1.27.15-2.44.29-3.14.35.22,1.63,1.1,3.16,2.96,2.99.73-.06,1.45-.49,1.89-1.4.71-1.5,2.95-.86,3.2.61.3,1.8-1.7,3.48-3.3,4.05-1,.37-2.11.5-3.14.37-2.3-.33-4.08-1.95-5.02-3.97-.86-1.87-1.05-4.27-.22-6.28.58-1.32,1.53-2.46,2.97-3.19,3.98-1.89,8.18.15,8.47,4.8ZM33.17,68.7c-.71-2.21-3.19-1.37-3.67.67,1.24-.2,2.45-.42,3.67-.67Z"/>
    <path class="cls-1" d="M48.29,75.26c.86-.31,1.41-.03,1.54.9.13.88-.13,1.88-.6,2.37-.89.9-2.19,1.06-3.29.9-2.98-.39-4.34-3.11-4.6-5.87-.13-1.34-.05-2.7,0-4.32-.16,0-.29-.03-.42-.03-.73-.05-.89-.28-1.02-1.08-.16-1.08-.05-2.63.21-2.6.52-.03,1.07-.03,1.62-.03.08-1.96.16-3.63.29-5.35.03-.46.47-.75,1.02-.82.94-.05,2.77-.23,2.82.82.03,1.88-.13,3.68-.24,5.43,1.12.03,2.25.05,3.4.08,0,0,.57.1.6,1.31.05,1.18.05,2.68-.71,2.86-.34.08-1.85-.08-3.55-.23-.03,1.31-.29,3.78.26,5.1.52,1.18,1.54.95,2.66.57Z"/>
    <path class="cls-1" d="M79.19,77.65s-.03.77-1.25.95c-1.12.13-2.56.23-2.87-.75-5.36,2.68-8.36-2.01-8.41-6.51-.03-1.98.1-4.04.6-6.05.1-.51.44-.9,1.04-.88.97.08,2.8.18,2.72,1.13-.26,1.49-.44,3.04-.44,4.71,0,4.53,2.43,5.79,3.81,3.04,1.31-2.6.99-5.46,1.31-8.34,0,0,.08-.62,1.07-.57.94.05,2.77.1,2.77.72-.34,4.17-.44,8.34-.34,12.54Z"/>
    <path class="cls-1" d="M91.66,64.4c-.21.28-.47.51-.84.39-2.95-1.47-3.81-1.21-3.89,1.93-.03.88-.03,1.75-.03,2.63,1.36-.05,3.06-.1,4.41-.1.91.41.99,3.91,0,4.14-.21.05-1.15.05-2.04.03-.65,0-1.36-.03-2.17-.05.26,4.25.34,6.41.26,8.47,0,.9-.21,2.42-1.49,2.45-1.02,0-2.74-.23-2.74-1.6,0-2.78,0-6.13-.16-9.37h-.86s-.39.15-.52-.77c-.13-.93-.39-2.73.05-2.81.42-.05.81-.1,1.23-.13,0-3.14-.21-8.24,4.15-8.88,1.57-.23,3.63.05,4.91.67,1.1.54.18,2.32-.29,3.01Z"/>
    <path class="cls-1" d="M104.27,64.4c-.21.28-.47.51-.84.39-2.95-1.47-3.81-1.21-3.89,1.93-.03.88-.03,1.75-.03,2.63,1.36-.05,3.06-.1,4.41-.1.91.41.99,3.91,0,4.14-.21.05-1.15.05-2.04.03-.65,0-1.36-.03-2.17-.05.26,4.25.34,6.41.26,8.47,0,.9-.21,2.42-1.49,2.45-1.02,0-2.74-.23-2.74-1.6,0-2.78,0-6.13-.16-9.37h-.86s-.39.15-.52-.77c-.13-.93-.39-2.73.05-2.81.42-.05.81-.1,1.23-.13,0-3.14-.21-8.24,4.15-8.88,1.57-.23,3.63.05,4.91.67,1.1.54.18,2.32-.29,3.01Z"/>
    <path class="cls-1" d="M118.83,71.91c-.13.42-.34.73-.74.74-.36.07-2.34-.27-4.2-.66-1.25-.27-2.4-.51-3.09-.68-.34,1.61,0,3.34,1.8,3.78.71.17,1.54,0,2.25-.71,1.16-1.19,3.08.13,2.82,1.6-.32,1.8-2.76,2.74-4.46,2.77-1.07.03-2.16-.21-3.09-.66-2.07-1.06-3.21-3.16-3.43-5.36-.2-2.05.42-4.37,1.87-6,.98-1.06,2.26-1.84,3.86-2.06,4.38-.51,7.68,2.77,6.42,7.26ZM115.44,69.45c.06-2.31-2.56-2.32-3.69-.55,1.24.21,2.45.39,3.69.55Z"/>
    <path class="cls-1" d="M129.06,75.26c.86-.31,1.41-.03,1.54.9.13.88-.13,1.88-.6,2.37-.89.9-2.19,1.06-3.29.9-2.98-.39-4.34-3.11-4.6-5.87-.13-1.34-.05-2.7,0-4.32-.16,0-.29-.03-.42-.03-.73-.05-.89-.28-1.02-1.08-.16-1.08-.05-2.63.21-2.6.52-.03,1.07-.03,1.62-.03.08-1.96.16-3.63.29-5.35.03-.46.47-.75,1.02-.82.94-.05,2.77-.23,2.82.82.03,1.88-.13,3.68-.24,5.43,1.12.03,2.25.05,3.4.08,0,0,.57.1.6,1.31.05,1.18.05,2.68-.71,2.86-.34.08-1.85-.08-3.55-.23-.03,1.31-.29,3.78.26,5.1.52,1.18,1.54.95,2.66.57Z"/>
    <path class="cls-1" d="M21.06,60.44c-1.33-.75-2.92-1.11-4.62-1.18-.65-.03-1.31-.03-2.01,0-.57-.08-1.31-.03-1.8.03-.97.05-.86.85-.86.85,0,0-.06,2.84-.17,6.2.84.06,1.52,0,1.81-.32.97-1.03,2.08-2.04,2.49-2.13,0,0,.33-.62.69-.77.36-.15.75-.68.74-.83,0,0,.34.5.19.79-.15.3-.44.84-.44.84,0,0,1.31.13,1.55.83,0,0,1.5,1.02,1.82,1.11.32.09-.33,1.04-.8.91-.47-.14-1.58-.54-1.61-.4-.03.15,1.64.55,1.62.66-.02.11-.58.53-.86.47s-1.59-.49-1.83-.43c0,0-1.41.38-1.65,1.27-.24.89-1.12,2.25-1.84,2.87-.66.57-1.84,2.33-2.11,3.19-.04,1.44-.06,2.51-.03,2.84.18,1.6,1.7,1.49,2.95,1.39,1.2-.08,1.31-1.21,1.31-1.21,0-1.08,0-2.16.03-3.27,1.96-.26,3.81-1.03,5.3-2.16,3.92-2.96,4.67-9.03.16-11.55Z"/>
    <path class="cls-1" d="M62.53,68.62c1.62-1.93,1.8-3.6,1.44-5.07-.81-3.27-5.54-4.63-9.06-4.14-.63-.23-1.75-.05-2.43.05-.94.1-.84.9-.84.9.24,2.65.13,5.33.1,7.93-.03,1.98-.1,4.04-.16,5.71-.03,1.65-.08,2.88-.03,3.24.13,1.57,1.65,1.6,2.9,1.54.16-.03.31-.05.47-.1,3,.31,6.9-.51,8.72-2.95-.7.22-1.7.21-2.33.24-.79-.03-.67-1.16.11-1.06.1,0,.21,0,.31,0,.61-.03,1.29-.03,1.85-.27-.72-.35-2.05-.36-3.03-.42-.25.06-1.42.04-2.17.07-.07,0-.09.06-.22.2-.19.21-.49.11-.46-.15.03-.21.13-.26.17-.32-.15,0-.81.15-.81.15-.08.09-.45.01-.57.19-.16.23-.45.08-.47-.06-.02-.1,0-.19,0-.25h0c-.3.26-.63.1-.65-.03-.07-.47.33-.46.32-.58-.08-1-.1-1.65-.47-2.61-.25-.46-.3-1.42-.37-1.95-.18-1.29.55-2.7.55-2.9-.04-.21.04-.57.14-1.02,0,0,.26-1.7.4-1.7.15,0,.43.93.57,1.41.39-.17.75-.13.91-.11.14.02.28.05.4.08.11-.53.26-1.2.33-1.2.09,0,.34.94.51,1.65.08.07.14.14.18.21.18.27.15.46.34.5.2.04.08.51-.04.71s-.37.24-.57.24-.79.25-.64,1.04c.08.42.7.93,1.02,1.21.49.42,1.21.78,1.68,1.23.61.97.66,2.44.19,3.53.14-.01.29-.03.43-.04.79-.06,2.63-.1,3.1.67.1-.28.18-.58.23-.89.29-1.83-.55-3.71-2.06-4.86ZM55.27,72.54s-.02.05-.05.08l.05-.08Z"/>
  </g>
  <path class="cls-3" d="M68.39,65.69l-.05.08s.05-.05.05-.08Z"/>
  <g>
    <path class="cls-1" d="M133.77,56.85c-1.26,0-2.29-1.03-2.29-2.29s1.03-2.29,2.29-2.29,2.29,1.03,2.29,2.29-1.03,2.29-2.29,2.29ZM133.77,52.5c-1.13,0-2.06.92-2.06,2.06s.92,2.06,2.06,2.06,2.06-.92,2.06-2.06-.92-2.06-2.06-2.06Z"/>
    <path class="cls-1" d="M134.11,54.73c.38-.01.69-.33.7-.71,0-.39-.31-.72-.7-.73h-1.33v2.61h.43v-1.12h.46l.81,1.12h.56l-.94-1.17ZM133.17,54.45v-.8h.97c.17.05.29.19.31.35.02.2-.1.39-.31.45h-.97Z"/>
  </g>
</svg>