<?xml version="1.0" encoding="UTF-8"?>
<svg id="Layer_1" data-name="Layer 1" xmlns="http://www.w3.org/2000/svg" viewBox="0 0 141.73 141.73">
  <defs>
    <style>
      .cls-1 {
        fill: #45b049;
        fill-rule: evenodd;
      }
    </style>
  </defs>
  <g>
    <path class="cls-1" d="M107.66,91.83h-1.17c.1-.43.7-1.6.94-2.19l.38-.69-.07,2.14c-.01.4-.08.38-.08.74h0ZM7.38,64.95c.02,1.31.21,3.23.27,4.51.07,1.48.36,2.98.62,4.42.99,5.45,2.75,10.07,5.16,14.78.12.23.2.34.31.52.73,1.23,1.39,2.49,2.21,3.67,1.35,1.96,2.72,3.93,4.33,5.69.28.31.5.57.8.86l3.35,3.36c2.38,2.35,7.86,6.18,10.75,7.57,2.7,1.29,3.88,1.97,6.96,3.08,2.53.92,5.21,1.65,7.87,2.17,3.04.59,5.93.97,9.18.96,6.07-.02,9.99-.42,15.77-2.04,3.34-.93,6.48-2.24,9.56-3.77,1.23-.61,2.44-1.34,3.61-2.04l2.31-1.51c1.7-1.13,3.26-2.43,4.82-3.73.7-.58,2.4-2.14,2.92-2.8l2.32-2.48c.5-.53,1.37-1.54,1.68-2.13h2.67c.08-.34.28-.72.4-1.01.14-.35.27-.74.42-1.06h1.75c-.1.21-.16,1.66-.16,2.05l6.34-.03c-.01-3.19-.36-6.28-.37-9.46l-5.18.02.52-1.13c.18-.42.32-.74.5-1.15.34-.78.64-1.55.92-2.38.57-1.7,1.11-3.36,1.55-5.12.43-1.71.84-3.67,1.05-5.61.21-1.92.48-4.25.47-6.18.47-.31,1.67-1.01,1.66-1.65,0-1.03-.89-1.83-1.58-2.48-.43-.4-.21-.34-.31-1.02-.11-.78-.14-1.46-.25-2.23-.38-2.8-1.06-5.64-1.83-8.34-.15-.54-.57-1.49-.61-1.95.56.13,4.28,1.7,5.28,2.02,2.91.94,4.91,1.06,8.17,1.05,7.03-.03,9.7-2.92,10.76-3.17l-.02-4.28c-.42,0-.94.1-1.28.15-2.64.35-4.19.73-6.8.04-2.53-.67-4.92-1.89-6.96-3.41-1.47-1.1-2.9-2.16-4.71-2.75-2.55-.83-5.19-.52-7.34,1.05-.2.15-.34.23-.53.38-.21.16-.3.28-.61.31-.08-.32-.65-1.18-.84-1.48-.3-.5-.61-.97-.95-1.46-2.73-4-4.77-6.18-8.14-9.5-2.13-2.1-6.53-5.2-8.86-6.56-.5-.29-.95-.56-1.48-.85-1.29-.7-2.57-1.4-3.93-1.96-1.28-.52-.4-.52-1.37-2.19-1.75-3-4.83-5.2-8.29-5.88-1.84-.36-1.33.2-2.6-.96-.6-.55-1.5-.99-2.27-1.29-3.86-1.49-5.15-.33-6.75-.89-3.94-1.36-7.32.17-8.38,4.06-1.11,4.1,1.28,2.85-2.86,3.68-7.93,1.59-15.48,5.16-21.76,10.03l-1.83,1.49c-1.62,1.25-3.73,3.46-5.1,4.93l-.76.9c-.24.3-.52.58-.77.88-1.76,2.14-3.44,4.45-4.77,6.89-1.32,2.42-2.24,4.12-3.28,6.71-1.71,4.25-2.79,8.65-3.36,13.26-.19,1.52-.3,3.16-.3,4.71,0,.53-.07.89-.08,1.48v.26h0ZM46.82,74.07c-.44.29-.88.33-1.58.34-.82,0-3.9-2.45-4.54-3.17-.33-.36-1.11-1.98-1.38-2.51-.23-.44-.39-.85-.59-1.31-.17-.4-.58-.96-.61-1.37.38-.03,1.33-.3,1.68-.41,1.47-.45,3.15-1.16,4.32-2.17l.1.07s-.04.04-.05.06l-.1.23c-.21.78,0,1.77.18,2.56.73,3.21,2.57,5.25,2.58,7.67h0ZM87.22,75.3c-1.08,0-2.05-.12-2.92-.32.11-.41,1.57-2.14,2.01-2.79.17-.25.3-.44.46-.69.95-1.46,1.82-4.54,2.34-6.07.31-.93.81-2.76.81-3.96.93.07,3.5,1.8,6.43,1.78h1.84c.51,0,.61-.09,1.08-.09l-1.96,4.07c-.7,1.39-1.28,2.66-2.33,3.7-.78.78-2.57,2.08-3.37,2.68-1.41,1.05-2.44,1.68-4.39,1.69h0ZM52.24,53.24c0-.41.54-.54.95-.79.37-.23.69-.4,1.04-.62.72-.46,2.62-1.98,3.19-2.62.4-.45.73-.93,1-1.48.77-1.55.23-.89,2.24-1.17.71-.1,1.68-.09,2.4-.11.4-.01.38-.07.75-.09,1.51-.09,7.52-.25,7.93-.44.36.66.74,1.36,1.24,1.91.21.23.56.57.81.76.84.64.9.77,1.92,1.32l2.12,1.11c.24.12.31.15.58.25.16.06.54.15.54.29,0,1.23-.15,2.74-.35,3.83-.54,2.85-1.05,5.5-2.35,8.11-.65,1.31-.59,1.3-1.5,2.71-.13.2-.28.41-.45.63-1.44,1.98-2.67,3.4-4.87,4.66-.58.33-2.21,1.18-2.96,1.28-.87.12-3.63-1-4.59-1.63-.25-.16-.42-.25-.66-.42l-1.76-1.39c-.38-.37-.75-.68-1.07-1.09-.3-.38-.66-.7-.94-1.13l-1.25-1.9c-1.16-1.9-1.61-2.72-2.41-5.04-.52-1.52-1.56-5.27-1.56-6.95h0ZM92.37,47.15c.54.04.99.23,1.48.34,2.43.56,3.58-.14,5.44-1.44.36-.25.69-.49,1.06-.77,2.54-1.9,2.22-1.57,4.61-.41.73.35,1.45.71,2.17,1.06l2.24,1c.29.14.26.19.35.48,1.41,4.27,2.04,6.72,2.57,11.24.05.4.16,1.05.16,1.49-.49-.32-2.46-2.7-2.91-3.22-.34-.4-.6-.73-.97-1.1-.79-.79-1.01-1.18-2.12-2.02l-1.19-.88c-.9-.59-1.78-.95-2.85-1.3-.5-.16-1.08-.32-1.61-.47-1.11-.32-2.15-.59-3.24-.91-.5-.15-3-.75-3.24-.91l-1.48-1.59c-.14-.15-.38-.45-.48-.59h0ZM71.18,30.71c0-.82.19-1.68.31-2.4.13-.78.49-.79.7-2.1.19-1.18.54-3.76.54-4.96,1.31,0,2.31.32,3.59.31,1.91,0,3.97-.84,4.72-2.35.35-.7.27-1.14.27-2.11,1.23.28,6.23,3.16,7.58,4.03l6.59,5.02c.52.51.99.89,1.51,1.39l4.15,4.55c1.1,1.32,2.71,3.55,3.63,5.06.21.34,1.02,1.6,1.1,1.88-.74.49-1.24.95-2.11,1.38-3.32,1.65-4.38.46-7.9-.11-.41-.06-.88-.16-1.33-.16-1.11,0-2.97.18-4.59.19-6.54.03-4.8-.33-10.16-1.64-1.82-.44-1.98-.17-4.15.19-.86.15-3.67.7-4.31.7l-.76-3.37c.83-.4,1.23-.48,1.54-1.93.28-1.3.53-1.85.52-3.26,0-.56-1.3-.45-1.42-.32h0ZM55.38,24.44c0-.42-.03-.88.03-1.28.07-.44,0-.82.06-1.26.36-3.38.62-1.96-1.1-3.72l-.24-.26c-1.17-1.18-1.98-2.9-2.13-4.58-2.51.22-7.48,1.71-9.64,2.46-3.94,1.37-8.52,3.6-11.91,6.06-.32.23-.58.39-.88.61-.3.22-.54.41-.86.64-.31.23-.56.4-.85.64l-6.24,5.69c-1.25,1.23-2.74,3.17-3.74,4.53l-.94,1.29c-3.85,5.72-6.68,11.8-8.04,18.68-3.1,15.76.83,30.36,9.4,41.52l2.35,2.87c.24.29.4.42.63.69l1.22,1.34c.68.79,2.21,2.15,3.05,2.83l.66.58c.17.13.2.18.35.31,1.4,1.22,2.99,2.22,4.48,3.31,1.16.85,3.53,2.21,4.86,2.85,5,2.42,8.55,3.83,14.37,4.96.79.15,1.45.26,2.28.38l3.52.38c1.16.14,2.48,0,3.68.14.95.1,3.96-.01,4.97-.16.81-.12,1.54-.13,2.35-.24,7.6-1.08,12.89-2.97,19.4-6.51,2.2-1.19,4.24-2.66,6.22-4.16.49-.37.94-.76,1.43-1.15l1.38-1.19c1.3-1.2,5.46-5.33,6.17-6.67l-9.18.04c-.32-.66-.73-2.75-.96-3.67-.1-.38.03-.26-.22-.44-.01.79-.77,3.2-.99,4.12l-6.01.02c.01-.7.38-1.7.56-2.4l1.18-4.74c.18-.74.5-1.57.56-2.32l6.07-.03-.88,3.63c.45-.52,2.65-3.3,2.74-3.63l6.34-.03-3.06,3.89c-.55.68-.41.54.1,2.52.11.44.24.89.36,1.38.1.41.27.99.31,1.35.52-.6.86-1.58,1.28-2.27.46-.77.79-1.53,1.26-2.3l1.55-2.91c.27-.49.76-1.16.88-1.68l4.09-.02c.06-.26.14-.37.25-.58,1.38-2.75,2.46-6.11,3.2-9.08.68-2.74,1.52-7,1.48-9.94,0-.63.08-.89.08-1.48-.65.43-1.25,2.14-1.71,2.91l-1.25,1.81c-.64.86-1.36,1.59-2.12,2.35-.77.77-1.57,1.5-2.53,2.03-1.7.94-3.6,1.51-5.46,2.12-3.65,1.21-6.88,3.24-10.29,4.93-.73.36-1.28.66-1.94,1.05-.62.37-2.28,1.61-2.95,1.53-.48-.06-.98-.04-1.31-.2-.04.19-.06.19-.08.41l-36.23.15.08-.82c-1.46-.75-2.48-2.06-3.77-3.03-2.09-1.57-1.8-1.38-4.27-2.45-1.85-.8-3.63-1.72-5.51-2.46-1.84-.72-3.88-1.47-5.43-2.7-.76-.6-1.24-1.49-1.78-2.28-.53-.77-1.08-1.62-1.51-2.46-2.07-4.06-2.46-3.61.7-6.52l3.95-3.92c1.22-1.25,1.98-2.7,3.52-3.69.31-.2.57-.34.88-.53.32-.2.59-.3.93-.49.41-.23.53-.3,1.01-.49,1.98-.78,1.51-1.77,3.48-3.73l1.54-1.28c.64-.43,1.05-.75,1.79-1.12.71-.35,1.29-.58,2.14-.78,1.52-.37,3.53-.34,5.43-.35-.32-.59-.72-.57-.89-1.02-.45-1.18.74-1.66,1.68-1.9.54-.13,1.01-.29,1.46-.46l2.04-.87c.94-.45,2.4-1.22,3.53-1.22-.02-.58-.22-1.24-.26-1.81-.06-1.13-.04-2.53-.63-3.5-1.1-1.8-.47-1.31-.48-2.66,0-.56-.67-.69-.67-1.07,0-.48.41-.55.41-1.07,0-2.23-.51-2.35-.51-2.88,0-.3.18-.51.19-.68,0-.07-.45-.97-.45-1.95Z"/>
    <path class="cls-1" d="M40.78,109.29l4.84-.02c0-.38.16-.86.22-1.17.1-.46.18-.76.27-1.21.04-.22.43-2.1.57-2.31l.74,4.22c.11.69.04.46,2.95.45.25,0,.14-.04.25-.16l1.34-2.13c.23-.36,1.37-2.27,1.56-2.41-.18.78-.36,1.52-.54,2.34l-.53,2.35,4.76-.02c.19-.39.89-3.78,1.05-4.46.18-.74.33-1.48.51-2.2l.49-2.31-6.59.03c-.46,0-1.97,3.25-2.49,3.63l-.37-2.36c-.25-1.46.2-1.26-1.48-1.25-1.84,0-3.67.02-5.51.02-.7,2.99-1.36,5.99-2.05,8.97Z"/>
    <path class="cls-1" d="M69.03,96.18l5.93-.02c.32,0,.35-.58.43-.89.08-.33.17-.67.26-1.05.19-.76.37-1.44.54-2.17h1.5c-.16.69-.98,3.66-.99,4.11l5.93-.02c.35,0,.62-1.65.76-2.21.2-.79.4-1.59.61-2.44l.89-3.56c.1-.39.27-.9.3-1.27l-6.18.03-.76,3.12h-1.48s.76-3.11.76-3.11l-6.2.02-1.74,7.06c-.12.47-.55,2.05-.56,2.4Z"/>
    <path class="cls-1" d="M38.97,94.74c0,1.7,2.4,1.63,3.93,1.63,1.79,0,7.16.15,8.49-.47,1.15-.54,1.37-1.16,1.69-2.45l1.64-6.67-6.18.03c-.04.5-.35,1.5-.48,1.99l-.99,3.95c-.21.85-.17,1.38-1.18,1.39-.91,0-.39-1.09-.13-2.17l.85-3.42c.11-.46.37-1.28.41-1.73l-6.18.03-.95,3.9c-.17.7-.32,1.27-.49,1.98-.13.51-.44,1.54-.44,2.02Z"/>
    <path class="cls-1" d="M64.42,50.48c0,.66.12,1.26.18,1.89.16,1.78.52,3.97.61,5.84l.7,7.89c.48,0,.74-.03,1.1-.07.33-.04.82-.09,1.07-.1l-.1-3.78h.25s0-1.07,0-1.07c.01.01.03.02.04.05l.61,1.05c.25.48,1.64,3.25,1.88,3.42l1.98-4.86c0,.63,0,1.26,0,1.89,0,.68-.08,1.14-.08,1.89.18-.02,1.77-.64,1.83-1.41.21-2.58.54-4.77.88-7.25.24-1.79.56-1.48-1.16-2.78-.2-.15-1.45-.98-1.67-.98-.32,0-.33.4-.56.93l-1.51,3.11c-.06-.25-.24-.7-.35-.97l-1.37-3.93c-.25-.76-.53-.65-1.9-.76-.47-.04-1.94-.18-2.42,0Z"/>
    <path class="cls-1" d="M54.08,94.85c0,1.52,3.01,1.47,4.01,1.46,1.95,0,6.83.13,8.4-.39,1.69-.56,1.65-1.63,2.02-3.02.09-.33.24-.56-.02-.64h-6.08c-.33,1.41-.32,2.06-1.75,1.74-.17-.63.04-.89.26-1.79.12-.5.63-2.82.86-3.09.36-.41,1.36-.33,1.36.02,0,.44-.16.57-.16,1.07l6.01-.02c.39,0,.58-1.67.58-2.06,0-1.3-1.67-1.47-3.01-1.47l-7.01.03c-2.5.01-3.66.53-4.18,2.63-.17.67-1.3,4.93-1.3,5.53Z"/>
    <path class="cls-1" d="M30.61,91.65l.68-2.63c.83,0,.94-.12,1.48.24,0,.36-.29,1.55-.41,1.81-.26.63-.88.58-1.75.58h0ZM29.46,96.35c.1-.41.22-.87.31-1.25.09-.35.22-1.04.35-1.3,2,0,5.42.17,6.79-.41,1.4-.6,1.54-1.98,1.9-3.39.42-1.67.95-3.15-2.45-3.13l-10.52.04c-.32,0-.44,1.02-.59,1.63-.14.58-.32,1.26-.46,1.84-.31,1.23-.61,2.44-.9,3.62-.15.62-.28,1.16-.45,1.78-.19.71-.33.59,1.44.58,1.53,0,3.06-.01,4.59-.02Z"/>
    <path class="cls-1" d="M71.58,109.17l4.92-.02c.05-.57.3-1.42.44-2.03l.46-2.09.35.98c.12.34.23.67.36,1.05l.64,2.09,5.09-.02c.69-2.99,1.36-5.99,2.05-8.97l-4.92.02-.57,2.55c-.08.31-.17.52-.16.9h-.17c-.06-.63-1.04-2.81-1.1-3.45l-5.34.02c-.69,2.99-1.36,5.99-2.05,8.97Z"/>
    <path class="cls-1" d="M65.89,104.67v.58s-1.08,0-1.08,0l1.16-2.8c0,.84-.08,1.37-.07,2.22h0ZM57.89,109.22l5.51-.02c.08-.34.59-1.98.91-1.98h1.25c0,.77-.08,1.22-.08,1.97l5.51-.02c0-1.55-.05-3.08-.18-4.53l-.1-3.45c0-.4.13-.99-.25-.99l-8.01.03c-.28,0-.55.76-.66.99l-1.68,3.43c-.33.65-2.18,4.17-2.21,4.56Z"/>
    <path class="cls-1" d="M59.77,56.74c.23,0,1.75-.55,1.76,1.56,0,.41-.03.63-.08.98-.08.59.07,2.06-1.41,2.07l-.39-3.23c.02-.32.09-.03.19-.4.01-.05.02-.26.02-.31-.02-.37-.08-.29-.09-.66h0ZM55.42,54.54c0,.56.6,2.58.78,3.27l1.19,4.77c.57,2.2.05,1.66,1.58,2.4.32.16,1.06.48,1.51.49,0-.88-.24-.93.02-1.7.17-.48,0-.7-.03-1.09,1.38,0,2.07-.35,2.82-1.51,2.16-3.33.27-9.61-3.03-9.59-1.74,0-2.87.84-4.02,1.97-.16.16-.81.81-.81,1.01Z"/>
    <path class="cls-1" d="M62.48,129.11c3.34-.01,2.98-.29,2.56,1.19l-.8,2.66c-.12.38-.24.99-.4,1.33h2.09s1.12-3.91,1.12-3.91c.25-.86.83-2.1-.31-2.35l2.9-5.77h-2.09c-.09.4-1.73,3.53-2.01,4.19-.13.31-.49,1.16-.72,1.42.03-.38.26-.96.38-1.35.15-.52.25-.89.4-1.41.14-.5.26-.88.41-1.4.12-.41.37-1.01.38-1.43-2.17,0-1.92-.17-2.15.68-.28,1.06-1.73,5.61-1.75,6.16Z"/>
    <path class="cls-1" d="M109.65,129.24c.06-.72.52-1.48.58-2.22,1.13,0,.93-.15.47,1.53-.19.71-.19.69-1.05.7h0ZM105.75,136.17h1.84s1.22-4.22,1.22-4.22c.15-.49.3-.96.42-1.47.42,0,.43,0,.75.08,0,.51-.8,2.74-.99,3.54h1.84s.89-3.07.89-3.07c.19-.64.04-.56-.24-.97.46-.04.55-.19.68-.56l.89-3.06c0-.45-.29-.82-.75-.82h-3.51c0,.42-2.04,7.12-2.26,7.88l-.79,2.67Z"/>
    <path class="cls-1" d="M95.71,129.3c.04-.5.57-1.67.58-2.22,1.16,0,.93-.11.48,1.53-.19.71-.19.69-1.06.69h0ZM91.81,136.23h1.84s1.65-5.69,1.65-5.69c.42,0,.43,0,.75.08,0,.46-.55,2.1-.71,2.66-.09.31-.16.63-.28.88h1.84s.99-3.55.99-3.55c0-.19-.17-.37-.25-.49.66-.06.68-.9.92-1.64,1.05-3.29.92-2.81-3.44-2.79-.32,0-.35.56-.53,1.2l-2.76,9.34Z"/>
    <path class="cls-1" d="M24.5,129.59c.1-.2.26-.82.33-1.07.1-.38.24-.78.33-1.15.41,0,.8-.12.82.22,0,.02-.22.73-.27.89-.28,1-.04,1.11-1.21,1.11h0ZM20.69,136.52h1.84c.04-.46,1.21-4.17,1.44-5.07.23-.88.17-.6.95-.54-.02.31-.16.59-.23.84l-.76,2.7h1.84c.09-1.09.91-2.51.9-3.63,0-.2-.14-.24-.25-.41.69-.06.75-.94.95-1.61.94-3.26,1.2-2.84-3.64-2.82-.44,1.9-1.71,5.75-2.29,7.84-.15.55-.73,2.29-.76,2.7Z"/>
    <path class="cls-1" d="M96.82,136.21h1.84s1.65-5.61,1.65-5.61h.83c-.19.8-.95,3.02-.99,3.54h1.75c.14-.3.23-.69.32-1.01.11-.37.23-.75.32-1.08l1.55-5.29c.11-.37.28-.75.28-1.12-2.1,0-1.74-.15-1.97.69-.18.66-.73,2.26-.77,2.69h-.83c.05-.68.84-2.62.9-3.37h-1.75c-.3.63-2.89,10.05-3.13,10.55Z"/>
    <path class="cls-1" d="M70.09,131.46h-.83s1.41-3.46,1.41-3.46c0,.29-.1.62-.14.85l-.43,2.61h0ZM65.43,136.33h1.92c.02-.28.87-2.21,1.07-2.73.06-.16.11-.3.18-.48.17-.43-.05-.35,1.23-.35,0,.39-.16,1.13-.24,1.48h1.84s.56-4.21.56-4.21c.14-1.25.49-3.21.57-4.27h-2.59c-.54,1.02-2.68,6.24-3.42,7.89l-1.13,2.66Z"/>
    <path class="cls-1" d="M57.07,132.91h-.33c0-.39.24-1.08.36-1.45l1.2-4.23c.91,0,.97-.17.58,1.06l-.97,3.31c-.24.77-.22,1.31-.84,1.31h0ZM54.49,134.32h3.34c1.49-.02,1.53-1.69,2.08-3.47.21-.69.44-1.49.63-2.17.94-3.36,1.39-2.87-3.67-2.85,0,.41-1.05,3.72-1.2,4.23-.13.45-1.18,3.88-1.19,4.25Z"/>
    <path class="cls-1" d="M47.56,132.87c-1.24.29-.84.07-.06-2.68l.87-2.92c.95,0,.88-.14.58.89l-1.39,4.7h0ZM45.56,134.36c1.22,0,2.85.21,3.36-.41.34-.42,1.65-5.18,1.92-6.15.64-2.28.41-1.94-3.06-1.93-1.03,0-1.11.93-1.34,1.72-.2.68-1.73,5.69-1.7,6.01.04.41.33.75.82.75Z"/>
    <path class="cls-1" d="M52.15,132.93c-.61,0-.44-.14-.08-1.31.15-.49.3-1,.45-1.53.15-.53.3-1,.43-1.46.44-1.57.21-1.38,1.18-1.39,0,.52-1.03,3.7-1.23,4.45-.22.81-.19,1.23-.75,1.24h0ZM49.73,133.6c0,1.03,1.9.73,3.18.73.98,0,1.2-.61,1.4-1.34.2-.73.4-1.37.61-2.11.18-.65.44-1.44.62-2.09.93-3.33,1.25-2.95-2.75-2.93-.95,0-1.03.7-1.26,1.39-.25.79-1.8,5.91-1.8,6.35Z"/>
    <path class="cls-1" d="M114.09,132.68c-.83,0-.27-.64.39-2.98.14-.49.29-.95.41-1.4.42-1.51.25-1.3,1.18-1.3,0,.37-1.24,4.41-1.47,5.2-.09.33-.1.48-.51.48h0ZM111.67,133.35c0,.41.34.74.75.74,1.3,0,2.77.2,3.37-.4.26-.26.32-.57.43-.97.21-.74.4-1.39.62-2.1l1.22-4.29c0-.4-.24-.74-.67-.74h-2.84c-.85.02-.99.97-1.14,1.51-.29,1.04-1.75,5.57-1.75,6.24Z"/>
    <path class="cls-1" d="M79.03,133.23c0,1.21,1.49.98,2.26.98-.02.3-.1.39-.16.66.33-.08.81-.36,1.14-.53,1.15-.57.88-.15,1.4-1.99l1.55-5.29c.15-.46.27-.89.38-1.35h-1.84c-.05.66-1.92,6.34-1.97,7.01h-.75c0-.63.71-2.73.93-3.51l1.04-3.49h-1.84s-1.09,3.69-1.09,3.69c-.18.65-1.05,3.39-1.05,3.81Z"/>
    <path class="cls-1" d="M86.61,130.41c.05-.62.85-2.6.9-3.29.66,0,.93-.17.75.47l-.68,2.3c-.19.6-.25.52-.97.52h0ZM83.05,136.26h1.84c.09-.4.22-.75.31-1.1l1.01-3.44c.45,0,1.68.29,2.44-.4.44-.39.9-2.41,1.1-3.1.85-2.97.87-2.52-3.65-2.51,0,.41-1.35,4.7-1.5,5.25-.41,1.49-1.23,3.92-1.55,5.29Z"/>
    <path class="cls-1" d="M13.4,129.31h2.84s-.78,2.75-.78,2.75c-.25.89-.19.78-1.13.78,0-.5.3-1.15.41-1.65h-1.92c-.18.78-1.35,3.3.18,3.3h2.75c1.29-.02,1.4-1.35,1.71-2.44,1.3-4.59,1.75-4.33-3.4-4.31-.35,0-.59,1.26-.66,1.57Z"/>
    <path class="cls-1" d="M74.84,129.06h2.75c-.01.57-.81,2.77-.99,3.53h-.92c.04-.55.4-1.09.41-1.64h-1.92c-.01.73-1.42,3.3.26,3.3h2.67c1.17-.02,1.29-.95,1.47-1.53l.7-2.35c.93-3.2.49-2.89-3.86-2.87-.26,0-.22.12-.38.69-.09.33-.19.53-.2.87Z"/>
    <path class="cls-1" d="M40.13,134.38h2.09c.03-.44,1.32-4.48,1.48-5.2h1.75c.18-.35.48-1.38.58-1.82h-1.75c.05-.61.77-2.4.82-3.04h-2c-.36,1.55-1.67,5.7-2.19,7.53-.14.47-.25.81-.38,1.27-.1.35-.24.93-.39,1.25Z"/>
    <path class="cls-1" d="M30.2,134.42h3.34c.12-.25.55-1.37.58-1.66h-1.59c.08-.36.17-.59.28-.95.11-.35.16-.65.3-.94h1.5c.1-.22.41-1.26.41-1.57h-1.5c.25-.5.32-1.28.58-1.81h1.59c.02-.27.12-.51.2-.79.08-.29.15-.5.21-.78h-3.42s-2.47,8.5-2.47,8.5Z"/>
    <path class="cls-1" d="M88.55,134.18h3.34s.58-1.66.58-1.66h-1.67s.58-1.89.58-1.89h1.59c.02-.27.12-.51.2-.79.08-.29.15-.5.21-.78h-1.5s.49-1.81.49-1.81h1.59c.1-.46.4-1.09.41-1.57-3.84.02-3.3-.26-3.62.88-.11.4-.21.69-.32,1.08l-1.58,5.42c-.11.37-.28.75-.28,1.12Z"/>
    <path class="cls-1" d="M102.4,134.13h3.42c.04-.53.48-1.11.49-1.66h-1.59c.39-.79.33-1.89.74-1.89h1.42c0-.44.31-1.13.41-1.57h-1.5c.05-.56.37-1.26.49-1.81h1.59c.12-.5.37-1.08.41-1.57h-3.42c-.03.45-1.63,5.72-1.82,6.34-.1.34-.2.75-.31,1.09-.1.32-.21.8-.34,1.06Z"/>
    <path class="cls-1" d="M26.28,134.44h3.34c.11-.25.56-1.4.58-1.66h-1.59c.11-.46.49-1.55.49-1.89,1.54,0,1.52.13,1.68-.25,0-.01.1-.38.12-.45.09-.33.19-.53.2-.87h-1.5c.1-.2.49-1.53.49-1.81h1.67c.04-.5.3-1.1.41-1.57h-3.42c-.31,1.36-1.41,4.83-1.84,6.33-.21.74-.46,1.45-.63,2.17Z"/>
    <path class="cls-1" d="M36.1,127.49h1.17s-2.63,8.97-2.63,8.97h1.84s2.55-8.98,2.55-8.98h1.25c.1-.46.4-1.09.41-1.57l-4.17.02c-.04.52-.37,1.07-.41,1.56Z"/>
    <path class="cls-1" d="M18.65,127.56h1.25s-2.33,7.79-2.33,7.79c-.1.36-.29.82-.3,1.18h1.51c.43-.05.32-.24.55-.94.13-.41.21-.73.33-1.15l2-6.89h1.17c.22-.45.35-1.26.49-1.57l-4.17.02-.49,1.56Z"/>
    <path class="cls-1" d="M13.98,127.58c2.44,0,1.8.37,2.42-1.64.16-.52.33-1.38.57-1.82h.92s-.58,2.14-.58,2.14c.68-.06,1.32-.36,2-.42.18-.77.89-2.82.9-3.38l-3.76.02c-1.26,0-1.4,1.14-1.68,2.13-.16.59-.81,2.5-.8,2.98Z"/>
    <path class="cls-1" d="M75.33,127.33h2c.05-.59.8-2.66.99-3.47h.92c0,.39-.45,1.61-.58,2.14.4-.01.94-.19,1.38-.29.83-.17.65-.17.86-.88.25-.88.54-1.73.75-2.63-.95,0-1.89,0-2.84.01-2.28,0-2.11.2-2.86,2.85-.15.53-.59,1.82-.62,2.26Z"/>
    <path class="cls-1" d="M60.92,134.3h2c.12-.25.27-.87.37-1.21l1.12-3.74h-2.09s-1.4,4.95-1.4,4.95Z"/>
    <path class="cls-1" d="M42.26,124.09l4.84-.02c.14-.6.36-1.17.49-1.73l-4.26.02-1.08,1.73Z"/>
  </g>
  <g>
    <path class="cls-1" d="M107.77,16.68s0-.12,0-.17c0-.06,0-.13,0-.18l.07-.68c0-.06.02-.1.03-.16.02-.15.07-.31.11-.46.07-.28.19-.57.3-.83.11-.26.25-.49.39-.73.17-.29.39-.55.61-.81.1-.12.3-.32.42-.43.01-.01,0,0,.02-.02l.61-.49.34-.22s.08-.05.12-.07c.3-.16.59-.3.9-.42l.43-.14c.1-.03.2-.05.3-.08.02,0,.05,0,.07-.01.03,0,.05-.01.08-.02.17-.04.33-.06.5-.08.16-.02.36-.04.53-.04.17,0,.36-.02.55,0l.69.07c.48.06,1.03.24,1.47.43.43.18.82.42,1.2.69.04.03.07.05.11.08.04.03.07.06.11.08.19.15.44.38.59.54l.18.2s.06.06.09.1l.17.21s.05.07.08.11c.27.36.51.79.68,1.21.12.3.22.61.29.93.06.28.13.63.14.92,0,.06.01.1.01.17,0,.07,0,.12.01.18l-.02.53c0,.06,0,.12-.02.18,0,.05-.01.11-.02.17,0,.05-.02.11-.03.17-.01.11-.04.21-.06.31-.03.16-.07.29-.11.44-.02.05-.03.1-.05.15-.23.69-.59,1.31-1.04,1.88l-.75.76c-.11.11-.24.2-.37.3-.04.03-.08.05-.11.08-.2.14-.55.36-.77.46-.2.09-.39.19-.59.26-.04.01-.09.03-.14.05-.24.09-.5.15-.75.21-.17.04-.33.06-.5.08-.12.01-.23.03-.35.03l-.36.02-.88-.06c-.26-.03-.54-.09-.79-.16-.57-.14-1.09-.4-1.59-.68-.31-.18-.6-.41-.87-.64,0,0,0,0,0,0,0,0,0,0,0,0-.13-.11-.35-.32-.46-.46l-.43-.53s-.05-.07-.08-.11l-.29-.46c-.07-.12-.14-.25-.2-.38-.04-.09-.08-.17-.11-.26-.04-.09-.07-.18-.11-.28-.04-.09-.06-.19-.09-.29-.03-.1-.05-.2-.08-.3,0-.02,0-.05-.01-.07l-.05-.24c-.04-.21-.08-.46-.08-.68l-.02-.36h0ZM106.2,16.64l.03.67c0,.07.02.15.03.22.02.15.03.28.06.41l.1.49s.01.06.02.09l.11.36c.02.06.04.12.06.18.04.12.08.23.13.35.02.05.05.1.07.16.02.05.05.11.08.17l.51.92s.03.04.05.07c.11.17.23.33.35.48.07.09.14.18.21.26l.28.31s.04.04.06.06l.43.4s.04.03.06.05c.03.03.04.03.06.05.03.02.04.03.07.06.17.15.56.44.76.55.03.02.05.03.07.05l.45.26c.06.03.1.06.16.08l.49.22s.05.02.09.03c.24.11.55.21.8.27.13.03.25.07.38.1l.4.07c.22.04.63.09.86.1.05,0,.06,0,.11,0,.04,0,.08,0,.12,0l.91-.02c.18-.01.47-.05.63-.09.04,0,.06,0,.1-.02l.39-.09c.15-.04.31-.08.46-.13l.54-.19c.24-.09.5-.21.73-.33.03-.02.04-.03.07-.04.18-.09.36-.2.53-.31.17-.1.33-.22.49-.34l.2-.15c.11-.08.23-.18.32-.28l.7-.72c.34-.36.82-1.13,1.03-1.58.03-.06.05-.11.08-.16.05-.11.09-.22.14-.33.05-.11.08-.24.13-.35l.06-.18c.05-.16.1-.3.13-.46,0-.03.02-.07.03-.1.04-.2.09-.39.11-.59.02-.21.06-.43.07-.65,0-.05,0-.06,0-.11,0-.04,0-.08,0-.12v-.23s0-.08,0-.12l-.03-.55c-.02-.2-.05-.43-.09-.62-.04-.2-.07-.39-.13-.58-.09-.3-.18-.6-.3-.89-.02-.05-.05-.1-.07-.16-.08-.22-.27-.58-.4-.79l-.23-.37s-.03-.04-.05-.07c-.04-.05-.06-.09-.1-.14l-.36-.46s-.04-.05-.06-.07c-.12-.12-.22-.25-.34-.37-.04-.04-.08-.08-.12-.12l-.18-.17s-.04-.03-.06-.05l-.45-.38c-.2-.15-.41-.31-.64-.44-.12-.07-.25-.15-.38-.22-.2-.1-.33-.17-.56-.28-.22-.1-.45-.18-.69-.26-.21-.08-.43-.14-.65-.18l-.3-.06c-.21-.03-.4-.08-.62-.09-.15,0-.29-.04-.44-.04-.05,0-.06,0-.11,0-.04,0-.08,0-.12,0l-.91.02c-.32.04-.62.07-.93.14-.22.05-.44.1-.66.17l-.54.19c-.44.17-.87.39-1.27.64l-.14.09c-.05.03-.09.06-.14.1-.1.07-.18.13-.27.2l-.64.55-.3.3c-.15.16-.3.33-.44.51-.02.03-.03.05-.05.07l-.57.85c-.03.05-.06.1-.08.15l-.04.08s-.03.05-.04.08c-.22.43-.41.89-.54,1.36-.02.06-.03.12-.05.18-.07.25-.17.76-.18,1,0,.15-.04.29-.04.44,0,.05,0,.06,0,.11,0,.04,0,.08,0,.12v.23Z"/>
    <path class="cls-1" d="M113.41,16h-.83s0-2.02,0-2.02h.88c.37,0,.74.06.94.26,0,0,0,0,0,0,.14.14.19.3.23.5.04.2.01.54-.07.73-.09.2-.22.33-.42.41-.07.03-.13.05-.22.07-.04,0-.07.02-.11.02-.03,0-.1,0-.13.01-.08.01-.19.01-.27.01h0ZM110.52,20.38s0,.03.03.03h2.03s.03-.02.03-.04v-2.95c.19,0,.69-.02.86.01.05,0,.09.01.14.03.18.05.29.1.43.21.12.1.22.22.31.35.13.19.46.82.57,1.07l.63,1.24s.02.04.03.06h2.2c0-.05-.4-.82-.48-.98l-.56-1.1s-.02-.03-.03-.06l-.07-.13c-.13-.26-.31-.57-.48-.79l-.24-.25c-.13-.12-.23-.2-.4-.28-.06-.03-.22-.1-.29-.1v-.02c.16-.01.58-.24.73-.35l.22-.19c.05-.05.17-.2.21-.25.08-.12.18-.31.22-.44l.04-.17c.05-.18.07-.43.06-.63,0-.45-.09-.84-.29-1.15-.13-.21-.27-.35-.47-.49-.17-.12-.44-.25-.65-.31-.18-.05-.33-.09-.52-.12-.35-.06-.69-.08-1.06-.08h-3.24s.03,7.89.03,7.89Z"/>
  </g>
</svg>