<?xml version="1.0" encoding="UTF-8"?>
<svg id="Layer_1" data-name="Layer 1" xmlns="http://www.w3.org/2000/svg" viewBox="0 0 141.73 141.73">
  <defs>
    <style>
      .cls-1, .cls-2 {
        fill: #161717;
      }

      .cls-2 {
        fill-rule: evenodd;
      }
    </style>
  </defs>
  <path class="cls-2" d="M66.09,62.12l-.02.29-.03.29-.05.28-.09.38-.09.24-.16.35-.12.23-.21.31-.17.21-.21.21-.21.19-.35.23-.22.16-.26.14-.24.12-.4.14-.52.17-.28.05-.43.07-.26.03-.38.03-.24.02-.4.02-.83.05h-.38s-.24-.02-.24-.02l-.4-.03-.26-.03-.29-.05-.26-.09-.38-.12-.24-.12-.26-.12-.24-.12-.23-.14-.55-.38-.21-.17-.31-.24-.21-.17-.19-.19-.14-.16-.02-.12.09-.16.07-.09.17-.19.48-.45.16-.19.29-.45.16-.19.17-.19.19-.1.19.03.19.14.55.38.26.14.24.12.4.19.26.09.28.09.28.05.4.02.28.02,1.09-.07.28-.03.14-.03.26-.1.23-.14.17-.17.09-.12.1-.26-.02-.29-.03-.14-.14-.24-.09-.1-.23-.17-.14-.05-.26-.1-.29-.07-.29-.05-1.65-.16-.52-.1-.28-.07-.38-.14-.26-.09-.26-.12-.59-.29-.22-.16-.26-.16-.22-.16-.29-.24-.16-.23-.16-.26-.1-.26-.12-.36-.05-.26-.05-.38-.03-.55.02-.28.03-.42.05-.26.07-.23.09-.26.17-.38.12-.24.14-.21.17-.19.28-.26.23-.17.23-.16.24-.12.33-.19.52-.21.26-.09.4-.07.28-.05.52-.07.38-.07.28-.03.26-.02h.28s.52.05.52.05l.26.03.12.03.28.03.59.1.29.07.28.09.29.09.28.1.26.12.26.1.33.19.24.12.23.16.16.16v.17s-.1.19-.1.19l-.19.35-.14.21-.66.87-.19.24-.21.17-.14.05-.12-.02-.17-.09-.26-.16-.26-.1-.12-.05-.26-.09-.14-.03-.29-.07-.4-.09-.28-.02-.45-.03h-.45s-.29.02-.29.02l-.29.05-.28.09-.1.05-.21.16-.09.1-.12.24-.03.28.05.23.14.23.19.17.21.1.12.05.26.05.43.05.59.03.29.05.59.14.55.17.4.09.26.07.48.17.35.16.24.12.24.14.23.14.5.42.19.21.17.21.21.31.14.23.12.26.07.26.07.38.03.26.02.29h0ZM22.94,69.23c.29.04.54-.12.57-.34.03-.22-.18-.44-.47-.47-.29-.04-.54.11-.57.34-.03.22.18.44.47.47h0ZM34.58,66.22c-.17.02-.32.11-.39.23h0s0,0,0,0c-.03.05-.05.11-.05.17,0,.11.05.2.14.28h0s.04.03.06.05h0c.08.06.18.1.29.11.3.04.56-.12.59-.35,0-.04,0-.09,0-.13-.02-.09-.09-.18-.18-.25-.09-.07-.22-.12-.36-.12-.03,0-.05,0-.08,0h0s0,0,0,0h0s0,0,0,0h0ZM39.55,66.24c.03-.23-.18-.45-.48-.49-.29-.04-.56.12-.59.35,0,.06,0,.11.02.17.04.2.25.35.51.35.14,0,.26-.04.36-.11h0s0,0,0,0c.09-.06.16-.15.17-.26h0ZM33.72,70.17c-.01.1.02.2.09.28.09.11.23.19.39.21.1.01.2,0,.28-.02.2-.04.35-.17.38-.34,0-.02,0-.04,0-.06,0-.22-.22-.4-.5-.41-.02,0-.04,0-.06-.01-.29-.04-.56.12-.59.35h0ZM26.84,71.67c-.06-.15-.23-.27-.44-.3-.17-.02-.32.02-.43.1h0c-.08.06-.13.14-.14.24-.01.1.02.19.09.27.08.14.26.25.47.25.28,0,.51-.18.51-.4,0-.06-.02-.11-.05-.16h0ZM22.22,72.36s.01-.04.02-.07c.01-.1-.02-.19-.08-.27-.08-.1-.22-.18-.39-.2-.22-.03-.42.06-.52.2-.03.04-.05.09-.05.14,0,.06,0,.11.02.17,0,.02,0,.05,0,.07,0,.22.23.4.51.4s.51-.18.51-.4c0-.01,0-.03,0-.04h0ZM47.21,63.31c-.26-.11-.56-.14-.85-.07l-2.95.7c0-.5-.08-1-.24-1.47l3.04-.72c.21-.05.43.05.51.25l.43.97.06.35h0ZM14.38,70.11s-.05,0-.07,0l-2.21.1c-.22.01-.43.07-.61.18-.15-.79-.2-1.05-.22-1.14h0c-.03-.14-.01-.24.04-.3.18-.21.84-.22,1.23-.23.13,0,.25,0,.36-.01.93-.06,1.85-.18,2.88-.35.03.49.12.98.26,1.45l-1.66.29h0ZM47.94,62.67s.02.06.03.09l.4,2.38.44,2.63c0,.05.01.1.02.15l.07,1.63c.03.65-.45,1.22-1.11,1.34l-3.78.67-6.81,1.14c-.68.68-1.6,1.08-2.33,1.17-.87.19-1.77.02-2.61-.34l-3.63.61c-1.06,1.01-2.43,1.69-3.93,1.8-.64.04-1.28-.02-1.9-.16-.32-.07-.65-.15-.96-.26l-8.4,1.78s-.04,0-.06.01c-.33.06-.68-.01-.96-.19l-.33-.21c-.26-.17-.45-.41-.53-.7l-.33-1.09c-.02-.08-.04-.16-.05-.24l-.32-3.13h0s0-.02,0-.03c-.02-.11-.02-.21-.01-.32l-.03-.14c-.01-.06-.03-.13-.04-.2v-.02s-.11-.56-.11-.56c-.08-.43-.17-.9-.18-.97v-.02s0-.03,0-.05v-.05c-.08-.39,0-.72.21-.97.43-.5,1.26-.52,1.87-.53.12,0,.23,0,.32-.01.94-.06,1.87-.19,2.93-.36.03-.47.12-.95.27-1.43.31-1.11.78-2.1,1.16-3.12-.13-.07-.27-.15-.4-.25-.66-.48-.53-1.41-.23-2.05-.1.58-.15,1.4.45,1.71.21.1.54.21.79.33l-.04.22c-.3,1.53-.84,2.9-.91,4.4,0,.06,0,.12,0,.18,0,.21.01.43.04.64.06.49.18.97.36,1.43.74,1.92,2.45,3.48,4.3,4.35,1.43.64,3.06.99,4.58.45,1.67-.56,3.4-2.13,3.91-3.84.18-.68.12-1.39.03-2.09-.05,0-.1.01-.15.01-.19,0-.36-.05-.54-.12-.39-.14-.76-.3-1.12-.49-.61-.32-1.18-.7-1.7-1.14-.26-.21-.5-.43-.74-.67-.77-.77-1.43-1.67-1.97-2.62-.46-.81.16-1.51.82-1.97,1.53-1.05,3.27-1.45,5.09-1.48,1.13-.02,2.27.03,3.33.54,1.15.55,1.68,1.44,1.41,2.69-.04.18-.1.52-.25.95-.09.27-.22.59-.41.93-.13.25-.29.51-.49.78-.29.41-.61.76-.93,1.07h0c-.7.67-1.42,1.11-1.97,1.39-.09.05-.19.08-.29.11.36.99.55,2.09.15,3.11-.02.06-.05.12-.07.18,1.07.32,2.12.69,3.21.82.37.04.75.05,1.1-.04.05,0,.11-.01.16-.02,1.63-.29,2.72-1.22,3.32-2.78,1.13-.96,2.28-1.83,3.07-3.09.37-.57.7-1.16.86-1.8.04-.19.06-.38.07-.58.02-.5-.07-1-.23-1.48-.09-.26-.21-.52-.36-.75-.02-.03-.04-.07-.06-.1-.54-.71-1.44-1.34-2.14-1.9-.58-.46-1.16-.94-1.73-1.43-.26-.24-.62-.52-.85-.8-.31-.34-.31-.91.16-1.09-.47.53.12.86.57,1.07l.5.26c1,.54,1.98,1.09,2.94,1.7.59.4,1.2.83,1.64,1.4.13.18.25.37.35.57l3.17-.75c.61-.14,1.23.15,1.48.71l.45,1.01h0ZM39.13,50.35c1.25,1.72,3.55,1.54,4.53-.35.66-1.28,1.29-2.58,1.93-3.88.79-1.62.44-2.99-1.05-3.98-2.65-1.75-5.59-2.38-8.35-2.26-2.36.23-3.16,1.95-2.01,3.58,1.64,2.3,3.29,4.6,4.95,6.88h0ZM12.24,56.39c.83-2.1,1.11-2.97,1.94-5,.61-1.49.9-1.61,1.66-3.57.9-2.31.77-2.84.55-3.15-.6-.83-2.31-.65-2.75-.57-.83.16-1.43.38-1.5.41-1.94.75-3.55,1.27-5.28,2.69-.7.58-1.35,1.23-1.94,1.97-.9,1.13-.88,1.94.05,3.02,1.38,1.59,2.76,3.18,4.15,4.76,1.09,1.23,2.5.98,3.11-.56h0ZM19.31,56.24c1.14.16,2.52-.59,2.61-1.66.09-1.1-1.21-2.19-2.46-2.05-1.09.12-2.12,1.17-1.94,2.22.15.87,1.07,1.39,1.8,1.49h0ZM32.73,53.85c-.74,0-1.72-.4-1.98-1.24-.31-1.01.57-2.19,1.63-2.46,1.22-.3,2.66.6,2.71,1.7.06,1.07-1.21,2-2.36,1.99h0ZM40,95.71c-.07-.07-.32-.31-.5-.66-.46-.9-.18-1.88-.07-2.25.14-.47.36-.91.67-1.3.03-.04.08-.06.13-.06.05,0,.1.03.13.08h0s.5.77.5.77c.04.06.04.14,0,.19-.15.22-.19.32-.26.51-.19.51-.34,1.05-.11,1.51.08.16.19.27.24.31.09.09.28.25.55.33.17.05.31.04.61.02.16-.01.28-.04.36-.06.12-.03.29-.08.4.1l.52.82s.04.1.02.16c-.01.03-.03.06-.06.07-.02.01-.04.02-.05.02-.39.07-.76.1-1.11.09-.42-.01-.81-.08-1.17-.2-.11-.04-.45-.15-.79-.46h0ZM37.85,97.87c.01.06.05.1.1.12.54.21,1.1.41,1.65.6.02,0,.03,0,.05,0,.03,0,.06,0,.08-.03.02-.01.04-.03.05-.05.27-.5.35-1.12.23-1.7-.06-.3-.17-.52-.33-.68-.31-.33-.77-.36-1.11-.33-.1.01-.21.02-.31.04-.23.04-.45.07-.67.04-.02,0-.04,0-.05-.01,0-.01,0-.04.03-.09.14-.3.32-.58.54-.82.04-.05.05-.11.03-.17l-.24-.64c-.02-.05-.04-.11-.06-.18-.05-.16-.11-.33-.2-.47-.03-.04-.07-.07-.11-.07s-.09,0-.12.03c-.21.17-.35.49-.46.75h0s-.03.08-.04.11c-.11.24-.2.47-.26.71,0,.02-.01.05-.02.07h0c-.11.4-.33,1.14.1,1.45.17.12.36.15.52.18.39.06.79.12,1.19.13.05,0,.15,0,.17.03.01.01.01.05,0,.08-.02.06-.08.11-.13.16l-.58.58s-.05.1-.04.15h0ZM43.77,92.74c-.45-.32-.91-.61-1.37-.9-1.23-.75-2.47-1.48-3.8-2.01-.46-.19-.91-.01-1.15.4-.58,1.01-1.04,2.09-1.4,3.22-.25.8-.47,1.62-.7,2.44-.08.3-.09.62.12,1.07.12.21.39.48.72.69.36.22.71.45,1.09.64,1.29.65,2.57,1.31,3.87,1.91.69.32,1.06.16,1.38-.5.82-1.68,1.56-3.4,2.13-5.2.06-.18.06-.41.03-.61-.08-.56-.51-.86-.92-1.15h0ZM45.37,94.36c.18-.49.07-.94-.28-1.33-.14-.16-.3-.32-.48-.43-1.32-.81-2.63-1.64-3.97-2.4-.79-.45-1.62-.81-2.44-1.2-.13-.06-.24-.09-.34-.08-.12.1-.25.18-.38.25,0,0,0,0,0,0-.18.23-.37.46-.49.73-.55,1.22-1.11,2.44-1.59,3.69-.36.93-.61,1.91-.87,2.89-.07.25,0,.56,0,.86.21.2.36.43.58.55,1.42.8,2.85,1.6,4.29,2.36.77.4,1.57.75,2.38,1.07.47.19.77.06.98-.4.36-.74.71-1.48,1.01-2.25.56-1.43,1.08-2.88,1.61-4.32h0ZM37.2,86.12c-.07.25-.19.48-.32.69-.27.4-.62.65-.99.69-.44.05-.85-.16-1.14-.38.87-.26,1.69-.59,2.45-.99h0ZM45.14,92.44c.29.23.53.51.74.85.2.41.15.82,0,1.21-.46,1.29-.91,2.59-1.41,3.87-.35.91-.74,1.8-1.15,2.68-.4.84-.91,1-1.79.65-1.95-.78-3.79-1.8-5.63-2.83-.52-.29-1.05-.58-1.45-1.07-.25-.3-.37-.6-.31-.99.15-1.12.44-2.2.86-3.22.58-1.41,1.22-2.79,1.83-4.19,0,0,0,0,0-.01-.14.02-.29.04-.44.04-.06,0-.13,0-.19,0-1.1-.07-2.18-.77-3.01-1.94-.55.1-1.11.17-1.68.21-.74.05-1.48.05-2.2,0-2.83-.19-5.43-1.13-7.5-2.73-1.04-.81-1.76-1.66-2.2-2.58-.85-1.79-1.24-3.69-1.09-5.35,0-.01,0-.03,0-.04,0-.03,0-.05,0-.08v-.02s0,0,0,0c0-.03,0-.05.01-.08.19-.04.38-.09.56-.13-.03.1-.05.2-.06.3h0s0,.09-.01.13c-.01.13,0,.26,0,.4.08.7.47,1.23.85,1.66,2.67,3.04,6.49,4.13,6.53,4.15,1.46.41,4.5,1.25,7.82-.09.54-.22,1.04-.47,1.49-.75-.13-.09-.27-.16-.41-.21-.21-.08-.43-.12-.68-.13-.33.18-.67.34-1.02.47-.07.03-.14.06-.22.08t0,0s-.02,0-.03.01c-1.29.46-2.7.65-4.14.56-.8-.05-1.6-.19-2.39-.41-2.16-.61-4.26-1.86-6.05-3.59-.5-.48-.98-1.02-1.17-1.72-.08-.31-.06-.64.04-.97.21-.05.42-.09.63-.14-.18.34-.25.68-.17.99.14.56.57,1.03,1.01,1.45,1.73,1.67,3.74,2.87,5.82,3.46,1.74.49,3.52.55,5.15.18.36-1.26,1.26-2,2.4-2,.41,0,.82.1,1.22.27,1.65-1.28,3.03-3.14,4.01-5.44.3-.71.64-1.63.66-2.6.17-.04.35-.07.52-.1,0,1.11-.37,2.15-.71,2.94-.49,1.15-1.07,2.19-1.74,3.1-.66.92-1.41,1.72-2.23,2.38.24.15.48.34.7.54,1.48-1.24,2.31-2.62,2.71-3.27.63-1.05.88-1.83,1.33-3.24.35-1.07.49-1.93.43-2.55.26-.05.51-.09.77-.13.51.8,1.05,1.66,1.18,2.39.25,1.34-.09,2.67-.48,3.91-.38,1.17-.93,2.69-1.83,4.02-.6.88-1.34,1.66-2.2,2.33.27,1.35.06,2.59-.57,3.43,0,0-.01.01-.02.02.17.05.34.12.54.21,1.74.81,3.4,1.8,5.04,2.84.44.28.87.56,1.28.89h0ZM132.44,70.65l-.83,2.18-.1.26-.29.97-.1.26-.42.97-.09.26-.28.97-.1.28-.43.9-.1.28-.28.99-.09.26-.45.95-.09.26-.31.97-.09.28-.29.97-.07.17-.09.09-.12.02-1.16-.03-1.35-.09-.17-.03-.09-.14-.43-.85-.09-.24-.31-.9-.07-.24-.31-.88-.09-.24-.35-.88-.1-.24-.31-.87-.09-.16h-.05s-.07.16-.07.16l-.31.88-.09.24-.42.83-.09.24-.28.92-.09.24-.29.88-.1.24-.33.87-.09.19-.19.09-1.07-.09h-.28s-1.07.09-1.07.09l-.16-.09-.07-.21-.48-.93-.09-.26-.24-.99-.09-.26-.43-.97-.1-.26-.36-.93-.09-.28-.29-.99-.09-.26-.87-2.18-.1-.26-.31-.97-.12-.28-.43-.9-.12-.26-.4-.99-.02-.21.1-.12.19-.05h.26s.68.05.68.05h.28s1.2.02,1.2.02h.93s.23.02.23.02l.07.07.03.17.4,1.14.09.26.35,1.11.09.26.45,1.04.09.26.35,1.06.05.28.21,1.09.07.16.1.02.1-.14.29-.88.09-.24.23-.92.07-.26.26-.85.07-.26.29-.9.07-.24.28-.9.09-.24.26-.74.07-.19.09-.09.19-.03.87-.07.26-.02.38.02h.26s.26.02.26.02l.17.07.1.17.05.14.1.24.19.48.09.24.26.9.07.24.28.9.07.24.21.92.09.24.42.85.07.24.05.4.05.28.07.26.1.14.1-.02.09-.19.21-1,.07-.26.14-.36.09-.26.14-.38.09-.28.17-.81.09-.28.29-.78.1-.26.33-.78.09-.26.17-.66.07-.21.1-.12.21-.03.92.07h.28s.94-.05.94-.05h.28s.92.07.92.07h.19s.07.05.07.05l-.02.17h0ZM112.52,70.65l-.83,2.18-.1.26-.29.97-.1.26-.42.97-.09.26-.28.97-.1.28-.43.9-.1.28-.28.99-.09.26-.45.95-.09.26-.31.97-.09.28-.29.97-.07.17-.09.09-.12.02-1.16-.03-1.35-.09-.17-.03-.09-.14-.43-.85-.09-.24-.31-.9-.07-.24-.31-.88-.09-.24-.35-.88-.1-.24-.31-.87-.09-.16h-.05s-.07.16-.07.16l-.31.88-.09.24-.42.83-.09.24-.28.92-.09.24-.29.88-.1.24-.33.87-.09.19-.19.09-1.07-.09h-.28s-1.07.09-1.07.09l-.16-.09-.07-.21-.48-.93-.09-.26-.24-.99-.09-.26-.43-.97-.1-.26-.36-.93-.09-.28-.29-.99-.09-.26-.87-2.18-.1-.26-.31-.97-.12-.28-.43-.9-.12-.26-.4-.99-.02-.21.1-.12.19-.05h.26s.68.05.68.05h.28s1.2.02,1.2.02h.94s.23.02.23.02l.07.07.03.17.4,1.14.09.26.35,1.11.09.26.45,1.04.09.26.35,1.06.05.28.21,1.09.07.16.1.02.1-.14.29-.88.09-.24.23-.92.07-.26.26-.85.07-.26.29-.9.07-.24.28-.9.09-.24.26-.74.07-.19.09-.09.19-.03.87-.07.26-.02.38.02h.26s.26.02.26.02l.17.07.1.17.05.14.1.24.19.48.09.24.26.9.07.24.28.9.07.24.21.92.09.24.42.85.07.24.05.4.05.28.07.26.1.14.1-.02.09-.19.21-1,.07-.26.14-.36.09-.26.14-.38.09-.28.17-.81.09-.28.29-.78.1-.26.33-.78.09-.26.17-.66.07-.21.1-.12.21-.03.92.07h.28s.93-.05.93-.05h.28s.92.07.92.07h.19s.07.05.07.05l-.02.17h0ZM92.3,81.25l-.02.28-.07.94-.02.17-.07.12-.09.07-2.27.07h-.28s-.92-.07-.92-.07l-.28.02-.9.07-.28.02h-1.2s-.9-.07-.9-.07h-.28s-1.49.09-1.49.09l-.59-.03-.21-.03-.12-.09-.05-.12-.03-.19-.03-.4-.02-.28.02-.26v-.26s.07-.92.07-.92v-.28s.02-.92.02-.92l-.02-.28-.05-.92-.02-.28.03-.94v-1.47s.07-.92.07-.92l-.02-.28-.05-.92-.02-.28v-.42s.03-.52.03-.52v-.26s.05-.9.05-.9l.02-.24.05-.14.09-.07.14-.02.23-.03,1.13.07,1.06-.02h.28s1.04.07,1.04.07h.28s1.04-.07,1.04-.07h.28s2.36.03,2.36.03l.29-.02.59-.05h.43s.24.05.24.05l.1.09.03.12.03.23v.47s-.03.43-.03.43v.29s.02.43.02.43l.02.26-.02.26-.03.21-.07.12-.09.07-.21.04h-.14s-.28.02-.28.02l-1.63-.03h-.28s-.88.03-.88.03h-.28s-.9-.03-.9-.03l-.78-.05h-.26s-.14.02-.14.02l-.17.03-.09.09-.02.1-.03.19-.03.42v.28s.02.29.02.29l.02.19.03.12.07.09.19.05.55.03.55-.03h1.64s1.94-.1,1.94-.1l.54.03.19.03.1.09.05.1.02.19.03.29.02.29v.57s.04.4.04.4l-.04.52-.03.21-.07.12-.12.09-.17.03h-.35s-.78-.09-.78-.09l-.28-.02-1.39.09-1.11-.03h-.28s-.69-.05-.69-.05l-.29.02-.21.02-.09.05-.05.12-.02.26-.05.43-.02.28v.38s.02.17.02.17l.05.12.07.07.19.02.95.03h.28s.94-.07.94-.07l1.23.07h.28s1.23-.07,1.23-.07h.26s.26.02.26.02l.62.07.1.05.07.1.02.19.05.95h0ZM79.74,81.28l.02.28.03.43.02.26-.02.24-.09.23-.12.12-.19.02-.28.03-.94-.05h-.28s-.92.07-.92.07h-.28s-.24-.05-.24-.05l-.1-.14-.03-.24-.07-1.13-.02-.28.03-1.13v-.28s-.03-1.11-.03-1.11v-.24s-.07-.14-.07-.14l-.19-.07h-.42s-.69.05-.69.05l-.28.02-1.39-.03-.93-.05-.23.02-.16.05-.09.16-.02.24.02,1.11v.28s-.03,1.13-.03,1.13l.02.28.07.74v.4s-.07.24-.07.24l-.16.14-.23.05-.26.02-.26-.02-.73-.07-.28-.02-.81.05-.28-.02h-.14s-.19-.04-.19-.04l-.14-.07-.07-.09-.03-.19-.02-.16v-.28s.03-.52.03-.52v-1.45s.03-.92.03-.92v-.28s.02-.92.02-.92v-.28s-.05-.92-.05-.92v-.28s-.02-.92-.02-.92v-1.19s.02-.28.02-.28l.05-.92.02-.28-.02-.92-.02-.28-.09-.59v-.36s.07-.21.07-.21l.16-.12.23-.05.26-.02h.26s.73.03.73.03h.28s.69-.05.69-.05h.28s.26.02.26.02l.23.03.14.14.07.23.02.12v.26s-.05.78-.05.78l-.02.28-.02,1.13v1.42s.02.21.02.21l.05.14.09.07.17.02.24.02h.24s.66-.1.66-.1l.26-.02,1.11.03,1.02.07h.26s.12-.02.12-.02l.19-.1.07-.14.02-.19.07-1.13v-.28s-.03-1.13-.03-1.13v-.28s-.02-1.13-.02-1.13l.05-.28.14-.16.21-.03h.28s.94.05.94.05h.28s.78-.05.78-.05l.28.02h.16s.23.03.23.03l.14.14.07.24v.26s-.05.69-.05.69l-.02.28.05.92v.28s-.03.92-.03.92v.28s.07.92.07.92v.28s-.07.92-.07.92v.28s-.03.92-.03.92v.28s.02.92.02.92v.28s-.02.92-.02.92v1.2h0ZM66.68,81.3l-.14.14-.31.28-.21.16-.33.24-.21.14-.35.19-.23.12-.4.19-.26.09-.29.09-.29.05-.43.09-.61.07-.31.02-.43.03h-.9s-.29-.02-.29-.02l-.29-.03-.29-.05-.29-.07-.26-.09-.78-.21-.38-.14-.23-.1-.33-.19-.21-.16-.23-.16-.24-.16-.45-.38-.21-.21-.19-.22-.19-.26-.16-.24-.14-.24-.12-.24-.17-.36-.26-.73-.12-.35-.17-.52-.03-.26-.02-.4.02-.26.02-.28v-.29s.03-.59.03-.59l.02-.28.05-.26.07-.38.07-.26.09-.26.09-.24.12-.35.12-.24.12-.26.14-.26.16-.26.16-.24.17-.23.19-.24.21-.23.21-.19.23-.19.21-.17.55-.38.23-.14.24-.14.52-.24.29-.1.28-.09.59-.14.29-.05.29-.03.54-.03.38-.03.26.02.38.02.64.09.24.05.4.07.61.17.24.1.38.23.24.14.45.31.54.38.19.14.1.09.12.12.03.14-.02.14-.1.14-.16.19-.19.19-.19.17-.19.16-.19.19-.29.35-.19.21-.09.09-.16.14-.12.05-.12.02-.12-.03-.19-.1-.33-.24-.22-.12-.38-.17-.24-.09-.38-.1-.26-.05-.43-.04h-.28s-.38.04-.38.04l-.28.07-.38.12-.26.1-.23.09-.35.17-.24.17-.12.1-.21.23-.16.24-.12.22-.12.24-.1.26-.09.28-.05.29-.03.26-.03.52v.28s.02.43.02.43l.02.26.09.4.09.26.12.29.14.26.26.38.19.21.33.28.23.16.35.17.26.1.38.1.28.05.42.02h.4s.24-.05.24-.05l.14-.03.26-.09.43-.16.28-.12.26-.12.23-.12.33-.21.23-.17.17-.12.1-.03.16.03.19.12.19.17.07.1.17.19.28.35.17.21.47.54.16.21.09.09.09.16v.1h0ZM134.21,53.69l-.1.16-1.25,1.84-.17.23-.59.8-.16.23-.48.85-.16.24-.54.8-.17.24-.55.8-.17.23-.57.8-.07.14v1.4s.07.94.07.94l-.02.28-.07.93v.28s.07.73.07.73l.02.24-.05.14-.07.07-.16.03h-1.14s-2.03-.07-2.03-.07l-.07-.05-.03-.17v-2.13s-.02-.28-.02-.28l-.07-.94-.02-.28.07-.94-.03-.16-.12-.12-.47-.83-.16-.24-.55-.78-.16-.24-.5-.83-.14-.24-1.21-1.84-.14-.24-.52-.81-.14-.24-.5-.83-.05-.16.02-.09.1-.07h2.32s.28.02.28.02l1,.05.19.02.07.05.5.87.14.23.52.78.14.23.45.8.16.24.47.74.12.16.1.03.12-.12.43-.83.16-.23.54-.76.16-.23.43-.81.14-.24.48-.8.14-.17.14-.03.19.02.87.05h.28s1-.05,1-.05h.28s.99.07.99.07l.21.03.09.03-.02.07h0ZM117.32,63.04l.14-.12.07-.1.12-.26.05-.28.02-.1-.02-.24-.05-.24-.14-.24-.1-.12-.23-.23-.28-.16-.26-.09-.12-.03-.24-.02-.78.03-.29.02h-1.02s-.26.02-.26.02l-.31.05-.16.05-.05.09-.02.21v.29s.02.28.02.28v.38s-.03.29-.03.29v.35s.03.19.03.19l.07.1.12.07.23.03,2.44-.05.59-.03.28-.05.19-.09h0ZM113.34,57.46l.02.14.02.28.03.19.07.1.14.07.21.02h.69s.29-.02.29-.02h.29s.4.03.4.03l.59.03h.38s.23-.05.23-.05l.21-.1.17-.12.12-.14.1-.17.05-.24v-.29s-.05-.23-.05-.23l-.16-.23-.24-.17-.1-.03-.26-.07-.12-.02-.29-.03h-.16s-.68-.09-.68-.09h-.26s-.43.02-.43.02l-.28.02h-.36s-.17.03-.17.03l-.16.02-.1.05-.07.09-.05.22-.05.42-.02.28h0ZM121.22,62.19l-.02-.16-.03-.29-.07-.29-.09-.28-.07-.14-.12-.28-.16-.26-.26-.36-.21-.23-.21-.19-.16-.17-.05-.14.05-.12.14-.14.28-.26.17-.19.19-.33.1-.24.1-.4.05-.29.02-.29-.02-.28-.07-.45-.05-.28-.09-.26-.1-.24-.19-.33-.12-.23-.24-.29-.17-.19-.29-.24-.22-.16-.33-.17-.26-.12-.66-.21-.29-.05-.29-.03-1-.07h-.28s-.95-.02-.95-.02h-.28s-.94.03-.94.03l-1.51-.09-1.89.05-.28.02-.24.03-.17.1-.07.23v.4s.05.52.05.52l.02.28.07.92-.02.28-.05.92-.02.28.02.92v.28s.03.92.03.92v.28s-.07.92-.07.92v.76s-.02.43-.02.43v.26s.02.24.02.24l.02.26.02.43.02.28-.05.92v.29s-.02.14-.02.14v.28s-.02.26-.02.26l.02.24.04.19.09.09.14.05.24.03.28.03.66.02h.26s.95-.03.95-.03h.28s.97.05.97.05h1.51s.95-.03.95-.03h.28s.42-.03.42-.03l.28-.02.4-.05.78-.16.26-.09.28-.09.26-.12.24-.12.23-.14.43-.31.19-.19.28-.33.16-.22.17-.33.1-.24.12-.36.05-.26.03-.45.02-.28h0ZM103.92,61.86l.16-.24.17-.38.1-.26.09-.4.03-.26.03-.42v-.29s-.02-.29-.02-.29l-.02-.28-.1-.52-.07-.24-.19-.38-.14-.23-.24-.31-.17-.19-.26-.28-.19-.16-.45-.26-.24-.1-.28-.09-.28-.05-.55-.03-.26.02-.38.02-.26.05-.45.12-.28.1-.4.21-.24.16-.28.24-.19.21-.19.26-.14.23-.05.1-.16.36-.09.26-.05.12-.05.24-.03.24-.02.24-.02.26v.26s.02.28.02.28l.05.28.02.16.07.26.03.12.09.24.07.14.14.24.09.14.19.24.1.12.21.21.35.29.24.16.28.14.26.1.36.12.26.05.43.05.29.02.43-.03.28-.03.38-.09.24-.1.38-.24.21-.16.28-.28.17-.19.23-.28h0ZM108.14,59.61l-.02.28-.03.4-.03.26-.1.52-.03.4-.03.26-.05.28-.07.26-.17.36-.12.24-.47.78-.16.23-.17.23-.17.19-.28.29-.19.17-.23.17-.21.16-.31.21-.23.14-.26.14-.24.1-.35.14-.26.07-.55.17-.29.09-.28.07-.29.07-.29.05-.29.02h-.94s-.59-.03-.59-.03l-.57-.07-.24-.05-.26-.07-.94-.31-.28-.09-.29-.12-.55-.24-.26-.14-.26-.16-.22-.17-.23-.19-.21-.23-.19-.23-.47-.47-.17-.21-.17-.23-.14-.23-.14-.35-.26-.78-.1-.36-.05-.26-.05-.28-.05-.26-.05-.38-.02-.26-.02-.29v-.29s.02-.29.02-.29l.02-.31.03-.29.05-.29.07-.29.09-.29.09-.26.1-.28.12-.4.12-.28.07-.16.14-.26.24-.38.17-.24.09-.14.21-.21.29-.24.22-.17.23-.16.52-.35.22-.14.24-.14.24-.12.36-.16.24-.09.26-.09.26-.07.66-.12.26-.05.87-.1.55-.03.52.03.42.02.29.03.29.05.29.07.29.05.28.07.26.07.26.09.36.14.24.1.57.33.23.16.23.17.29.28.19.17.19.19.16.21.24.33.14.23.12.23.14.23.19.35.14.23.12.26.09.24.09.4.1.52.03.29.05.29.03.59h0ZM88.8,61.86l.16-.24.17-.38.1-.26.09-.4.03-.26.03-.42v-.29s-.02-.29-.02-.29l-.02-.28-.1-.52-.07-.24-.19-.38-.14-.23-.24-.31-.17-.19-.26-.28-.19-.16-.45-.26-.24-.1-.28-.09-.28-.05-.55-.03-.26.02-.38.02-.26.05-.45.12-.28.1-.4.21-.24.16-.28.24-.19.21-.19.26-.14.23-.05.1-.16.36-.09.26-.05.12-.05.24-.03.24-.02.24-.02.26v.26s.02.28.02.28l.05.28.02.16.07.26.03.12.09.24.07.14.14.24.09.14.19.24.1.12.21.21.35.29.24.16.28.14.26.1.36.12.26.05.43.05.29.02.43-.03.28-.03.38-.09.24-.1.38-.24.21-.16.28-.28.17-.19.23-.28h0ZM93.02,59.61l-.02.28-.03.4-.03.26-.1.52-.03.4-.03.26-.05.28-.07.26-.17.36-.12.24-.47.78-.16.23-.17.23-.17.19-.28.29-.19.17-.23.17-.21.16-.31.21-.23.14-.26.14-.24.1-.35.14-.26.07-.55.17-.29.09-.28.07-.29.07-.29.05-.29.02h-.94s-.59-.03-.59-.03l-.57-.07-.24-.05-.26-.07-.94-.31-.28-.09-.29-.12-.55-.24-.26-.14-.26-.16-.23-.17-.23-.19-.21-.23-.19-.23-.47-.47-.17-.21-.17-.23-.14-.23-.14-.35-.26-.78-.1-.36-.05-.26-.05-.28-.05-.26-.05-.38-.02-.26-.02-.29v-.29s.02-.29.02-.29l.02-.31.03-.29.05-.29.07-.29.09-.29.09-.26.1-.28.12-.4.12-.28.07-.16.14-.26.24-.38.17-.24.09-.14.21-.21.29-.24.23-.17.23-.16.52-.35.23-.14.24-.14.24-.12.36-.16.24-.09.26-.09.26-.07.66-.12.26-.05.87-.1.55-.03.52.03.42.02.29.03.29.05.29.07.29.05.28.07.26.07.26.09.36.14.24.1.57.33.23.16.23.17.29.28.19.17.19.19.16.21.24.33.14.23.12.23.14.23.19.35.14.23.12.26.09.24.09.4.1.52.03.29.05.29.03.59h0ZM79,64.43l-.14.14-.31.28-.21.16-.33.24-.21.14-.35.19-.23.12-.4.19-.26.09-.29.09-.29.05-.43.09-.61.07-.31.02-.43.03h-.9s-.29-.02-.29-.02l-.29-.03-.29-.05-.29-.07-.26-.09-.78-.21-.38-.14-.22-.1-.33-.19-.21-.16-.23-.16-.24-.16-.45-.38-.21-.21-.19-.23-.19-.26-.16-.24-.14-.24-.12-.24-.17-.36-.26-.73-.12-.35-.17-.52-.03-.26-.02-.4.02-.26.02-.28v-.29s.03-.59.03-.59l.02-.28.05-.26.07-.38.07-.26.09-.26.09-.24.12-.35.12-.24.12-.26.14-.26.16-.26.16-.24.17-.23.19-.24.21-.23.21-.19.23-.19.21-.17.55-.38.23-.14.24-.14.52-.24.29-.1.28-.09.59-.14.29-.05.29-.03.54-.03.38-.03.26.02.38.02.64.09.24.05.4.07.61.17.24.1.38.22.24.14.45.31.54.38.19.14.1.09.12.12.03.14-.02.14-.1.14-.16.19-.19.19-.19.17-.19.16-.19.19-.29.35-.19.21-.09.09-.16.14-.12.05-.12.02-.12-.03-.19-.1-.33-.24-.23-.12-.38-.17-.24-.09-.38-.1-.26-.05-.43-.03h-.28s-.38.03-.38.03l-.28.07-.38.12-.26.1-.23.09-.35.17-.24.17-.12.1-.21.23-.16.24-.12.23-.12.24-.1.26-.09.28-.05.29-.03.26-.03.52v.28s.02.43.02.43l.02.26.09.4.09.26.12.29.14.26.26.38.19.21.33.28.23.16.35.17.26.1.38.1.28.05.42.02h.4s.24-.05.24-.05l.14-.04.26-.09.43-.16.28-.12.26-.12.22-.12.33-.21.23-.17.17-.12.1-.03.16.03.19.12.19.17.07.1.17.19.28.35.17.21.47.54.16.21.09.09.09.16v.1Z"/>
  <g>
    <path class="cls-1" d="M48.97,89.07c1.12,0,2.21.93,1.87,2.19-.03.12-.12.22-.22.27-.05.02-.1.03-.15.03-.23,0-.43-.19-.43-.42,0-.09.02-.18.02-.27-.02-.52-.55-.81-1.03-.81-.08,0-.17,0-.24.02-.25.06-.45.23-.41.5.02.14.09.27.18.38.54.69,2.17.8,2.15,1.88-.03.88-.96,1.22-1.81,1.22-.36,0-.71-.06-.97-.16-.27-.07-.42-.36-.35-.63.07-.26.35-.42.62-.34.29.11.61.14.92.1.18-.02.37-.08.53-.18-.29-.22-1.36-.62-1.75-1.12-.59-.58-.77-1.63-.09-2.22.35-.29.77-.42,1.19-.42Z"/>
    <path class="cls-1" d="M54.34,93.55c-.32.35-.72.51-1.14.51-.64,0-1.28-.37-1.61-.97-.63-1.16-.34-2.62.22-3.75.08-.14.22-.23.38-.23.07,0,.14.03.21.06.18-.1.4-.15.63-.15.25,0,.53.06.83.19,1.42.7,1.47,3.27.47,4.33ZM53.97,91.27c-.03-.52-.29-1.25-.92-1.25-.05,0-.1,0-.15.02-.08.04-.13.11-.14.19-.03.18,0,.36.07.53.09.23.22.47.23.72.02.28-.22.44-.47.44-.12,0-.23-.04-.32-.12.06.81.47,1.24.87,1.24.38,0,.74-.36.83-1.13.02-.22.02-.43,0-.65Z"/>
    <path class="cls-1" d="M58.89,92.09c-.05.03-.03.37-.03.42,0,.15.02.31.03.47.02.23.12.58-.02.8-.1.14-.26.23-.43.23s-.33-.09-.42-.23c-.22-.53-.21-1.14-.14-1.72-.65-.47-.85-1.37-1.27-2.02-.21-.4.12-.74.46-.74.15,0,.31.07.42.24.2.34.38.7.57,1.04.03.07.32.73.46.61.29-.24.44-.6.55-.96.08-.23.13-.47.19-.72.05-.18.07-.47.23-.61.11-.08.25-.11.38-.08.19.04.35.22.35.42-.07.82-.48,2.4-1.32,2.86Z"/>
    <path class="cls-1" d="M63.47,93.55c-.32.35-.72.51-1.14.51-.64,0-1.28-.37-1.61-.97-.63-1.16-.34-2.62.22-3.75.08-.14.22-.23.38-.23.07,0,.14.03.21.06.18-.1.4-.15.63-.15.25,0,.53.06.83.19,1.42.7,1.47,3.27.47,4.33ZM63.1,91.27c-.03-.52-.29-1.25-.92-1.25-.05,0-.1,0-.15.02-.08.04-.13.11-.14.19-.03.18,0,.36.07.53.09.23.22.47.23.72.02.28-.22.44-.47.44-.12,0-.23-.04-.32-.12.06.81.47,1.24.87,1.24.38,0,.74-.36.83-1.13.02-.22.02-.43,0-.65Z"/>
    <path class="cls-1" d="M68.01,90.27c-.11,2.44.13,3.84-.31,3.93-.09.03-.18.03-.27,0-.5-.27-.44-1.17-.43-1.35-.18.83-.66,1.18-1.14,1.18-.28,0-.57-.12-.82-.34-.76-.75-.46-3.22-.28-4.24.05-.22.23-.32.41-.32.23,0,.48.17.49.44.02,1.08-.33,3.18.18,3.43.06.03.12.04.18.03.27-.05.4-.45.46-.67.41-1.39.32-2.95.87-3.17.05-.02.1-.03.15-.03.08,0,.17.02.23.06.32.18.28.77.28,1.03Z"/>
    <path class="cls-1" d="M71.92,92.99c.2.32-.1.71-.43.71-.08,0-.15-.02-.23-.07-.5-.42-.97-.87-1.57-1.14-.03.53.34,1.52-.45,1.58-.39.03-.52-.42-.54-.72-.03-.45-.02-.89-.07-1.33,0-.08-.02-.18-.02-.26,0-.07.02-.15.02-.22,0-.54,0-1.06.03-1.6-.1-.32.17-.8.51-.8.07,0,.15.03.23.07.35-.08.71-.11,1.07-.08,2.03.2,1.97,2.17.36,2.83.43.26.81.61,1.11,1.02ZM70.72,90.87c.16-.11.35-.32.23-.53-.13-.24-.51-.27-.75-.28-.05,0-.57,0-.57.03,0,.39,0,.76.02,1.13.38-.03.76-.15,1.07-.36Z"/>
    <path class="cls-1" d="M75.57,89.16c2.9,0,1.69,4.75-.87,4.82-.03,0-.06.03-.08.03-.03.02-.07.03-.11.03-.65.12-.66-.86-.69-1.27-.05-.66-.07-1.32-.03-1.99v-.15s0-.03,0-.05l.03-.4c0-.37.02-1.03.52-1.03.08,0,.17.03.24.08,0,0,.02.02.02.02l.05.04s0,.02.02.03c.12-.05.26-.09.4-.12.18-.03.35-.04.51-.04ZM75.51,90.07c-.22,0-.46.07-.72.18.02.89.02,1.77.09,2.66.75-.21,1.23-.96,1.36-1.69,0,0,0-.06,0-.09.08-.72-.24-1.06-.74-1.06Z"/>
    <path class="cls-1" d="M80.66,93.55c-.32.35-.72.51-1.14.51-.64,0-1.28-.37-1.61-.97-.63-1.16-.34-2.62.22-3.75.08-.14.22-.23.38-.23.07,0,.14.03.21.06.18-.1.4-.15.63-.15.25,0,.53.06.83.19,1.42.7,1.47,3.27.47,4.33ZM80.29,91.27c-.03-.52-.29-1.25-.92-1.25-.05,0-.1,0-.15.02-.08.04-.13.11-.14.19-.03.18,0,.36.07.53.09.23.22.47.23.72.02.28-.22.44-.47.44-.12,0-.23-.04-.32-.12.06.81.47,1.24.87,1.24.38,0,.74-.36.83-1.13.02-.22.02-.43,0-.65Z"/>
    <path class="cls-1" d="M85.23,92.1c.12,1.38-.54,1.97-1.34,1.97-1.14,0-2.53-1.2-2.2-2.94.18-1.06.95-1.92,2.06-1.92.57,0,1.13.25,1.43.78.18.32-.08.62-.38.62-.08,0-.18-.03-.26-.09-.25-.22-.51-.32-.76-.32-.53,0-1,.45-1.09,1.17-.12.62.22,1.37.81,1.62.11.06.22.08.34.08.07,0,.14,0,.21-.02.13-.07.2-.2.19-.33,0-.07,0-.53,0-.53-.21,0-.42.02-.63.03-.38.02-.67-.45-.3-.7.13-.07.26-.11.4-.12.34-.05.68-.1,1.02-.12.28-.02.65-.07.86.16.28.31-.02.65-.36.67Z"/>
    <path class="cls-1" d="M90.2,93.8c-.39,0-.98-.22-1.74-.83.05.46.15,1.02-.47,1.07-.28,0-.51-.23-.52-.51-.09-1.35-.16-2.72.03-4.06.03-.22.28-.33.48-.31.67.14.32,1.29.41,1.8.43-.47.82-.99,1.13-1.56.08-.13.23-.21.38-.21.07,0,.15.02.22.06.69.33-.69,2.02-1.33,2.72.37.32.78.58,1.23.75.95.32.92,1.08.18,1.08Z"/>
    <path class="cls-1" d="M94.61,93.05c-.19.35-.5.51-.83.51s-.68-.18-.92-.48c-.27-.37-.52-.75-.73-1.15.03.67.18,1.36.12,2.03-.05.22-.25.34-.45.34s-.4-.12-.47-.34c-.13-.44-.13-.96-.18-1.42-.08-.77-.12-1.53-.11-2.3,0-.38.03-1.22.58-1.22.06,0,.12,0,.18.04.24.13.38.56.5.8.29.62.54,1.27.88,1.86.07.13.37.83.56.68.18-.13.14-.46.13-.64-.03-.86-.22-1.68-.29-2.53-.03-.26.21-.43.44-.47.52-.07.58.63.65.98.11.58.18,1.17.19,1.77.02.52,0,1.07-.26,1.54Z"/>
    <path class="cls-1" d="M98.37,93.55c-.32.35-.72.51-1.14.51-.64,0-1.28-.37-1.61-.97-.63-1.16-.34-2.62.22-3.75.08-.14.22-.23.38-.23.07,0,.14.03.21.06.18-.1.4-.15.63-.15.25,0,.53.06.83.19,1.42.7,1.47,3.27.47,4.33ZM97.99,91.27c-.03-.52-.29-1.25-.92-1.25-.05,0-.1,0-.15.02-.08.04-.13.11-.14.19-.03.18,0,.36.07.53.09.23.22.47.23.72.02.28-.22.44-.47.44-.12,0-.23-.04-.32-.12.06.81.47,1.24.87,1.24.38,0,.74-.36.83-1.13.02-.22.02-.43,0-.65Z"/>
    <path class="cls-1" d="M104.8,90.69c-.09.88-.28,1.96-1.07,2.49-.17.11-.37.17-.56.17s-.39-.06-.56-.18c-.06-.04-.43-.31-.42-.37-.24.76-.67,1.37-1.3,1.37-.23,0-.49-.08-.78-.28-.87-.97-.92-3.51-.19-4.56.09-.1.21-.14.32-.14.25,0,.5.2.5.48-.19.62-.29,1.27-.3,1.92,0,.43.05.97.27,1.37.06.11.12.15.17.15.22,0,.41-.72.45-.87.12-.55.16-1.12.12-1.68,0-.31.31-.46.56-.39.35.07.47.46.56.76.11.43.15.92.44,1.28.06.07.12.1.18.1.12,0,.24-.17.31-.31.18-.41.3-.86.32-1.31.04-.44.03-.89.07-1.32,0-.22.17-.4.38-.43.78-.09.57,1.35.53,1.77Z"/>
    <path class="cls-1" d="M106.77,89.07c1.12,0,2.21.93,1.87,2.19-.03.12-.12.22-.22.27-.05.02-.1.03-.15.03-.23,0-.43-.19-.43-.42,0-.09.02-.18.02-.27-.02-.52-.55-.81-1.03-.81-.08,0-.17,0-.24.02-.25.06-.45.23-.41.5.02.14.09.27.17.38.54.69,2.18.8,2.15,1.88-.03.88-.96,1.22-1.81,1.22-.36,0-.71-.06-.97-.16-.27-.07-.42-.36-.35-.63.07-.26.35-.42.62-.34.29.11.61.14.92.1.18-.02.37-.08.53-.18-.29-.22-1.36-.62-1.75-1.12-.59-.58-.77-1.63-.09-2.22.35-.29.77-.42,1.19-.42Z"/>
    <path class="cls-1" d="M112.56,92.09c-.05.03-.03.37-.03.42,0,.15.02.31.03.47.02.23.12.58-.02.8-.1.14-.26.23-.43.23s-.33-.09-.42-.23c-.22-.53-.21-1.14-.14-1.72-.65-.47-.85-1.37-1.27-2.02-.21-.4.12-.74.46-.74.15,0,.31.07.42.24.2.34.38.7.57,1.04.03.07.32.73.46.61.29-.24.44-.6.55-.96.08-.23.13-.47.19-.72.05-.18.07-.47.23-.61.11-.08.25-.11.38-.08.19.04.35.22.35.42-.07.82-.48,2.4-1.32,2.86Z"/>
    <path class="cls-1" d="M117.14,93.55c-.32.35-.72.51-1.14.51-.64,0-1.28-.37-1.61-.97-.63-1.16-.34-2.62.22-3.75.08-.14.22-.23.38-.23.07,0,.14.03.21.06.18-.1.4-.15.63-.15.25,0,.53.06.83.19,1.42.7,1.47,3.27.47,4.33ZM116.77,91.27c-.03-.52-.29-1.25-.92-1.25-.05,0-.1,0-.15.02-.08.04-.13.11-.14.19-.03.18,0,.36.07.53.09.23.22.47.23.72.02.28-.22.44-.47.44-.12,0-.23-.04-.32-.12.06.81.47,1.24.87,1.24.38,0,.74-.36.83-1.13.02-.22.02-.43,0-.65Z"/>
    <path class="cls-1" d="M121.68,90.27c-.11,2.44.13,3.84-.31,3.93-.09.03-.18.03-.27,0-.5-.27-.44-1.17-.43-1.35-.18.83-.66,1.18-1.14,1.18-.28,0-.57-.12-.82-.34-.76-.75-.46-3.22-.28-4.24.05-.22.23-.32.41-.32.23,0,.48.17.49.44.02,1.08-.33,3.18.18,3.43.06.03.12.04.18.03.27-.05.4-.45.46-.67.41-1.39.32-2.95.87-3.17.05-.02.1-.03.15-.03.08,0,.17.02.23.06.32.18.28.77.28,1.03Z"/>
    <path class="cls-1" d="M126.57,92.28c.08.11.11.25.08.38-.18.64-.69,1.2-1.36,1.32-.64.12-1.15-.21-1.46-.76-.36-.63-.41-1.51-.3-2.22.16-.94.76-1.88,1.8-1.88.3,0,.59.08.85.25.18.11.27.34.18.54-.09.2-.23.25-.39.25-.19,0-.42-.08-.62-.08-.12,0-.25.03-.35.13-.54.53-.65,1.44-.45,2.14.07.22.22.55.47.62.35.11.51-.28.71-.57.12-.18.27-.33.49-.32.14,0,.27.07.35.19Z"/>
    <path class="cls-1" d="M130.39,93.55c.02.31-.25.48-.52.48-.21,0-.42-.12-.47-.35-.07-.3-.13-.61-.21-.91-.36-.02-.7-.05-1.06-.07-.07.31-.16.61-.24.91-.06.19-.25.31-.44.28-.55-.13-.32-.78-.22-1.25-.7-.07-.47-1.01.19-.85.19-.78.44-1.56.74-2.31.06-.23.28-.35.49-.35.17,0,.33.07.42.23.62,1.32,1.13,2.73,1.32,4.18ZM128.93,91.81c-.08-.35-.18-.7-.28-1.05-.09.35-.18.69-.27,1.04.16,0,.54,0,.54,0Z"/>
    <path class="cls-1" d="M134.04,92.99c.2.32-.1.71-.43.71-.08,0-.15-.02-.23-.07-.5-.42-.97-.87-1.57-1.14-.03.53.34,1.52-.45,1.58-.39.03-.52-.42-.54-.72-.03-.45-.02-.89-.07-1.33,0-.08-.02-.18-.03-.26,0-.07.03-.15.03-.22,0-.54,0-1.06.03-1.6-.1-.32.17-.8.51-.8.07,0,.15.03.23.07.35-.08.71-.11,1.07-.08,2.03.2,1.97,2.17.36,2.83.43.26.81.61,1.11,1.02ZM132.84,90.87c.16-.11.35-.32.23-.53-.13-.24-.51-.27-.75-.28-.05,0-.58,0-.58.03,0,.39,0,.76.02,1.13.38-.03.76-.15,1.07-.36Z"/>
    <path class="cls-1" d="M135.71,91.25c.33,0,.67-.05,1.01-.12.53,0,.64.77.12.92-.37.08-.75.12-1.12.12,0,.28,0,.53.03.78.07.03.17.04.26.04.31,0,.69-.14.99-.14.2,0,.36.07.45.27.23.57-.62.84-1.38.84-.47,0-.92-.11-1.07-.31-.33-.36-.3-1.04-.27-1.66-.09-.08-.15-.21-.14-.33,0-.13.05-.25.15-.33,0-.42-.02-.83,0-1.25-.19-.07-.3-.28-.26-.49.04-.2.22-.34.43-.34.52-.03,1.03-.07,1.55-.07.23,0,.45,0,.67.03.48.08.48.84,0,.93-.48.04-.97.05-1.46.03.03.36.03.73.04,1.1Z"/>
  </g>
</svg>