<?xml version="1.0" encoding="UTF-8"?>
<svg id="Layer_1" data-name="Layer 1" xmlns="http://www.w3.org/2000/svg" viewBox="0 0 141.73 141.73">
  <defs>
    <style>
      .cls-1 {
        fill: #063027;
      }

      .cls-2 {
        font-size: 8.56px;
      }

      .cls-2, .cls-3 {
        fill: #053027;
      }

      .cls-4 {
        font-size: 10.01px;
      }

      .cls-4, .cls-5, .cls-6, .cls-7 {
        fill: #50af9a;
      }

      .cls-4, .cls-7 {
        font-family: Bahnschrift-Bold, Bahnschrift;
        font-variation-settings: 'wght' 700, 'wdth' 100;
        font-weight: 700;
      }

      .cls-6, .cls-8 {
        stroke: #053027;
        stroke-miterlimit: 10;
        stroke-width: .8px;
      }

      .cls-7 {
        font-size: 11.53px;
      }

      .cls-8 {
        fill: none;
      }
    </style>
  </defs>
  <g>
    <circle class="cls-8" cx="109.71" cy="31.9" r="4.49"/>
    <text class="cls-2" transform="translate(106.76 34.7)"><tspan x="0" y="0">R</tspan></text>
  </g>
  <ellipse class="cls-3" cx="64.84" cy="70.87" rx="46.84" ry="47.5"/>
  <circle class="cls-5" cx="65.02" cy="71.37" r="25.25"/>
  <g>
    <path class="cls-3" d="M62.27,58.69s.19-3.4-5.33-5.16c-5.52-1.76-9.63,1.27-10.66,5.48-.85,3.47,1.41,6.47,3.95,8.55,2.79,2.29,6.65,3.51,8.76,6.59,1.38,2.03,1.67,4.24,1.49,5.11s-.37,1.7-1.23,2.84c-.86,1.14-3.05,2.75-8.28,1.8,0,0-3.45-1.33-2.18-4.35,0,0,.76-1.69,2.31-.96,0,0,.43.22.6.47s.96,1.09,1.49,1.17,1.2-.09,1.82-1c0,0,.57-.88-.36-2.01s-2.1-2.01-3.78-2.47-3.87-.18-4.93,1.44c-1.06,1.62-1.62,4.22-.32,7.35,1.3,3.12,4.76,4.71,7.95,4.82s6.29-1.09,8.32-2.99c0,0,1.14-1.03,2.24-2.82.85-1.39.74-3.09.78-4.66.04-1.74-.06-3.55-.86-5.13-1.08-2.15-3.2-3.45-5.08-4.81-2.17-1.57-4.47-3.02-6.42-4.87-.59-.56-1.15-1.16-1.53-1.88-.38-.72-.57-1.56-.39-2.36.44-1.91,2.74-2.63,4.36-1.82,1.2.6,2.25,1.69,3,2.8,0,0,.99,2.16,3.21,1.09,0,0,1.25-.59,1.08-2.21Z"/>
    <path class="cls-3" d="M81.84,58.86s.19-3.4-5.33-5.16c-5.52-1.76-9.63,1.27-10.66,5.48-.85,3.47,1.41,6.47,3.95,8.55,2.79,2.29,6.65,3.51,8.76,6.59,1.38,2.03,1.67,4.24,1.49,5.11s-.37,1.7-1.23,2.84c-.86,1.14-3.05,2.75-8.28,1.8,0,0-3.45-1.33-2.18-4.35,0,0,.76-1.69,2.31-.96,0,0,.43.22.6.47s.96,1.09,1.49,1.17,1.2-.09,1.82-1c0,0,.57-.88-.36-2.01-.93-1.13-2.1-2.01-3.78-2.47s-3.87-.18-4.93,1.44-1.62,4.22-.32,7.35c1.3,3.12,4.76,4.71,7.95,4.82,3.19.1,6.29-1.09,8.32-2.99,0,0,1.14-1.03,2.24-2.82.85-1.39.74-3.09.78-4.66.04-1.74-.06-3.55-.86-5.13-1.08-2.15-3.2-3.45-5.08-4.81-2.17-1.57-4.47-3.02-6.42-4.87-.59-.56-1.15-1.16-1.53-1.88s-.57-1.56-.39-2.36c.44-1.91,2.74-2.63,4.36-1.82,1.2.6,2.25,1.69,3,2.8,0,0,.99,2.16,3.21,1.09,0,0,1.25-.59,1.08-2.21Z"/>
  </g>
  <g>
    <path class="cls-1" d="M6.73,68.54h11.51s1.35,4.09,5.43,1.32l17.18-.18s.26,1.5,1.96,1.5c0,0,1.01.09,1.39-1.48h19.14s.28,1.58,1.64,1.48c0,0,1.18.12,1.57-1.48l47.41.16s-.52-2.23,2.62-2.92c0,0,2.46-.08,2.94,2.75l5.06.13s1.15-1.78,3.14-1.88c.91-.04,1.79.41,2.51.93.32.23.62.49.91.76.21.2.47.6.76.65.13.02.27-.03.34-.13.07-.1.06-.24.05-.36-.17-1.29-1.24-2.11-1.86-3.19-.48-.85-1.04-2.22,0-2.9,1.94-1.27,4.02-.63,5.05,1.7.52,1.18.5,2.59.18,3.82-.13.5-.33,1.01-.68,1.39-.36.4-.89.69-1.04,1.21-.12.41.05.86.3,1.21.24.33.63.59.81.94-.52.13-1.24.02-1.78.02h-13.23c-.23,0-.56-.06-.78,0,0,0-1.32.38.35,3.68,1.67,3.31,4.03,7.04,1.98,10.15s-4.6,2.32-3.24-.61c1.35-2.93,1.39-4.41-.85-6.01,0,0,.09,3.62-1.01,4.97,0,0-1.07,2.96-3.04,1.76-.99-.6-.49-2.12-.18-2.96.52-1.38,1.26-2.37,1.86-3.7.35-.78.6-1.63.48-2.48-.11-.77-.92-1.52-1.22-2.25-.48-1.15-.12-2.35-.15-3.56l-107.49.52v-4.97Z"/>
    <path class="cls-6" d="M5.87,67.82h12.06s.89,4.09,4.99,1.32l17.62-.18s-.06,1.5,1.65,1.5c0,0,1.01.09,1.39-1.48h19.48s.07,1.58,1.44,1.48c0,0,1.19.12,1.58-1.48l47.72.16s-.53-2.23,2.64-2.92c0,0,2.47-.08,2.96,2.75l5.09.13s1.16-1.78,3.16-1.88c.92-.04,1.8.41,2.52.93.32.23.63.49.92.76.21.2.47.6.77.65.13.02.27-.03.34-.13.07-.1.06-.24.05-.36-.17-1.29-1.25-2.11-1.87-3.19-.49-.85-1.05-2.22,0-2.9,1.95-1.27,4.05-.63,5.08,1.7.53,1.18.5,2.59.18,3.82-.13.5-.33,1.01-.68,1.39-.36.4-.89.69-1.04,1.21-.12.41.05.86.31,1.21.24.33.63.59.81.94-.53.13-1.24.02-1.79.02h-13.32c-.23,0-.56-.06-.79,0,0,0-1.33.38.35,3.68,1.68,3.31,4.06,7.04,2,10.15-2.06,3.11-4.63,2.32-3.26-.61s1.39-4.41-.86-6.01c0,0,.1,3.62-1.01,4.97,0,0-1.08,2.96-3.06,1.76-.99-.6-.49-2.12-.18-2.96.52-1.38,1.27-2.37,1.87-3.7.35-.78.61-1.63.49-2.48-.11-.77-.92-1.52-1.23-2.25-.48-1.15-.12-2.35-.15-3.56l-108.2.52v-4.97Z"/>
    <g>
      <ellipse class="cls-8" cx="128.05" cy="70.5" rx="2.41" ry="1.42"/>
      <path class="cls-3" d="M126.56,71.42s-1.28-2.19,3.58-1.63c0,0-1.86-1.45-3.95-.19,0,0-1.36,1.35.37,1.82Z"/>
    </g>
  </g>
  <text class="cls-4" transform="translate(33.55 65.56) rotate(-73.42) scale(.98 1)"><tspan x="0" y="0">T</tspan></text>
  <text class="cls-4" transform="translate(34.78 61.11) rotate(-63.76) scale(.98 1)"><tspan x="0" y="0">H</tspan></text>
  <text class="cls-4" transform="translate(37.58 55.43) rotate(-53.45) scale(.98 1)"><tspan x="0" y="0">E</tspan></text>
  <text class="cls-4" transform="translate(41.01 50.96) rotate(-46.42) scale(.98 1)"><tspan x="0" y="0"> </tspan></text>
  <text class="cls-4" transform="translate(42.62 49.12) rotate(-39.63) scale(.98 1)"><tspan x="0" y="0">F</tspan></text>
  <text class="cls-4" transform="translate(46.77 45.79) rotate(-32.63) scale(.98 1)"><tspan x="0" y="0">I</tspan></text>
  <text class="cls-4" transform="translate(48.75 44.32) rotate(-24.46) scale(.98 1)"><tspan x="0" y="0">N</tspan></text>
  <text class="cls-4" transform="translate(54.69 41.63) rotate(-13.49) scale(.98 1)"><tspan x="0" y="0">E</tspan></text>
  <text class="cls-4" transform="translate(60.09 40.31) rotate(-3.19) scale(.98 1)"><tspan x="0" y="0">S</tspan></text>
  <text class="cls-4" transform="translate(65.83 40.02) rotate(6) scale(.98 1)"><tspan x="0" y="0">T</tspan></text>
  <text class="cls-4" transform="translate(70.32 40.53) rotate(12.36) scale(.98 1)"><tspan x="0" y="0"> </tspan></text>
  <text class="cls-4" transform="translate(72.67 40.9) rotate(20.18) scale(.98 1)"><tspan x="0" y="0">Q</tspan></text>
  <text class="cls-4" transform="translate(78.42 42.98) rotate(31.24) scale(.98 1)"><tspan x="0" y="0">U</tspan></text>
  <text class="cls-4" transform="translate(83.43 45.97) rotate(41.56) scale(.98 1)"><tspan x="0" y="0">A</tspan></text>
  <text class="cls-4" transform="translate(87.94 49.98) rotate(51.51) scale(.98 1)"><tspan x="0" y="0">L</tspan></text>
  <text class="cls-4" transform="translate(91.24 54.24) rotate(58.37) scale(.98 1)"><tspan x="0" y="0">I</tspan></text>
  <text class="cls-4" transform="translate(92.78 56.65) rotate(65.08) scale(.98 1)"><tspan x="0" y="0">T</tspan></text>
  <text class="cls-4" transform="translate(94.88 61.22) rotate(73.99) scale(.98 1)"><tspan x="0" y="0">Y</tspan></text>
  <text class="cls-7" transform="translate(46.18 108.25) rotate(22.23)"><tspan x="0" y="0">M</tspan></text>
  <text class="cls-7" transform="translate(56.4 112.05) rotate(7.54)"><tspan x="0" y="0">E</tspan></text>
  <text class="cls-7" transform="translate(65.37 113.13) rotate(-9.37)"><tspan x="0" y="0">W</tspan></text>
  <text class="cls-7" transform="translate(76.36 110.93) rotate(-24.73)"><tspan x="0" y="0">A</tspan></text>
</svg>