<?xml version="1.0" encoding="UTF-8"?>
<svg id="Layer_1" data-name="Layer 1" xmlns="http://www.w3.org/2000/svg" viewBox="0 0 141.73 141.73">
  <defs>
    <style>
      .cls-1 {
        fill: #231f20;
      }
    </style>
  </defs>
  <polygon class="cls-1" points="45.85 68.75 45.85 86.69 43.88 86.69 43.88 68.75 39.35 68.75 39.35 66.96 50.36 66.96 50.36 68.75 45.85 68.75"/>
  <polygon class="cls-1" points="55.27 86.69 55.27 66.96 66.07 66.96 66.07 68.75 57.25 68.75 57.25 75.84 65.77 75.84 65.77 77.63 57.25 77.63 57.25 84.9 66.07 84.9 66.07 86.69 55.27 86.69"/>
  <path class="cls-1" d="M84.76,86.69l-2.85-6.64h-9.17l-2.88,6.64h-2.05l8.42-19.72h2.21l8.47,19.72h-2.16ZM77.35,69.2l-3.86,9.06h7.65l-3.78-9.06Z"/>
  <path class="cls-1" d="M98.38,85.59c-1.57.99-3.01,1.09-4.82,1.09h-5.44v-19.72h4.96c2.5,0,5.01.75,6.05,3.22.27.64.4,1.33.4,2.02,0,1.81-.8,2.91-2.16,3.97,2.03.83,3.28,2.67,3.28,4.85,0,1.76-.75,3.6-2.27,4.56M96.73,69.98c-.96-1.12-2.64-1.23-4-1.23h-2.64v6.72h2.48c1.14,0,2.35,0,3.38-.56,1.01-.53,1.6-1.65,1.6-2.77,0-.85-.27-1.52-.83-2.16M96.35,77.7c-1.2-.48-2.56-.45-3.84-.45h-2.43v7.65h2.77c1.25,0,2.56,0,3.73-.51,1.33-.56,2.08-1.95,2.08-3.36,0-1.49-.96-2.77-2.32-3.33"/>
  <path class="cls-1" d="M111.81,87.03c-5.52,0-10.42-4.48-10.42-10.1s4.69-10.31,10.42-10.31,10.45,4.5,10.45,10.21-4.82,10.21-10.45,10.21M111.81,68.4c-4.69,0-8.45,3.86-8.45,8.53s3.92,8.31,8.45,8.31,8.47-3.76,8.47-8.4-3.84-8.45-8.47-8.45"/>
  <polygon class="cls-1" points="135.14 86.69 129.59 78.26 123.97 86.69 121.65 86.69 128.34 76.61 122.02 66.96 124.34 66.96 129.59 74.85 134.79 66.96 137.08 66.96 130.74 76.61 137.48 86.69 135.14 86.69"/>
  <path class="cls-1" d="M21.79,66.96c-.78,0-1.54.09-2.27.26-1.34.38-2.55.97-3.57,1.88v-10.26s.04-.09.09-.09h11.6s.09-.04.09-.09v-3.87s-.04-.09-.09-.09H4.34s-.09.04-.09.09v3.87s.04.09.09.09h7.48s.09.04.09.09v18.5-.02c.27,5.33,4.75,9.56,10.17,9.41,5.17-.15,9.39-4.32,9.59-9.49.22-5.63-4.3-10.28-9.88-10.28M22.18,82.78c-3.58.23-6.55-2.74-6.32-6.32.19-2.96,2.58-5.35,5.54-5.54,3.58-.23,6.55,2.74,6.32,6.32-.19,2.96-2.58,5.35-5.54,5.54"/>
</svg>