<?xml version="1.0" encoding="UTF-8"?>
<svg id="Layer_1" data-name="Layer 1" xmlns="http://www.w3.org/2000/svg" viewBox="0 0 141.73 141.73">
  <defs>
    <style>
      .cls-1 {
        fill: #231f20;
      }
    </style>
  </defs>
  <path class="cls-1" d="M25.02,60.91H5.05c0,.07-.16.82-.8,4.38,0,0,.14.07.19.07,1.94-3.09,3.37-4.19,7.28-4.19h1.78s0,16.76,0,16.76c0,1.8-.26,2.67-1.85,2.67v.23c1.57-.09,2.25-.12,2.81-.12h.56c.91,0,1.8.05,3.32.12v-.23c-1.52,0-1.83-.77-1.85-2.43v-17s1.85,0,1.85,0c3.96,0,5.27,1.1,7.28,4.19.07,0,.14-.05.19-.07l-.8-4.31v-.07Z"/>
  <path class="cls-1" d="M34.83,61.16c4.42,0,6.23.98,8.54,4.19l.19-.07-.8-4.31v-.07h-15.57v.23c1.38,0,1.55.89,1.55,2.25v14.54c0,1.8-.26,2.67-1.85,2.67v.23h15.87s.8-4.66.8-4.66l-.16-.05c-2.39,3.51-4.85,4.45-9.13,4.45h-2.53s0-10.96,0-10.96h.96c4.24,0,5.03.89,6.16,3.21h.14v-6.65h-.14c-.75,2.43-1.92,3.21-6.16,3.21h-.96s0-8.22,0-8.22h3.09Z"/>
  <path class="cls-1" d="M60.51,78.25l-7.47-17.35h-.19s0,.02-.02.05c-.19.54-1.87,4.87-3.56,9.04-.96,2.46-2.06,5.22-3.28,8.24-.49,1.12-1.05,1.92-1.97,2.41v.19c.75-.07,1.26-.09,1.85-.09.44,0,.91.02,1.59.09v-.19c-.68-.21-1.05-.47-1.17-.82-.09-.35-.14-.63-.14-.84,0-.3.05-.63.19-.98.3-.82,1.08-2.69,1.9-4.82h.23c1.76,0,2.72,1.64,3.56,3.68.28.68.61,1.31.98,1.9.73,1.17,1.66,2.08,3.23,2.08,1.31-.09,2.25-.12,3.16-.12s1.8.02,3.02.12v-.19c-.63-.21-1.19-.73-1.92-2.39ZM56.25,80.57c-2.29,0-3.21-2.13-4.03-3.93-.59-1.31-1.19-2.62-2.22-3.3-.47-.28-.98-.42-1.54-.42h-.09c.3-.8.63-1.59.96-2.41.96-2.39,1.83-4.66,2.2-5.55,1.12,2.62,1.19,2.81,5.52,12.85,0,.02.05.12.07.16.26.66.3,1.1.3,1.36,0,.4-.14,1.24-1.17,1.24Z"/>
  <path class="cls-1" d="M70.41,60.91v.19c.98.12,1.62.3,1.9.61.28.3.4.61.4.91,0,.19-.02.4-.12.63l-2.13,5.41c-.37.54-.87.75-1.33.75-.82,0-1.43-.59-1.8-1.5-.37-.89-.66-1.99-.94-2.79-.35-.94-.8-2.06-1.47-2.9-.68-.84-1.52-1.31-2.48-1.31-.12,0-.26,0-.37.02-.96.09-1.73.12-2.46.12-1.01,0-1.94-.07-3.25-.14l-.02.19c.63.21,1.19.73,1.92,2.39l7.47,17.35h.19c1.29-3.23,2.43-6.13,3.44-8.71,1.76-4.38,3.49-8.87,3.61-9.11.49-1.12.73-1.55,1.78-1.92v-.19c-.68.07-1.36.12-2.13.12-.66,0-1.36-.05-2.18-.12ZM67.23,76.78l-5.59-13.02c-.37-.94-.33-1.24-.33-1.31,0-.3.12-.59.33-.82.37-.4.8-.44,1.03-.44.14,0,.3.02.44.07,1.59.44,2.48,2.41,3.04,3.96.37.98.75,2.72,1.43,3.63.4.54.98.8,1.57.8.37,0,.73-.12,1.05-.35l-2.97,7.49Z"/>
  <path class="cls-1" d="M80.64,78.16v-14.84c0-1.33.16-2.18,1.54-2.18v-.23c-1.43.09-2.27.14-3.14.14-.82,0-1.62-.05-2.95-.14v.23c1.38,0,1.55.89,1.55,2.25v14.77c0,1.71-.19,2.43-1.85,2.43v.23c.3-.02.63-.02,1.01-.05.63-.02,1.5-.05,2.5-.05s2.11.02,3.21.09v-.23c-1.54,0-1.87-.77-1.87-2.43Z"/>
  <path class="cls-1" d="M92.14,80.57h-3.09s0-17,0-17c0-1.66.33-2.43,1.87-2.43v-.23c-1.57.07-2.48.12-3.39.12s-1.8-.05-3.32-.12v.23c.4,0,.7.05.96.16.75.33.89,1.15.89,2.51v14.54c0,1.36-.16,2.25-1.55,2.25v.23h15.57v-.07s.8-4.28.8-4.28c-.05-.02-.12-.09-.19-.09-2.32,3.21-4.12,4.19-8.54,4.19Z"/>
  <path class="cls-1" d="M109.88,80.57h-3.09s0-17,0-17c0-1.66.33-2.43,1.87-2.43v-.23c-1.57.07-2.48.12-3.39.12s-1.8-.05-3.32-.12v.23c.4,0,.7.05.96.16.75.33.89,1.15.89,2.51v14.54c0,1.36-.16,2.25-1.55,2.25v.23h15.57v-.07s.8-4.28.8-4.28c-.05-.02-.12-.09-.19-.09-2.32,3.21-4.12,4.19-8.54,4.19Z"/>
  <path class="cls-1" d="M135.56,78.25l-7.47-17.35h-.19s0,.02-.02.05c-.19.54-1.87,4.87-3.56,9.04-.96,2.46-2.06,5.22-3.28,8.24-.49,1.12-1.05,1.92-1.97,2.41v.19c.75-.07,1.26-.09,1.85-.09.44,0,.91.02,1.59.09v-.19c-.68-.21-1.05-.47-1.17-.82-.09-.35-.14-.63-.14-.84,0-.3.05-.63.19-.98.3-.82,1.08-2.69,1.9-4.82h.23c1.76,0,2.72,1.64,3.56,3.68.28.68.61,1.31.98,1.9.73,1.17,1.66,2.08,3.23,2.08,1.31-.09,2.25-.12,3.16-.12s1.8.02,3.02.12v-.19c-.63-.21-1.19-.73-1.92-2.39ZM131.3,80.57c-2.29,0-3.21-2.13-4.03-3.93-.59-1.31-1.19-2.62-2.22-3.3-.47-.28-.98-.42-1.54-.42h-.09c.3-.8.63-1.59.96-2.41.96-2.39,1.83-4.66,2.2-5.55,1.12,2.62,1.19,2.81,5.52,12.85,0,.02.05.12.07.16.26.66.3,1.1.3,1.36,0,.4-.14,1.24-1.17,1.24Z"/>
</svg>