<?xml version="1.0" encoding="UTF-8"?>
<svg id="Layer_1" data-name="Layer 1" xmlns="http://www.w3.org/2000/svg" viewBox="0 0 141.73 141.73">
  <defs>
    <style>
      .cls-1 {
        fill: #231f20;
      }
    </style>
  </defs>
  <g>
    <path class="cls-1" d="M93.93,39.12c-1.03-.32-1.71-.02-2.22,1.1-1.47,3.18-2.91,6.38-4.36,9.58-1.61,3.55-3.22,7.09-4.84,10.64-.07.01-.14.02-.22.03-.41-.85-.83-1.69-1.23-2.54-2.8-5.9-5.59-11.8-8.4-17.69-.57-1.2-1.46-1.52-2.64-1-1.04.46-1.34,1.39-.84,2.58.07.16.15.31.22.46,3.51,7.29,7.01,14.58,10.53,21.86.29.59.33,1.14.04,1.74-.33.68-.62,1.38-.93,2.07-1.2,2.69-2.41,5.38-3.6,8.08-.53,1.21-.22,2.06.85,2.55,1.18.53,1.96.23,2.55-.98.06-.13.12-.26.18-.4,3.21-7.05,6.43-14.09,9.64-21.14,2.13-4.68,4.26-9.35,6.39-14.03.7-1.55.34-2.44-1.14-2.9Z"/>
    <path class="cls-1" d="M123.45,42.17c0-.51.01-1.03-.03-1.54-.09-.99-.93-1.74-1.86-1.71-1.02.03-1.72.71-1.8,1.75-.02.32-.02.63-.02.95,0,4.2.02,8.4,0,12.6,0,3.15-1.81,5.62-4.79,6.63-1.58.53-3.19.65-4.84.44-3.68-.46-6.36-3.2-6.64-6.88-.21-2.8.03-5.61-.04-8.42-.04-1.78-.02-3.57-.11-5.34-.05-1.01-.97-1.77-1.91-1.7-1.05.07-1.73.79-1.73,1.88-.03,4.35-.11,8.69.03,13.04.08,2.35.61,4.57,1.95,6.56,2.68,3.97,11.02,6.91,16.93,1.93.32-.27.64-.82,1.03-.64.31.15.09.76.12,1.16.08,1.01.63,1.61,1.63,1.75.4.06.75,0,1.05-.15.54-.29.74-.82.86-1.16.2-.55.19-1.06.15-1.37,0-3.42.01-6.84.02-10.26h0c0-3.17,0-6.35,0-9.52Z"/>
    <path class="cls-1" d="M41.08,39.12c-.59.05-.95.29-1.26.82-.84,1.44-1.34,3.02-2.12,4.48-.59,1.12-1.15,2.26-1.66,3.42-1.52,3.43-3.01,6.87-4.52,10.3-.12.27-.25.55-.61.55-.37,0-.47-.29-.59-.56-.42-.98-.82-1.98-1.26-2.95-1.84-4.03-3.7-8.05-5.54-12.07-.45-.97-.84-1.97-1.28-2.95-.34-.75-.92-1.12-1.62-1.03-1.98,0-2.69,1.24-1.94,2.93,1.52,3.43,3.3,6.73,4.85,10.14,1.8,3.96,3.7,7.89,5.48,11.86.29.64,1.52,1.48,2.13,1.34.83-.19,1.51-.69,1.81-1.53.72-2.03,1.73-3.92,2.68-5.83.95-1.92,1.94-3.83,2.78-5.79,1.58-3.67,3.52-7.16,5.05-10.85.18-.43.19-.79.02-1.19-.35-.82-1.2-1.19-2.41-1.09Z"/>
    <path class="cls-1" d="M50.87,36.83c.19.01.39,0,.58,0,2.22,0,4.44,0,6.65,0,.71,0,1.41,0,2.12-.02.48-.02.85-.25.99-.73.12-.4.01-.78-.32-1.05-.3-.25-.66-.29-1.03-.28-1.49,0-2.97,0-4.46,0h0c-1.51,0-3.02.01-4.53.02-.04,0-.66-.03-.99.43-.17.24-.18.5-.18.6,0,.61.41.98,1.17,1.03Z"/>
    <path class="cls-1" d="M64.26,56.34q-.59-1.38.88-1.49c.15-.01.3,0,.44-.05.51-.16.88-.44.83-1.04-.05-.57-.4-.89-.94-.95-.51-.06-1.02-.07-1.53-.05-1.01.04-1.23-.07-1.62-.98-.94-2.19-1.86-4.39-2.8-6.59-.82-1.93-1.63-3.86-2.48-5.77-.5-1.14-1.64-1.53-2.48-.89-.38.29-.58.71-.76,1.14-1.69,3.99-3.39,7.97-5.09,11.96-.49,1.14-.53,1.16-1.72,1.14-.51-.01-1.03,0-1.54.03-.58.05-.86.4-.88.97-.03.62.29.96.87,1.06.26.04.54.03.8.03.99,0,1.04.08.66.98-.99,2.33-1.99,4.66-2.96,6.99-.57,1.36.03,2.31,1.51,2.42.27.02.54.02.81.02,3.1,0,6.2,0,9.3,0,3.22,0,6.45,0,9.67,0,1.8,0,2.45-.97,1.75-2.61-.89-2.11-1.8-4.21-2.7-6.31ZM52.07,51.93c.9-2.23,1.82-4.46,2.72-6.69.14-.35.33-.81.65-.81.36,0,.57.45.72.81.9,2.23,1.81,4.46,2.71,6.69.27.67.17.8-.59.81-.95.02-1.9,0-2.85,0h0c-.93,0-1.85.02-2.78,0-.73-.01-.84-.17-.58-.82ZM61.85,62.57c-6.89-.09-11.77-.11-12.8-.01-.15.01-.71.08-.91-.21-.11-.16-.05-.44.13-.9.76-1.92,1.54-3.84,2.28-5.76.24-.62.64-.85,1.28-.85,2.44.02,4.88.02,7.32,0,.63,0,.99.25,1.21.83.83,2.08,1.68,4.14,2.53,6.21.02.05.04.12.04.22,0,.1-.02.17-.04.22-.04.03-.1.08-.17.12-.14.08-.27.09-.41.11-.11.02-.27.03-.46.02Z"/>
    <path class="cls-1" d="M103.44,86.22c0-.29.1-.73-.38-.72-.4,0-.45.39-.45.71,0,.9-.05,1.81,0,2.71.01.28.03.7.03,1.22,0,.39-.02.59-.09.61-.02,0-.04,0-.06-.02-.31-.38-.55-.68-.69-.87-.92-1.2-1.83-2.4-2.75-3.6-.15-.19-.32-.37-.51-.52-.4-.31-.71-.27-.77.3-.17,1.95-.1,3.9-.09,5.85,0,.3.23.65.48.65.29,0,.43-.37.43-.68,0-.71,0-1.41,0-2.12,0-.79,0-1.58,0-2.37,0-.04,0-.08.03-.09.04-.02.1,0,.13.05.11.13.31.36.54.66,1.02,1.34,2.03,2.68,3.05,4.02.21.28.51.57.83.47.32-.1.3-.51.3-.83,0-1.81,0-3.61-.02-5.42Z"/>
    <path class="cls-1" d="M32.9,91.68c-.41-.04-.83-.02-1.24-.02-1.8-.03-1.55.33-1.6-1.66-.01-.54.22-.75.75-.72.49.03.98,0,1.46,0,.25,0,.49-.18.49-.36,0-.18-.24-.36-.48-.37-.41-.01-.83-.05-1.24,0-.72.08-.99-.17-.98-.93.02-1.62.01-1.43,1.43-1.42.34,0,.68-.01,1.02,0,.36.01.66-.11.9-.38-.18-.28-.43-.4-.74-.41-1-.02-2-.03-3-.03-.41,0-.63.22-.63.64,0,2,0,4,0,6,0,.3.11.58.42.6,1.17.08,2.34.07,3.51-.02.24-.02.52-.25.52-.46,0-.27-.3-.44-.57-.47Z"/>
    <path class="cls-1" d="M91.88,91.66c-.59-.01-1.17-.02-1.76,0-.54.02-.76-.23-.73-.75.01-.22.02-.44,0-.66,0-.31.06-.54.2-.7.17-.18.39-.22.72-.27.51-.07.85.03,1.35-.09.11-.02.28-.07.34-.21.05-.1.02-.21.01-.23-.08-.3-.36-.28-.61-.25-.15.01-.29.03-.44.04-1.45.03-1.6-.14-1.6-1.56,0-.61.25-.83.84-.8.61.03,1.22.02,1.83,0,.26-.01.62-.11.61-.38,0-.27-.35-.36-.62-.4-.05,0-.1,0-.15,0-.9,0-1.81-.01-2.71-.03-.23,0-.46.02-.62.18-.18.19-.18.47-.17.6,0,.93,0,1.85,0,2.78h0c0,.81-.01,1.61-.02,2.42-.01.11-.02.26,0,.44.03.19.06.49.26.67.14.12.34.19.6.19.88,0,1.76-.02,2.64.01.43.01.83-.17.84-.52,0-.43-.48-.47-.85-.48Z"/>
    <path class="cls-1" d="M122.14,88.59c-.47-.15-.94-.28-1.3-.64-.33-.33-.68-.68-.41-1.21.28-.55.78-.61,1.32-.49.31.07.6.2.92.25.22.04.54.11.63-.19.08-.28-.11-.5-.38-.63-.4-.2-.8-.35-1.26-.34-.12,0-.25,0-.37.02-1.09.14-1.77.78-1.87,1.74-.11,1,.3,1.59,1.42,2.02.32.12.64.23.96.36.85.33,1.11.78.88,1.49-.2.61-.76.85-1.57.64-.45-.11-.89-.26-1.34-.35-.17-.03-.44-.02-.49.2-.04.17.02.38.18.53.69.68,1.91.91,2.81.51.9-.4,1.49-1.28,1.44-2.19-.05-.99-.71-1.44-1.55-1.72Z"/>
    <path class="cls-1" d="M24.05,85.48c-.19-.01-.39,0-.59,0-1.27,0-2.54,0-3.81,0-.31,0-.61.1-.62.37,0,.28.31.4.6.4.27,0,.54.01.8,0,.6-.05.84.2.83.81-.04,1.32-.04,2.63-.05,3.95,0,.34-.01.69.02,1.02.03.25.12.47.31.58.04.02.17.1.33.07.04,0,.14-.03.22-.12,0,0,.09-.1.14-.56h0c0-.25,0-.63,0-1.08,0-.41,0-.87-.03-1.41-.04-.85.02-1.71,0-2.56,0-.12-.01-.38.16-.55.13-.13.33-.17.6-.16.36.02.73,0,1.1-.01.22-.01.41-.17.42-.35,0-.23-.2-.37-.45-.39Z"/>
    <path class="cls-1" d="M83.2,91.67c-.53-.03-1.07-.03-1.61,0-.58.03-.79-.24-.78-.78.01-.78,0-1.56,0-2.34.02-.85.03-1.71.05-2.56,0-.03.02-.31-.19-.48-.13-.1-.27-.11-.32-.11-.31-.01-.5.16-.5.49-.02,2-.05,3.99-.04,5.99,0,.45.24.77.78.77.85-.01,1.71-.02,2.56,0,.39,0,.67-.2.69-.51.02-.31-.34-.46-.64-.47Z"/>
    <path class="cls-1" d="M14.99,88.72c-.95,0-1.9,0-2.86,0-1.49,0-2.98,0-4.47.01-.23,0-.58.02-.58.3,0,.32.35.25.58.25,1.2,0,2.39,0,3.59,0h0c1.24,0,2.49,0,3.73,0,.3.01.52-.1.55-.24.02-.08,0-.32-.55-.32Z"/>
    <path class="cls-1" d="M126.74,88.72c.95,0,1.9,0,2.86,0,1.49,0,2.98,0,4.47.01.23,0,.58.02.58.3,0,.32-.35.25-.58.25-1.2,0-2.39,0-3.59,0h0c-1.24,0-2.49,0-3.73,0-.3.01-.52-.1-.55-.24-.02-.08,0-.32.55-.32Z"/>
    <path class="cls-1" d="M74,89.08c-.13-.06-.23-.17-.39-.29.98-.74,1.21-1.24.98-2.05-.23-.77-.87-1.21-1.93-1.27-.68-.03-1.37-.02-2.05-.04-.44-.01-.69.16-.7.63,0,1.98-.03,3.95-.03,5.93,0,.44.21.68.68.66.98-.04,1.95-.1,2.91-.29.71-.14,1.31-.83,1.41-1.6.09-.75-.14-1.35-.87-1.68ZM71.65,86.19c1.29.02,2.04.4,2.07,1.14.03.74-.64,1.22-1.74,1.24-1,.02-1.04-.02-1.06-1.22,0-.53-.21-1.17.73-1.16ZM72.71,91.66c-.22.02-.44,0-.79,0-.24-.07-.84.25-.96-.24-.15-.58-.2-1.25.06-1.85.08-.19.28-.27.48-.27.41,0,.83-.02,1.24.02.74.08,1.17.52,1.17,1.15,0,.67-.45,1.13-1.21,1.19Z"/>
    <path class="cls-1" d="M112.13,85.52c-.33-.06-.77-.09-.83-.09-.34-.02-.63,0-.84,0h0c-.34.02-.69.06-1.02.04-.59-.04-.79.29-.79.79,0,1.88,0,3.76,0,5.64,0,.5.23.76.76.76.91,0,1.81-.06,2.69-.23,1.71-.32,2.69-1.59,2.71-3.47.02-1.75-1.02-3.12-2.67-3.44ZM113.72,89.63c-.27,1.63-2.06,2.62-3.65,2.01-.15-.06-.24-.16-.24-.16-.18-.2-.18-.48-.17-.61-.01-.68-.02-1.36-.03-2.05h0c0-.97,0-.99,0-.99,0-.32,0-.58,0-.99,0-.37.14-.62.54-.63.54,0,1.08-.05,1.6.04,1.5.25,2.24,1.58,1.95,3.38Z"/>
    <path class="cls-1" d="M59.35,91.8c-.64-.5-.81-1.04-.28-1.76.22-.31.36-.87-.03-1.04-.49-.21-.55.36-.68.72-.13.36-.37.66-.73.28-.72-.76-1.42-1.54-2.07-2.37-.38-.48-.17-.99.26-1.35.43-.35.87-.24,1.25.13.12.12.22.26.34.38.15.16.34.21.53.1.18-.11.14-.31.08-.47-.06-.18-.15-.36-.28-.5-.56-.63-1.64-.74-2.42-.26-.77.47-1.04,1.3-.65,2.16.22.48.28.82-.22,1.19-.93.69-1.13,1.56-.66,2.49.52,1.02,1.48,1.45,2.57,1.13.32-.1.63-.26.93-.42.57-.29,1.11-.38,1.6.14.25.27.56.22.88.14-.05-.29-.2-.52-.41-.68ZM55.56,91.8c-.55-.11-.94-.39-1.04-.97-.11-.64.12-1.14.64-1.52.23-.17.46-.11.66.08.6.57,1.19,1.13,1.79,1.71-.63.51-1.25.86-2.04.7Z"/>
    <path class="cls-1" d="M44.09,92.11c-.8-1.93-1.61-3.87-2.41-5.8-.16-.38-.3-.84-.8-.84-.51,0-.72.41-.89.84-.72,1.78-1.45,3.56-2.18,5.34-.05.13-.09.22-.13.41-.06.24-.05.32,0,.39.06.08.16.11.2.12.03,0,.14.03.26,0,.13-.04.21-.15.24-.19.25-.34.55-.94.63-1.1.08-.16.21-.38.4-.64.33,0,.66,0,.99-.01.38,0,.76,0,1.14,0h.75c.2.3.33.56.42.74.1.2.18.36.35.67,0,0,.08.16.31.4.08.09.15.1.17.11.19.08.37.03.43,0,.08-.03.18-.06.21-.15.02-.05.01-.09,0-.12-.03-.07-.07-.13-.09-.2ZM41.43,89.86c-.19,0-.49,0-.89,0-.3,0-.62,0-.95,0,.2-.55.38-1.06.57-1.58.2-.52.4-1.04.69-1.77.4.78.77,1.69,1.06,2.71.06.22.11.43.16.64-.14,0-.37,0-.64,0Z"/>
    <path class="cls-1" d="M134,33.57c0,1.57-1.23,2.79-2.83,2.79s-2.84-1.23-2.84-2.79,1.26-2.76,2.84-2.76,2.83,1.23,2.83,2.76ZM129.03,33.57c0,1.23.91,2.21,2.15,2.21s2.1-.98,2.1-2.19-.89-2.22-2.12-2.22-2.14.99-2.14,2.21ZM130.73,35.02h-.64v-2.76c.25-.05.61-.08,1.06-.08.52,0,.76.08.96.2.15.12.27.34.27.61,0,.3-.24.54-.57.64v.03c.27.1.42.3.51.67.08.42.13.59.2.69h-.69c-.08-.1-.13-.35-.22-.67-.05-.3-.22-.44-.57-.44h-.3v1.11ZM130.75,33.45h.3c.35,0,.64-.12.64-.4,0-.25-.19-.42-.59-.42-.17,0-.29.02-.35.03v.79Z"/>
  </g>
  <g>
    <path class="cls-1" d="M41.18,105.74h.83v4.37h3.01l-.12.7h-3.72v-5.07Z"/>
    <path class="cls-1" d="M55.66,108.26c0,1.43-.96,2.66-2.7,2.66s-2.67-1.17-2.67-2.66c0-1.4,1.05-2.63,2.7-2.63s2.67,1.23,2.67,2.63ZM51.18,108.24c0,1.06.62,1.99,1.82,1.99s1.77-.92,1.77-1.96-.61-1.95-1.82-1.95c-1.14,0-1.77.9-1.77,1.92Z"/>
    <path class="cls-1" d="M62.03,110.81v-5.07h1c1.21,1.73,2.59,3.5,2.88,4.05h.01c-.05-.63-.04-1.47-.04-2.29v-1.75h.78v5.07h-.94c-.69-.95-2.59-3.64-2.94-4.22h-.01c.04.65.04,1.37.04,2.26v1.96h-.78Z"/>
    <path class="cls-1" d="M73.2,105.74h2.13c1.66,0,2.61,1.08,2.61,2.45,0,1.63-1.16,2.62-2.62,2.62h-2.12v-5.07ZM74.04,110.13h1.13c1.26,0,1.88-.77,1.88-1.92s-.69-1.79-1.83-1.8h-1.18v3.72Z"/>
    <path class="cls-1" d="M89.4,108.26c0,1.43-.96,2.66-2.7,2.66s-2.67-1.17-2.67-2.66c0-1.4,1.05-2.63,2.7-2.63s2.67,1.23,2.67,2.63ZM84.92,108.24c0,1.06.62,1.99,1.82,1.99s1.77-.92,1.77-1.96-.61-1.95-1.82-1.95c-1.14,0-1.77.9-1.77,1.92Z"/>
    <path class="cls-1" d="M95.91,110.81v-5.07h1c1.21,1.73,2.59,3.5,2.88,4.05h.01c-.05-.63-.04-1.47-.04-2.29v-1.75h.78v5.07h-.94c-.69-.95-2.59-3.64-2.94-4.22h-.01c.04.65.04,1.37.04,2.26v1.96h-.78Z"/>
  </g>
</svg>