<?xml version="1.0" encoding="UTF-8"?>
<svg id="Layer_1" data-name="Layer 1" xmlns="http://www.w3.org/2000/svg" viewBox="0 0 141.73 141.73">
  <defs>
    <style>
      .cls-1 {
        fill: #231f20;
      }

      .cls-2 {
        fill: #7bbf43;
      }
    </style>
  </defs>
  <g>
    <path class="cls-2" d="M91.96,91.72c-2.43,0-4.87-.02-7.3-.03-.23,0-.45-.03-.65-.07-1.46.05-2.97-.86-2.99-2.74-.09-8.22-.18-16.43-.28-24.65-.04-3.56,5.32-3.65,5.66-.29,1.73-.1,3.46-.19,5.19-.29,3.65-.21,3.63,5.47,0,5.67-1.7.1-3.41.19-5.11.29.03,2.27.05,4.54.08,6.82.03,0,.05,0,.08,0,1.06-.04,2.12-.08,3.18-.12,1.59-.06,2.77,1.35,2.84,2.84.07,1.57-1.36,2.78-2.84,2.84-1.06.04-2.12.08-3.18.12,0,0-.01,0-.02,0,.01,1.31.03,2.62.04,3.92,1.77,0,3.54.01,5.3.02,3.66.02,3.65,5.69,0,5.68Z"/>
    <path class="cls-2" d="M94.7,81.35c.33-7.42.66-14.84.99-22.25.08-1.91,1.37-2.93,2.7-3.06.45-.45,1.07-.72,1.88-.66,13.2,2.25,15.09,7.53,14.22,17-.79,8.58-8.2,13.96-15.28,11.41-1.7,1.34-4.65.54-4.52-2.44ZM101.25,61.88c-.23,5.24-.47,10.48-.7,15.73.04.02.07.03.11.05,4.17,2.18,8.27-2.12,8.25-6.76-.02-4.88,0-8.19-7.65-9.02Z"/>
  </g>
  <path class="cls-1" d="M79.31,76.26c.42,3.63-5.21,4.38-5.63.75-.72-6.26-1.44-12.52-2.15-18.78-1.32.08-2.63.16-3.95.23-3.63.21-4.4-5.41-.75-5.63,1.84-.11,3.69-.22,5.53-.33.91-.59,2.16-.68,3.1-.18,1.9-.11,3.79-.22,5.69-.34,3.63-.22,4.4,5.41.75,5.62-1.57.09-3.13.19-4.7.28.7,6.12,1.4,12.24,2.11,18.37Z"/>
  <path class="cls-1" d="M37.48,60.09c-2.95,7.93-5.52,16-7.7,24.18-.7,2.64-4.84,2.77-5.47,0-1.07-4.69-2.14-9.39-3.21-14.08-1.64,4.95-3.13,9.96-4.48,15-.7,2.64-4.84,2.77-5.47,0-1.8-7.87-3.59-15.74-5.39-23.6-.81-3.56,4.66-5.07,5.47-1.51.99,4.34,1.98,8.69,2.98,13.03,1.43-4.58,2.97-9.12,4.65-13.61.02-.05.04-.09.06-.14.58-2.57,4.78-3.29,5.49-.2.99,4.35,1.98,8.69,2.98,13.03,1.43-4.58,2.97-9.12,4.65-13.61,1.26-3.4,6.75-1.92,5.47,1.51Z"/>
  <path class="cls-1" d="M42.05,76.35c-.17-.01-.34-.04-.51-.08-.66,1.93-1.33,3.85-1.99,5.78-1.18,3.44-6.66,1.95-5.47-1.51,2.66-7.74,5.32-15.48,7.99-23.22,1-2.91,5.08-2.29,5.59.06.65.29,1.17.88,1.37,1.81,1.53,7.23,3.06,14.45,4.59,21.68.53,2.48-2.85,5.18-4.74,2.76-.12-.15-.24-.31-.36-.46-.52-.67-.7-1.4-.64-2.09-.31-1.45-.62-2.91-.92-4.36-.06,0-.13,0-.19,0-1.57-.12-3.13-.25-4.7-.37ZM43.43,70.78c.76.06,1.53.12,2.29.18-.3-1.41-.6-2.82-.9-4.24-.46,1.35-.93,2.7-1.39,4.05Z"/>
  <path class="cls-1" d="M63.89,63.21c5.68,1.23,7.37,7.09,7.81,12.13.32,3.64-5.36,3.61-5.67,0-.19-2.17-.55-5.7-3.05-6.51-2.5-.82-2.82,2.6-2.11,4.18,2.19,4.9,8.86,5.54,11.13,10.53,2.15,4.72-1.28,9.94-6.43,10.12-5.75.2-9.12-4.8-10.98-9.55-1.34-3.41,4.15-4.87,5.47-1.51.83,2.11,2.44,5.48,5.18,5.38,3.24-.12,1.09-3.14-.34-4.14-4.37-3.07-9.38-5.73-10.05-11.64-.59-5.13,3.65-10.16,9.04-9Z"/>
  <path class="cls-1" d="M14.12,99.82c-1.07,0-2.07-.68-2.43-1.75-.45-1.34.28-2.79,1.62-3.24,1.46-.49,3.05-1.05,4.72-1.65,5.84-2.08,12.47-4.43,19.23-5.54,4.85-.79,8.96-1.09,13.24.05,1.37.36,2.18,1.77,1.82,3.14-.36,1.37-1.77,2.18-3.14,1.82-3.4-.9-6.9-.63-11.1.05-6.31,1.03-12.7,3.3-18.34,5.31-1.7.61-3.31,1.18-4.82,1.68-.27.09-.54.13-.81.13Z"/>
  <path class="cls-1" d="M114.05,56.42c.92-2.99,2.3-3.2,6.32-1.02.35-1.72.62-3.41,1.05-5.06.47-1.83,1.05-3.64,1.62-5.44.16-.51.45-.99.76-1.43.44-.61,1.01-1.12,1.83-.74.8.37.9,1.05.69,1.83-.42,1.57-.85,3.14-1.23,4.72-.16.67-.79,2.07.11,2.23.45.08.67-.66.84-1.06.91-2.17,1.73-4.37,2.66-6.53.28-.64.71-1.29,1.24-1.73.33-.28,1.07-.38,1.45-.2.39.18.82.82.8,1.24-.07.97-.32,1.96-.64,2.89-.53,1.54-1.2,3.03-1.73,4.56-.18.53-.56,1.73.19,1.85.36.05.62-.77.86-1.28.54-1.14,1.19-2.24,1.84-3.32.8-1.32,1.66-1.73,2.61-1.35.87.35,1.04,1.32.22,2.85-3.39,6.33-6.04,12.95-7.8,19.91-.89,3.5-1.72,7.02-2.51,10.54-.63,2.8-1.58,2.27-3.47,1.53-.58-.23-1.11-.61-1.63-.97-3.05-2.11-3.61-3.82-2.74-7.44.68-2.8,1.48-5.63,1.67-8.48.3-4.62-.76-6.05-5.01-8.11Z"/>
  <g>
    <path class="cls-1" d="M112.04,93.25c-.23-.76-.46-1.51-.68-2.26-.27-.88-.54-1.77-.79-2.65-.19-.67-.02-1.26.44-1.76,1.27-1.38,2.56-2.74,3.83-4.12.58-.62,1.26-.79,2.07-.59,1.53.38,3.07.73,4.61,1.09.05.01.09.02.11.03-.23.13-.5.23-.72.4-.27.21-.5.47-.73.72-2.43,2.59-4.86,5.18-7.29,7.78-.2.22-.4.44-.56.69-.13.2-.19.44-.29.67Z"/>
    <path class="cls-1" d="M125.08,92.59c-.47.49-.97,1.02-1.47,1.54-.62.66-1.23,1.32-1.86,1.98-.18.19-.39.37-.62.51-.3.18-.63.22-.99.14-1.97-.46-3.95-.91-5.93-1.34-1.27-.27-1.92-1.9-.99-2.95.57-.65,1.17-1.27,1.77-1.89.04-.05.14-.07.21-.06,1.83.43,3.67.86,5.5,1.3,1.14.27,2.27.55,3.41.79.31.06.65-.01.97-.02Z"/>
    <path class="cls-1" d="M125.12,91.04c-.42.6-1.14.88-1.87.71-.37-.09-.75-.17-1.13-.25v-.02c-.4-.09-.8-.19-1.2-.27-.13-.03-.22-.08-.27-.18-.37-1.2-.74-2.41-1.1-3.61-.11-.35-.21-.7-.31-1.05-.02-.06,0-.15.04-.19.57-.62,1.13-1.25,1.74-1.84,1.02-.98,2.56-.61,3.02.72.05.14.09.28.14.42.13.44.26.89.4,1.33.26.85.52,1.7.78,2.55.18.59.13,1.16-.23,1.68Z"/>
  </g>
</svg>